<svg xmlns="http://www.w3.org/2000/svg" width="76" height="76" viewBox="0 0 76 76">
  <g id="Charlotte_Smith" data-name="Charlotte Smith" transform="translate(-2125.625 -449.737)">
    <g id="Group_526" data-name="Group 526" transform="translate(2125.625 449.737)">
      <g id="Group_525" data-name="Group 525" transform="translate(0 0)">
        <path id="Path_360" data-name="Path 360" d="M2201.625,487.737a38,38,0,1,1-38-38A37.731,37.731,0,0,1,2201.625,487.737Z" transform="translate(-2125.625 -449.737)" fill="#ffe7d7"/>
      </g>
    </g>
    <g id="Group_538" data-name="Group 538" transform="translate(2130.148 455.306)">
      <g id="Group_528" data-name="Group 528" transform="translate(0 47.375)">
        <g id="Group_527" data-name="Group 527">
          <path id="Path_361" data-name="Path 361" d="M2151.223,752.394a30.663,30.663,0,0,1,5.145-1.155l11.3-1.491,3.011-.4h33.243a30.406,30.406,0,0,1,14.038,3.442,38.006,38.006,0,0,1-66.734-.395Z" transform="translate(-2151.223 -749.347)" fill="#ff7867"/>
        </g>
      </g>
      <g id="Group_535" data-name="Group 535" transform="translate(12.115 0)">
        <g id="Group_530" data-name="Group 530" transform="translate(9.346 12.176)">
          <g id="Group_529" data-name="Group 529">
            <path id="Path_362" data-name="Path 362" d="M2293.239,581.581s7.472-.243,6.583-9.462c-.987-10.235-3.069-15.895-3.069-15.895s-9.134-6.327-9-6.063-8.178,16.49-8.178,16.49a4.982,4.982,0,0,0-3.786-.529c-1.484.444-2.877,1.341-3.094,2.875-.2,1.444.517,3.838,3.481,5.452v15.617h18.161Z" transform="translate(-2272.669 -550.153)" fill="#7e5251"/>
          </g>
        </g>
        <g id="Group_532" data-name="Group 532">
          <g id="Group_531" data-name="Group 531">
            <path id="Path_363" data-name="Path 363" d="M2230.439,516.057s-6.246,1.4-9.389-3.59a7.718,7.718,0,0,1-1.164-5.412,5.743,5.743,0,0,1,2.342-3.79s-3.445-3.3-1.165-7.436a5.574,5.574,0,0,1,6.32-2.746s-3.267-7.24,3.75-10.906c6.9-3.6,10.788,4.484,10.788,4.484s.362-1.87,2.039-1.524,1.314,2.5,1.314,2.5,3.638-5.455,10.808-1.238a11.753,11.753,0,0,1,5.125,13.891s-1.861,6.539-5.917,7.677a61.43,61.43,0,0,0-1.594-6.976s-4.244,1.74-8.135-2.534c0,0,.126,10.417-9.521,11.466a5.4,5.4,0,0,0-1.125-.44,4.191,4.191,0,0,0-4.881,5.77C2230.149,515.51,2230.283,515.777,2230.439,516.057Z" transform="translate(-2219.783 -481.251)" fill="#464646"/>
          </g>
        </g>
        <g id="Group_534" data-name="Group 534" transform="translate(19.542 40.861)">
          <g id="Group_533" data-name="Group 533">
            <path id="Path_364" data-name="Path 364" d="M2340.746,715.226s-4.828,1.03-10.374-2.743c0,0,2.633,5.229,10.75,4.776Z" transform="translate(-2330.372 -712.483)" fill="#4d3232"/>
          </g>
        </g>
      </g>
      <g id="Group_537" data-name="Group 537" transform="translate(22.879 44.365)">
        <g id="Group_536" data-name="Group 536">
          <path id="Path_365" data-name="Path 365" d="M2281.243,735.475l-.183-3.167,20.766.974.609,9.561-21.74-1.522Z" transform="translate(-2280.695 -732.308)" fill="#ff7867"/>
        </g>
      </g>
    </g>
  </g>
</svg>
