<svg xmlns="http://www.w3.org/2000/svg" width="76" height="76" viewBox="0 0 76 76">
  <g id="Danielle_Lopez" data-name="Danielle Lopez" transform="translate(-132.295 -981.106)">
    <g id="Group_540" data-name="Group 540" transform="translate(132.295 981.106)">
      <g id="Group_539" data-name="Group 539" transform="translate(0 0)">
        <path id="Path_366" data-name="Path 366" d="M208.295,1019.106a38,38,0,0,1-6.738,21.616.126.126,0,0,0-.029.037,38.211,38.211,0,0,1-13.358,11.89c-.767.409-1.556.8-2.36,1.154a37.612,37.612,0,0,1-9.244,2.784c-.526.088-1.052.161-1.586.227a36.738,36.738,0,0,1-4.684.292,37.817,37.817,0,0,1-12.021-1.944c-.248-.081-.49-.161-.731-.256h-.007c-.124-.044-.256-.095-.38-.139a37.682,37.682,0,0,1-7.037-3.457q-.691-.428-1.359-.9a37.953,37.953,0,0,1-10.56-10.969c-.066-.095-.131-.2-.19-.292a37.578,37.578,0,0,1-3.639-7.637c-.058-.168-.11-.329-.168-.5a38,38,0,1,1,74.092-11.912Z" transform="translate(-132.295 -981.106)" fill="#ffe7d7"/>
      </g>
    </g>
    <g id="Group_561" data-name="Group 561" transform="translate(134.202 990.017)">
      <g id="Group_542" data-name="Group 542" transform="translate(28.137 11.01)">
        <g id="Group_541" data-name="Group 541">
          <path id="Path_367" data-name="Path 367" d="M328.114,1099.288c.607,5.242.619,10.442-2.083,15.169-1.794,3.139-5.692,5.125-9.21,5.474-5.689.565-10.734-2.848-13.546-7.6l-.958-17.082,25.166-1.412Z" transform="translate(-302.316 -1093.835)" fill="#ffcec8"/>
        </g>
      </g>
      <g id="Group_544" data-name="Group 544" transform="translate(0 0)">
        <g id="Group_543" data-name="Group 543">
          <path id="Path_368" data-name="Path 368" d="M197.217,1049.688h-.029c-.461.007-5.737-.015-8.214-4.655,0,0-1.769,7.922-13.125,8.345-.132.007-.271.015-.409.015l-3.223,7.571-.037.066v.007l-1.885,14.908-.037.351-.183,1.425-2.653,13.577-.994,5.123h-.007c-.124-.044-.256-.095-.38-.139a37.682,37.682,0,0,1-7.037-3.457q-.691-.428-1.359-.9a37.953,37.953,0,0,1-10.56-10.969c-.066-.095-.131-.2-.19-.292a37.578,37.578,0,0,1-3.639-7.637c-.058-.168-.11-.329-.168-.5a32.893,32.893,0,0,1,8.645-6.2,23.039,23.039,0,0,0,10.779-10.771,22.673,22.673,0,0,0,2.01-7.088c1.235-10.677,5.948-18.05,20.44-16.808C199.555,1032.924,197.217,1049.688,197.217,1049.688Z" transform="translate(-143.089 -1031.531)" fill="#864a22"/>
        </g>
      </g>
      <g id="Group_546" data-name="Group 546" transform="translate(14.557 44.414)">
        <g id="Group_545" data-name="Group 545">
          <path id="Path_369" data-name="Path 369" d="M267.317,1284.072l-2.441,17.012c-.767.409-1.556.8-2.36,1.154a37.611,37.611,0,0,1-9.244,2.784c-.526.088-1.052.161-1.586.227a36.738,36.738,0,0,1-4.684.292,37.817,37.817,0,0,1-12.021-1.944c-.248-.081-.49-.161-.731-.256h-.007c-.124-.044-.256-.095-.38-.139a37.683,37.683,0,0,1-7.037-3.457q-.691-.428-1.359-.9l.533-15.982,3.5.1h.007l2.368.073,6.1.176h.1l14.879.438,6.526.19.636.022Z" transform="translate(-225.466 -1282.866)" fill="#545ed7"/>
        </g>
      </g>
      <g id="Group_548" data-name="Group 548" transform="translate(25.383 20.685)">
        <g id="Group_547" data-name="Group 547">
          <path id="Path_370" data-name="Path 370" d="M286.736,1153.231a4.4,4.4,0,1,0,4.146-4.639A4.4,4.4,0,0,0,286.736,1153.231Z" transform="translate(-286.729 -1148.585)" fill="#ffcec8"/>
        </g>
      </g>
      <g id="Group_550" data-name="Group 550" transform="translate(42.363 44.406)">
        <g id="Group_549" data-name="Group 549">
          <path id="Path_371" data-name="Path 371" d="M407.809,1289.123a.124.124,0,0,0-.029.037,38.211,38.211,0,0,1-13.358,11.89c-.767.409-1.556.8-2.36,1.154a37.612,37.612,0,0,1-9.244,2.784c.57-2.66,1.206-5.2,1.842-7.534v-.007c1.776-6.555,3.6-11.6,4.37-13.636.234-.607.365-.936.38-.979v-.007l5.963.146a16.41,16.41,0,0,1,12.211,5.883Z" transform="translate(-382.817 -1282.824)" fill="#545ed7"/>
        </g>
      </g>
      <g id="Group_552" data-name="Group 552" transform="translate(3.997 44.406)">
        <g id="Group_551" data-name="Group 551">
          <path id="Path_372" data-name="Path 372" d="M184.666,1303.169a37.683,37.683,0,0,1-7.037-3.457q-.691-.428-1.359-.9a37.954,37.954,0,0,1-10.56-10.969,31.985,31.985,0,0,1,3.142-2.645,12.126,12.126,0,0,1,7.2-2.375h6.6v.007c.007.029.014.08.029.175.146,1,.84,6.051,1.483,13.446v.007C184.345,1298.528,184.513,1300.772,184.666,1303.169Z" transform="translate(-165.71 -1282.824)" fill="#545ed7"/>
        </g>
      </g>
      <g id="Group_554" data-name="Group 554" transform="translate(26.983 28.862)">
        <g id="Group_553" data-name="Group 553">
          <path id="Path_373" data-name="Path 373" d="M310.805,1203.146l.042,8.193-15.064.845,1.03-17.326Z" transform="translate(-295.783 -1194.859)" fill="#ffcec8"/>
        </g>
      </g>
      <g id="Group_556" data-name="Group 556" transform="translate(32.568 33.752)">
        <g id="Group_555" data-name="Group 555">
          <path id="Path_374" data-name="Path 374" d="M336.829,1225.931a13.542,13.542,0,0,1-9.437-3.4s1.559,4.215,9.448,5.614Z" transform="translate(-327.392 -1222.534)" fill="#ffb1a8"/>
        </g>
      </g>
      <g id="Group_558" data-name="Group 558" transform="translate(18.308 44.416)">
        <g id="Group_557" data-name="Group 557">
          <path id="Path_375" data-name="Path 375" d="M277.74,1285.951a15.523,15.523,0,1,1-31.047,0,16.035,16.035,0,0,1,.3-3.072h30.442A16.037,16.037,0,0,1,277.74,1285.951Z" transform="translate(-246.693 -1282.879)" fill="#ffcec8"/>
        </g>
      </g>
      <g id="Group_560" data-name="Group 560" transform="translate(17.839 43.947)">
        <g id="Group_559" data-name="Group 559">
          <path id="Path_376" data-name="Path 376" d="M260.025,1299.766a16.01,16.01,0,0,1-15.986-16,16.587,16.587,0,0,1,.311-3.162.469.469,0,0,1,.921.18,15.631,15.631,0,0,0-.294,2.982,15.055,15.055,0,1,0,30.109,0,15.634,15.634,0,0,0-.294-2.982.469.469,0,0,1,.921-.18,16.586,16.586,0,0,1,.311,3.162A16.017,16.017,0,0,1,260.025,1299.766Z" transform="translate(-244.039 -1280.227)" fill="#fff"/>
        </g>
      </g>
    </g>
  </g>
</svg>
