<svg xmlns="http://www.w3.org/2000/svg" width="76" height="76" viewBox="0 0 76 76">
  <g id="Ella_Jensen" data-name="Ella Jensen" transform="translate(-1627.292 -981.106)">
    <g id="Group_505" data-name="Group 505" transform="translate(1627.292 981.106)">
      <g id="Group_504" data-name="Group 504" transform="translate(0 0)">
        <path id="Path_351" data-name="Path 351" d="M1703.292,1019.106a38,38,0,0,1-6.738,21.616.129.129,0,0,0-.029.037,38.2,38.2,0,0,1-13.358,11.889c-.767.409-1.556.8-2.36,1.155a37.6,37.6,0,0,1-9.244,2.784c-.526.088-1.052.161-1.586.227a36.685,36.685,0,0,1-4.684.292,37.806,37.806,0,0,1-12.021-1.944c-.248-.08-.49-.161-.731-.255h-.007c-.124-.044-.256-.1-.38-.139-.234-.088-.468-.176-.7-.27a37.523,37.523,0,0,1-6.336-3.186q-.691-.427-1.359-.9a37.953,37.953,0,0,1-10.56-10.969c-.066-.095-.131-.2-.19-.292a37.586,37.586,0,0,1-3.639-7.636c-.058-.168-.11-.329-.168-.5-.1-.307-.2-.614-.292-.921a38,38,0,1,1,74.385-10.991Z" transform="translate(-1627.292 -981.106)" fill="#ffdcb9"/>
      </g>
    </g>
    <g id="Group_523" data-name="Group 523" transform="translate(1628.921 992.155)">
      <g id="Group_512" data-name="Group 512" transform="translate(0)">
        <g id="Group_507" data-name="Group 507" transform="translate(25.583 8.029)">
          <g id="Group_506" data-name="Group 506">
            <path id="Path_352" data-name="Path 352" d="M1806.934,1099.191c.984,6.05.356,20.219-8.184,19.9l-.758,9.9h-13.456l1.212-12.692s-5.851-2.393-1.766-7.17c0,0-3.206-19.322,16.827-17.2,0,0,.1.023.263.073A8.662,8.662,0,0,1,1806.934,1099.191Z" transform="translate(-1782.534 -1091.776)" fill="#ffcec8"/>
          </g>
        </g>
        <g id="Group_509" data-name="Group 509">
          <g id="Group_508" data-name="Group 508">
            <path id="Path_353" data-name="Path 353" d="M1690.763,1105.873c-1.057.877-1.8,1.386-1.8,1.386l-5.411-6.935-1.313-1.68-5.207-6.67.292-2.41.095-.752.532-4.385.292-2.358a7.286,7.286,0,0,0,5.907-3.4.62.62,0,0,0,.073-.118,14.991,14.991,0,0,0,2.028-6.05c0-.015.007-.037.007-.052a22.547,22.547,0,0,0,.182-3.862c-.569-8.512-5.506-11.614-5.506-11.614s.2,2.314-3.238,4.134c-.139.074-.277.147-.409.221a7.052,7.052,0,0,0-3.661,5.424,5.949,5.949,0,0,1-4.463,5.313c-5.091-2.189-5.732,2.859-5.732,2.859-.131,3.6,2.056,4.127,2.056,4.127l-.9,9.757-.029.369-.211,2.277-.161.516-3.668,11.917-1.021,3.324-.562,1.828a37.3,37.3,0,0,1-6.323-3.213q-.689-.431-1.356-.907a38.1,38.1,0,0,1-10.538-11.062c-.066-.1-.131-.2-.19-.295a38.092,38.092,0,0,1-3.632-7.7c-.058-.17-.109-.332-.168-.5-.1-.31-.2-.619-.292-.929,6.987.531,17.379-3.464,15.563-11.423-.117-.538-.219-1.105-.3-1.695a23.984,23.984,0,0,1,3.194-15.558c2.071-3.442,5.163-6.971,9.539-8.261,9.531-2.823,14.046,2.852,14.666,4.326s1.5.626,1.5.626.882-3.162,2.312-2.226.489,2.727.489,2.727c7.92.87,8.963,9.669,8.343,13.324a80.809,80.809,0,0,0-.605,10.354,3.035,3.035,0,0,0,2.582,3.176,1.9,1.9,0,0,1,.977.405c1.429.936.678,2.41-.088,3.515a1.6,1.6,0,0,0-.357,1.091,1.479,1.479,0,0,0,.292.634c.365.516.86.929,1.233,1.444a1.825,1.825,0,0,1,.139,2.233,2.725,2.725,0,0,1-.408.413,2.28,2.28,0,0,0-.408.435C1701.14,1095.99,1694.263,1102.976,1690.763,1105.873Z" transform="translate(-1636.432 -1046.722)" fill="#464646"/>
          </g>
        </g>
        <g id="Group_511" data-name="Group 511" transform="translate(34.907 33.472)">
          <g id="Group_510" data-name="Group 510">
            <path id="Path_354" data-name="Path 354" d="M1841.569,1236.422a16.97,16.97,0,0,1-6.931-1.875s1.121,3.527,6.8,4.254Z" transform="translate(-1834.638 -1234.547)" fill="#ffb6ad"/>
          </g>
        </g>
      </g>
      <g id="Group_514" data-name="Group 514" transform="translate(14.604 42.083)">
        <g id="Group_513" data-name="Group 513">
          <path id="Path_355" data-name="Path 355" d="M1762.669,1284.081l-2.277,15.852-.184,1.3c-.774.413-1.57.8-2.38,1.164a37.92,37.92,0,0,1-9.323,2.808c-.531.089-1.061.162-1.6.229a37.04,37.04,0,0,1-4.724.295,38.128,38.128,0,0,1-12.123-1.96c-.251-.081-.494-.162-.737-.258h-.007c-.125-.044-.258-.1-.383-.14-.236-.089-.472-.177-.707-.273a37.84,37.84,0,0,1-6.39-3.213q-.7-.431-1.371-.906l.538-16.117,3.53.1h.007l2.388.074,6.154.177h.1l.612.015.111.007,12.9.383.361.007,1.017.03,6.581.191.641.022Z" transform="translate(-1720.463 -1282.865)" fill="#545ed7"/>
        </g>
      </g>
      <g id="Group_516" data-name="Group 516" transform="translate(18.428 42.088)">
        <g id="Group_515" data-name="Group 515">
          <path id="Path_356" data-name="Path 356" d="M1772.988,1286a15.655,15.655,0,1,1-31.31,0,16.15,16.15,0,0,1,.3-3.1h30.7A16.17,16.17,0,0,1,1772.988,1286Z" transform="translate(-1741.678 -1282.897)" fill="#ffcec8"/>
        </g>
      </g>
      <g id="Group_518" data-name="Group 518" transform="translate(17.956 44.714)">
        <g id="Group_517" data-name="Group 517">
          <path id="Path_357" data-name="Path 357" d="M1755.147,1314.235a16.146,16.146,0,0,1-16.122-16.134.473.473,0,0,1,.946,0,15.182,15.182,0,1,0,30.364,0,.473.473,0,0,1,.946,0A16.152,16.152,0,0,1,1755.147,1314.235Z" transform="translate(-1739.025 -1297.628)" fill="#fff"/>
        </g>
      </g>
      <g id="Group_520" data-name="Group 520" transform="translate(42.37 42.079)">
        <g id="Group_519" data-name="Group 519">
          <path id="Path_358" data-name="Path 358" d="M1903.006,1289.195a.129.129,0,0,0-.03.037,38.532,38.532,0,0,1-13.472,11.99c-.774.413-1.57.8-2.38,1.164a37.931,37.931,0,0,1-9.323,2.808c.575-2.682,1.216-5.24,1.857-7.6v-.007c1.791-6.611,3.633-11.7,4.407-13.752.236-.612.369-.943.383-.987v-.008l6.014.147a16.549,16.549,0,0,1,12.314,5.932Z" transform="translate(-1877.802 -1282.842)" fill="#ff7867"/>
        </g>
      </g>
      <g id="Group_522" data-name="Group 522" transform="translate(4.326 42.075)">
        <g id="Group_521" data-name="Group 521">
          <path id="Path_359" data-name="Path 359" d="M1679.823,1303.341c-.236-.088-.472-.177-.707-.273a37.85,37.85,0,0,1-6.39-3.213q-.7-.431-1.371-.907a38.274,38.274,0,0,1-10.649-11.062,32.293,32.293,0,0,1,3.169-2.668,12.228,12.228,0,0,1,7.259-2.4h6.655v.015c.007.029.015.081.029.17.147,1.01.848,6.1,1.5,13.56v.015c.133,1.467.25,3.022.369,4.658C1679.727,1301.926,1679.779,1302.626,1679.823,1303.341Z" transform="translate(-1660.706 -1282.824)" fill="#ff7867"/>
        </g>
      </g>
    </g>
  </g>
</svg>
