<svg xmlns="http://www.w3.org/2000/svg" width="76" height="76" viewBox="0 0 76 76">
  <g id="Josn_Paul" data-name="Josn Paul" transform="translate(-1128.96 -449.737)">
    <g id="Group_591" data-name="Group 591" transform="translate(1128.96 449.737)">
      <g id="Group_590" data-name="Group 590" transform="translate(0 0)">
        <path id="Path_387" data-name="Path 387" d="M1204.96,487.737a38,38,0,1,1-38-38A37.731,37.731,0,0,1,1204.96,487.737Z" transform="translate(-1128.96 -449.737)" fill="#ffe7d7"/>
      </g>
    </g>
    <g id="Group_607" data-name="Group 607" transform="translate(1133.483 454.289)">
      <g id="Group_593" data-name="Group 593" transform="translate(0 48.392)">
        <g id="Group_592" data-name="Group 592">
          <path id="Path_388" data-name="Path 388" d="M1154.558,752.394a30.666,30.666,0,0,1,5.145-1.155l11.3-1.491,3.011-.4h33.243a30.406,30.406,0,0,1,14.038,3.442,38.006,38.006,0,0,1-66.734-.395Z" transform="translate(-1154.558 -749.347)" fill="#ff7867"/>
        </g>
      </g>
      <g id="Group_595" data-name="Group 595" transform="translate(19.437 47.959)">
        <g id="Group_594" data-name="Group 594">
          <path id="Path_389" data-name="Path 389" d="M1291.243,747.135a13.462,13.462,0,0,1-26.691.139l3.144-.381Z" transform="translate(-1264.552 -746.894)" fill="#ffcec8"/>
        </g>
      </g>
      <g id="Group_597" data-name="Group 597" transform="translate(18.758 47.521)">
        <g id="Group_596" data-name="Group 596">
          <path id="Path_390" data-name="Path 390" d="M1274.7,757.545a14.153,14.153,0,0,1-13.982-12.215.679.679,0,0,1,1.346-.186,12.782,12.782,0,0,0,25.344-.131.68.68,0,0,1,1.349.17,14.181,14.181,0,0,1-12.936,12.317Q1275.254,757.545,1274.7,757.545Z" transform="translate(-1260.709 -744.419)" fill="#fff"/>
        </g>
      </g>
      <g id="Group_606" data-name="Group 606" transform="translate(11.47)">
        <g id="Group_599" data-name="Group 599" transform="translate(12.172 13.464)">
          <g id="Group_598" data-name="Group 598">
            <path id="Path_391" data-name="Path 391" d="M1307.532,582.008s5.434-2.488,5.092-11.2l-.48-11.708-7.135-7.411-13.07,7.8,1.438,8.586-5.026,6.708v14.06h19.183Z" transform="translate(-1288.349 -551.69)" fill="#ffcec8"/>
          </g>
        </g>
        <g id="Group_601" data-name="Group 601">
          <g id="Group_600" data-name="Group 600">
            <path id="Path_392" data-name="Path 392" d="M1231.651,517.2a11.852,11.852,0,0,1-6.926-3.251,3.908,3.908,0,0,1-1.045-3.457,2.061,2.061,0,0,1,2.326-1.76s-7.681-5.163-6.395-13.278c0,0,.651-4.253,6.261-1.842,0,0-4.591-5.139-1.134-10.219a3.608,3.608,0,0,1,5.209-.7s-.317-3.01,2.263-3.631,4.807,2.26,4.807,2.26.364-4.859,4.5-5.725,6.365,3.762,6.365,3.762a3.725,3.725,0,0,1,3.613-.481c1.833.889,1.2,3.257,1.2,3.257s3.99-1.33,5.934,1.711-1.287,6.78-1.287,6.78,8.223.888,7.352,8.875-8.772,9.067-8.772,9.067l-.251-6.29c.019.366-1.826.552-2.026.541a2.74,2.74,0,0,1-2.512-1.672,6.441,6.441,0,0,1-.142-1.734,4,4,0,0,0-2.085-3.616c-1.625-.691-2.933.577-2.971,2.175a14.8,14.8,0,0,0,.349,2.523c.19,1.268-.014,2.929-1.491,3.284a2.14,2.14,0,0,1-2.273-1.037c-.669-1.091-1.916-2.7-3.235-2.25-1.95.668-2.28,5.077-2.28,5.077l-5.371,6.474Z" transform="translate(-1219.467 -475.497)" fill="#ff9d5a"/>
          </g>
        </g>
        <g id="Group_603" data-name="Group 603" transform="translate(9.317 27.892)">
          <g id="Group_602" data-name="Group 602">
            <path id="Path_393" data-name="Path 393" d="M1281.148,638.155a4.483,4.483,0,1,1-4.136-4.806A4.483,4.483,0,0,1,1281.148,638.155Z" transform="translate(-1272.194 -633.337)" fill="#ffcec8"/>
          </g>
        </g>
        <g id="Group_605" data-name="Group 605" transform="translate(17.439 40.71)">
          <g id="Group_604" data-name="Group 604">
            <path id="Path_394" data-name="Path 394" d="M1332.069,708.945s-5.064,2.134-13.916-3.073c0,0,5.349,6.816,13.87,5.633Z" transform="translate(-1318.153 -705.872)" fill="#ffb1a8"/>
          </g>
        </g>
      </g>
    </g>
  </g>
</svg>
