<svg xmlns="http://www.w3.org/2000/svg" width="76" height="76" viewBox="0 0 76 76">
  <g id="Justin_Richardson" data-name="Justin Richardson" transform="translate(-132.295 -449.737)">
    <g id="Group_482" data-name="Group 482" transform="translate(132.295 449.737)">
      <g id="Group_481" data-name="Group 481" transform="translate(0 0)">
        <path id="Path_341" data-name="Path 341" d="M208.295,487.737a38,38,0,1,1-38-38A37.732,37.732,0,0,1,208.295,487.737Z" transform="translate(-132.295 -449.737)" fill="#ef7a85"/>
      </g>
    </g>
    <g id="Group_502" data-name="Group 502" transform="translate(136.819 462.209)">
      <g id="Group_487" data-name="Group 487" transform="translate(12.562 13.456)">
        <g id="Group_484" data-name="Group 484" transform="translate(0.479 2.773)">
          <g id="Group_483" data-name="Group 483">
            <path id="Path_342" data-name="Path 342" d="M237.789,615.839l-1.488-1.05c-.484-.323-.961-.631-1.453-.915s-.993-.548-1.514-.81l-1.648-.777a4.177,4.177,0,0,1,1.914-.049,5.694,5.694,0,0,1,3.283,1.913A4.2,4.2,0,0,1,237.789,615.839Z" transform="translate(-231.687 -612.152)" fill="#464646"/>
          </g>
        </g>
        <g id="Group_486" data-name="Group 486">
          <g id="Group_485" data-name="Group 485">
            <path id="Path_343" data-name="Path 343" d="M235.546,603.051a36.82,36.82,0,0,0-2.716-3.98,8.4,8.4,0,0,0-1.664-1.54,6.006,6.006,0,0,0-2.187-.88,3.58,3.58,0,0,1,2.586.11,5.517,5.517,0,0,1,2.112,1.591,7.975,7.975,0,0,1,1.313,2.22A7.334,7.334,0,0,1,235.546,603.051Z" transform="translate(-228.979 -596.459)" fill="#464646"/>
          </g>
        </g>
      </g>
      <g id="Group_489" data-name="Group 489" transform="translate(22.035 8.747)">
        <g id="Group_488" data-name="Group 488">
          <path id="Path_344" data-name="Path 344" d="M309.959,578.867s4.066,15.535-6.81,16.63l.726,7.653-19.314-.2-1.974-23.36,7.545-9.782,18.107.186Z" transform="translate(-282.587 -569.81)" fill="#ffcec8"/>
        </g>
      </g>
      <g id="Group_491" data-name="Group 491" transform="translate(17.925 0)">
        <g id="Group_490" data-name="Group 490">
          <path id="Path_345" data-name="Path 345" d="M267.7,541.153s1.051-9.8,6.688-9.945c3.966-.1,5.388,1.751,7.62,4.625a9.267,9.267,0,0,0,5.731,3.419c4.3.717,7.664-1.293,8.021-5.719.651-8.074-8.283-14.689-15.764-11.2-1.5.7-2.882,1.639-4.381,2.347a5.042,5.042,0,0,1-3.672.543,6.778,6.778,0,0,1-2.837-2.583,5.4,5.4,0,0,0-6.872-1.692,5.632,5.632,0,0,0-2.445,3.321c-.879,2.945-.242,6.555-.119,9.6.016.4.048,5.93.241,5.963Z" transform="translate(-259.329 -520.313)" fill="#464646"/>
        </g>
      </g>
      <g id="Group_493" data-name="Group 493" transform="translate(17.366 17.925)">
        <g id="Group_492" data-name="Group 492">
          <path id="Path_346" data-name="Path 346" d="M265.421,626.423a4.628,4.628,0,1,1-4.58-4.675A4.628,4.628,0,0,1,265.421,626.423Z" transform="translate(-256.167 -621.748)" fill="#ffcec8"/>
        </g>
      </g>
      <g id="Group_495" data-name="Group 495" transform="translate(0 40.473)">
        <g id="Group_494" data-name="Group 494">
          <path id="Path_347" data-name="Path 347" d="M157.894,752.394a30.659,30.659,0,0,1,5.145-1.155l11.3-1.491,3.011-.4H210.59a30.408,30.408,0,0,1,14.038,3.442,38.006,38.006,0,0,1-66.734-.395Z" transform="translate(-157.894 -749.347)" fill="#545ed7"/>
        </g>
      </g>
      <g id="Group_497" data-name="Group 497" transform="translate(32.822 30.637)">
        <g id="Group_496" data-name="Group 496">
          <path id="Path_348" data-name="Path 348" d="M353.4,697.483s-5.841.321-9.774-3.8c0,0,1.7,5.412,10,6.21Z" transform="translate(-343.63 -693.686)" fill="#ffb1a8"/>
        </g>
      </g>
      <g id="Group_499" data-name="Group 499" transform="translate(21.368 40.123)">
        <g id="Group_498" data-name="Group 498">
          <path id="Path_349" data-name="Path 349" d="M303.521,747.591a12.461,12.461,0,0,1-24.706.129l2.91-.353Z" transform="translate(-278.815 -747.368)" fill="#ffcec8"/>
        </g>
      </g>
      <g id="Group_501" data-name="Group 501" transform="translate(20.739 39.718)">
        <g id="Group_500" data-name="Group 500">
          <path id="Path_350" data-name="Path 350" d="M288.2,757.226a13.1,13.1,0,0,1-12.943-11.306.629.629,0,1,1,1.246-.172,11.832,11.832,0,0,0,23.459-.122.629.629,0,1,1,1.247.158,13.127,13.127,0,0,1-11.973,11.4C288.893,757.212,288.547,757.226,288.2,757.226Z" transform="translate(-275.255 -745.076)" fill="#fff"/>
        </g>
      </g>
    </g>
  </g>
</svg>
