<svg xmlns="http://www.w3.org/2000/svg" width="76" height="76" viewBox="0 0 76 76">
  <g id="Rubbi_Davis" data-name="Rubbi Davis" transform="translate(-630.628 -449.737)">
    <g id="Group_563" data-name="Group 563" transform="translate(630.628 449.737)">
      <g id="Group_562" data-name="Group 562" transform="translate(0 0)">
        <path id="Path_377" data-name="Path 377" d="M706.628,487.737a38,38,0,1,1-38-38A37.732,37.732,0,0,1,706.628,487.737Z" transform="translate(-630.628 -449.737)" fill="#ffe7d7"/>
      </g>
    </g>
    <g id="Group_589" data-name="Group 589" transform="translate(635.151 458.108)">
      <g id="Group_565" data-name="Group 565" transform="translate(0 44.573)">
        <g id="Group_564" data-name="Group 564">
          <path id="Path_378" data-name="Path 378" d="M656.226,752.394a30.658,30.658,0,0,1,5.145-1.155l11.3-1.491,3.011-.4h33.243a30.406,30.406,0,0,1,14.038,3.442,38.006,38.006,0,0,1-66.734-.395Z" transform="translate(-656.226 -749.347)" fill="#ff7867"/>
        </g>
      </g>
      <g id="Group_567" data-name="Group 567" transform="translate(19.437 44.14)">
        <g id="Group_566" data-name="Group 566">
          <path id="Path_379" data-name="Path 379" d="M792.911,747.135a13.462,13.462,0,0,1-26.691.139l3.144-.381Z" transform="translate(-766.22 -746.894)" fill="#ffcec8"/>
        </g>
      </g>
      <g id="Group_580" data-name="Group 580" transform="translate(20.765 0)">
        <g id="Group_571" data-name="Group 571" transform="translate(0.601 8.893)">
          <g id="Group_570" data-name="Group 570">
            <g id="Group_569" data-name="Group 569">
              <g id="Group_568" data-name="Group 568">
                <path id="Path_380" data-name="Path 380" d="M806.525,547.435s8.049,23.611-6.158,27.43v9.858H777.134l.353-30.369Z" transform="translate(-777.134 -547.435)" fill="#ffcec8"/>
              </g>
            </g>
          </g>
        </g>
        <g id="Group_575" data-name="Group 575">
          <g id="Group_574" data-name="Group 574">
            <g id="Group_573" data-name="Group 573">
              <g id="Group_572" data-name="Group 572">
                <path id="Path_381" data-name="Path 381" d="M803.727,506s-2.954,7.2-11.938,3.84c0,0-3.143-.816-3.935,2.847a6.187,6.187,0,0,1-1.79,3.661,1.7,1.7,0,0,1-1.384.38,4.393,4.393,0,0,1-.949-.447,3.584,3.584,0,0,0-4.4,1.35,4.226,4.226,0,0,0,3.814,6.52,10.927,10.927,0,0,0,1.811-.281s.284,6.467-10.468,6.655l-.682-20.038s-.887-4.97,3.761-3.364l-.689-3.3s4.893,3.791,12.475-.909,11.513-7.985,15.515-4.079,1.931,8.785-.3,9.889Z" transform="translate(-773.735 -497.108)" fill="#864a22"/>
              </g>
            </g>
          </g>
        </g>
        <g id="Group_579" data-name="Group 579" transform="translate(10.514 33.452)">
          <g id="Group_578" data-name="Group 578">
            <g id="Group_577" data-name="Group 577">
              <g id="Group_576" data-name="Group 576">
                <path id="Path_382" data-name="Path 382" d="M846.552,689.285s-8.543,1.172-13.32-2.871c0,0,2.414,5.848,13.281,6.185Z" transform="translate(-833.232 -686.414)" fill="#ffb6ad"/>
              </g>
            </g>
          </g>
        </g>
      </g>
      <g id="Group_582" data-name="Group 582" transform="translate(15.524 41.014)">
        <g id="Group_581" data-name="Group 581">
          <path id="Path_383" data-name="Path 383" d="M750.043,729.207V732.5l11.388,5.481,11.707-5.42.046-2.74,3.958,3.167s-4.811,13.032-5.542,13.093-20.1.183-20.1.183l-7.429-9.2,1.888-4.08Z" transform="translate(-744.075 -729.207)" fill="#ff7867"/>
        </g>
      </g>
      <g id="Group_584" data-name="Group 584" transform="translate(17.29 45.278)">
        <g id="Group_583" data-name="Group 583">
          <path id="Path_384" data-name="Path 384" d="M765.273,763.806a.365.365,0,0,1-.244-.093l-10.839-9.744a.365.365,0,1,1,.488-.544l10.556,9.489,4.021-4.882a.365.365,0,1,1,.564.465l-4.263,5.176a.365.365,0,0,1-.255.132Z" transform="translate(-754.068 -753.332)" fill="#fff"/>
        </g>
      </g>
      <g id="Group_586" data-name="Group 586" transform="translate(32.514 45.094)">
        <g id="Group_585" data-name="Group 585">
          <path id="Path_385" data-name="Path 385" d="M844.849,762.77h-.027a.364.364,0,0,1-.255-.132l-4.263-5.176a.365.365,0,1,1,.564-.465l4.021,4.882,10.556-9.489a.365.365,0,1,1,.488.544l-10.839,9.744A.365.365,0,0,1,844.849,762.77Z" transform="translate(-840.22 -752.296)" fill="#fff"/>
        </g>
      </g>
      <g id="Group_588" data-name="Group 588" transform="translate(31.844 53.985)">
        <g id="Group_587" data-name="Group 587">
          <path id="Path_386" data-name="Path 386" d="M838.137,803.463a.853.853,0,1,1-.852-.853A.852.852,0,0,1,838.137,803.463Z" transform="translate(-836.432 -802.61)" fill="#fff"/>
        </g>
      </g>
    </g>
  </g>
</svg>
