<svg id="stars" xmlns="http://www.w3.org/2000/svg" width="100.199" height="17.39" viewBox="0 0 100.199 17.39">
  <path id="Polygon_3" data-name="Polygon 3" d="M8.2,1.935a1,1,0,0,1,1.811,0l1.593,3.4a1,1,0,0,0,.781.568l3.724.47a1,1,0,0,1,.56,1.72L13.93,10.679a1,1,0,0,0-.3.915l.706,3.7a1,1,0,0,1-1.466,1.063L9.593,14.546a1,1,0,0,0-.967,0L5.344,16.359A1,1,0,0,1,3.878,15.3l.706-3.7a1,1,0,0,0-.3-.915L1.545,8.1a1,1,0,0,1,.56-1.72l3.724-.47a1,1,0,0,0,.781-.568Z" fill="#ffbc01"/>
  <path id="Polygon_4" data-name="Polygon 4" d="M8.625,1.835a1,1,0,0,1,1.8,0l1.72,3.514a1,1,0,0,0,.778.553l3.942.476a1,1,0,0,1,.549,1.736l-2.843,2.559a1,1,0,0,0-.312.939L15,15.328a1,1,0,0,1-1.448,1.08L9.99,14.526a1,1,0,0,0-.935,0L5.5,16.407a1,1,0,0,1-1.448-1.08l.741-3.715a1,1,0,0,0-.312-.939L1.635,8.115a1,1,0,0,1,.549-1.736L6.127,5.9a1,1,0,0,0,.778-.553Z" transform="translate(19.874)" fill="#ffbc01"/>
  <path id="Polygon_5" data-name="Polygon 5" d="M8.2,1.935a1,1,0,0,1,1.811,0l1.593,3.4a1,1,0,0,0,.781.568l3.724.47a1,1,0,0,1,.56,1.72L13.93,10.679a1,1,0,0,0-.3.915l.706,3.7a1,1,0,0,1-1.466,1.063L9.593,14.546a1,1,0,0,0-.967,0L5.344,16.359A1,1,0,0,1,3.878,15.3l.706-3.7a1,1,0,0,0-.3-.915L1.545,8.1a1,1,0,0,1,.56-1.72l3.724-.47a1,1,0,0,0,.781-.568Z" transform="translate(40.577)" fill="#ffbc01"/>
  <path id="Polygon_6" data-name="Polygon 6" d="M8.2,1.935a1,1,0,0,1,1.811,0l1.593,3.4a1,1,0,0,0,.781.568l3.724.47a1,1,0,0,1,.56,1.72L13.93,10.679a1,1,0,0,0-.3.915l.706,3.7a1,1,0,0,1-1.466,1.063L9.593,14.546a1,1,0,0,0-.967,0L5.344,16.359A1,1,0,0,1,3.878,15.3l.706-3.7a1,1,0,0,0-.3-.915L1.545,8.1a1,1,0,0,1,.56-1.72l3.724-.47a1,1,0,0,0,.781-.568Z" transform="translate(61.279)" fill="#ffbc01"/>
  <path id="Polygon_7" data-name="Polygon 7" d="M8.625,1.835a1,1,0,0,1,1.8,0l1.72,3.514a1,1,0,0,0,.778.553l3.942.476a1,1,0,0,1,.549,1.736l-2.843,2.559a1,1,0,0,0-.312.939L15,15.328a1,1,0,0,1-1.448,1.08L9.99,14.526a1,1,0,0,0-.935,0L5.5,16.407a1,1,0,0,1-1.448-1.08l.741-3.715a1,1,0,0,0-.312-.939L1.635,8.115a1,1,0,0,1,.549-1.736L6.127,5.9a1,1,0,0,0,.778-.553Z" transform="translate(81.153)" fill="#ffbc01"/>
</svg>
