<svg xmlns="http://www.w3.org/2000/svg" width="30.69" height="28.385" viewBox="0 0 30.69 28.385"><g transform="translate(1071.513 -441.066)"><path d="M-1060.1,457.093v12.358h-11.413v-9.758q0-7.924,1.892-11.472a15.924,15.924,0,0,1,7.864-7.155l2.6,4.14a9.542,9.542,0,0,0-4.791,4.051q-1.536,2.69-1.713,7.836Zm18.33,0v12.358h-11.413v-9.758q0-7.924,1.892-11.472a15.928,15.928,0,0,1,7.865-7.155l2.6,4.14a9.524,9.524,0,0,0-4.791,4.051q-1.539,2.69-1.715,7.836Z" transform="translate(0 0)" fill="#e4740e"/></g></svg>