<svg xmlns="http://www.w3.org/2000/svg" width="87.5" height="87.095" viewBox="0 0 87.5 87.095">
  <g id="Beautiful_Typographic" data-name="Beautiful Typographic" transform="translate(1 0.071)">
    <path id="Path_9107" data-name="Path 9107" d="M67.666.929H17.834A17.854,17.854,0,0,0,0,18.763V68.19A17.854,17.854,0,0,0,17.834,86.024H67.666A17.855,17.855,0,0,0,85.5,68.19V18.763A17.855,17.855,0,0,0,67.666.929Zm11.3,67.261a11.314,11.314,0,0,1-11.3,11.3H17.834a11.314,11.314,0,0,1-11.3-11.3V18.763a11.314,11.314,0,0,1,11.3-11.3H67.666a11.314,11.314,0,0,1,11.3,11.3V68.19Z" transform="translate(0 0)" fill="#e4740e" stroke="#fff" stroke-width="2"/>
    <path id="Path_9108" data-name="Path 9108" d="M138.839,137.919h-2.692a1.024,1.024,0,0,1-.957-.661L120.017,97.19a1.024,1.024,0,0,0-.957-.661h-.445a1.024,1.024,0,0,0-.948.637l-14.705,36.069a12.848,12.848,0,0,1-2.1,3.854q-.859.83-3.309.83h-.217a1.024,1.024,0,0,0-1.024,1.024v.021a1.024,1.024,0,0,0,1.024,1.024h11.7a1.024,1.024,0,0,0,1.024-1.024v-.021a1.024,1.024,0,0,0-1.024-1.024H107.7q-3.184,0-3.184-1.693a11.61,11.61,0,0,1,1.072-3.79l1.539-3.745a1.024,1.024,0,0,1,.947-.635h12.042a1.023,1.023,0,0,1,.957.66l2.969,7.815a1.024,1.024,0,0,1-.957,1.387h-3.192a1.024,1.024,0,0,0-1.024,1.024v.021a1.024,1.024,0,0,0,1.024,1.024h18.95a1.023,1.023,0,0,0,1.023-1.024v-.021A1.023,1.023,0,0,0,138.839,137.919ZM118.5,125.861h-8.687a1.024,1.024,0,0,1-.947-1.413l4.513-10.986a1.024,1.024,0,0,1,1.9.025l4.174,10.986A1.024,1.024,0,0,1,118.5,125.861Z" transform="translate(-75.336 -74.781)" fill="#e4740e"/>
  </g>
</svg>
