<svg id="Iconic_Imagery" data-name="Iconic Imagery" xmlns="http://www.w3.org/2000/svg" width="85.095" height="85.095" viewBox="0 0 85.095 85.095">
  <path id="Path_9109" data-name="Path 9109" d="M72.633,12.462A42.548,42.548,0,0,0,12.462,72.633,42.548,42.548,0,0,0,72.633,12.462ZM42.548,80.109A37.562,37.562,0,1,1,80.109,42.548,37.6,37.6,0,0,1,42.548,80.109Z" fill="#e4740e"/>
  <path id="Path_9110" data-name="Path 9110" d="M145.725,101.282a2.493,2.493,0,0,0-2.012-1.7l-15.929-2.315L120.66,82.837a2.493,2.493,0,0,0-4.471,0l-7.124,14.434L93.136,99.586a2.493,2.493,0,0,0-1.382,4.252l11.527,11.236-2.721,15.865a2.493,2.493,0,0,0,3.617,2.628l14.247-7.49,14.248,7.49a2.493,2.493,0,0,0,3.617-2.628l-2.721-15.865,11.527-11.236A2.493,2.493,0,0,0,145.725,101.282Zm-16.576,11.136a2.493,2.493,0,0,0-.717,2.207l2.089,12.178-10.937-5.749a2.493,2.493,0,0,0-2.32,0l-10.937,5.75,2.089-12.178a2.493,2.493,0,0,0-.717-2.207l-8.848-8.625,12.227-1.777a2.493,2.493,0,0,0,1.877-1.364l5.468-11.08,5.468,11.08a2.493,2.493,0,0,0,1.877,1.364L138,103.794Z" transform="translate(-75.877 -67.91)" fill="#e4740e"/>
</svg>
