<svg id="Professional_Themes" data-name="Professional Themes" xmlns="http://www.w3.org/2000/svg" width="85.095" height="85.095" viewBox="0 0 85.095 85.095">
  <path id="Path_9109" data-name="Path 9109" d="M72.633,12.462A42.548,42.548,0,0,0,12.462,72.633,42.548,42.548,0,0,0,72.633,12.462ZM42.548,80.109A37.562,37.562,0,1,1,80.109,42.548,37.6,37.6,0,0,1,42.548,80.109Z" fill="#e4740e"/>
  <path id="paintbrush" d="M35.072.028c-2,.211-4.409,1.543-7.362,4.073C22.37,8.679,16.07,16.583,12.012,22.27a8.665,8.665,0,0,0-7.934,3.116c-3.394,4.242-.553,8.028-3.754,11.4a1.165,1.165,0,0,0,.387,1.872c5.237,2.242,11.931.845,15.071-2.467a9.2,9.2,0,0,0,2.439-7.824c5.612-4.306,13.366-10.944,17.757-16.452,2.431-3.05,3.665-5.5,3.772-7.5A4.091,4.091,0,0,0,35.072.028ZM14.092,34.591c-2.124,2.24-6.825,3.545-11.007,2.429,2.339-3.73.328-7.075,2.812-10.18,2.038-2.547,6.137-3.261,8.518-.879C17.2,28.745,15.9,32.684,14.092,34.591Zm.238-11.557c.571-.789,1.466-2.008,2.585-3.467l3.822,3.822c-1.407,1.157-2.583,2.086-3.345,2.678a7.677,7.677,0,0,0-3.062-3.033ZM37.425,4.3c-.262,4.892-11.168,14.443-14.892,17.6l-4.176-4.176C21.42,13.835,30.412,2.86,35.316,2.344A1.769,1.769,0,0,1,37.425,4.3Z" transform="translate(22.667 22.671)" fill="#e4740e" stroke="#e4740e" stroke-width="1.5"/>
</svg>
