<svg xmlns="http://www.w3.org/2000/svg" width="211.081" height="247.205" viewBox="0 0 211.081 247.205">
  <g id="Download_It_to" data-name="Download It to" transform="translate(0 0)">
    <g id="Group_29" data-name="Group 29" transform="translate(0 60.3)">
      <circle id="Ellipse_108" data-name="Ellipse 108" cx="14.467" cy="14.467" r="14.467" transform="translate(35.295 11.661)" fill="#2f2e41"/>
      <circle id="Ellipse_109" data-name="Ellipse 109" cx="11.844" cy="11.844" r="11.844" transform="translate(39.133 16.934)" fill="#a0616a"/>
      <path id="Path_704" data-name="Path 704" d="M542.436,447.357a5.067,5.067,0,0,0-.517.61l-23.9-.844L515.285,442l-8.276,3.114,3.957,9.548a3.858,3.858,0,0,0,3.985,2.358L542,454.046a5.064,5.064,0,1,0,.439-6.687Z" transform="translate(-446.352 -382.553)" fill="#a0616a"/>
      <path id="Path_705" data-name="Path 705" d="M494.8,434.578a2.321,2.321,0,0,1-1.275-1.455L490.2,421.951a6.451,6.451,0,0,1,11.674-5.494h0l6.448,9.758a2.323,2.323,0,0,1-.955,3.385l-10.629,4.962a2.32,2.32,0,0,1-1.934.014Z" transform="translate(-437.332 -367.411)" fill="#ccc"/>
      <path id="Path_706" data-name="Path 706" d="M537.516,667.257l5.193-2.827-8.432-21.373-7.664,4.172Z" transform="translate(-456.502 -486.656)" fill="#a0616a"/>
      <path id="Path_707" data-name="Path 707" d="M544.562,684.272l10.226-5.567h0a7.419,7.419,0,0,1,10.064,2.969h0l.115.212L548.224,691Z" transform="translate(-465.796 -504.646)" fill="#2f2e41"/>
      <path id="Path_708" data-name="Path 708" d="M430.731,668.8h5.912l2.813-22.8h-8.728Z" transform="translate(-406.856 -488.181)" fill="#a0616a"/>
      <path id="Path_709" data-name="Path 709" d="M427.607,689.287H439.25a7.42,7.42,0,0,1,7.42,7.42v.242H427.607Z" transform="translate(-405.24 -510.593)" fill="#2f2e41"/>
      <path id="Path_710" data-name="Path 710" d="M466.043,479.269l1.929,23.147,21.517,64.549a1.929,1.929,0,0,1-1.22,2.44q-.08.027-.163.047l-6.594,1.57a1.929,1.929,0,0,1-2.17-1.008l-27.508-54.568a.964.964,0,0,0-1.8.227l-12.1,55.149a1.929,1.929,0,0,1-1.884,1.515h-6.137a1.925,1.925,0,0,1-1.929-1.922c0-.011,0-.022,0-.033.562-38.241-1.292-81.812,13.472-88.7l2.411-6.269Z" transform="translate(-405.431 -399.854)" fill="#3f3d56"/>
      <path id="Path_711" data-name="Path 711" d="M456.589,444.052,454.1,429.017a14.89,14.89,0,0,1,4.711-13.505,14.641,14.641,0,0,1,13.662-3.34l.423.116a14.844,14.844,0,0,1,10.716,13.187c.475,6.529.048,16-4.667,24.049l-.092.156Z" transform="translate(-418.854 -366.854)" fill="#ccc"/>
      <path id="Path_712" data-name="Path 712" d="M486.573,358.542a16.107,16.107,0,0,1-9.206,2.845,9.871,9.871,0,0,0,3.913,1.61,32.483,32.483,0,0,1-13.268.075,8.588,8.588,0,0,1-2.778-.954,3.515,3.515,0,0,1-1.714-2.293c-.289-1.663,1-3.174,2.351-4.192a17.344,17.344,0,0,1,14.575-2.913,7.981,7.981,0,0,1,4.316,2.44,3.932,3.932,0,0,1,.363,4.67Z" transform="translate(-423.813 -336.059)" fill="#2f2e41"/>
      <path id="Path_713" data-name="Path 713" d="M430.8,330.319c1.373-5.546-3.548-11.7-9.259-11.588-5.793.117-10.056,5.353-12.987,10.351s-5.842,10.665-11.221,12.818a11.588,11.588,0,0,1-15.888-11.04c-.723,6.073.278,12.644,4.2,17.341s11.2,6.814,16.444,3.657c2.99-1.8,4.9-4.937,6.48-8.053s2.979-6.4,5.368-8.952,6.082-4.24,9.406-3.168a32.6,32.6,0,0,0,3.867,1.507c1.363.254,3.08-.4,3.266-1.769Z" transform="translate(-381.225 -318.73)" fill="#2f2e41"/>
      <path id="Path_714" data-name="Path 714" d="M423.491,493.348a5.181,5.181,0,0,1,1.323-7.833l10.274-46.053,10.422,4.278-13.376,43.922a5.208,5.208,0,0,1-8.644,5.686Z" transform="translate(-402.467 -381.241)" fill="#a0616a"/>
      <path id="Path_715" data-name="Path 715" d="M440.109,433.735a2.32,2.32,0,0,1-.162-1.929l3.951-10.968a6.451,6.451,0,1,1,12.656,2.508h0l-.6,11.681a2.323,2.323,0,0,1-2.778,2.158l-11.5-2.315a2.32,2.32,0,0,1-1.565-1.137Z" transform="translate(-411.558 -368.906)" fill="#ccc"/>
    </g>
    <g id="Group_28" data-name="Group 28" transform="translate(86.675 0)">
      <path id="Path_410" data-name="Path 410" d="M619.092,195.45a2.885,2.885,0,0,0-2.637-1.764H563.814a2.855,2.855,0,0,0-2.853,2.853v66.594a2.855,2.855,0,0,0,2.853,2.853h52.641a2.857,2.857,0,0,0,2.853-2.853V196.54A2.8,2.8,0,0,0,619.092,195.45Zm-.417,67.682a2.223,2.223,0,0,1-2.218,2.218H563.814a2.218,2.218,0,0,1-2.218-2.218h0V196.54a2.223,2.223,0,0,1,2.218-2.218h52.641a2.231,2.231,0,0,1,2.061,1.4,2.439,2.439,0,0,1,.083.25,2.2,2.2,0,0,1,.076.573Z" transform="translate(-560.961 -193.686)" fill="#ccc"/>
      <path id="Path_411" data-name="Path 411" d="M640.338,223.568H624.482a1.269,1.269,0,0,1,0-2.537h15.855a1.269,1.269,0,1,1,0,2.537Z" transform="translate(-593.193 -207.844)" fill="#ccc"/>
      <path id="Path_412" data-name="Path 412" d="M640.338,237.378H624.482a1.269,1.269,0,0,1,0-2.537h15.855a1.269,1.269,0,1,1,0,2.537Z" transform="translate(-593.193 -214.995)" fill="#ccc"/>
      <path id="Path_413" data-name="Path 413" d="M595,230.219H583.413a1.428,1.428,0,0,1-1.427-1.427V215.119a1.428,1.428,0,0,1,1.427-1.427H595a1.429,1.429,0,0,1,1.427,1.427v13.674A1.428,1.428,0,0,1,595,230.219Z" transform="translate(-571.847 -204.045)" fill="#ccc"/>
      <path id="Path_414" data-name="Path 414" d="M618.659,265.654H582.826a1.269,1.269,0,1,1,0-2.537h35.833a1.269,1.269,0,1,1,0,2.537Z" transform="translate(-571.625 -229.635)" fill="#ccc"/>
      <path id="Path_415" data-name="Path 415" d="M618.659,279.468H582.826a1.269,1.269,0,1,1,0-2.537h35.833a1.269,1.269,0,1,1,0,2.537Z" transform="translate(-571.625 -236.788)" fill="#ccc"/>
      <path id="Path_416" data-name="Path 416" d="M618.659,293.273H582.826a1.269,1.269,0,1,1,0-2.537h35.833a1.269,1.269,0,1,1,0,2.537Z" transform="translate(-571.625 -243.936)" fill="#ccc"/>
      <path id="Path_417" data-name="Path 417" d="M618.659,307.086H582.826a1.269,1.269,0,1,1,0-2.537h35.833a1.269,1.269,0,1,1,0,2.537Z" transform="translate(-571.625 -251.087)" fill="#ccc"/>
      <path id="Path_418" data-name="Path 418" d="M618.659,320.892H582.826a1.268,1.268,0,1,1,0-2.537h35.833a1.268,1.268,0,1,1,0,2.537Z" transform="translate(-571.625 -258.236)" fill="#ccc"/>
    </g>
    <path id="Path_336" data-name="Path 336" d="M668.115,276.475a3.665,3.665,0,0,0-3.351-2.242h-66.9a3.628,3.628,0,0,0-3.626,3.626v84.631a3.628,3.628,0,0,0,3.626,3.626h66.9a3.631,3.631,0,0,0,3.626-3.626V277.859a3.561,3.561,0,0,0-.275-1.384Z" transform="translate(-491.517 -235.391)" fill="#e6e6e6"/>
    <path id="Path_9654" data-name="Path 9654" d="M667.288,365.809H604.769c-.9,0-1.606-.987-1.606-2.244V285.058c0-1.258.707-2.244,1.606-2.244h62.519c.9,0,1.607.987,1.607,2.244v78.507C668.894,364.823,668.188,365.809,667.288,365.809Z" transform="translate(-496.137 -239.834)" fill="#fff"/>
    <path id="Path_336-2" data-name="Path 336" d="M668.115,276.475a3.665,3.665,0,0,0-3.351-2.242h-66.9a3.628,3.628,0,0,0-3.626,3.626v84.631a3.628,3.628,0,0,0,3.626,3.626h66.9a3.631,3.631,0,0,0,3.626-3.626V277.859a3.561,3.561,0,0,0-.275-1.384Zm-.53,86.015a2.824,2.824,0,0,1-2.821,2.821h-66.9a2.821,2.821,0,0,1-2.821-2.82V277.86a2.825,2.825,0,0,1,2.821-2.821h66.9a2.835,2.835,0,0,1,2.619,1.775,3.152,3.152,0,0,1,.106.318,2.8,2.8,0,0,1,.1.728Z" transform="translate(-491.517 -235.391)" fill="#3f3d56"/>
    <path id="Path_337" data-name="Path 337" d="M695.119,312.206h-20.15a1.612,1.612,0,1,1,0-3.224h20.15a1.612,1.612,0,1,1,0,3.224Z" transform="translate(-532.481 -253.382)" fill="#3f3d56"/>
    <path id="Path_338" data-name="Path 338" d="M695.119,329.756h-20.15a1.612,1.612,0,1,1,0-3.224h20.15a1.612,1.612,0,1,1,0,3.224Z" transform="translate(-532.481 -262.469)" fill="#3f3d56"/>
    <path id="Path_339" data-name="Path 339" d="M637.5,320.658H622.775a1.816,1.816,0,0,1-1.814-1.814V301.467a1.816,1.816,0,0,1,1.814-1.814H637.5a1.815,1.815,0,0,1,1.814,1.814v17.378a1.816,1.816,0,0,1-1.814,1.814Z" transform="translate(-505.353 -248.552)" fill="#ea903e"/>
    <path id="Path_340" data-name="Path 340" d="M667.568,365.692h-45.54a1.612,1.612,0,1,1,0-3.224h45.54a1.612,1.612,0,1,1,0,3.224Z" transform="translate(-505.07 -281.076)" fill="#e6e6e6"/>
    <path id="Path_341" data-name="Path 341" d="M667.563,383.242h-45.54a1.612,1.612,0,1,1-.009-3.224h45.549a1.612,1.612,0,1,1,0,3.224Z" transform="translate(-505.066 -290.163)" fill="#e6e6e6"/>
    <path id="Path_342" data-name="Path 342" d="M667.568,400.792h-45.54a1.612,1.612,0,1,1,0-3.224h45.54a1.612,1.612,0,0,1,.009,3.224Z" transform="translate(-505.07 -299.25)" fill="#e6e6e6"/>
    <path id="Path_343" data-name="Path 343" d="M667.563,418.342h-45.54a1.612,1.612,0,1,1-.009-3.224h45.549a1.612,1.612,0,1,1,0,3.224Z" transform="translate(-505.066 -308.336)" fill="#e6e6e6"/>
    <path id="Path_344" data-name="Path 344" d="M667.563,435.892h-45.54a1.612,1.612,0,1,1-.009-3.224h45.549a1.612,1.612,0,0,1,0,3.224Z" transform="translate(-505.066 -317.423)" fill="#e6e6e6"/>
    <circle id="Ellipse_44" data-name="Ellipse 44" cx="26.04" cy="26.04" r="26.04" transform="translate(159 6.814)" fill="#e4740e"/>
    <path id="Path_692" data-name="Path 692" d="M763.411,249.148l-.142-10.406h-8.613l.142,10.406h-4.021l8.393,8.718,8.263-8.719Z" transform="translate(-573.776 -214.928)" fill="#fff"/>
    <path id="Path_717" data-name="Path 717" d="M587.062,705.278H403.332a.482.482,0,1,1,0-.964h183.73a.482.482,0,1,1,0,.964Z" transform="translate(-392.421 -458.073)" fill="#e6e6e6"/>
    <path id="Path_694" data-name="Path 694" d="M727.692,666.453c-4.629,3.335-10.628,3.5-16.426,3.093-.81-.057-1.614-.124-2.411-.2h-.016l-.113-.01-.492-.048.039.073.121.228-.13-.227c-.013-.023-.027-.046-.039-.069-1.5-2.614-2.99-5.324-3.372-8.309-.393-3.1.711-6.607,3.438-8.129a5.5,5.5,0,0,1,1.129-.473q.245-.072.5-.125a5.9,5.9,0,0,1,6.859,7.667c2.312-2.371,1.881-6.216,1.083-9.43s-1.766-6.79-.141-9.677a6.382,6.382,0,0,1,4.275-3.005c.054-.011.109-.024.164-.034a8.607,8.607,0,0,1,6.184,1.084c3.409,2.148,5.16,6.221,5.728,10.211C734.981,655.5,732.955,662.662,727.692,666.453Z" transform="translate(-548.748 -423.536)" fill="#f2f2f2"/>
  </g>
</svg>
