<svg xmlns="http://www.w3.org/2000/svg" width="212.621" height="247.895" viewBox="0 0 212.621 247.895">
  <g id="Start_with" data-name="Start with" transform="translate(0)">
    <path id="Path_6622" data-name="Path 6622" d="M396,201.413H345.59V156.562H396Z" transform="translate(-344.556 -144.542)" fill="#fff"/>
    <path id="Path_6623" data-name="Path 6623" d="M395.569,200.983H343.09v-46.92h52.479Zm-50.409-2.069H393.5V156.132H345.159Z" transform="translate(-343.09 -143.077)" fill="#ccc"/>
    <path id="Path_6624" data-name="Path 6624" d="M137.147,558.357h-5.073l-2.414-19.568h7.488Z" transform="translate(-76.006 -315.836)" fill="#ffb7b7"/>
    <path id="Path_6625" data-name="Path 6625" d="M470.8,716.163H454.439v-.207a6.367,6.367,0,0,1,6.367-6.367H470.8Z" transform="translate(-408.363 -468.723)" fill="#2f2e41"/>
    <path id="Path_6626" data-name="Path 6626" d="M245.858,551.473l-4.955,1.088-6.554-18.6,7.314-1.606Z" transform="translate(-137.374 -312.067)" fill="#ffb7b7"/>
    <path id="Path_6627" data-name="Path 6627" d="M587.947,707.9l-15.978,3.508-.044-.2a6.367,6.367,0,0,1,4.853-7.584h0l9.759-2.142Z" transform="translate(-477.145 -463.971)" fill="#2f2e41"/>
    <path id="Path_6628" data-name="Path 6628" d="M412.542,508.558l-25.058,5.4c-4.806-9.06-5.886-18.524-5.926-27.473l25.058-5.4A56.113,56.113,0,0,0,412.542,508.558Z" transform="translate(-365.64 -334.776)" fill="#c7a46b"/>
    <path id="Path_6629" data-name="Path 6629" d="M51.98,373.68l-.214-.952L64.788,370.1l.214.952Z" transform="translate(-30.345 -216.949)" fill="#fff"/>
    <path id="Path_6630" data-name="Path 6630" d="M54.044,382.878l-.214-.951L66.852,379.3l.214.952Z" transform="translate(-31.555 -222.341)" fill="#fff"/>
    <path id="Path_6631" data-name="Path 6631" d="M56.108,392.077l-.214-.952,13.022-2.631.214.951Z" transform="translate(-32.765 -227.734)" fill="#fff"/>
    <path id="Path_6632" data-name="Path 6632" d="M58.172,401.276l-.214-.952,13.022-2.631.214.952Z" transform="translate(-33.975 -233.126)" fill="#fff"/>
    <path id="Path_6633" data-name="Path 6633" d="M60.236,410.474l-.214-.951,13.022-2.631.214.951Z" transform="translate(-35.185 -238.518)" fill="#fff"/>
    <path id="Path_6634" data-name="Path 6634" d="M581.931,465.708a4.811,4.811,0,0,0-2.062-7.083l.227-10.992-6.646-1.767-.1,15.527a4.837,4.837,0,0,0,8.583,4.315Z" transform="translate(-477.897 -314.131)" fill="#ffb7b7"/>
    <path id="Path_6635" data-name="Path 6635" d="M401.852,206.253l-25.628-.58c-2.563-9.93-1.409-19.385.636-28.1l25.628.58A56.113,56.113,0,0,0,401.852,206.253Z" transform="translate(-361.65 -156.86)" fill="#c7a46b"/>
    <path id="Path_6636" data-name="Path 6636" d="M47.368,63.685l.014-.975,13.277.475-.014.975Z" transform="translate(-27.767 -36.76)" fill="#fff"/>
    <path id="Path_6637" data-name="Path 6637" d="M47.233,73.112l.014-.975,13.277.475-.014.975Z" transform="translate(-27.688 -42.286)" fill="#fff"/>
    <path id="Path_6638" data-name="Path 6638" d="M47.1,82.538l.014-.975,13.277.475-.014.975Z" transform="translate(-27.608 -47.812)" fill="#fff"/>
    <path id="Path_6639" data-name="Path 6639" d="M46.962,91.964l.014-.975,13.277.475-.014.975Z" transform="translate(-27.529 -53.337)" fill="#fff"/>
    <path id="Path_6640" data-name="Path 6640" d="M46.827,101.391l.014-.975,13.277.475-.014.975Z" transform="translate(-27.45 -58.863)" fill="#fff"/>
    <circle id="Ellipse_1" data-name="Ellipse 1" cx="9.294" cy="9.294" r="9.294" transform="translate(43.14 0)" fill="#e4740e"/>
    <path id="Path_6641" data-name="Path 6641" d="M120.924,21.133l-3.52-4.3.554-.453,2.914,3.562,5.093-7.469.591.4Z" transform="translate(-68.822 -7.31)" fill="#fff"/>
    <path id="Path_6642" data-name="Path 6642" d="M783,392.413H732.59V347.562H783Z" transform="translate(-571.413 -256.505)" fill="#fff"/>
    <path id="Path_6643" data-name="Path 6643" d="M782.569,391.983H730.09v-46.92h52.479Zm-50.409-2.069H780.5V347.132H732.159Z" transform="translate(-569.948 -255.04)" fill="#e6e6e6"/>
    <path id="Path_6644" data-name="Path 6644" d="M783,201.413H732.59V156.562H783Z" transform="translate(-571.413 -144.542)" fill="#fff"/>
    <path id="Path_6645" data-name="Path 6645" d="M782.569,200.983H730.09v-46.92h52.479Zm-50.409-2.069H780.5V156.132H732.159Z" transform="translate(-569.948 -143.077)" fill="#e6e6e6"/>
    <path id="Path_6646" data-name="Path 6646" d="M589,392.413H538.59V347.562H589Z" transform="translate(-457.691 -256.505)" fill="#fff"/>
    <path id="Path_6647" data-name="Path 6647" d="M588.569,391.983H536.09v-46.92h52.479Zm-50.409-2.069H586.5V347.132H538.159Z" transform="translate(-456.226 -255.04)" fill="#ccc"/>
    <path id="Path_6648" data-name="Path 6648" d="M396,392.413H345.59V347.562H396Z" transform="translate(-344.556 -256.505)" fill="#fff"/>
    <path id="Path_6649" data-name="Path 6649" d="M395.569,391.983H343.09v-46.92h52.479Zm-50.409-2.069H393.5V347.132H345.159Z" transform="translate(-343.09 -255.04)" fill="#e6e6e6"/>
    <path id="Path_6650" data-name="Path 6650" d="M589,201.413H538.59V156.562H589Z" transform="translate(-457.691 -144.542)" fill="#fff"/>
    <path id="Path_6651" data-name="Path 6651" d="M588.569,200.983H536.09v-46.92h52.479Zm-50.409-2.069H586.5V156.132H538.159Z" transform="translate(-456.226 -143.077)" fill="#e6e6e6"/>
    <path id="Path_6652" data-name="Path 6652" d="M643.5,750.783l6.734-13.052c12.428,2.044,14.621,1.627,25.481.217l2.887,14.165a156.489,156.489,0,0,0-35.1-1.33Z" transform="translate(-518.244 -513.563)" fill="#e6e6e6"/>
    <path id="Path_6653" data-name="Path 6653" d="M368.005,625.674l-.211-7.338.771.029.211,7.338Z" transform="translate(-214.655 -390.808)" fill="#fff"/>
    <path id="Path_6654" data-name="Path 6654" d="M360.547,625.391l-.211-7.338.772.029.211,7.338Z" transform="translate(-210.283 -390.642)" fill="#fff"/>
    <path id="Path_6655" data-name="Path 6655" d="M353.09,625.109l-.211-7.338.771.029.211,7.338Z" transform="translate(-205.911 -390.477)" fill="#fff"/>
    <path id="Path_6656" data-name="Path 6656" d="M466.852,448.3s-2.446.978,0,38.154l.978,60.654h9.783l11.011-82.43,13.446,38.406L514.3,548.574l9.783-2.445s-10.272-91.96-19.077-97.83S466.852,448.3,466.852,448.3Z" transform="translate(-415.002 -314.027)" fill="#2f2e41"/>
    <circle id="Ellipse_2" data-name="Ellipse 2" cx="10.167" cy="10.167" r="10.167" transform="translate(61.329 38.639)" fill="#ffb8b8"/>
    <path id="Path_6657" data-name="Path 6657" d="M494.277,281.813s-8.8-4.4-17.12-1.467a48.806,48.806,0,0,0-12.718,6.359l5.381,28.371-7.337,38.154s37.664-2.935,41.088,0,3.424-3.424,3.424-3.424l-2.935-36.2,5.381-22.99Z" transform="translate(-413.077 -216.512)" fill="#3f3d56"/>
    <path id="Path_6658" data-name="Path 6658" d="M491.012,224.67l2.152,5.5c.882,2.253,1.892,4.664,3.96,5.922,2.552,1.553,5.961.8,8.43-.886a13.164,13.164,0,0,0-5.925-23.96l-.1,1.84-2.258-1.893a2.2,2.2,0,0,1-3.413.483c.593,1.23-.091,2.73-1.08,3.672-1.215,1.157-4.689,2.548-4.545,4.617C488.326,221.343,490.452,223.24,491.012,224.67Z" transform="translate(-428.168 -176.565)" fill="#2f2e41"/>
    <path id="Path_6659" data-name="Path 6659" d="M438.234,465.039a4.811,4.811,0,0,0,.01-7.377l3.3-10.486-5.883-3.562-4.458,14.873a4.837,4.837,0,0,0,7.026,6.551Z" transform="translate(-394.196 -312.811)" fill="#ffb7b7"/>
    <path id="Path_6660" data-name="Path 6660" d="M451.925,297.142H448.5s-5.381,3.424-5.381,8.316-7.826,62.122-7.826,62.122l8.316,1.467,7.337-40.11,5.381-10.761Z" transform="translate(-397.14 -226.949)" fill="#3f3d56"/>
    <path id="Path_6661" data-name="Path 6661" d="M553.5,306.6H562.8s2.935,2.935,4.4,9.783,2.935,33.751,2.935,33.751l-.978,24.457h-7.337l-.978-31.795-4.892-20.544Z" transform="translate(-466.433 -232.493)" fill="#3f3d56"/>
    <path id="Path_6662" data-name="Path 6662" d="M503.061,725.4H345.4a.414.414,0,1,1,0-.828h157.66a.414.414,0,1,1,0,.828Z" transform="translate(-344.203 -477.508)" fill="#cbcbcb"/>
  </g>
</svg>
