<svg xmlns="http://www.w3.org/2000/svg" width="271.939" height="247.704" viewBox="0 0 271.939 247.704">
  <g id="Edit_it_to_make" data-name="Edit it to make" transform="translate(-30 70)">
    <path id="Path_6709" data-name="Path 6709" d="M453.142,679.572H182.123a.46.46,0,1,1,0-.921H453.141a.46.46,0,1,1,0,.921Z" transform="translate(-151.662 -501.868)" fill="#cbcbcb"/>
    <circle id="Ellipse_9" data-name="Ellipse 9" cx="2.5" cy="2.5" r="2.5" transform="translate(103.868 16.258)" fill="#f2f2f2"/>
    <circle id="Ellipse_10" data-name="Ellipse 10" cx="2.5" cy="2.5" r="2.5" transform="translate(93.906 16.258)" fill="#f2f2f2"/>
    <circle id="Ellipse_11" data-name="Ellipse 11" cx="2.5" cy="2.5" r="2.5" transform="translate(83.943 16.258)" fill="#f2f2f2"/>
    <circle id="Ellipse_12" data-name="Ellipse 12" cx="2.5" cy="2.5" r="2.5" transform="translate(73.98 16.258)" fill="#f2f2f2"/>
    <circle id="Ellipse_13" data-name="Ellipse 13" cx="2.5" cy="2.5" r="2.5" transform="translate(103.868 26.695)" fill="#f2f2f2"/>
    <circle id="Ellipse_14" data-name="Ellipse 14" cx="2.5" cy="2.5" r="2.5" transform="translate(93.906 26.695)" fill="#f2f2f2"/>
    <circle id="Ellipse_15" data-name="Ellipse 15" cx="2.5" cy="2.5" r="2.5" transform="translate(83.943 26.695)" fill="#f2f2f2"/>
    <circle id="Ellipse_16" data-name="Ellipse 16" cx="2.5" cy="2.5" r="2.5" transform="translate(73.98 26.695)" fill="#f2f2f2"/>
    <circle id="Ellipse_17" data-name="Ellipse 17" cx="2.5" cy="2.5" r="2.5" transform="translate(103.868 37.132)" fill="#f2f2f2"/>
    <circle id="Ellipse_18" data-name="Ellipse 18" cx="2.5" cy="2.5" r="2.5" transform="translate(93.906 37.132)" fill="#f2f2f2"/>
    <circle id="Ellipse_19" data-name="Ellipse 19" cx="2.5" cy="2.5" r="2.5" transform="translate(83.943 37.132)" fill="#f2f2f2"/>
    <circle id="Ellipse_20" data-name="Ellipse 20" cx="2.5" cy="2.5" r="2.5" transform="translate(73.98 37.132)" fill="#f2f2f2"/>
    <circle id="Ellipse_21" data-name="Ellipse 21" cx="2.5" cy="2.5" r="2.5" transform="translate(103.868 47.569)" fill="#f2f2f2"/>
    <circle id="Ellipse_22" data-name="Ellipse 22" cx="2.5" cy="2.5" r="2.5" transform="translate(93.906 47.569)" fill="#f2f2f2"/>
    <circle id="Ellipse_23" data-name="Ellipse 23" cx="2.5" cy="2.5" r="2.5" transform="translate(83.943 47.569)" fill="#f2f2f2"/>
    <circle id="Ellipse_24" data-name="Ellipse 24" cx="2.5" cy="2.5" r="2.5" transform="translate(73.98 47.569)" fill="#f2f2f2"/>
    <circle id="Ellipse_25" data-name="Ellipse 25" cx="2.5" cy="2.5" r="2.5" transform="translate(103.868 58.006)" fill="#f2f2f2"/>
    <circle id="Ellipse_26" data-name="Ellipse 26" cx="2.5" cy="2.5" r="2.5" transform="translate(93.906 58.006)" fill="#f2f2f2"/>
    <circle id="Ellipse_27" data-name="Ellipse 27" cx="2.5" cy="2.5" r="2.5" transform="translate(83.943 58.006)" fill="#f2f2f2"/>
    <circle id="Ellipse_28" data-name="Ellipse 28" cx="2.5" cy="2.5" r="2.5" transform="translate(73.98 58.006)" fill="#f2f2f2"/>
    <circle id="Ellipse_29" data-name="Ellipse 29" cx="2.5" cy="2.5" r="2.5" transform="translate(103.868 68.443)" fill="#f2f2f2"/>
    <circle id="Ellipse_30" data-name="Ellipse 30" cx="2.5" cy="2.5" r="2.5" transform="translate(93.906 68.443)" fill="#f2f2f2"/>
    <circle id="Ellipse_31" data-name="Ellipse 31" cx="2.5" cy="2.5" r="2.5" transform="translate(83.943 68.443)" fill="#f2f2f2"/>
    <circle id="Ellipse_32" data-name="Ellipse 32" cx="2.5" cy="2.5" r="2.5" transform="translate(73.98 68.443)" fill="#f2f2f2"/>
    <path id="Path_6710" data-name="Path 6710" d="M375.19,573.6v.773a4.836,4.836,0,0,0,4.832,4.832h34.79a4.834,4.834,0,0,0,4.832-4.832V573.6a4.8,4.8,0,0,0-1.121-3.092,4.971,4.971,0,0,0-.816-.773s-19.127-.433-19.127-.966H380.022A4.839,4.839,0,0,0,375.19,573.6Z" transform="translate(-290.788 -434.458)" fill="#ccc"/>
    <rect id="Rectangle_150" data-name="Rectangle 150" width="5.025" height="32.47" transform="translate(104.396 144.551)" fill="#ccc"/>
    <path id="Path_6711" data-name="Path 6711" d="M422.931,671.116c0,.543-7.615.21-17.008.21s-17.008.333-17.008-.21,7.615-4.849,17.008-4.849S422.931,670.573,422.931,671.116Z" transform="translate(-299.207 -494.271)" fill="#ccc"/>
    <path id="Path_6712" data-name="Path 6712" d="M426.933,512.143a4.153,4.153,0,0,0-1.472-6.2L414.81,469.656l-8.11,3.972,13.019,34.424a4.175,4.175,0,0,0,7.213,4.09Z" transform="translate(-310.117 -373.66)" fill="#a0616a"/>
    <path id="Path_6713" data-name="Path 6713" d="M413.789,461.622l-9.077,2.457a1.862,1.862,0,0,1-2.336-1.579l-1.1-9.311a5.171,5.171,0,1,1,9.991-2.673l3.739,8.564a1.862,1.862,0,0,1-1.22,2.542Z" transform="translate(-306.683 -359.566)" fill="#6c63ff"/>
    <path id="Path_6714" data-name="Path 6714" d="M313.515,430.6h4.739l2.255-12.291h-6.995Z" transform="translate(-194.327 -257.556)" fill="#a0616a"/>
    <path id="Path_6715" data-name="Path 6715" d="M462.051,664.961h9.333a5.948,5.948,0,0,1,5.948,5.948v.193H462.051Z" transform="translate(-344.072 -493.47)" fill="#2f2e41"/>
    <path id="Path_6716" data-name="Path 6716" d="M428.595,580.894q-.083,0-.166-.008l-6.558-.478a1.739,1.739,0,0,1-1.473-2.331l8.777-19.72a1.352,1.352,0,0,0-.076-1.082,1.334,1.334,0,0,0-.855-.68c-4.127-1.079-14.717-3.952-23.884-7.313-3.927-1.44-6.4-3.521-7.352-6.186a8.731,8.731,0,0,1,.681-6.85l.062-.105,8.626.784,9.351.8,20.492,10.989a7.764,7.764,0,0,1,3.409,9.967l-9.448,21.186A1.738,1.738,0,0,1,428.595,580.894Z" transform="translate(-303.906 -414.446)" fill="#2f2e41"/>
    <circle id="Ellipse_33" data-name="Ellipse 33" cx="9.494" cy="9.494" r="9.494" transform="translate(94.476 64.477)" fill="#a0616a"/>
    <path id="Path_6717" data-name="Path 6717" d="M306.515,429.6h4.739l2.255-12.291h-6.995Z" transform="translate(-190.033 -256.942)" fill="#a0616a"/>
    <path id="Path_6718" data-name="Path 6718" d="M455.051,663.961h9.333a5.948,5.948,0,0,1,5.948,5.948v.193H455.051Z" transform="translate(-339.778 -492.856)" fill="#2f2e41"/>
    <path id="Path_6719" data-name="Path 6719" d="M421.595,583.894q-.083,0-.166-.008l-6.558-.478a1.739,1.739,0,0,1-1.473-2.331l8.777-19.72a1.352,1.352,0,0,0-.076-1.082,1.334,1.334,0,0,0-.855-.68c-4.127-1.079-14.717-3.952-23.884-7.313-3.927-1.44-6.4-3.521-7.352-6.186a8.731,8.731,0,0,1,.681-6.85l.062-.105,8.626.784,9.351.8,20.492,10.989a7.764,7.764,0,0,1,3.409,9.967l-9.448,21.186A1.738,1.738,0,0,1,421.595,583.894Z" transform="translate(-299.612 -416.286)" fill="#2f2e41"/>
    <path id="Path_6720" data-name="Path 6720" d="M408.542,445.647l-10.05-3.479s-6.309,4.847-3.278,16.872a29.769,29.769,0,0,1-1.314,18.678,19.243,19.243,0,0,1-1.012,2.138s11.21,13.529,21.647,3.479l-4.059-19.521S416.853,450.865,408.542,445.647Z" transform="translate(-301.644 -356.798)" fill="#2f2e41"/>
    <path id="Path_6721" data-name="Path 6721" d="M404.767,398.13c-1.351-2.023-2.418-4.827-.93-6.751,1.469-1.9,4.365-1.62,6.614-2.46a7.488,7.488,0,0,0,4.383-8.147,9.666,9.666,0,0,0-6.364-7.146,13.78,13.78,0,0,0-9.793.533,14.954,14.954,0,0,0-8.426,8.534,11.5,11.5,0,0,0,2.2,11.531c3.04,3.2,7.811,4.053,12.224,4" transform="translate(-299.618 -314.342)" fill="#2f2e41"/>
    <path id="Path_6722" data-name="Path 6722" d="M336.326,385.233c-1.7,1.386-4.3.77-6.128-.446s-3.311-2.949-5.288-3.9c-3.486-1.682-7.7-.564-11.095,1.3s-6.4,4.436-9.985,5.9-8.158,1.534-10.872-1.226a9.947,9.947,0,0,0,14.577,11.74c3.927-2.392,6.1-7.408,10.5-8.728,2.437-.731,5.055-.142,7.518.5s5.032,1.326,7.518.783,4.811-2.777,4.5-5.3Z" transform="translate(-240.009 -318.698)" fill="#2f2e41"/>
    <path id="Path_6723" data-name="Path 6723" d="M484.772,591.388a64.749,64.749,0,0,1,0-19.7,1.663,1.663,0,0,1,1.638-1.394h15.413a1.642,1.642,0,0,1,1.3.629,1.67,1.67,0,0,1,.312,1.432,39.555,39.555,0,0,0,0,18.371,1.669,1.669,0,0,1-.312,1.432,1.641,1.641,0,0,1-1.3.629H486.41A1.663,1.663,0,0,1,484.772,591.388Z" transform="translate(-357.548 -435.394)" fill="#e4740e"/>
    <path id="Path_6724" data-name="Path 6724" d="M503.132,590.566h-8.088a1.161,1.161,0,0,1-1.16-1.16v-.453a1.161,1.161,0,0,1,1.16-1.16h8.088a1.161,1.161,0,0,1,1.16,1.16v.453a1.161,1.161,0,0,1-1.16,1.16Z" transform="translate(-363.601 -446.132)" fill="#fff"/>
    <path id="Path_6725" data-name="Path 6725" d="M503.132,602.911h-8.088a1.161,1.161,0,0,1-1.16-1.16V601.3a1.161,1.161,0,0,1,1.16-1.16h8.088a1.161,1.161,0,0,1,1.16,1.16v.453a1.161,1.161,0,0,1-1.16,1.16Z" transform="translate(-363.601 -453.704)" fill="#fff"/>
    <path id="Path_6726" data-name="Path 6726" d="M450.093,514.588a4.153,4.153,0,0,0-2.973-5.631l-19.38-32.48-6.861,5.873,21.207,30.08a4.175,4.175,0,0,0,8.006,2.158Z" transform="translate(-318.816 -377.845)" fill="#a0616a"/>
    <path id="Path_6727" data-name="Path 6727" d="M424.961,469.858l-8.176,4.647a1.862,1.862,0,0,1-2.656-.946l-3.389-8.742a5.171,5.171,0,0,1,9.006-5.084l5.761,7.359a1.862,1.862,0,0,1-.546,2.766Z" transform="translate(-312.186 -365.96)" fill="#2f2e41"/>
    <path id="Path_6728" data-name="Path 6728" d="M420.583,519.614H263.643a2.513,2.513,0,0,0,0,5.025h4.445v54.7a2.513,2.513,0,0,0,5.025,0V529.467l28.169,51.055a2.513,2.513,0,0,0,4.352-2.512l-29.446-53.371H410.726v.033L381.3,578.01a2.512,2.512,0,1,0,4.352,2.513l25.076-45.45v44.264a2.513,2.513,0,0,0,5.025,0V525.964l.731-1.325h4.1a2.513,2.513,0,1,0,0-5.025Z" transform="translate(-220.818 -404.307)" fill="#3f3d56"/>
    <rect id="Rectangle_151" data-name="Rectangle 151" width="33.244" height="2.706" rx="1.353" transform="translate(102.933 113.761)" fill="#ccc"/>
    <path id="Path_6729" data-name="Path 6729" d="M500.046,484.58h-34.4a2.515,2.515,0,0,1-2.513-2.513V463.127a2.515,2.515,0,0,1,2.513-2.513h34.4a2.515,2.515,0,0,1,2.513,2.513v18.941A2.515,2.515,0,0,1,500.046,484.58Z" transform="translate(-344.734 -368.113)" fill="#ccc"/>
    <circle id="Ellipse_34" data-name="Ellipse 34" cx="2.319" cy="2.319" r="2.319" transform="translate(135.79 102.164)" fill="#fff"/>
    <path id="Path_6730" data-name="Path 6730" d="M626.55,316.935v-94.04a4.035,4.035,0,0,1,4.03-4.03h74.337a4.035,4.035,0,0,1,4.03,4.03v94.04a4.035,4.035,0,0,1-4.03,4.03H630.581A4.035,4.035,0,0,1,626.55,316.935Zm4.03-97.175a3.138,3.138,0,0,0-3.135,3.135v94.04a3.138,3.138,0,0,0,3.135,3.135h74.337a3.138,3.138,0,0,0,3.135-3.135v-94.04a3.138,3.138,0,0,0-3.135-3.135Z" transform="translate(-509.781 -288.864)" fill="#e6e6e6"/>
    <path id="Path_6731" data-name="Path 6731" d="M711.215,280.99V261.68a2.017,2.017,0,0,1,2.015-2.015h16.363a2.017,2.017,0,0,1,2.015,2.015V280.99a2.017,2.017,0,0,1-2.015,2.015H713.23A2.018,2.018,0,0,1,711.215,280.99Z" transform="translate(-549.078 -307.802)" fill="#c7a46b"/>
    <path id="Path_6732" data-name="Path 6732" d="M651.88,297.7v-19.31a2.017,2.017,0,0,1,2.015-2.015h16.363a2.017,2.017,0,0,1,2.015,2.015V297.7a2.017,2.017,0,0,1-2.015,2.015H653.9A2.017,2.017,0,0,1,651.88,297.7Z" transform="translate(-521.538 -315.56)" fill="#f8f1e2"/>
    <path id="Path_6733" data-name="Path 6733" d="M699.515,348.683v-19.31a2.017,2.017,0,0,1,2.015-2.015h16.363a2.017,2.017,0,0,1,2.015,2.015v19.309a2.017,2.017,0,0,1-2.015,2.015H701.53a2.017,2.017,0,0,1-2.015-2.015Z" transform="translate(-543.648 -339.222)" fill="#e4740e"/>
    <ellipse id="Ellipse_39" data-name="Ellipse 39" cx="3.465" cy="3.465" rx="3.465" ry="3.465" transform="translate(262.726 -67.131)" fill="#f2f2f2"/>
    <ellipse id="Ellipse_40" data-name="Ellipse 40" cx="3.465" cy="3.465" rx="3.465" ry="3.465" transform="translate(262.726 -53.321)" fill="#f2f2f2"/>
    <ellipse id="Ellipse_41" data-name="Ellipse 41" cx="3.465" cy="3.465" rx="3.465" ry="3.465" transform="translate(262.726 -39.51)" fill="#f2f2f2"/>
    <ellipse id="Ellipse_42" data-name="Ellipse 42" cx="3.465" cy="3.465" rx="3.465" ry="3.465" transform="translate(262.726 -25.7)" fill="#f2f2f2"/>
    <ellipse id="Ellipse_43" data-name="Ellipse 43" cx="3.465" cy="3.465" rx="3.465" ry="3.465" transform="translate(248.258 -67.131)" fill="#f2f2f2"/>
    <ellipse id="Ellipse_44" data-name="Ellipse 44" cx="3.465" cy="3.465" rx="3.465" ry="3.465" transform="translate(248.258 -53.321)" fill="#f2f2f2"/>
    <ellipse id="Ellipse_45" data-name="Ellipse 45" cx="3.465" cy="3.465" rx="3.465" ry="3.465" transform="translate(248.258 -39.51)" fill="#f2f2f2"/>
    <ellipse id="Ellipse_46" data-name="Ellipse 46" cx="3.465" cy="3.465" rx="3.465" ry="3.465" transform="translate(248.258 -25.7)" fill="#f2f2f2"/>
    <ellipse id="Ellipse_47" data-name="Ellipse 47" cx="3.465" cy="3.465" rx="3.465" ry="3.465" transform="translate(233.79 -67.131)" fill="#f2f2f2"/>
    <ellipse id="Ellipse_48" data-name="Ellipse 48" cx="3.465" cy="3.465" rx="3.465" ry="3.465" transform="translate(233.79 -53.321)" fill="#f2f2f2"/>
    <ellipse id="Ellipse_49" data-name="Ellipse 49" cx="3.465" cy="3.465" rx="3.465" ry="3.465" transform="translate(233.79 -39.51)" fill="#f2f2f2"/>
    <circle id="Ellipse_50" data-name="Ellipse 50" cx="2.5" cy="2.5" r="2.5" transform="translate(230.781 31.009)" fill="#f2f2f2"/>
    <ellipse id="Ellipse_51" data-name="Ellipse 51" cx="3.465" cy="3.465" rx="3.465" ry="3.465" transform="translate(219.322 -67.131)" fill="#f2f2f2"/>
    <ellipse id="Ellipse_52" data-name="Ellipse 52" cx="3.465" cy="3.465" rx="3.465" ry="3.465" transform="translate(219.322 -53.321)" fill="#f2f2f2"/>
    <ellipse id="Ellipse_53" data-name="Ellipse 53" cx="3.465" cy="3.465" rx="3.465" ry="3.465" transform="translate(219.322 -39.51)" fill="#f2f2f2"/>
    <circle id="Ellipse_54" data-name="Ellipse 54" cx="2.5" cy="2.5" r="2.5" transform="translate(220.344 31.009)" fill="#f2f2f2"/>
    <ellipse id="Ellipse_55" data-name="Ellipse 55" cx="3.465" cy="3.465" rx="3.465" ry="3.465" transform="translate(204.855 -67.131)" fill="#f2f2f2"/>
    <ellipse id="Ellipse_56" data-name="Ellipse 56" cx="3.465" cy="3.465" rx="3.465" ry="3.465" transform="translate(204.855 -53.321)" fill="#f2f2f2"/>
    <ellipse id="Ellipse_57" data-name="Ellipse 57" cx="3.465" cy="3.465" rx="3.465" ry="3.465" transform="translate(204.855 -39.51)" fill="#f2f2f2"/>
    <ellipse id="Ellipse_58" data-name="Ellipse 58" cx="3.465" cy="3.465" rx="3.465" ry="3.465" transform="translate(204.855 -25.7)" fill="#f2f2f2"/>
    <path id="Path_6734" data-name="Path 6734" d="M823.149,423.158a5.9,5.9,0,0,1,4.162-7.75,5.673,5.673,0,0,1,.777-.127l13.022-22.826-3.288-5.649,8.185-6.315,6.262,8.7a5.974,5.974,0,0,1-.139,7.131l-17.878,22.888a5.614,5.614,0,0,1,.166.554,5.9,5.9,0,0,1-5.015,7.228,5.737,5.737,0,0,1-.721.045A5.914,5.914,0,0,1,823.149,423.158Z" transform="translate(-600.868 -363.884)" fill="#ffb8b8"/>
    <path id="Path_6735" data-name="Path 6735" d="M615.983,428.938h-6.569L606.288,403.6h9.7Z" transform="translate(-419.109 -257.333)" fill="#ffb8b8"/>
    <path id="Path_6736" data-name="Path 6736" d="M596.453,447.384h12.669v7.977H588.476A7.977,7.977,0,0,1,596.453,447.384Z" transform="translate(-410.841 -277.657)" fill="#2f2e41"/>
    <path id="Path_6737" data-name="Path 6737" d="M716.982,428.938h-6.569L707.288,403.6h9.7Z" transform="translate(-465.989 -257.333)" fill="#ffb8b8"/>
    <path id="Path_6738" data-name="Path 6738" d="M697.453,447.384h12.669v7.977H689.476A7.977,7.977,0,0,1,697.453,447.384Z" transform="translate(-457.721 -277.657)" fill="#2f2e41"/>
    <path id="Path_6739" data-name="Path 6739" d="M848.1,368.586l-10.64,4.043-2.6-7.216A4.317,4.317,0,0,1,836.8,360.2h0a4.317,4.317,0,0,1,5.513,1.076Z" transform="translate(-607.822 -306.167)" fill="#6c63ff"/>
    <path id="Path_6740" data-name="Path 6740" d="M764.59,544.248l-12.37-2.821a2.672,2.672,0,0,1-2.043-3.011c4.963-31.459,9.739-49.882,22.045-73.277.172-.436,2.093-9.29,3.347-15.156a2.664,2.664,0,0,1,2.258-2.692l23.065-3.55a2.984,2.984,0,0,1,1.083-.163l.23.044,0,.227c0,.234-.236.27-.324.284l-.307.047a3.58,3.58,0,0,1,.951.646c10.106,12.155,15.361,52,22.035,96.015a2.4,2.4,0,0,1-.7,1.955,2.643,2.643,0,0,1-1.9.858l-14.737.359a2.67,2.67,0,0,1-2.7-2.26L794.6,484.389a2.13,2.13,0,0,0-4.016-.619c-8.008,16.308-15.476,30.412-22.83,58.549a2.653,2.653,0,0,1-2.568,2,2.693,2.693,0,0,1-.6-.068Z" transform="translate(-567.148 -393.165)" fill="#2f2e41"/>
    <path id="Path_6741" data-name="Path 6741" d="M797.819,411.457a2.678,2.678,0,0,1-1.116-1.9c-1.889-17.634-.573-31.435,4.022-42.189a13.391,13.391,0,0,1,8.877-7.6l11.922-.6.062.03a13.935,13.935,0,0,1,7.619,14.783c-3.835,10.108-7.045,20.631-4.6,29.121a2.744,2.744,0,0,1-.259,2.134,2.617,2.617,0,0,1-1.67,1.237l-22.708,5.4a2.661,2.661,0,0,1-2.152-.417Z" transform="translate(-588.371 -353.986)" fill="#e4740e"/>
    <path id="Path_6742" data-name="Path 6742" d="M763.367,383.965,740.5,365.925a5.64,5.64,0,0,1-.555.164,5.909,5.909,0,0,1-4.725-.906,5.847,5.847,0,0,1-2.479-4.144A5.895,5.895,0,0,1,744.334,359a5.653,5.653,0,0,1,.123.778l22.763,13.132,5.665-3.261,6.275,8.216-8.8,6.269a5.863,5.863,0,0,1-7-.171Z" transform="translate(-559.052 -351.8)" fill="#ffb8b8"/>
    <path id="Path_6743" data-name="Path 6743" d="M809.674,379.921l-9.412-6.4,4.423-6.265a4.317,4.317,0,0,1,5.384-1.407h0a4.317,4.317,0,0,1,2.279,5.134Z" transform="translate(-584.472 -357.715)" fill="#6c63ff"/>
    <ellipse id="Ellipse_59" data-name="Ellipse 59" cx="13.161" cy="13.161" rx="13.161" ry="13.161" transform="translate(216.013 -25.594)" fill="#ffb8b8"/>
    <path id="Path_6744" data-name="Path 6744" d="M815.421,308.571c-3.383,2.315-7.824,4.695-11.279,2.229a6.287,6.287,0,0,1-2.063-7.247c1.654-4.731,6.2-6.813,10.546-8.41,5.65-2.075,11.8-3.726,17.635-2.24s10.988,7.134,9.935,13.06c-.847,4.766-5.342,8.731-4.7,13.53.642,4.829,6.073,7.371,10.868,8.234s10.16,1.14,13.605,4.584c4.4,4.393,3.3,12.246-.838,16.884s-10.378,6.741-16.426,8.17c-8.013,1.894-16.68,2.889-24.291-.254s-13.533-11.6-11.328-19.537c.931-3.351,3.125-6.183,5.245-8.94s4.267-5.64,5.076-9.023a9.38,9.38,0,0,0-1.694-8.206,2.378,2.378,0,0,1-.318-2.779Z" transform="translate(-591.072 -322.965)" fill="#2f2e41"/>
  </g>
</svg>
