<svg xmlns="http://www.w3.org/2000/svg" width="1303.856" height="243.959" viewBox="0 0 1303.856 243.959"><path d="M3143,4107s64-87,191-87,0-78-52-11c-42.276,54.471,155.049,74.406,309.908,41.984,35.888-7.513,69.322-17.754,97.092-30.984,28.346-13.5,120.846-35,176,14s97.825,147.574,141,181c69.75,54,28.5-133,33-181,3.136-33.456,51.25-24.25,154,0,90.42,21.34,133.5,41.25,180,63,29.667,13.876,88.909,44.7,51,64s-117.977-88.675-113-121,130.958,13.339,135,22" transform="translate(-3142.597 -3981.233)" fill="none" stroke="#707070" stroke-width="1" stroke-dasharray="5"/></svg>