<svg xmlns="http://www.w3.org/2000/svg" xmlns:xlink="http://www.w3.org/1999/xlink" width="57.639" height="57.639" viewBox="0 0 57.639 57.639"><defs><linearGradient id="a" x1="0.574" y1="1.125" x2="0.308" y2="-0.453" gradientUnits="objectBoundingBox"><stop offset="0" stop-color="#3e1d14"/><stop offset="0.444" stop-color="#401e14"/><stop offset="0.69" stop-color="#482117"/><stop offset="0.887" stop-color="#56281c"/><stop offset="1" stop-color="#622e20"/></linearGradient><linearGradient id="b" x1="0.552" y1="1.408" x2="0.489" y2="0.121" gradientUnits="objectBoundingBox"><stop offset="0" stop-color="#3e1d14"/><stop offset="0.318" stop-color="#50251a"/><stop offset="0.676" stop-color="#5d2b1e"/><stop offset="1" stop-color="#622e20"/></linearGradient><linearGradient id="c" x1="0.467" y1="0.277" x2="0.555" y2="1.656" gradientUnits="objectBoundingBox"><stop offset="0" stop-color="#3e1d14"/><stop offset="0.703" stop-color="#56281c"/><stop offset="1" stop-color="#622e20"/></linearGradient><linearGradient id="d" x1="0.506" y1="0.464" x2="0.487" y2="1.561" xlink:href="#c"/><linearGradient id="e" x1="0.371" y1="-0.362" x2="0.849" y2="1.97" gradientUnits="objectBoundingBox"><stop offset="0" stop-color="#f0c999"/><stop offset="0.517" stop-color="#f1cb9b"/><stop offset="0.855" stop-color="#f4d3a4"/><stop offset="1" stop-color="#f7d9ab"/></linearGradient><linearGradient id="f" x1="3.013" y1="-0.922" x2="-0.237" y2="0.773" xlink:href="#e"/><linearGradient id="g" x1="0.125" y1="0.244" x2="0.773" y2="0.749" xlink:href="#e"/><linearGradient id="h" x1="-0.529" y1="-2.853" x2="1.356" y2="2.946" xlink:href="#e"/><linearGradient id="i" x1="1.853" y1="-2.308" x2="-0.14" y2="1.429" xlink:href="#e"/><linearGradient id="j" x1="0.426" y1="0.162" x2="0.631" y2="1.098" xlink:href="#e"/><linearGradient id="k" x1="0.204" y1="0.575" x2="1.358" y2="-0.133" xlink:href="#e"/><linearGradient id="l" x1="0.59" y1="1.643" x2="0.451" y2="-0.2" gradientUnits="objectBoundingBox"><stop offset="0" stop-color="#ffd537"/><stop offset="0.871" stop-color="#fece24"/><stop offset="1" stop-color="#fecd21"/></linearGradient><linearGradient id="m" x1="0.591" y1="1.508" x2="0.453" y2="-0.104" xlink:href="#l"/><linearGradient id="n" x1="0.305" y1="1.771" x2="0.883" y2="-2.028" gradientUnits="objectBoundingBox"><stop offset="0" stop-color="#edb22b"/><stop offset="0.384" stop-color="#f0b728"/><stop offset="0.889" stop-color="#fbc822"/><stop offset="1" stop-color="#fecd21"/></linearGradient><linearGradient id="o" x1="1.042" y1="3.265" x2="-0.056" y2="-2.399" gradientUnits="objectBoundingBox"><stop offset="0" stop-color="#fecd21"/><stop offset="0.111" stop-color="#fbc822"/><stop offset="0.616" stop-color="#f0b728"/><stop offset="1" stop-color="#edb22b"/></linearGradient><linearGradient id="p" x1="0.887" y1="-0.507" x2="0.16" y2="0.865" xlink:href="#o"/><linearGradient id="q" x1="0.505" y1="1.38" x2="0.499" y2="0.07" gradientUnits="objectBoundingBox"><stop offset="0" stop-color="#fecd21"/><stop offset="0.129" stop-color="#fece24"/><stop offset="1" stop-color="#ffd537"/></linearGradient><linearGradient id="r" x1="0.445" y1="0.052" x2="0.564" y2="0.984" gradientUnits="objectBoundingBox"><stop offset="0" stop-color="#dba779"/><stop offset="0.48" stop-color="#e3b486"/><stop offset="1" stop-color="#f0c999"/></linearGradient><linearGradient id="s" x1="-0.33" y1="0.971" x2="1.526" y2="-0.185" xlink:href="#n"/><linearGradient id="t" x1="1.817" y1="1.265" x2="-0.534" y2="-0.057" xlink:href="#n"/><linearGradient id="u" x1="0.673" y1="0.045" x2="0.27" y2="1.29" xlink:href="#r"/><linearGradient id="v" x1="-0.006" y1="0.077" x2="0.943" y2="0.974" xlink:href="#r"/><linearGradient id="w" x1="0.501" y1="0.04" x2="0.499" y2="1.071" gradientUnits="objectBoundingBox"><stop offset="0" stop-color="#f0c999"/><stop offset="0.145" stop-color="#f2ce9f"/><stop offset="0.483" stop-color="#f5d6a8"/><stop offset="1" stop-color="#f7d9ab"/></linearGradient><radialGradient id="x" cx="0.464" cy="0.453" r="0.47" gradientTransform="translate(-0.071) scale(1.142 1)" gradientUnits="objectBoundingBox"><stop offset="0" stop-color="#f9b58e"/><stop offset="0.564" stop-color="#f7c79c"/><stop offset="1" stop-color="#f7d9ab"/></radialGradient><linearGradient id="y" x1="0.342" y1="1.09" x2="0.641" y2="0.118" gradientUnits="objectBoundingBox"><stop offset="0" stop-color="#f7d9ab"/><stop offset="0.517" stop-color="#f5d6a8"/><stop offset="0.855" stop-color="#f2ce9f"/><stop offset="1" stop-color="#f0c999"/></linearGradient><radialGradient id="z" cx="0.537" cy="0.449" r="0.472" gradientTransform="translate(-0.063) scale(1.127 1)" xlink:href="#x"/><linearGradient id="aa" x1="0.504" y1="1.438" x2="0.5" y2="-0.041" xlink:href="#y"/><linearGradient id="ab" x1="0.665" y1="1.174" x2="0.154" y2="-1.34" gradientUnits="objectBoundingBox"><stop offset="0" stop-color="#ffdeb3"/><stop offset="1" stop-color="#f7d9ab"/></linearGradient><linearGradient id="ac" x1="0.949" y1="0.218" x2="0.032" y2="1.258" xlink:href="#r"/><linearGradient id="ad" x1="0.057" y1="0.217" x2="0.992" y2="1.226" xlink:href="#r"/><linearGradient id="ae" x1="1.177" y1="1.331" x2="0.393" y2="0.45" xlink:href="#y"/><linearGradient id="af" x1="0.87" y1="0.732" x2="0.273" y2="0.382" xlink:href="#y"/><linearGradient id="ag" x1="0.012" y1="0.5" x2="0.986" y2="0.5" gradientUnits="objectBoundingBox"><stop offset="0" stop-color="#e8d8d7"/><stop offset="0.137" stop-color="#efe4e4"/><stop offset="0.393" stop-color="#faf8f7"/><stop offset="0.569" stop-color="#fff"/><stop offset="1" stop-color="#e8d2d1"/></linearGradient><linearGradient id="ah" x1="-0.2" y1="0.5" x2="1.143" y2="0.5" gradientUnits="objectBoundingBox"><stop offset="0" stop-color="#e8d8d7"/><stop offset="0.041" stop-color="#ebdddc"/><stop offset="0.211" stop-color="#f6f0ef"/><stop offset="0.385" stop-color="#fcfbfb"/><stop offset="0.569" stop-color="#fff"/><stop offset="0.69" stop-color="#fbf7f7"/><stop offset="0.872" stop-color="#f1e3e3"/><stop offset="1" stop-color="#e8d2d1"/></linearGradient><linearGradient id="ai" x1="0.031" y1="0.5" x2="1.031" y2="0.5" gradientUnits="objectBoundingBox"><stop offset="0" stop-color="#f96e7e"/><stop offset="0.035" stop-color="#f9707f"/><stop offset="0.247" stop-color="#fd7985"/><stop offset="0.528" stop-color="#ff7d88"/><stop offset="0.764" stop-color="#fd7985"/><stop offset="0.997" stop-color="#f86d7d"/><stop offset="1" stop-color="#f86d7d"/></linearGradient><linearGradient id="aj" x1="-0.018" y1="0.485" x2="1.054" y2="0.506" gradientUnits="objectBoundingBox"><stop offset="0" stop-color="#e8d8d7"/><stop offset="0.047" stop-color="#eadcdb"/><stop offset="0.306" stop-color="#f6efee"/><stop offset="0.484" stop-color="#fbf6f6"/><stop offset="1" stop-color="#e8d2d1"/></linearGradient><linearGradient id="ak" x1="0" y1="0.5" x2="1" y2="0.5" xlink:href="#ai"/><linearGradient id="al" x1="0.963" y1="0.495" x2="0.121" y2="0.504" xlink:href="#r"/><linearGradient id="am" y1="0.5" x2="1" y2="0.5" gradientUnits="objectBoundingBox"><stop offset="0" stop-color="#fff"/><stop offset="0.467" stop-color="#fcfcfc"/><stop offset="0.773" stop-color="#f5f3f3"/><stop offset="1" stop-color="#ece7e7"/></linearGradient><linearGradient id="an" x1="0.873" y1="0.96" x2="0.239" y2="0.248" gradientUnits="objectBoundingBox"><stop offset="0" stop-color="#b89c8c"/><stop offset="1" stop-color="#715241"/></linearGradient><linearGradient id="ao" x1="0.329" y1="0.443" x2="1.757" y2="1.666" gradientUnits="objectBoundingBox"><stop offset="0" stop-color="#715241"/><stop offset="1" stop-color="#b89c8c"/></linearGradient><radialGradient id="ap" cx="0.36" cy="0.558" r="0.63" gradientTransform="translate(0.054) scale(0.891 1)" gradientUnits="objectBoundingBox"><stop offset="0" stop-color="#2a3a3b"/><stop offset="1" stop-color="#1c2727"/></radialGradient><linearGradient id="aq" y1="0.5" x2="1" y2="0.5" gradientUnits="objectBoundingBox"><stop offset="0" stop-color="#391b13"/><stop offset="0.343" stop-color="#3d1c14"/><stop offset="0.706" stop-color="#492219"/><stop offset="1" stop-color="#5a2a1f"/></linearGradient><linearGradient id="ar" x1="0.646" y1="0.2" x2="-0.469" y2="1.547" xlink:href="#r"/><linearGradient id="as" x1="-0.215" y1="0.5" x2="0.785" y2="0.5" gradientUnits="objectBoundingBox"><stop offset="0" stop-color="#5a2a1f"/><stop offset="0.294" stop-color="#492219"/><stop offset="0.657" stop-color="#3d1c14"/><stop offset="1" stop-color="#391b13"/></linearGradient><linearGradient id="at" x1="0" y1="0.5" x2="1" y2="0.5" xlink:href="#as"/><linearGradient id="au" x1="0.962" y1="0.495" x2="0.122" y2="0.504" gradientUnits="objectBoundingBox"><stop offset="0" stop-color="#f0c999"/><stop offset="0.52" stop-color="#e3b486"/><stop offset="1" stop-color="#dba779"/></linearGradient><linearGradient id="aw" x1="0.221" y1="0.1" x2="0.8" y2="1.042" xlink:href="#ao"/><linearGradient id="ax" x1="0.406" y1="0.511" x2="1.226" y2="3.237" xlink:href="#ao"/><radialGradient id="ay" cx="0.36" cy="0.558" r="0.63" xlink:href="#ap"/><linearGradient id="ba" x1="0.635" y1="0.447" x2="-0.163" y2="1.422" xlink:href="#r"/><linearGradient id="bd" x1="-0.057" y1="0.5" x2="0.943" y2="0.5" xlink:href="#ab"/><linearGradient id="be" x1="0.04" y1="0.5" x2="1.04" y2="0.5" xlink:href="#ab"/><linearGradient id="bf" x1="-0.21" y1="0.5" x2="1.105" y2="0.5" gradientUnits="objectBoundingBox"><stop offset="0" stop-color="#ffdeb3"/><stop offset="0.681" stop-color="#fcdcb0"/><stop offset="1" stop-color="#f7d9ab"/></linearGradient><linearGradient id="bg" x1="0" y1="0.5" x2="1" y2="0.5" xlink:href="#a"/><linearGradient id="bh" x1="-0.331" y1="0.845" x2="3.325" y2="-0.828" xlink:href="#a"/><linearGradient id="bi" y1="0.5" x2="1" y2="0.5" gradientUnits="objectBoundingBox"><stop offset="0" stop-color="#673024"/><stop offset="0.336" stop-color="#52261c"/><stop offset="0.677" stop-color="#462017"/><stop offset="1" stop-color="#421f16"/></linearGradient><linearGradient id="bj" y1="0.5" x2="1" y2="0.5" gradientUnits="objectBoundingBox"><stop offset="0" stop-color="#421f16"/><stop offset="0.323" stop-color="#462017"/><stop offset="0.664" stop-color="#52261c"/><stop offset="1" stop-color="#673024"/></linearGradient><linearGradient id="bk" x1="0" y1="0.5" x2="1" y2="0.5" xlink:href="#bf"/><linearGradient id="bl" x1="0.902" y1="0.949" x2="0.36" y2="0.005" xlink:href="#b"/><linearGradient id="bm" x1="0.316" y1="0.64" x2="0.833" y2="0.238" gradientUnits="objectBoundingBox"><stop offset="0" stop-color="#622e20"/><stop offset="0.379" stop-color="#663123"/><stop offset="0.797" stop-color="#733a2c"/><stop offset="1" stop-color="#7d4133"/></linearGradient><linearGradient id="bn" x1="0.131" y1="0.631" x2="0.721" y2="0.444" xlink:href="#bm"/><linearGradient id="bo" x1="0.901" y1="0.838" x2="0.269" y2="0.279" xlink:href="#bm"/><linearGradient id="bp" x1="2.077" y1="0.892" x2="-0.502" y2="0.244" xlink:href="#bm"/><linearGradient id="bq" x1="1.838" y1="1.06" x2="-2.596" y2="-0.85" xlink:href="#bm"/><linearGradient id="br" x1="0.774" y1="0.254" x2="0.19" y2="0.818" gradientUnits="objectBoundingBox"><stop offset="0" stop-color="#622e20"/><stop offset="0.31" stop-color="#50251a"/><stop offset="0.678" stop-color="#421f15"/><stop offset="1" stop-color="#3e1d14"/></linearGradient><linearGradient id="bs" x1="0.514" y1="1.018" x2="0.456" y2="-0.138" xlink:href="#b"/><linearGradient id="bt" x1="0.496" y1="3.303" x2="0.502" y2="-1.9" xlink:href="#r"/><linearGradient id="bu" x1="0.498" y1="1.146" x2="0.513" y2="-0.191" xlink:href="#bm"/><linearGradient id="bv" x1="0.296" y1="-0.325" x2="0.733" y2="1.154" xlink:href="#c"/><linearGradient id="bw" x1="0.217" y1="-0.613" x2="0.612" y2="1.161" xlink:href="#c"/><linearGradient id="bx" x1="0.312" y1="1.309" x2="1.758" y2="-4.922" xlink:href="#b"/><linearGradient id="by" x1="0.326" y1="1.267" x2="1.67" y2="-4.643" xlink:href="#b"/><linearGradient id="bz" x1="0.261" y1="2.012" x2="0.603" y2="-0.005" xlink:href="#b"/><linearGradient id="ca" x1="0.29" y1="1.909" x2="0.597" y2="-0.024" xlink:href="#b"/><linearGradient id="cb" x1="0.495" y1="0.912" x2="0.501" y2="0.074" gradientUnits="objectBoundingBox"><stop offset="0" stop-color="#a52223"/><stop offset="0.25" stop-color="#a01f20"/><stop offset="0.541" stop-color="#921618"/><stop offset="0.851" stop-color="#7a090a"/><stop offset="1" stop-color="#6d0103"/></linearGradient></defs><g transform="translate(-822.296 -822.77)"><circle cx="28.819" cy="28.819" r="28.819" transform="translate(822.296 880.409) rotate(-90)" fill="#f6ece6"/><g transform="translate(830.793 829.893)"><g transform="translate(0 0)"><g transform="translate(5.202 0.985)"><path d="M932.042,872.562c.5,1.244-10.675,13.92-10.924,17.4-.68,5.441-.945,15.171,3.528,18.428.254.079,11.581.7,17.292.381C951.471,890.388,931.7,870.666,932.042,872.562Z" transform="translate(-918.361 -872.435)" fill="url(#a)"/><path d="M908.572,884.524c-1.067,2.7-5.193,21.693.82,27.53a76.768,76.768,0,0,1-.436-17.8c.249-3.484,3.484-5.474,5.723-7.963.746-1,.249-1.991-.249-3.235-.344-1.9.5-3.674.894-5.5C911.9,877.593,910.128,880.582,908.572,884.524Z" transform="translate(-906.199 -876.724)" fill="url(#b)"/><path d="M1028.088,927.806c-2.006,2.043-2.031,5.011-1.622,9.326,1.221,12.875-1.776,15.846-1.776,15.846,6.915-.93,11.1-5.741,9.99-12.043C1033.424,933.807,1028.088,927.806,1028.088,927.806Z" transform="translate(-1005.345 -918.766)" fill="url(#c)"/><path d="M915.584,904.884a108.887,108.887,0,0,1-5.311,11.439c-5.954,9.942,1.569,21.354,8.712,20.027a100.193,100.193,0,0,1-1.9-18.267C917.074,913.345,917.649,911.8,915.584,904.884Z" transform="translate(-907.805 -899.586)" fill="url(#d)"/></g><path d="M878.27,1085.952s-1.646,1.967-2.082,6.579a28.924,28.924,0,0,0,5.445,4.137C881.305,1092.906,880.535,1087.894,878.27,1085.952Z" transform="translate(-875.886 -1050.107)" fill="#f7d9ab"/><path d="M888.584,1137.156a28.873,28.873,0,0,0,3.818,2.586l-.093-1.5Z" transform="translate(-886.258 -1092.952)" fill="url(#e)"/><path d="M1097.495,1089.1c-.622-4.7-2.392-6.631-2.392-6.631-2.28,2.138-2.772,7.267-2.906,10.88A28.938,28.938,0,0,0,1097.495,1089.1Z" transform="translate(-1056.629 -1047.191)" fill="#f7d9ab"/><path d="M905.319,1018.329c-.863-.648-.863-7.987-.863-7.987l-7.339,1.3s1.314,6.013-.851,6.8c-1.544.564-11.5,2.021-13.029,3.574-2.43,2.474-1.453,7.846-1.453,7.846s30.993,2.856,37.625.622q.633-.54,1.236-1.114c-.429-4.092-.011-5.372-1.726-7.328C918.228,1021.254,906.414,1019.15,905.319,1018.329Z" transform="translate(-880.406 -986.842)" fill="#f7d9ab"/><path d="M993.839,1081.514a7.493,7.493,0,0,1,2.227-.549C994.349,1080.616,993.839,1081.514,993.839,1081.514Z" transform="translate(-974.329 -1045.867)" fill="url(#f)"/><path d="M950.511,1026.456s-8.513.468-8.645.318c.007.6.08,4.054.021,4.509-.068.519-.108.584-5.948,1.837a21.98,21.98,0,0,0,5.986.721c.675.006,1.22-1.1,1.3-2.1a9.881,9.881,0,0,0,5.841-1.47c.205,1.507.43,3.361.914,3.674s4.827-.156,4.827-.156l.592-.707a11.367,11.367,0,0,1-4.224-1.5C950.59,1031.027,950.511,1026.456,950.511,1026.456Z" transform="translate(-925.882 -1000.325)" fill="url(#g)"/><path d="M944.787,1069.072c-.6-.15-7.274-.373-8.056-.526,0,0,2.969.648,4.685.848s3.062-.1,4.407.948C945.823,1070.342,945.39,1069.221,944.787,1069.072Z" transform="translate(-926.544 -1035.543)" fill="url(#h)"/><path d="M1006.079,1071.273a2.376,2.376,0,0,0-1.159,1.109c1.438-.892,8.535-1.186,8.535-1.186A51.577,51.577,0,0,0,1006.079,1071.273Z" transform="translate(-983.601 -1037.683)" fill="url(#i)"/><path d="M1089.972,1134.542l-.029,1.511a28.923,28.923,0,0,0,3.893-2.819Z" transform="translate(-1054.743 -1089.67)" fill="url(#j)"/><path d="M947.705,1068.271c-6.749.393-7.19-5.255-7.19-5.255l-2.9.606s1.164,8.373,9.324,7.97a10.858,10.858,0,0,0,10.011-7.887l-2.14-.455S954.527,1067.875,947.705,1068.271Z" transform="translate(-927.282 -1030.916)" fill="url(#k)"/><path d="M910.206,1078.9c.031-.5.053-.786.053-.786l1.888-.577a28.982,28.982,0,0,0,3.339-2.987,23.105,23.105,0,0,0-1.954-5.955c-.856-1.515-10.11-2.948-10.11-2.948s-1.419,5.822-9.086,5.822-8.649-6.042-8.649-6.042-8.561,1.518-9.515,3.465a29.252,29.252,0,0,0-1.834,6.17,28.956,28.956,0,0,0,3.6,3.041l1.654.346s.053.295.131.832a28.844,28.844,0,0,0,30.484-.38Z" transform="translate(-874.337 -1032.933)" fill="#fecd21"/><path d="M1075.345,1077.047c-.442-2.2-1.25-5.6-2.072-6.205-1.784-1.317-7.89-2.427-7.89-2.427,2.452.843,6.456,2.282,7.231,4,.243.538,1.2,3.856,1.715,5.642Q1074.849,1077.564,1075.345,1077.047Z" transform="translate(-1034.193 -1035.434)" fill="url(#l)"/><path d="M883.889,1067.676s-5.678,1.068-7.4,2.658c-.9.828-1.733,4.52-2.146,6.611q.61.607,1.256,1.176c.373-1.488,1.358-5.363,1.656-5.947C878.111,1070.49,881.436,1068.518,883.889,1067.676Z" transform="translate(-874.34 -1034.815)" fill="url(#m)"/><path d="M1094.608,1131.386l-.247.96,1.882-.572q.954-.729,1.845-1.533Z" transform="translate(-1058.439 -1087.166)" fill="url(#n)"/><path d="M889.6,1136.315l-3.007-.762q.852.7,1.759,1.339l1.562.364Z" transform="translate(-884.592 -1091.61)" fill="url(#o)"/><path d="M953.088,1069.921c-7.616.571-8.219-5.8-8.219-5.8l-1.02.213s.674,7.024,9.24,6.436c7.764-.533,8.5-6.215,8.5-6.215l-.731-.2S960.166,1069.39,953.088,1069.921Z" transform="translate(-932.5 -1031.841)" fill="url(#p)"/><path d="M938.6,1111.556c-6.9.689-8.039.855-13.351,1.634-9.241,1.354-2.122,6.834,1.786,7.223,7.286.724,14.624.057,18.686-4C949.172,1112.96,945.5,1110.866,938.6,1111.556Z" transform="translate(-913.146 -1071.421)" fill="url(#q)"/><path d="M971.084,1022.947a28.693,28.693,0,0,1,.234,4.428,9.092,9.092,0,0,0,8.686-1.886l-.072-1.587Z" transform="translate(-955.289 -997.389)" fill="url(#r)"/><path d="M1090.956,1113.641s-.666-3.954-.783-4.983c-.176-1.555-.467,1.233-.354,3.446a27.571,27.571,0,0,1-.02,3.019q.378-.228.749-.467c-.006-.475-.009-.746-.009-.746Z" transform="translate(-1054.618 -1068.728)" fill="url(#s)"/><path d="M903.275,1108.46l-.519,5.347.476.149s.009.382.078,1.2q.492.3,1,.589c-.069-.833-.114-1.583-.22-2.587C903.944,1111.807,903.788,1108.2,903.275,1108.46Z" transform="translate(-898.116 -1068.929)" fill="url(#t)"/><g transform="translate(5.116)"><path d="M931.516,968.482c-1.722.008-.354,4.881,1.349,5.391,0,0-.207-2.007-.695-4.632C932.17,969.242,931.817,968.48,931.516,968.482Z" transform="translate(-926.632 -951.816)" fill="#f0c999"/><path d="M932.966,973.684c.437-2.313-1.093-2.649-.812-1,0,0,.245-.732.43-.484.226.3-.276.4-.074,1.645a3.673,3.673,0,0,0,.711,1.383A1.978,1.978,0,0,1,932.966,973.684Z" transform="translate(-927.801 -954.471)" fill="url(#u)"/><path d="M1057.929,968.272c-.3.007-.633.777-.633.777-.417,2.637-.57,4.648-.57,4.648C1058.416,973.141,1059.652,968.233,1057.929,968.272Z" transform="translate(-1032.065 -951.64)" fill="#f0c999"/><path d="M1060.224,973.615a1.907,1.907,0,0,1-.384,1.553,3.467,3.467,0,0,0,.86-1.326c.305-1.254-.224-1.427.041-1.71.216-.23.424.563.424.563C1061.585,971.038,1059.924,971.161,1060.224,973.615Z" transform="translate(-1034.67 -954.415)" fill="url(#v)"/><path d="M947.928,886.9c-3.835.171-7.574,6.838-8.023,12.517-.644,8.157,2.4,7.876,4.766,10.269.721.727,2.454,3.368,5.206,3.234,1.9-.092,3.834-2.195,5.1-3.275,3.93-3.36,5.1-6.746,4.17-11.648C957.971,891.785,953.768,885.858,947.928,886.9Z" transform="translate(-934.243 -883.455)" fill="#f7d9ab"/><path d="M945.5,945.317a4.353,4.353,0,0,0-3.1,1.149,3.331,3.331,0,0,0-.783,3.711,7.439,7.439,0,0,0,8.7,1.544C949.853,949.134,949.826,945.635,945.5,945.317Z" transform="translate(-935.526 -932.425)" fill="url(#w)"/><path d="M944.039,970.287c-1.537-.294-3.94.966-3.737,2.626.366,3.019,1.783,5.443,3.678,4.668a4.9,4.9,0,0,0,2.822-3.661C947.114,972.274,945.576,970.581,944.039,970.287Z" transform="translate(-934.637 -953.29)" fill="url(#x)"/><path d="M1012.54,947.111a4.166,4.166,0,0,0-3.131-.825c-4.315.459-4.193,3.735-4.564,6.334a6.947,6.947,0,0,0,8.368-1.818A3.054,3.054,0,0,0,1012.54,947.111Z" transform="translate(-988.654 -933.219)" fill="url(#y)"/><path d="M1023.024,972.509c-1.4.372-2.863,1.787-2.49,3.189s1.428,3.9,2.857,3.665c1.846-.3,3.222-1.324,3.248-4.754C1026.651,973.155,1024.422,972.137,1023.024,972.509Z" transform="translate(-1001.732 -955.121)" fill="url(#z)"/><g transform="translate(6.816 14.6)"><g transform="translate(6.226 5.079)"><path d="M990.047,997.1a10.627,10.627,0,0,0,1.778-.952l-3.64-.052A7.5,7.5,0,0,0,990.047,997.1Z" transform="translate(-987.755 -994.602)" fill="url(#aa)"/><path d="M993.417,986.937c-.966.013-1.242.254-1.175.513.164.629.572.752,1.176.759.635.007,1.133-.127,1.24-.8C994.689,987.209,994.385,986.923,993.417,986.937Z" transform="translate(-991.142 -986.936)" fill="url(#ab)"/><path d="M1003.324,994.363s1.774.052,1.208-.541C1004.342,993.623,1003.324,994.363,1003.324,994.363Z" transform="translate(-1000.423 -992.669)" fill="url(#ac)"/><path d="M987.642,994.018c-.6.5,1.27.5,1.27.5S987.854,993.843,987.642,994.018Z" transform="translate(-987.202 -992.838)" fill="url(#ad)"/><path d="M987.824,992.964c-1.8-.05-1.99-.932-2.242-.372-.1.23.087.3.4.417,0,0-.1-.26.3-.228.291.023.516.646,1.555.631,1.109-.017,1.268-.572,1.553-.583a.2.2,0,0,1,.229.232s.529-.264.334-.51C989.6,992.1,989.479,993.009,987.824,992.964Z" transform="translate(-985.553 -991.513)" fill="#f0c999"/></g><g transform="translate(3.759 7.725)"><path d="M970.477,1004.042c-.1.184.036.375.275.454a4.429,4.429,0,0,1,1.213.643C971.575,1004.583,970.564,1003.877,970.477,1004.042Z" transform="translate(-970.444 -1003.875)" fill="url(#ae)"/><path d="M1019.978,1004.38a4.425,4.425,0,0,1,1.154-.743c.233-.1.35-.3.236-.475C1021.268,1003.006,1020.32,1003.794,1019.978,1004.38Z" transform="translate(-1011.891 -1003.143)" fill="url(#af)"/><path d="M985.52,1018.126a2.859,2.859,0,0,0,4.773-.051A6.1,6.1,0,0,1,985.52,1018.126Z" transform="translate(-983.059 -1015.637)" fill="#f0c999"/><path d="M972.211,1004.593v.005a.675.675,0,0,1,.041.059,4.7,4.7,0,0,1,1.065.521c.3.212.6,1.65,3.507,1.6a4.216,4.216,0,0,0,3.48-1.671,2.515,2.515,0,0,1,.8-.585c.006-.027.018-.038.025-.066a14.007,14.007,0,0,1-4.656.609A18.938,18.938,0,0,1,972.211,1004.593Z" transform="translate(-971.922 -1004.242)" fill="#961b27"/><path d="M988.348,1009.635a14.793,14.793,0,0,1-4.66.2c-.469-.2-.42.39-.42.39a3,3,0,0,0,2.675.857,4.4,4.4,0,0,0,2.74-.965C988.751,1009.927,988.576,1009.583,988.348,1009.635Z" transform="translate(-981.173 -1008.571)" fill="url(#ag)"/><path d="M982.3,1006.35a7.209,7.209,0,0,1-1.492-.247,1.621,1.621,0,0,1,.2.323c.1.228.6,1,2.942.956,1.763-.032,2.688-.666,2.812-1.047.074-.23.237-.332.251-.41a5.939,5.939,0,0,1-1.782.4A15.262,15.262,0,0,1,982.3,1006.35Z" transform="translate(-979.118 -1005.471)" fill="url(#ah)"/><path d="M977.189,1007.01c-3.58.018-2.344-1.452-4.729-2.014a4.411,4.411,0,0,1,1.181,1.009c.7.8,1.3,2.051,3.307,2.023a4.376,4.376,0,0,0,3.373-2.08,5.891,5.891,0,0,1,1-1.085C979.381,1005.405,980.034,1006.9,977.189,1007.01Z" transform="translate(-972.131 -1004.581)" fill="#f86d78"/><path d="M986.182,1010.679a6.8,6.8,0,0,1-1.826.347,4.892,4.892,0,0,1-1.819-.289,5.444,5.444,0,0,1-1.151-.952,3.332,3.332,0,0,0,2.933,2.011c2.331-.065,2.742-1.632,3.156-2.1A3.561,3.561,0,0,1,986.182,1010.679Z" transform="translate(-979.6 -1008.625)" fill="url(#ai)"/><path d="M1000.372,1017.251c-.235.083-1.045.145-1.013.227a1.324,1.324,0,0,0,1.127.068c.474-.136.7-.409.665-.49S1000.607,1017.168,1000.372,1017.251Z" transform="translate(-994.637 -1014.768)" fill="#ff9aa2"/><path d="M971.55,1004.946a3.507,3.507,0,0,1,.814.156,8.014,8.014,0,0,0-1.023-.464C971.3,1004.658,971.34,1004.851,971.55,1004.946Z" transform="translate(-971.181 -1004.393)" fill="#961b27"/><path d="M1021.94,1004.291a2.8,2.8,0,0,1,.786-.189c.206-.1.24-.287.2-.314A4.975,4.975,0,0,0,1021.94,1004.291Z" transform="translate(-1013.533 -1003.679)" fill="#961b27"/><path d="M981.272,1007.251a7.006,7.006,0,0,0,3.1.52,6.519,6.519,0,0,0,2.64-.594l.117-.278-6.01.074Z" transform="translate(-979.375 -1006.286)" fill="url(#aj)"/><path d="M973.393,1004.8a9.937,9.937,0,0,0,2.526.65,8.3,8.3,0,0,0,1.822.214,10.729,10.729,0,0,0,2-.27,10.1,10.1,0,0,0,2.2-.708,37.657,37.657,0,0,1-4.161.3A32.01,32.01,0,0,1,973.393,1004.8Z" transform="translate(-972.912 -1004.437)" fill="#f86d78"/><path d="M989.152,1007.051c-.176,0-1.782-.014-1.953-.013a6.588,6.588,0,0,0-1.232.031c-.056.217,2.331.356,2.548.335a14.335,14.335,0,0,0,2.066-.342A6.89,6.89,0,0,0,989.152,1007.051Z" transform="translate(-983.432 -1006.386)" fill="url(#ak)"/></g><g transform="translate(10.695)"><path d="M1017.954,956.679a3.338,3.338,0,0,0-3.812-.1,3.828,3.828,0,0,0-1.214,2.123,4.644,4.644,0,0,0,2.424,1.066,4.07,4.07,0,0,0,2.311-.5,1.7,1.7,0,0,0,.991-1.476A1.4,1.4,0,0,0,1017.954,956.679Z" transform="translate(-1012.928 -955.984)" fill="url(#al)"/><path d="M1016.653,962.679a2.928,2.928,0,0,0-2.862,1.566,4.337,4.337,0,0,0,3.663.706,3.444,3.444,0,0,0,1.389-.905A2.787,2.787,0,0,0,1016.653,962.679Z" transform="translate(-1013.65 -961.546)" fill="url(#am)"/><path d="M1016.116,962.538a3.548,3.548,0,0,0-2.325,1.6,4.349,4.349,0,0,1,2.6-.885,3.411,3.411,0,0,1,2.267.893s.061-.065.181-.207C1018.843,963.941,1018.282,962.637,1016.116,962.538Z" transform="translate(-1013.65 -961.442)" fill="#ddd"/><path d="M1020.544,961.439a1.522,1.522,0,0,0-1.511,1.531,1.11,1.11,0,0,0,.479.917,3.645,3.645,0,0,0,2.039.135,1.2,1.2,0,0,0,.6-1.146A1.522,1.522,0,0,0,1020.544,961.439Z" transform="translate(-1018.035 -960.522)" fill="url(#an)"/><path d="M1021.571,962.537H1019.8a1.673,1.673,0,0,0-.659,1.088,3.117,3.117,0,0,1,3.067-.079A1.53,1.53,0,0,0,1021.571,962.537Z" transform="translate(-1018.124 -961.442)" fill="url(#ao)"/><path d="M1023.094,964.137a.992.992,0,0,0-1.116.814.947.947,0,0,0,.916,1,1,1,0,0,0,1.117-.814A.948.948,0,0,0,1023.094,964.137Z" transform="translate(-1020.496 -962.777)" fill="url(#ap)"/><path d="M1016.58,959.27a2.552,2.552,0,0,0-2.789,2.137,2.735,2.735,0,0,1,2.664-1.362,4.047,4.047,0,0,1,2.5,1.184c.709-.1.754-1,.751-1.09C1018.957,960.472,1017.928,959.283,1016.58,959.27Z" transform="translate(-1013.65 -958.708)" fill="url(#aq)"/><path d="M1016.053,956.212a2.89,2.89,0,0,0-1.1,1.364,4.2,4.2,0,0,1,1.41-1.337,3.884,3.884,0,0,1,2.719-.033A3.155,3.155,0,0,0,1016.053,956.212Z" transform="translate(-1014.618 -955.828)" fill="url(#ar)"/><path d="M1016.381,963.167a2.472,2.472,0,0,0-2.59,1.5,2.8,2.8,0,0,1,2.514-1.317,3.751,3.751,0,0,1,2.471,1.047A2.823,2.823,0,0,0,1016.381,963.167Z" transform="translate(-1013.65 -961.968)" fill="url(#as)"/><path d="M1026.4,967.739a.239.239,0,0,0-.319.124.251.251,0,0,0,.115.331.239.239,0,0,0,.319-.125A.251.251,0,0,0,1026.4,967.739Z" transform="translate(-1023.914 -965.776)" fill="#fff"/><path d="M1031.1,968.814a.332.332,0,0,0-.439.159.326.326,0,0,0,.164.434.333.333,0,0,0,.439-.159A.325.325,0,0,0,1031.1,968.814Z" transform="translate(-1027.739 -966.668)" fill="#fff"/><path d="M1032.425,970.176c.1-.095-.275-.161-.227-.213a3.242,3.242,0,0,1-2.312,1.282,3.152,3.152,0,0,0,1.955-.583h0a1.528,1.528,0,0,0,1.248-.63C1032.615,970.377,1032.425,970.176,1032.425,970.176Z" transform="translate(-1027.117 -967.655)" fill="url(#at)"/></g><g transform="translate(0 0)"><path d="M954.6,956.575a3.338,3.338,0,0,0-3.811.118,1.4,1.4,0,0,0-.693,1.123,1.7,1.7,0,0,0,1,1.47,4.069,4.069,0,0,0,2.314.485,4.645,4.645,0,0,0,2.418-1.08A3.826,3.826,0,0,0,954.6,956.575Z" transform="translate(-949.66 -955.984)" fill="url(#au)"/><path d="M955.57,962.674a2.787,2.787,0,0,0-2.182,1.379,3.444,3.444,0,0,0,1.394.9,4.336,4.336,0,0,0,3.659-.727A2.928,2.928,0,0,0,955.57,962.674Z" transform="translate(-952.413 -961.54)" fill="url(#am)"/><path d="M956.107,962.523c-2.165.112-2.719,1.419-2.719,1.419.12.142.182.206.182.206a3.41,3.41,0,0,1,2.262-.906,4.348,4.348,0,0,1,2.61.87A3.549,3.549,0,0,0,956.107,962.523Z" transform="translate(-952.413 -961.429)" fill="#ddd"/><path d="M961.6,961.427a1.522,1.522,0,0,0-1.594,1.446,1.2,1.2,0,0,0,.6,1.143,3.632,3.632,0,0,0,2.008-.137,1.1,1.1,0,0,0,.5-.929A1.522,1.522,0,0,0,961.6,961.427Z" transform="translate(-957.953 -960.513)" fill="url(#aw)"/><path d="M962.383,962.638l-1.57-.08a1.678,1.678,0,0,0-.628,1.012,3.117,3.117,0,0,1,3.068.062A1.135,1.135,0,0,0,962.383,962.638Z" transform="translate(-958.1 -961.459)" fill="url(#ax)"/><path d="M964.544,964.125a.947.947,0,0,0-.911,1,1,1,0,0,0,1.122.808.947.947,0,0,0,.91-1A.992.992,0,0,0,964.544,964.125Z" transform="translate(-960.981 -962.766)" fill="url(#ay)"/><path d="M950.644,959.272c-1.348.02-2.418,1.289-3.227.815,0,.088.151,1.057.86,1.157a3.979,3.979,0,0,1,2.48-1.2,2.771,2.771,0,0,1,2.688,1.351A2.552,2.552,0,0,0,950.644,959.272Z" transform="translate(-947.417 -958.709)" fill="url(#at)"/><path d="M960.839,956.205a3.154,3.154,0,0,0-3.023.011,3.883,3.883,0,0,1,2.719.017,4.2,4.2,0,0,1,1.417,1.329A2.888,2.888,0,0,0,960.839,956.205Z" transform="translate(-956.118 -955.829)" fill="url(#ba)"/><path d="M956.183,963.159A2.823,2.823,0,0,0,953.8,964.4a3.75,3.75,0,0,1,2.465-1.062,2.8,2.8,0,0,1,2.522,1.3A2.472,2.472,0,0,0,956.183,963.159Z" transform="translate(-952.754 -961.961)" fill="url(#as)"/><path d="M968.71,967.687a.244.244,0,0,0-.331.113.257.257,0,0,0,.1.341.244.244,0,0,0,.33-.114A.255.255,0,0,0,968.71,967.687Z" transform="translate(-964.934 -965.728)" fill="#fff"/><path d="M973.424,968.967a.338.338,0,0,0-.454.143.333.333,0,0,0,.148.448.339.339,0,0,0,.454-.143A.333.333,0,0,0,973.424,968.967Z" transform="translate(-968.768 -966.791)" fill="#fff"/><path d="M949.6,970.042c.048.052-.324.121-.226.215l.009.008c-.043.034-.239.15-.655-.149a1.539,1.539,0,0,0,1.236.624,3.184,3.184,0,0,0,1.968.567A3.263,3.263,0,0,1,949.6,970.042Z" transform="translate(-948.512 -967.721)" fill="url(#aq)"/></g></g><path d="M946.831,979.743c-.521-.124-1,.007-1.068.292s.3.617.824.741,1-.007,1.069-.291S947.355,979.868,946.831,979.743Z" transform="translate(-939.21 -961.199)" fill="url(#bd)"/><path d="M1043.777,979.06c-.521.107-.9.425-.838.709s.528.427,1.05.321.9-.424.838-.709S1044.3,978.953,1043.777,979.06Z" transform="translate(-1020.523 -960.637)" fill="url(#be)"/><path d="M994.044,1031.1c-.583-.031-1.069.2-1.087.521s.443.6,1.026.632,1.071-.2,1.088-.521S994.629,1031.127,994.044,1031.1Z" transform="translate(-978.707 -1004.205)" fill="url(#bf)"/><path d="M946.185,896.236c-3.534.091-6.158,6.344-6.547,10.641a21.682,21.682,0,0,0,.181,5.237c.593-7.293,2.433-10.725,2.433-10.725,1.155,2.1,5.459,2.985,8.464,3.356s7.347.86,7.347.86c.261.422,1.189,4.494,1.189,4.494-.495-3.3.08-5.388-1.656-10.427S946.185,896.236,946.185,896.236Z" transform="translate(-934.025 -891.162)" fill="#f0c999"/><path d="M938.092,946.673l.21,1.625c.249-1.1.354-6.444.354-6.444C937.6,943.49,938.092,946.673,938.092,946.673Z" transform="translate(-932.704 -929.535)" fill="url(#bg)"/><path d="M1058.128,956.993l.072-2.277-.466-2.47A32.641,32.641,0,0,0,1058.128,956.993Z" transform="translate(-1032.908 -938.23)" fill="url(#bh)"/><path d="M950.114,944.378a5.435,5.435,0,0,0-3.139-.183,7.013,7.013,0,0,0-2.18,1.449,5.793,5.793,0,0,1,2.247-.83,8.834,8.834,0,0,1,3.728.433C951.448,945.37,951.043,944.778,950.114,944.378Z" transform="translate(-938.407 -931.37)" fill="url(#bi)"/><path d="M1036.593,947.739a5,5,0,0,0-3.173-.871c4.023.314,3.077,3.792,3.077,3.792S1037.606,948.377,1036.593,947.739Z" transform="translate(-1012.563 -933.714)" fill="#f7d9ab"/><path d="M1017.4,944.55c-.8.219-1.45,1.036-.777.912a12.272,12.272,0,0,1,3.686-.409,4.962,4.962,0,0,1,2.258.681,7.753,7.753,0,0,0-2.192-1.294A6.254,6.254,0,0,0,1017.4,944.55Z" transform="translate(-998.278 -931.589)" fill="url(#bj)"/><path d="M944.287,982.083a7.327,7.327,0,0,1-2.6-7.146,5.786,5.786,0,0,0,2.072,7.334,28.953,28.953,0,0,1,3.453,2.752A12.409,12.409,0,0,0,944.287,982.083Z" transform="translate(-935.345 -957.217)" fill="#f0c999"/><path d="M1026.927,970.615c1.785,2.473-.184,5.939-1.886,7.464a32.741,32.741,0,0,0-3.1,3.274c.271-.235,2.746-2.419,3.559-3.042C1026.621,977.451,1030.32,973.224,1026.927,970.615Z" transform="translate(-1002.958 -953.601)" fill="url(#bk)"/><g transform="translate(0 0.271)"><path d="M969.509,872.495c-4.854-4.986-12-5.786-16.168-2.31-.243.2-3.829,9.293,8.388,10.248,0,0-4.269-1.416-4.451-4.346,0,0,2,5.113,11.639,5.3a6.122,6.122,0,0,1-1.4-2.667s3.393,3.776,2.225,12.229c-1.043,7.553-1.019,21.6-3.876,22.622,2.059.084,9.166-3.23,8.73-24.25C974.364,878.292,970.927,873.951,969.509,872.495Z" transform="translate(-944.994 -868.059)" fill="url(#bl)"/><path d="M967.709,885.268s4.335,9.359,11.548,9.474C979.257,894.742,981.23,886.691,967.709,885.268Z" transform="translate(-957.58 -882.458)" fill="url(#bm)"/><path d="M963.4,892.644s-1.677,4.78,2.995,6.548C966.4,899.192,963.175,895.164,963.4,892.644Z" transform="translate(-953.733 -888.63)" fill="url(#bn)"/><g transform="translate(1.538 4.408)"><path d="M917.135,900.05c-2.995,6.49-1.808,7.571-1.836,8.648a25.544,25.544,0,0,1,2.649-8.039c1.846-3.323,2.648-5.639,2.7-5.6A13.485,13.485,0,0,0,917.135,900.05Z" transform="translate(-915.09 -895.059)" fill="url(#bo)"/><path d="M916.213,978.819a1.293,1.293,0,0,0,.025-.224A1.349,1.349,0,0,0,916.213,978.819Z" transform="translate(-916.029 -964.957)" fill="url(#bp)"/></g><g transform="translate(20.245 4.81)"><path d="M1029.675,897.521a46.266,46.266,0,0,1,4.781,4.892c2.621,2.827,2.192,8.776,2.159,8.788.066-.028.888-6.914-1.671-9.618A15.985,15.985,0,0,0,1029.675,897.521Z" transform="translate(-1029.675 -897.519)" fill="url(#bq)"/></g><path d="M953.355,897.589a7.76,7.76,0,0,1-1-4.081,5.95,5.95,0,0,0,.593,4.237,7.212,7.212,0,0,0,3.272,2.766A10.641,10.641,0,0,1,953.355,897.589Z" transform="translate(-944.606 -889.351)" fill="url(#br)"/><path d="M911.947,926.187c-.876-7.875-.387-9.058,1.386-18.791-4.546,9.189-6.513,10.17-7.586,17.249-.411,2.71.9,13.431,2.533,16.085a8.309,8.309,0,0,0,7.354,5.869C911.09,945.042,912.45,930.7,911.947,926.187Z" transform="translate(-905.67 -900.974)" fill="url(#bs)"/></g><path d="M980.424,1037.771s2.766,3.365,6.536-.167C986.96,1037.6,983.485,1040.212,980.424,1037.771Z" transform="translate(-968.22 -1009.653)" fill="url(#bt)"/><path d="M936.455,866.68c-4.686-.816-6.965.334-8.311,1.083h.006c-.485.269-.76.46-.76.46-4.88-.121-6.655,6.963-6.655,6.963,2.718-5.276,5.875-6.3,5.875-6.3a14.728,14.728,0,0,1,10.067-.663c2.945.876,6.618,3.939,8.783,6.963C945.461,875.185,942.6,867.75,936.455,866.68Z" transform="translate(-918.276 -866.4)" fill="url(#bu)"/><path d="M933.367,921.046c.043-3.2,1.744-12.628,1.744-12.628s-3.061,7.575-3.314,12.819c-.62,12.841,3.539,18.4,3.539,18.4A143.436,143.436,0,0,1,933.367,921.046Z" transform="translate(-927.479 -901.558)" fill="url(#bv)"/><path d="M1039.8,933.326s2.4,3.608,2.387,7.1-.316,13.45-3.13,19.888c0,0,4.647-3.428,4.09-19.781C1043.019,936.781,1039.8,933.326,1039.8,933.326Z" transform="translate(-1017.28 -922.399)" fill="url(#bw)"/><path d="M1055.468,1066.777c3.856-2.719,4.72-14.07,4.72-14.07l-3.31,10.984Z" transform="translate(-1031.012 -1022.29)" fill="url(#bx)"/><path d="M908.48,1057.166s1.079,10.828,4.565,13.342l-1.221-3.563Z" transform="translate(-908.021 -1026.021)" fill="url(#by)"/><path d="M1050.043,1016.315s5.707-4.952,4.894-22.326C1054.937,993.989,1054.464,1007.148,1050.043,1016.315Z" transform="translate(-1026.472 -973.158)" fill="url(#bz)"/><path d="M919.043,1014.968s-5.22-6.965-5.278-23.3C913.765,991.672,911.736,1008.536,919.043,1014.968Z" transform="translate(-912.227 -971.22)" fill="url(#ca)"/></g></g><path d="M956.721,956.194c-.322,0-5.461-.069-6.259.02a9.185,9.185,0,0,0-2.61.728c-.159.032-.578,0-.9.037-.322-.03-.739,0-.9-.027a9.684,9.684,0,0,0-2.664-.7c-.8-.08-5.962.046-6.283.048s-.258,1.123-.287,1.219.425.254.593.477.7,2.911,1.35,3.291,4.4,1.051,5.6.147,1.313-3.231,1.819-3.522a1.6,1.6,0,0,1,1.606-.008c.523.285.816,2.616,2.064,3.506s4.942.2,5.573-.192.938-3.1,1.093-3.325.6-.388.565-.483S957.043,956.192,956.721,956.194Zm-12.754,5.05c-1.269.583-4.665.138-5.067-.4s-.961-2.905-.3-3.389,3.687-.619,4.461-.559,1.893.288,2.116.638C945.48,958.009,945.238,960.661,943.968,961.244Zm11.289-.475c-.371.546-3.727,1.016-5.03.446s-1.727-3.223-1.452-3.7c.2-.352,1.3-.593,2.065-.661s3.791-.181,4.479.3S955.626,960.222,955.256,960.768Z" transform="translate(-926.617 -941.513)" fill="url(#cb)"/></g></g></svg>