<svg xmlns="http://www.w3.org/2000/svg" xmlns:xlink="http://www.w3.org/1999/xlink" width="57.638" height="57.639" viewBox="0 0 57.638 57.639">
  <defs>
    <linearGradient id="linear-gradient" x1="0.993" y1="0.545" x2="0.126" y2="0.376" gradientUnits="objectBoundingBox">
      <stop offset="0" stop-color="#f1ca9a"/>
      <stop offset="0.527" stop-color="#f1cc9c"/>
      <stop offset="0.872" stop-color="#f5d4a5"/>
      <stop offset="1" stop-color="#f7d9ab"/>
    </linearGradient>
    <linearGradient id="linear-gradient-2" x1="0.51" y1="0.299" x2="0.465" y2="1.324" xlink:href="#linear-gradient"/>
    <linearGradient id="linear-gradient-3" x1="0.49" y1="1.154" x2="0.532" y2="-1.527" gradientUnits="objectBoundingBox">
      <stop offset="0" stop-color="#52325a"/>
      <stop offset="1" stop-color="#6e3e71"/>
    </linearGradient>
    <linearGradient id="linear-gradient-4" x1="-2.358" y1="0.246" x2="0.929" y2="0.54" gradientUnits="objectBoundingBox">
      <stop offset="0" stop-color="#f7d9ab"/>
      <stop offset="0.128" stop-color="#f5d4a5"/>
      <stop offset="0.473" stop-color="#f1cc9c"/>
      <stop offset="1" stop-color="#f1ca9a"/>
    </linearGradient>
    <linearGradient id="linear-gradient-5" x1="-5.527" y1="-0.05" x2="1.133" y2="0.556" xlink:href="#linear-gradient-4"/>
    <linearGradient id="linear-gradient-6" y1="0.5" x2="1" y2="0.5" gradientUnits="objectBoundingBox">
      <stop offset="0" stop-color="#f1f0f4"/>
      <stop offset="1" stop-color="#fff"/>
    </linearGradient>
    <linearGradient id="linear-gradient-7" y1="0.5" x2="1" y2="0.5" gradientUnits="objectBoundingBox">
      <stop offset="0" stop-color="#52325a"/>
      <stop offset="0.524" stop-color="#492c51"/>
      <stop offset="1" stop-color="#3e2446"/>
    </linearGradient>
    <linearGradient id="linear-gradient-9" x1="0.448" y1="1.337" x2="0.548" y2="-0.998" xlink:href="#linear-gradient-3"/>
    <linearGradient id="linear-gradient-10" x1="0.389" y1="-0.007" x2="0.547" y2="0.928" gradientUnits="objectBoundingBox">
      <stop offset="0" stop-color="#3e2446"/>
      <stop offset="1" stop-color="#52325a"/>
    </linearGradient>
    <linearGradient id="linear-gradient-11" x1="0.504" y1="0.019" x2="0.492" y2="1.553" gradientUnits="objectBoundingBox">
      <stop offset="0" stop-color="#3e2446"/>
      <stop offset="0.476" stop-color="#492c51"/>
      <stop offset="1" stop-color="#52325a"/>
    </linearGradient>
    <linearGradient id="linear-gradient-12" x1="0.511" y1="-0.043" x2="0.488" y2="1.135" xlink:href="#linear-gradient-11"/>
    <linearGradient id="linear-gradient-13" x1="0.453" y1="1.244" x2="0.551" y2="-1.075" xlink:href="#linear-gradient-3"/>
    <linearGradient id="linear-gradient-14" x1="0.387" y1="0.035" x2="0.543" y2="0.972" xlink:href="#linear-gradient-10"/>
    <linearGradient id="linear-gradient-15" x1="16.272" y1="17.039" x2="17.614" y2="18.014" gradientUnits="objectBoundingBox">
      <stop offset="0" stop-color="#dba779"/>
      <stop offset="0.48" stop-color="#e3b486"/>
      <stop offset="1" stop-color="#f0c999"/>
    </linearGradient>
    <linearGradient id="linear-gradient-16" x1="-47.368" y1="19.211" x2="-45.782" y2="20.178" xlink:href="#linear-gradient-15"/>
    <radialGradient id="radial-gradient" cx="0.591" cy="0.503" r="0.704" gradientTransform="matrix(-0.932, 0.037, 0.025, 0.713, 3.784, -0.427)" gradientUnits="objectBoundingBox">
      <stop offset="0" stop-color="#f8c79c"/>
      <stop offset="1" stop-color="#f7d9ab"/>
    </radialGradient>
    <linearGradient id="linear-gradient-17" x1="1.525" y1="0.575" x2="0.204" y2="0.477" gradientUnits="objectBoundingBox">
      <stop offset="0" stop-color="#ffdeb3"/>
      <stop offset="1" stop-color="#f7d9ab"/>
    </linearGradient>
    <radialGradient id="radial-gradient-2" cx="0.419" cy="0.494" r="0.74" gradientTransform="matrix(0.878, -0.132, 0.081, 0.687, 0.072, -0.617)" xlink:href="#radial-gradient"/>
    <linearGradient id="linear-gradient-18" x1="0.991" y1="0.26" x2="0.017" y2="0.946" gradientUnits="objectBoundingBox">
      <stop offset="0" stop-color="#fbdbaf"/>
      <stop offset="1" stop-color="#f7d9ab"/>
    </linearGradient>
    <linearGradient id="linear-gradient-19" x1="1.045" y1="0.875" x2="-0.38" y2="0.11" xlink:href="#linear-gradient-18"/>
    <linearGradient id="linear-gradient-20" x1="0.518" y1="2.254" x2="0.496" y2="-0.473" xlink:href="#linear-gradient-15"/>
    <linearGradient id="linear-gradient-21" x1="0.925" y1="1.143" x2="-0.006" y2="0.16" gradientUnits="objectBoundingBox">
      <stop offset="0" stop-color="#f7d9ab"/>
      <stop offset="1" stop-color="#f0c999"/>
    </linearGradient>
    <linearGradient id="linear-gradient-22" x1="0.015" y1="1.118" x2="1.052" y2="0.161" xlink:href="#linear-gradient-17"/>
    <linearGradient id="linear-gradient-23" x1="0.522" y1="1.025" x2="0.484" y2="0.378" gradientUnits="objectBoundingBox">
      <stop offset="0" stop-color="#f7d9ab"/>
      <stop offset="0.517" stop-color="#f5d6a8"/>
      <stop offset="0.855" stop-color="#f2ce9f"/>
      <stop offset="1" stop-color="#f0c999"/>
    </linearGradient>
    <linearGradient id="linear-gradient-24" x1="0.519" y1="1.04" x2="0.481" y2="0.382" xlink:href="#linear-gradient-23"/>
    <linearGradient id="linear-gradient-25" x1="0.508" y1="0.077" x2="0.505" y2="0.33" gradientUnits="objectBoundingBox">
      <stop offset="0" stop-color="#f7d9ab"/>
      <stop offset="0.475" stop-color="#f5d4a6"/>
      <stop offset="1" stop-color="#f0c999"/>
    </linearGradient>
    <linearGradient id="linear-gradient-26" x1="0.036" y1="0.278" x2="1.02" y2="0.806" xlink:href="#linear-gradient-15"/>
    <linearGradient id="linear-gradient-27" x1="1.035" y1="0.44" x2="-0.087" y2="0.562" gradientUnits="objectBoundingBox">
      <stop offset="0" stop-color="#fff"/>
      <stop offset="0.467" stop-color="#fcfcfc"/>
      <stop offset="0.773" stop-color="#f5f3f3"/>
      <stop offset="1" stop-color="#ece7e7"/>
    </linearGradient>
    <linearGradient id="linear-gradient-28" x1="1.042" y1="0.528" x2="-0.428" y2="0.451" gradientUnits="objectBoundingBox">
      <stop offset="0" stop-color="#b89c8c"/>
      <stop offset="1" stop-color="#715241"/>
    </linearGradient>
    <linearGradient id="linear-gradient-29" x1="1.256" y1="0.318" x2="-0.023" y2="0.579" xlink:href="#linear-gradient-28"/>
    <radialGradient id="radial-gradient-3" cx="0.944" cy="0.805" r="1.473" gradientTransform="translate(0.013) scale(0.975 1)" gradientUnits="objectBoundingBox">
      <stop offset="0" stop-color="#2a3a3b"/>
      <stop offset="1" stop-color="#1c2727"/>
    </radialGradient>
    <linearGradient id="linear-gradient-30" x1="-0.017" y1="0.529" x2="0.954" y2="0.411" gradientUnits="objectBoundingBox">
      <stop offset="0" stop-color="#421f16"/>
      <stop offset="0.323" stop-color="#462017"/>
      <stop offset="0.664" stop-color="#52261c"/>
      <stop offset="1" stop-color="#673024"/>
    </linearGradient>
    <linearGradient id="linear-gradient-31" x1="0.045" y1="0.261" x2="1.035" y2="0.791" gradientUnits="objectBoundingBox">
      <stop offset="0" stop-color="#f0c999"/>
      <stop offset="0.52" stop-color="#e3b486"/>
      <stop offset="1" stop-color="#dba779"/>
    </linearGradient>
    <linearGradient id="linear-gradient-32" x1="1.002" y1="0.742" x2="0.182" y2="0.32" xlink:href="#linear-gradient-27"/>
    <linearGradient id="linear-gradient-33" x1="1.003" y1="0.471" x2="-0.371" y2="0.55" xlink:href="#linear-gradient-28"/>
    <linearGradient id="linear-gradient-34" x1="1.032" y1="0.741" x2="0.137" y2="0.347" xlink:href="#linear-gradient-28"/>
    <radialGradient id="radial-gradient-4" cx="0.945" cy="0.811" r="1.472" gradientTransform="translate(0.013) scale(0.974 1)" xlink:href="#radial-gradient-3"/>
    <linearGradient id="linear-gradient-35" x1="-0.011" y1="0.591" x2="0.952" y2="0.476" gradientUnits="objectBoundingBox">
      <stop offset="0" stop-color="#673024"/>
      <stop offset="0.336" stop-color="#52261c"/>
      <stop offset="0.677" stop-color="#462017"/>
      <stop offset="1" stop-color="#421f16"/>
    </linearGradient>
    <linearGradient id="linear-gradient-36" x1="0" y1="0.5" x2="1" y2="0.5" xlink:href="#linear-gradient-35"/>
    <linearGradient id="linear-gradient-38" x1="0.471" y1="-0.001" x2="0.538" y2="1.231" xlink:href="#linear-gradient-35"/>
    <linearGradient id="linear-gradient-39" x1="0.467" y1="0.067" x2="0.556" y2="1.717" gradientUnits="objectBoundingBox">
      <stop offset="0" stop-color="#673024"/>
      <stop offset="0.74" stop-color="#7a3c31"/>
      <stop offset="1" stop-color="#824137"/>
    </linearGradient>
    <linearGradient id="linear-gradient-40" x1="0.528" y1="2.46" x2="0.493" y2="-0.034" gradientUnits="objectBoundingBox">
      <stop offset="0" stop-color="#f7d9ab"/>
      <stop offset="0.527" stop-color="#f6d6a8"/>
      <stop offset="0.872" stop-color="#f2ce9f"/>
      <stop offset="1" stop-color="#f1ca9a"/>
    </linearGradient>
    <linearGradient id="linear-gradient-41" x1="0.547" y1="2.503" x2="0.494" y2="-0.051" xlink:href="#linear-gradient-40"/>
    <linearGradient id="linear-gradient-42" x1="0.557" y1="2.544" x2="0.493" y2="-0.058" xlink:href="#linear-gradient-40"/>
    <linearGradient id="linear-gradient-43" x1="0.532" y1="8.129" x2="0.489" y2="-1.637" xlink:href="#linear-gradient-40"/>
    <linearGradient id="linear-gradient-44" x1="-0.062" y1="0.432" x2="1.139" y2="0.538" gradientUnits="objectBoundingBox">
      <stop offset="0" stop-color="#e8d9d7"/>
      <stop offset="0.137" stop-color="#efe5e4"/>
      <stop offset="0.393" stop-color="#faf8f7"/>
      <stop offset="0.569" stop-color="#fff"/>
      <stop offset="1" stop-color="#e8d3d1"/>
    </linearGradient>
    <linearGradient id="linear-gradient-45" x1="0.533" y1="4.788" x2="0.5" y2="0.117" xlink:href="#linear-gradient-40"/>
    <linearGradient id="linear-gradient-46" x1="0.493" y1="-0.899" x2="0.508" y2="1.092" gradientUnits="objectBoundingBox">
      <stop offset="0" stop-color="#e8d9d7"/>
      <stop offset="0.397" stop-color="#efe5e3"/>
      <stop offset="1" stop-color="#fff"/>
    </linearGradient>
    <linearGradient id="linear-gradient-47" x1="0.515" y1="12.024" x2="0.497" y2="-2.076" xlink:href="#linear-gradient-40"/>
    <linearGradient id="linear-gradient-48" x1="0.41" y1="-0.674" x2="0.505" y2="0.954" gradientUnits="objectBoundingBox">
      <stop offset="0" stop-color="#ffdeb3"/>
      <stop offset="0.196" stop-color="#fcdcb0"/>
      <stop offset="1" stop-color="#f7d9ab"/>
    </linearGradient>
    <linearGradient id="linear-gradient-49" x1="0.504" y1="1.439" x2="0.5" y2="-0.039" xlink:href="#linear-gradient-23"/>
    <linearGradient id="linear-gradient-50" x1="0.477" y1="-1.123" x2="0.505" y2="1" xlink:href="#linear-gradient-40"/>
    <linearGradient id="linear-gradient-51" x1="0.458" y1="1.068" x2="0.593" y2="-0.197" gradientUnits="objectBoundingBox">
      <stop offset="0" stop-color="#ffdeb3"/>
      <stop offset="0.283" stop-color="#fbdbaf"/>
      <stop offset="1" stop-color="#f7d9ab"/>
    </linearGradient>
    <linearGradient id="linear-gradient-52" x1="0.519" y1="0.025" x2="0.35" y2="4.384" gradientUnits="objectBoundingBox">
      <stop offset="0" stop-color="#d9dde4"/>
      <stop offset="1" stop-color="#eef1fb"/>
    </linearGradient>
    <linearGradient id="linear-gradient-53" x1="0.515" y1="0.026" x2="0.311" y2="4.557" xlink:href="#linear-gradient-52"/>
    <linearGradient id="linear-gradient-54" x1="0.515" y1="0.052" x2="0.377" y2="4.162" xlink:href="#linear-gradient-52"/>
    <linearGradient id="linear-gradient-55" x1="0.514" y1="0.053" x2="0.388" y2="4.151" xlink:href="#linear-gradient-52"/>
    <linearGradient id="linear-gradient-56" x1="0.513" y1="0.056" x2="0.382" y2="4.129" xlink:href="#linear-gradient-52"/>
    <linearGradient id="linear-gradient-57" x1="0.51" y1="0.029" x2="0.4" y2="4.206" xlink:href="#linear-gradient-52"/>
    <linearGradient id="linear-gradient-58" x1="0.513" y1="0.086" x2="0.399" y2="4.101" xlink:href="#linear-gradient-52"/>
  </defs>
  <g id="user_2" data-name="user 2" transform="translate(-822.296 -1212.282)">
    <circle id="Ellipse_63" data-name="Ellipse 63" cx="28.819" cy="28.819" r="28.819" transform="translate(822.296 1269.92) rotate(-90)" fill="#f6ece6"/>
    <g id="Group_465" data-name="Group 465" transform="translate(829.616 1219.803)">
      <path id="Path_9245" data-name="Path 9245" d="M928.18,1426.731a3.449,3.449,0,0,0-1.752,1.316l1.752,3.136,4.775-3.136-.291-1.316A18.6,18.6,0,0,0,928.18,1426.731Z" transform="translate(-916.747 -1399.112)" fill="#3e2446"/>
      <path id="Path_9246" data-name="Path 9246" d="M1041.22,1426.763a18.583,18.583,0,0,0-4.484,0l-.291,1.316,4.775,3.136,1.751-3.136A3.447,3.447,0,0,0,1041.22,1426.763Z" transform="translate(-1008.802 -1399.138)" fill="#3e2446"/>
      <path id="Path_9247" data-name="Path 9247" d="M1103.089,1475.9a3.638,3.638,0,0,0-.292-.573,7.845,7.845,0,0,0-5.86-3.437l-.8,10.48A28.98,28.98,0,0,0,1103.089,1475.9Z" transform="translate(-1058.75 -1437.028)" fill="#52325a"/>
      <path id="Path_9248" data-name="Path 9248" d="M872.522,1470.4c-2.1,1.005-4.639,2.507-5.258,5.237-.035.155-.081.371-.134.631a28.94,28.94,0,0,0,7.7,6.118l.01-.058Z" transform="translate(-867.13 -1435.783)" fill="#52325a"/>
      <path id="Path_9249" data-name="Path 9249" d="M944.6,1445.125c-.652.9-3.993,1.875-3.993,1.875s5.3,5.623,10.839,5.7,8.72-6.357,8.72-6.357l-3.525-1.66C953.06,1447.947,944.6,1445.125,944.6,1445.125Z" transform="translate(-928.615 -1414.266)" fill="#f7d9ab"/>
      <path id="Path_9250" data-name="Path 9250" d="M922.97,1460.144c.308-3.379.569-6.747.569-6.747-1.424-1.036-10.867-4.738-10.867-4.738a8.945,8.945,0,0,1-8.238,6.493c-6.742.372-8.72-6.663-8.72-6.663a74.717,74.717,0,0,0-8.988,4.013c-.538.286-1.063.7-1.6,1.007-.235.135,1.658,4.6,2.833,9.4a28.821,28.821,0,0,0,35.015-2.761Z" transform="translate(-882.168 -1417.447)" fill="#52325a"/>
      <path id="Path_9251" data-name="Path 9251" d="M994.115,1471.894l1.941,2.33,1.748-2.718-2.33,1.165Z" transform="translate(-973.383 -1436.706)" fill="url(#linear-gradient)"/>
      <path id="Path_9252" data-name="Path 9252" d="M964.595,1412.517c-.089-1.505-.19-3.172-.219-3.438,0,0-4.335,3.128-11.925.488,0,0,0,2.5.035,4.588-.029.474-.057.694-.1.961-.082.571-2.292,1.436-2.292,1.436s.9,5.868,8.313,6.357,9.653-6.53,9.653-6.53-2.644-1.131-2.97-1.375A7.717,7.717,0,0,1,964.595,1412.517Zm-5.817,9.048a6.706,6.706,0,0,1-6.886-4.278,9.716,9.716,0,0,1,.978-.652c.223-.111.359-.518.442-.951,1.862,1.717,4.024,2.746,5.262,2.634a11.778,11.778,0,0,0,5.041-2.284l1.887,1.457C963.912,1420.791,960,1421.524,958.777,1421.565Z" transform="translate(-936.553 -1384.471)" fill="url(#linear-gradient-2)"/>
      <path id="Path_9253" data-name="Path 9253" d="M941.877,1511.7c-2.328-2.214-6.5-.991-12.988-1.165s-8.9-.9-13.067,1.431a3.629,3.629,0,0,0-1.622,3.808,28.85,28.85,0,0,0,28.658-.632A4.343,4.343,0,0,0,941.877,1511.7Z" transform="translate(-906.479 -1469.16)" fill="url(#linear-gradient-3)"/>
      <path id="Path_9254" data-name="Path 9254" d="M1012.661,1435.08l1.215-.281s2.668-4.11,2.959-4.491,0-5.693,0-5.693A24.372,24.372,0,0,1,1012.661,1435.08Z" transform="translate(-988.901 -1397.471)" fill="url(#linear-gradient-4)"/>
      <path id="Path_9255" data-name="Path 9255" d="M963.706,1432.391c.291.381,2.645,4.1,2.645,4.1l1.47.332s-3.56-5.537-4.115-10.125C963.706,1426.7,963.414,1432.01,963.706,1432.391Z" transform="translate(-947.83 -1399.214)" fill="url(#linear-gradient-5)"/>
      <path id="Path_9256" data-name="Path 9256" d="M952.213,1456.773c-6.526.282-7.916-5.843-7.916-5.843l-2.141.729s1.3,6.825,9.283,7.314,10.886-7.572,10.886-7.572l-2.092-.78A8.491,8.491,0,0,1,952.213,1456.773Z" transform="translate(-929.907 -1419.231)" fill="url(#linear-gradient-6)"/>
      <path id="Path_9257" data-name="Path 9257" d="M991.539,1500.148l3.344-1.13-5.312.031Z" transform="translate(-969.582 -1459.727)" fill="#fff"/>
      <path id="Path_9258" data-name="Path 9258" d="M1007.538,1422.683a15.98,15.98,0,0,1-5.915,13.592s8.757-4.725,10.531-7.81S1007.538,1422.683,1007.538,1422.683Z" transform="translate(-979.666 -1395.854)" fill="#52325a"/>
      <path id="Path_9259" data-name="Path 9259" d="M1001.623,1469.343a26.27,26.27,0,0,0,5.685-.38c2.68-.923,8.939-6.354,8.939-6.354l-.795-.406Z" transform="translate(-979.666 -1428.922)" fill="url(#linear-gradient-7)"/>
      <path id="Path_9260" data-name="Path 9260" d="M1001.623,1450.583c3.425-1.794,11.313-9.606,11.089-10a4.627,4.627,0,0,0-.629-.8C1010.2,1443.15,1001.623,1450.583,1001.623,1450.583Z" transform="translate(-979.666 -1410.162)" fill="url(#linear-gradient-7)"/>
      <path id="Path_9261" data-name="Path 9261" d="M1001.623,1447.1a18.542,18.542,0,0,0,5.265-.851c1.333-.438,7.933-5.14,8.816-6.2s-1.87-4.432-1.87-4.432C1011.661,1438.841,1005.218,1444.779,1001.623,1447.1Z" transform="translate(-979.666 -1406.677)" fill="#52325a"/>
      <path id="Path_9262" data-name="Path 9262" d="M1047.373,1425.843a17.213,17.213,0,0,0-3.574-.326c.273.14.654.364,1.11.642,1.491.24,3.268.577,3.374,1,.183.729-3.823,5.215-3.823,5.215s4.891-4.675,4.663-5.215A2.5,2.5,0,0,0,1047.373,1425.843Z" transform="translate(-1014.956 -1398.218)" fill="url(#linear-gradient-9)"/>
      <path id="Path_9263" data-name="Path 9263" d="M1015.57,1428.89a35.769,35.769,0,0,1-3.262,5.51s3.383-3.425,4.29-5.51c.434-1-.083-6.5-.083-6.5A19.631,19.631,0,0,1,1015.57,1428.89Z" transform="translate(-988.606 -1395.609)" fill="url(#linear-gradient-10)"/>
      <path id="Path_9264" data-name="Path 9264" d="M939.742,1422.652s-6.39,2.7-4.616,5.782,10.531,7.81,10.531,7.81A15.98,15.98,0,0,1,939.742,1422.652Z" transform="translate(-923.765 -1395.828)" fill="#52325a"/>
      <path id="Path_9265" data-name="Path 9265" d="M911.812,1462.661s6.232,5.433,8.912,6.356a26.3,26.3,0,0,0,5.685.38l-13.8-7.123Z" transform="translate(-904.517 -1428.982)" fill="url(#linear-gradient-11)"/>
      <path id="Path_9266" data-name="Path 9266" d="M933.91,1439.752a4.629,4.629,0,0,0-.629.8c-.224.393,7.728,8.211,11.154,10C944.435,1450.557,935.788,1443.118,933.91,1439.752Z" transform="translate(-922.477 -1410.136)" fill="url(#linear-gradient-12)"/>
      <path id="Path_9267" data-name="Path 9267" d="M915.951,1435.587s-2.753,3.38-1.87,4.437,7.483,5.753,8.816,6.192a18.528,18.528,0,0,0,5.265.851C924.566,1444.748,918.124,1438.81,915.951,1435.587Z" transform="translate(-906.27 -1406.651)" fill="#52325a"/>
      <path id="Path_9268" data-name="Path 9268" d="M930.662,1425.856c.229-.141.924-.531,1.143-.653a18.007,18.007,0,0,0-3.665.373,2.5,2.5,0,0,0-1.752,1.316c-.228.54,4.663,5.215,4.663,5.215s-4.006-4.486-3.822-5.215C927.336,1426.469,929.171,1426.1,930.662,1425.856Z" transform="translate(-916.708 -1397.957)" fill="url(#linear-gradient-13)"/>
      <path id="Path_9269" data-name="Path 9269" d="M963.231,1422.652s-.687,5.523-.12,6.452a37.181,37.181,0,0,0,4.295,5.515,35.828,35.828,0,0,1-3.267-5.515A18.973,18.973,0,0,1,963.231,1422.652Z" transform="translate(-947.253 -1395.828)" fill="url(#linear-gradient-14)"/>
      <path id="Path_9270" data-name="Path 9270" d="M1012.661,1498.986c.962.506,1.622-.1,1.233-.521S1012.661,1498.986,1012.661,1498.986Z" transform="translate(-988.901 -1459.173)" fill="#3e2446"/>
      <path id="Path_9271" data-name="Path 9271" d="M980.682,1497.557c-.389.42.271,1.027,1.233.521C981.914,1498.077,981.071,1497.137,980.682,1497.557Z" transform="translate(-962.048 -1458.413)" fill="#3e2446"/>
      <path id="Path_9272" data-name="Path 9272" d="M1015.57,1500.286v10.4q.345-.033.687-.073V1500.24A.837.837,0,0,0,1015.57,1500.286Z" transform="translate(-991.336 -1460.703)" fill="#f1f0f4"/>
      <path id="Path_9273" data-name="Path 9273" d="M981.718,1499.291v10.553h.687v-10.6A.838.838,0,0,0,981.718,1499.291Z" transform="translate(-963.01 -1459.87)" fill="#f1f0f4"/>
      <g id="Group_464" data-name="Group 464" transform="translate(9.902 0)">
        <g id="Group_458" data-name="Group 458" transform="translate(0 14.585)">
          <path id="Path_9274" data-name="Path 9274" d="M928.6,1347.7c-1.143.211-.892.99-.392,2.353.485,3.624,1.418,4.347,1.814,4.126C930.741,1353.771,929.979,1347.44,928.6,1347.7Z" transform="translate(-927.782 -1347.688)" fill="#f0c999"/>
          <path id="Path_9275" data-name="Path 9275" d="M931.5,1356.2a2.572,2.572,0,0,1-.321-1.951c.5-3-1.338-3.3-.985-1.218,0,0,.287-.961.512-.658.276.372-.326.54-.073,2.115A4.463,4.463,0,0,0,931.5,1356.2Z" transform="translate(-929.765 -1351.038)" fill="url(#linear-gradient-15)"/>
        </g>
        <g id="Group_459" data-name="Group 459" transform="translate(20.927 14.561)">
          <path id="Path_9276" data-name="Path 9276" d="M1057.384,1347.547c1.153.158.947.947.526,2.332-.277,3.641-1.167,4.407-1.575,4.205C1055.59,1353.714,1055.987,1347.356,1057.384,1347.547Z" transform="translate(-1055.965 -1347.542)" fill="#f0c999"/>
          <path id="Path_9277" data-name="Path 9277" d="M1060.809,1356.069a2.557,2.557,0,0,0,.209-1.964c-.675-2.976,1.146-3.36.913-1.262,0,0-.342-.945-.55-.633-.254.384.356.523.2,2.108A4.412,4.412,0,0,1,1060.809,1356.069Z" transform="translate(-1060.018 -1350.871)" fill="url(#linear-gradient-16)"/>
        </g>
        <path id="Path_9278" data-name="Path 9278" d="M959.233,1279.893c.341-8.525-2.666-8.846-3.411-9.715a8.7,8.7,0,0,0-7.58-3.272s-5.306.187-6.632,3.093a27.077,27.077,0,0,0-1.86,11.366c.127,4.856.38,6.149.8,7.167a4.407,4.407,0,0,0,1.469,1.889,44.327,44.327,0,0,1,4.54,4.933c.419.473,6.193.315,6.875-.157,1.107-.767,2.464-2.963,4.12-4.619a4.38,4.38,0,0,0,1.207-2.519c0-.682.328-3.306.343-3.815C959.191,1281.5,959.139,1282.262,959.233,1279.893Z" transform="translate(-937.785 -1265.506)" fill="#f7d9ab"/>
        <path id="Path_9279" data-name="Path 9279" d="M1016.7,1360.838c1.676.113,3.63.287,3.981-3.192.2-1.982-.092-3.4-.921-3.559a10.011,10.011,0,0,0-5.334.99C1012.206,1356.236,1013.729,1360.637,1016.7,1360.838Z" transform="translate(-999.395 -1338.391)" fill="url(#radial-gradient)"/>
        <path id="Path_9280" data-name="Path 9280" d="M992.756,1428.021c-.582,0-2.041.4-2,.61.128.646,1.479.754,2.061.751s1.761-.151,1.785-.7C994.613,1428.463,993.339,1428.019,992.756,1428.021Z" transform="translate(-980.475 -1400.321)" fill="url(#linear-gradient-17)"/>
        <path id="Path_9281" data-name="Path 9281" d="M946.33,1355.632c-.479-.176-4.129-1.008-5.215-.69-.62.181-.84,1.666-.736,2.992a10.911,10.911,0,0,0,.236,1.978c.7,1.962,3.808,2.036,5.353,1.489C948.605,1360.467,948.76,1356.521,946.33,1355.632Z" transform="translate(-938.301 -1339.113)" fill="url(#radial-gradient-2)"/>
        <path id="Path_9282" data-name="Path 9282" d="M1036.578,1360.031c-.3-.17-.527.076-1.156.283s-2.3.521-1.509.952a2.511,2.511,0,0,0,2.246-.3C1036.307,1360.845,1036.952,1360.241,1036.578,1360.031Z" transform="translate(-1016.413 -1343.383)" fill="url(#linear-gradient-18)"/>
        <path id="Path_9283" data-name="Path 9283" d="M947.06,1361c-.638-.175-.875-.409-1.168-.224-.362.229.312.8.466.913a2.51,2.51,0,0,0,2.258.183C949.385,1361.4,947.687,1361.169,947.06,1361Z" transform="translate(-942.847 -1343.996)" fill="url(#linear-gradient-19)"/>
        <path id="Path_9284" data-name="Path 9284" d="M977,1434.888a5.338,5.338,0,0,1-1.765-1.1,10.757,10.757,0,0,0,1.345,1.522c.262.105,5.983.157,6.561-.262a4.46,4.46,0,0,0,1.019-1.18,6.038,6.038,0,0,1-1.491.97A40.407,40.407,0,0,1,977,1434.888Z" transform="translate(-967.489 -1405.145)" fill="url(#linear-gradient-20)"/>
        <path id="Path_9285" data-name="Path 9285" d="M942.658,1375.907a44.49,44.49,0,0,1-2.317-5.334c-.017.5.064,1.247.106,1.879a11.972,11.972,0,0,0,.5,3.3,24.224,24.224,0,0,0,2.388,2.572c.367.315,2.677,2.549,2.677,2.549C945.7,1380.608,943.183,1376.484,942.658,1375.907Z" transform="translate(-938.289 -1352.252)" fill="url(#linear-gradient-21)"/>
        <path id="Path_9286" data-name="Path 9286" d="M1029.9,1380.973c.21-.367,4.045-4.495,4.255-5.23s.416-5.17.416-5.17c-.185,1.692-1.544,4.337-1.7,4.862S1029.9,1380.973,1029.9,1380.973Z" transform="translate(-1013.23 -1352.252)" fill="url(#linear-gradient-22)"/>
        <path id="Path_9287" data-name="Path 9287" d="M1009.066,1336.011c-.129.787-.528,3.209-.041,3.482,3.042,1.7,6.525-.453,6.525-.453C1015.985,1333.67,1009.066,1336.011,1009.066,1336.011Z" transform="translate(-995.565 -1322.907)" fill="url(#linear-gradient-23)"/>
        <path id="Path_9288" data-name="Path 9288" d="M949.533,1339.224s3.23,2.05,6.339.151c.476-.291-.089-2.294-.22-3.081C955.652,1336.293,949.226,1333.575,949.533,1339.224Z" transform="translate(-945.973 -1323.021)" fill="url(#linear-gradient-24)"/>
        <path id="Path_9289" data-name="Path 9289" d="M956.091,1282.431c-.222-.061-.469-.12-.736-.178-1.955-.425-5.034-1.863-7.837-1.862a18.26,18.26,0,0,0-4.512.654,4.4,4.4,0,0,0-1.356.557c-1.061.722-1.678,2.09-2.034,5.338-.114,1.055.094,8.08.093,8.159,2.228-5.152,1.946-9.8,3.128-10.5s5.282-.009,7.638.1,5.375-.439,5.555-.279c.549.49.719,5.017,2.971,10.635,0,0-.032-7.87-.2-9.7C958.576,1282.945,957.945,1282.942,956.091,1282.431Z" transform="translate(-937.656 -1276.793)" fill="url(#linear-gradient-25)"/>
        <g id="Group_460" data-name="Group 460" transform="translate(4.08 13.874)">
          <path id="Path_9290" data-name="Path 9290" d="M1013.613,1343.663c-1.549.068-2.389.379-2.551.97-.085.313-.357,1.2-.156,1.42.418.467,2.168.568,3.271.5,1.474-.1,2.2-.74,2.193-.91a2.211,2.211,0,0,0-2.756-1.976Z" transform="translate(-1001.354 -1343.607)" fill="url(#linear-gradient-26)"/>
          <path id="Path_9291" data-name="Path 9291" d="M1014.1,1347.1c-1.139.083-1.384,1.733-1.384,1.733a1.355,1.355,0,0,0,.516.227,6.539,6.539,0,0,0,3.168.041,2.936,2.936,0,0,0,1.07-.674C1016.526,1347.325,1016.852,1346.905,1014.1,1347.1Z" transform="translate(-1002.93 -1346.448)" fill="url(#linear-gradient-27)"/>
          <path id="Path_9292" data-name="Path 9292" d="M1016.125,1348.333c-.884.087-2.468-.089-3.416,1.569,0,0,.694-.6,3.03-.593a3.1,3.1,0,0,1,1.438.432,2.154,2.154,0,0,0,.287-.245S1017.008,1348.246,1016.125,1348.333Z" transform="translate(-1002.924 -1347.513)" fill="#ddd"/>
          <path id="Path_9293" data-name="Path 9293" d="M1019.2,1349.241c-.748-.043-1.456.322-1.419,1.1a1.54,1.54,0,0,0,.2.657,8.148,8.148,0,0,0,1.2.127,4.907,4.907,0,0,0,1.089-.123.958.958,0,0,0,.232-.573C1020.6,1349.677,1019.944,1349.284,1019.2,1349.241Z" transform="translate(-1007.163 -1348.273)" fill="url(#linear-gradient-28)"/>
          <path id="Path_9294" data-name="Path 9294" d="M1019.474,1348.965c-.945-.008-1.685.192-1.682,1.115a7.206,7.206,0,0,1,2.721-.181A1.133,1.133,0,0,0,1019.474,1348.965Z" transform="translate(-1007.177 -1348.045)" fill="url(#linear-gradient-29)"/>
          <path id="Path_9295" data-name="Path 9295" d="M1022.075,1350.639a.81.81,0,1,0,.809.833A.818.818,0,0,0,1022.075,1350.639Z" transform="translate(-1010.047 -1349.445)" fill="url(#radial-gradient-3)"/>
          <path id="Path_9296" data-name="Path 9296" d="M1016.7,1346.875c-.837-.323-2.484-.511-3.248.059a2.526,2.526,0,0,0-.736,1.495,2.639,2.639,0,0,1,1.046-.935,4.254,4.254,0,0,1,1.381-.159,5.363,5.363,0,0,1,1.437.277,2.879,2.879,0,0,1,.89.411S1017.217,1347.075,1016.7,1346.875Z" transform="translate(-1002.93 -1346.039)" fill="url(#linear-gradient-30)"/>
          <path id="Path_9297" data-name="Path 9297" d="M1029.731,1354.517a.368.368,0,0,0-.315.406.355.355,0,0,0,.4.317.365.365,0,0,0,.315-.405A.355.355,0,0,0,1029.731,1354.517Z" transform="translate(-1016.901 -1352.689)" fill="#fff"/>
          <path id="Path_9298" data-name="Path 9298" d="M1025.305,1352.477a.287.287,0,1,0,.313.252A.283.283,0,0,0,1025.305,1352.477Z" transform="translate(-1013.254 -1350.982)" fill="#fff"/>
          <path id="Path_9299" data-name="Path 9299" d="M955.551,1343.334a2.21,2.21,0,0,0-2.778,1.944c-.007.17.709.822,2.182.935,1.1.085,2.853,0,3.277-.459.2-.222-.058-1.108-.141-1.422C957.936,1343.739,957.1,1343.418,955.551,1343.334Z" transform="translate(-952.773 -1343.33)" fill="url(#linear-gradient-31)"/>
          <path id="Path_9300" data-name="Path 9300" d="M959.065,1346.789c-2.748-.23-2.427.193-3.385,1.289a2.936,2.936,0,0,0,1.063.687,6.532,6.532,0,0,0,3.168-.006,1.339,1.339,0,0,0,.519-.222S960.2,1346.885,959.065,1346.789Z" transform="translate(-955.205 -1346.173)" fill="url(#linear-gradient-32)"/>
          <path id="Path_9301" data-name="Path 9301" d="M957.033,1347.936c-.883-.1-1.353,1.148-1.353,1.148a2.123,2.123,0,0,0,.284.249,3.107,3.107,0,0,1,1.443-.416c2.335.024,3.023.627,3.023.627C959.5,1347.875,957.916,1348.033,957.033,1347.936Z" transform="translate(-955.205 -1347.18)" fill="#ddd"/>
          <path id="Path_9302" data-name="Path 9302" d="M964.312,1348.939c-.749.035-1.411.42-1.317,1.177a.955.955,0,0,0,.225.575,4.889,4.889,0,0,0,1.088.135,8.226,8.226,0,0,0,1.2-.113,1.545,1.545,0,0,0,.212-.655C965.764,1349.277,965.06,1348.9,964.312,1348.939Z" transform="translate(-961.318 -1348.021)" fill="url(#linear-gradient-33)"/>
          <path id="Path_9303" data-name="Path 9303" d="M964.116,1348.639a1.133,1.133,0,0,0-1.049.923,7.218,7.218,0,0,1,2.719.211C965.782,1348.8,965.061,1348.642,964.116,1348.639Z" transform="translate(-961.386 -1347.772)" fill="url(#linear-gradient-34)"/>
          <path id="Path_9304" data-name="Path 9304" d="M966.932,1350.331a.81.81,0,1,0,.843.794A.822.822,0,0,0,966.932,1350.331Z" transform="translate(-963.935 -1349.188)" fill="url(#radial-gradient-4)"/>
          <path id="Path_9305" data-name="Path 9305" d="M974.34,1354.486a.348.348,0,0,0-.173.461.353.353,0,0,0,.476.14.346.346,0,0,0,.173-.461A.353.353,0,0,0,974.34,1354.486Z" transform="translate(-970.646 -1352.631)" fill="#fff"/>
          <path id="Path_9306" data-name="Path 9306" d="M970.018,1352.435a.271.271,0,0,0-.135.362.281.281,0,0,0,.377.11.27.27,0,0,0,.135-.362A.282.282,0,0,0,970.018,1352.435Z" transform="translate(-967.067 -1350.922)" fill="#fff"/>
          <path id="Path_9307" data-name="Path 9307" d="M959.71,1346.643c-.758-.579-2.406-.409-3.247-.1-.518.194-.783,1.139-.783,1.139a3.149,3.149,0,0,1,.928-.415,5.9,5.9,0,0,1,1.561-.247,4.107,4.107,0,0,1,1.224.175,2.641,2.641,0,0,1,1.036.946A2.528,2.528,0,0,0,959.71,1346.643Z" transform="translate(-955.205 -1345.781)" fill="url(#linear-gradient-35)"/>
        </g>
        <path id="Path_9308" data-name="Path 9308" d="M1014.593,1332.7a6.533,6.533,0,0,0-3.885.139.483.483,0,0,0,.2.927c1.035,0,2.352-.329,3.336-.318a3.62,3.62,0,0,1,2.014.45A3.627,3.627,0,0,0,1014.593,1332.7Z" transform="translate(-996.926 -1320.371)" fill="url(#linear-gradient-36)"/>
        <path id="Path_9309" data-name="Path 9309" d="M958.59,1333.358a6.522,6.522,0,0,0-3.67-.176,3.176,3.176,0,0,0-1.6,1.261,3.573,3.573,0,0,1,1.937-.484c1.178-.045,2.195.263,3.19.261A.443.443,0,0,0,958.59,1333.358Z" transform="translate(-949.149 -1320.815)" fill="url(#linear-gradient-36)"/>
        <path id="Path_9310" data-name="Path 9310" d="M952.274,1264.848a2.234,2.234,0,0,0,.918-1.087c-.275-.251-8.556-4.116-11.484-3.851-6.43.581-6.939,3.333-6.939,3.333a1.674,1.674,0,0,1-.737-1.361c-.022.011-.045.028-.067.041a2.138,2.138,0,0,0-.364,2.214c-.2-.405-.446-.431-.634-1.146a6.065,6.065,0,0,0-.979,2.6,64.618,64.618,0,0,0,.164,8.646,1.326,1.326,0,0,1,.85.956,21.432,21.432,0,0,1,.287,2.778c.191-1.765.664-3.843.818-4.771.323-1.943.656-6.007,1.527-6.745a16.359,16.359,0,0,1,3.628-.523c1.8.162,4.664.423,5.267.5.705.092,4.09-.138,5.491-.239a.506.506,0,0,1,.146.075s1.559,6.418,1.687,7.1c.333,1.778.507,2.966.727,4.6,0,0-.061-3.76.946-3.76.134-3.609-.191-8.884-.228-9.687A2.071,2.071,0,0,1,952.274,1264.848Z" transform="translate(-931.236 -1259.644)" fill="url(#linear-gradient-38)"/>
        <path id="Path_9311" data-name="Path 9311" d="M957.822,1287.922c-.531-.324-4.945.618-5.44.621-5.194.039-8.577-2.072-10.142-1.839s-1.428,4.074-1.6,4.579-.466,8.27-.371,9.082c1.258-5.513,1.487-10.712,2.4-11.279,1.019-.633,1.78-.292,2.959-.233.226.011,5.487.578,6.455.544a25.087,25.087,0,0,0,4.918-.793c.146.075,2.173,9.292,2.56,11.773,0,0-.786-8.832-.831-9.095C958.608,1290.6,958.353,1288.246,957.822,1287.922Z" transform="translate(-938.214 -1282.061)" fill="#3e1c15"/>
        <path id="Path_9312" data-name="Path 9312" d="M952.772,1261.95s2.439-1.2,3.84-.5,4.236,2.359,5.525,2.475a18.652,18.652,0,0,0,6.3-.656c-1.092-.1-2.175-1.191-3.15-1.679,3.15,1.679,4.773,1.048,5.363.875-2.861-1.31-3.9-3.308-7.519-3.865C954.163,1257.225,952.772,1261.95,952.772,1261.95Z" transform="translate(-948.692 -1258.352)" fill="url(#linear-gradient-39)"/>
        <g id="Group_463" data-name="Group 463" transform="translate(5.615 14.836)">
          <g id="Group_461" data-name="Group 461" transform="translate(0 5.723)">
            <path id="Path_9313" data-name="Path 9313" d="M1026.431,1405.007c-.069.057-.136.115-.2.171A1.683,1.683,0,0,0,1026.431,1405.007Z" transform="translate(-1015.773 -1401.623)" fill="url(#linear-gradient-40)"/>
            <path id="Path_9314" data-name="Path 9314" d="M1022.411,1384.277c2.125,1.718,1.265,2.952.823,3.385.817-.685,1.919-1.449,1.847-1.75C1024.818,1384.817,1022.411,1384.277,1022.411,1384.277Z" transform="translate(-1012.577 -1384.277)" fill="url(#linear-gradient-41)"/>
            <path id="Path_9315" data-name="Path 9315" d="M1026.11,1393.579a10.281,10.281,0,0,0,1.186-.331,1.033,1.033,0,0,0,.183-.355l-.693.211Z" transform="translate(-1015.672 -1391.486)" fill="#e1b58c"/>
            <path id="Path_9316" data-name="Path 9316" d="M962.182,1387.15c.048.336,1,1.163,1.62,1.807,0,0-1.663-1.788.65-3.4C964.452,1385.559,962.019,1386.021,962.182,1387.15Z" transform="translate(-962.174 -1385.35)" fill="url(#linear-gradient-42)"/>
            <path id="Path_9317" data-name="Path 9317" d="M965.7,1393.32a1.032,1.032,0,0,0,.183.355,10.263,10.263,0,0,0,1.186.331l-.677-.475Z" transform="translate(-965.12 -1391.844)" fill="#e1b58c"/>
            <path id="Path_9318" data-name="Path 9318" d="M986.575,1419.452a18.367,18.367,0,0,1,4.838.037C989.222,1418.126,986.575,1419.452,986.575,1419.452Z" transform="translate(-982.591 -1413.225)" fill="url(#linear-gradient-43)"/>
            <path id="Path_9319" data-name="Path 9319" d="M967.278,1393.57c.059.061.1.145.177.178,1.386.614,1.406,1.2,2,1.521a6.653,6.653,0,0,0,6.219-.053c.952-.525,1.073-1.137,2.212-1.581a.286.286,0,0,0,.182-.178A22.748,22.748,0,0,1,967.278,1393.57Z" transform="translate(-966.445 -1391.958)" fill="#96282d"/>
            <path id="Path_9320" data-name="Path 9320" d="M992.309,1411.523c-.82,0-1.63-.16-1.63,0s.713.517,1.534.517,1.631-.357,1.631-.517S993.13,1411.522,992.309,1411.523Z" transform="translate(-986.025 -1407.014)" fill="#fdddb3"/>
            <path id="Path_9321" data-name="Path 9321" d="M986.14,1401.867a13.677,13.677,0,0,1-2.571.323,15.616,15.616,0,0,1-2.726-.3c-.257-.047-.367.4-.367.4a5.131,5.131,0,0,0,3.19.788,5.2,5.2,0,0,0,3.081-.845S986.466,1401.8,986.14,1401.867Z" transform="translate(-977.487 -1398.989)" fill="url(#linear-gradient-44)"/>
            <path id="Path_9322" data-name="Path 9322" d="M982.1,1412.279a4.858,4.858,0,0,0,6.2-.172A7.124,7.124,0,0,1,982.1,1412.279Z" transform="translate(-978.851 -1407.564)" fill="url(#linear-gradient-45)"/>
            <path id="Path_9323" data-name="Path 9323" d="M975.708,1395.5a.9.9,0,0,0,.55.75c.307.133,1,.656,3.672.574s3.2-.728,3.327-.841a1.424,1.424,0,0,0,.33-.566A24.232,24.232,0,0,1,975.708,1395.5Z" transform="translate(-973.499 -1393.603)" fill="url(#linear-gradient-46)"/>
            <path id="Path_9324" data-name="Path 9324" d="M975.652,1395.188a1.009,1.009,0,0,0,.1.377,16.079,16.079,0,0,0,3.827.438,14.778,14.778,0,0,0,3.8-.5,1.252,1.252,0,0,0,.18-.4S981.743,1395.713,975.652,1395.188Z" transform="translate(-973.452 -1393.335)" fill="#f3eceb"/>
            <path id="Path_9325" data-name="Path 9325" d="M965.255,1392.557s.389.226.33.165a22.747,22.747,0,0,0,10.791-.113l.33-.166C973.4,1392.995,965.255,1392.557,965.255,1392.557Z" transform="translate(-964.752 -1391.11)" fill="url(#linear-gradient-47)"/>
          </g>
          <g id="Group_462" data-name="Group 462" transform="translate(3.462)">
            <path id="Path_9326" data-name="Path 9326" d="M995.013,1351.413c.1-1.93-.578-2.206-1.077-2.189s-.755.685-.656,2.157-.189,2.028-.123,2.714c.03.313.175.517.967.523.87.007,1.173-.2,1.21-.491C995.435,1353.328,994.943,1352.8,995.013,1351.413Z" transform="translate(-991.552 -1349.224)" fill="url(#linear-gradient-48)"/>
            <path id="Path_9327" data-name="Path 9327" d="M984.787,1383.71s2.186,1.589,2.662,1.5a12.639,12.639,0,0,0,2.23-1.5s-1.982.244-2.438.244S984.787,1383.71,984.787,1383.71Z" transform="translate(-984.558 -1378.08)" fill="url(#linear-gradient-49)"/>
            <path id="Path_9328" data-name="Path 9328" d="M1005.169,1383.784a3.138,3.138,0,0,1,1.639-.119C1006.123,1383.064,1005.169,1383.784,1005.169,1383.784Z" transform="translate(-1001.612 -1377.842)" fill="#e1b58c"/>
            <path id="Path_9329" data-name="Path 9329" d="M984.751,1383.526a3.5,3.5,0,0,1,1.535.214S985.384,1383.057,984.751,1383.526Z" transform="translate(-984.528 -1377.788)" fill="#e1b58c"/>
            <path id="Path_9330" data-name="Path 9330" d="M987.849,1373.631c-.008.482.1.805-.043,1.08a1.889,1.889,0,0,1-1.741.809,2.225,2.225,0,0,1-1.854-.805c-.171-.262-.063-.5-.14-1.01,0,0-1.164,1.406-.465,1.678a1.186,1.186,0,0,1,.767-.1c.563.051.447.67,1.739.682,1.126.01.767-.529,1.484-.632a1.118,1.118,0,0,1,.971.153C988.924,1375.485,988.667,1374.3,987.849,1373.631Z" transform="translate(-983.382 -1369.646)" fill="url(#linear-gradient-50)"/>
            <path id="Path_9331" data-name="Path 9331" d="M992.429,1373.2c-.049.314.393.653,1.185.659.87.007,1.065-.338.992-.627C994.177,1371.517,992.612,1372.027,992.429,1373.2Z" transform="translate(-990.949 -1368.386)" fill="url(#linear-gradient-51)"/>
          </g>
        </g>
      </g>
      <path id="Path_9332" data-name="Path 9332" d="M881.61,1520.784l-.065-.058Z" transform="translate(-879.192 -1477.891)" fill="#d9dde4"/>
      <path id="Path_9333" data-name="Path 9333" d="M885.9,1524.484Z" transform="translate(-882.837 -1481.034)" fill="#d9dde4"/>
      <path id="Path_9334" data-name="Path 9334" d="M1133.923,1502.137l-.043.052Z" transform="translate(-1090.329 -1462.336)" fill="url(#linear-gradient-52)"/>
      <path id="Path_9335" data-name="Path 9335" d="M1129.245,1507.749h0Z" transform="translate(-1086.452 -1467.032)" fill="url(#linear-gradient-53)"/>
      <path id="Path_9336" data-name="Path 9336" d="M870.742,1510.23q-.45-.441-.881-.9Q870.292,1509.789,870.742,1510.23Z" transform="translate(-869.415 -1468.354)" fill="url(#linear-gradient-54)"/>
      <path id="Path_9337" data-name="Path 9337" d="M876.267,1515.8q-.469-.421-.919-.862Q875.8,1515.383,876.267,1515.8Z" transform="translate(-874.006 -1473.051)" fill="url(#linear-gradient-55)"/>
      <path id="Path_9338" data-name="Path 9338" d="M875.274,1514.869l-.015-.014Z" transform="translate(-873.932 -1472.978)" fill="url(#linear-gradient-56)"/>
      <path id="Path_9339" data-name="Path 9339" d="M880.976,1520.221Z" transform="translate(-878.716 -1477.468)" fill="url(#linear-gradient-57)"/>
      <path id="Path_9340" data-name="Path 9340" d="M869.86,1509.327h0Z" transform="translate(-869.414 -1468.352)" fill="url(#linear-gradient-58)"/>
    </g>
  </g>
</svg>
