<svg xmlns="http://www.w3.org/2000/svg" xmlns:xlink="http://www.w3.org/1999/xlink" width="57.638" height="57.638" viewBox="0 0 57.638 57.638"><defs><linearGradient id="a" x1="0.499" y1="1.17" x2="0.499" y2="0.783" gradientUnits="objectBoundingBox"><stop offset="0" stop-color="#593a33"/><stop offset="0.289" stop-color="#482e29"/><stop offset="0.608" stop-color="#3e2822"/><stop offset="1" stop-color="#3b2621"/></linearGradient><linearGradient id="b" x1="0.5" y1="1.17" x2="0.5" y2="0.783" xlink:href="#a"/><linearGradient id="c" x1="0.517" y1="0.416" x2="-0.459" y2="1.006" gradientUnits="objectBoundingBox"><stop offset="0" stop-color="#f0c999"/><stop offset="0.517" stop-color="#f1cb9b"/><stop offset="0.855" stop-color="#f4d3a4"/><stop offset="1" stop-color="#f7d9ab"/></linearGradient><linearGradient id="d" y1="0.5" x2="1" y2="0.5" gradientUnits="objectBoundingBox"><stop offset="0" stop-color="#ffdeb3"/><stop offset="0.681" stop-color="#fcdcb0"/><stop offset="1" stop-color="#f7d9ab"/></linearGradient><linearGradient id="e" x1="0.618" y1="0.635" x2="0.337" y2="0.358" xlink:href="#c"/><linearGradient id="f" x1="0.833" y1="2.302" x2="0.376" y2="-0.203" gradientUnits="objectBoundingBox"><stop offset="0" stop-color="#fe9064"/><stop offset="0.326" stop-color="#fe8a5b"/><stop offset="0.833" stop-color="#fe7a45"/><stop offset="1" stop-color="#fe743d"/></linearGradient><linearGradient id="g" x1="0.415" y1="0.183" x2="0.773" y2="1.196" gradientUnits="objectBoundingBox"><stop offset="0" stop-color="#fe743d"/><stop offset="0.537" stop-color="#f16537"/><stop offset="1" stop-color="#ed6035"/></linearGradient><linearGradient id="h" x1="0.251" y1="-1.005" x2="0.661" y2="1.429" xlink:href="#g"/><linearGradient id="i" x1="0.113" y1="0.272" x2="0.82" y2="0.947" xlink:href="#c"/><linearGradient id="j" x1="0.082" y1="-0.306" x2="1.042" y2="0.942" xlink:href="#c"/><linearGradient id="k" x1="0.419" y1="-0.004" x2="0.573" y2="0.95" gradientUnits="objectBoundingBox"><stop offset="0" stop-color="#f1f0f5"/><stop offset="1" stop-color="#e1e1e5"/></linearGradient><linearGradient id="l" x1="0.47" y1="-0.021" x2="0.526" y2="0.966" xlink:href="#g"/><linearGradient id="m" x1="0.396" y1="-0.072" x2="0.485" y2="0.754" xlink:href="#k"/><linearGradient id="n" x1="0.458" y1="-0.461" x2="0.509" y2="0.878" xlink:href="#f"/><linearGradient id="o" x1="0.703" y1="2.023" x2="0.499" y2="0.146" xlink:href="#c"/><linearGradient id="p" x1="0.109" y1="-0.193" x2="0.781" y2="1.011" xlink:href="#g"/><linearGradient id="q" x1="0.688" y1="0.011" x2="0.462" y2="0.787" gradientUnits="objectBoundingBox"><stop offset="0" stop-color="#d1d0d4"/><stop offset="1" stop-color="#e1e1e5"/></linearGradient><linearGradient id="r" x1="1.006" y1="0.587" x2="-0.359" y2="0.119" xlink:href="#g"/><linearGradient id="s" x1="0.666" y1="-1.069" x2="0.568" y2="-0.16" gradientUnits="objectBoundingBox"><stop offset="0" stop-color="#f0c999"/><stop offset="0.634" stop-color="#f1cb9b"/><stop offset="1" stop-color="#f4d2a3"/></linearGradient><linearGradient id="t" x1="0.767" y1="0.217" x2="0.621" y2="0.374" gradientUnits="objectBoundingBox"><stop offset="0" stop-color="#f4d2a3"/><stop offset="0.366" stop-color="#f1cb9b"/><stop offset="1" stop-color="#f0c999"/></linearGradient><linearGradient id="u" x1="0.756" y1="0.001" x2="0.388" y2="0.877" xlink:href="#d"/><linearGradient id="v" y1="0.5" x2="1" y2="0.5" gradientUnits="objectBoundingBox"><stop offset="0" stop-color="#f7d9ab"/><stop offset="0.145" stop-color="#f4d3a4"/><stop offset="0.483" stop-color="#f1cb9b"/><stop offset="1" stop-color="#f0c999"/></linearGradient><linearGradient id="w" x1="0.708" y1="1.744" x2="0.472" y2="0.07" xlink:href="#f"/><linearGradient id="x" x1="0.584" y1="-0.098" x2="0.386" y2="1.515" xlink:href="#g"/><linearGradient id="y" x1="0.605" y1="4.488" x2="0.488" y2="-0.324" gradientUnits="objectBoundingBox"><stop offset="0" stop-color="#dba779"/><stop offset="0.48" stop-color="#e3b486"/><stop offset="1" stop-color="#f0c999"/></linearGradient><linearGradient id="z" x1="0.888" y1="-0.068" x2="0.143" y2="1.045" xlink:href="#g"/><linearGradient id="aa" x1="0.75" y1="0.011" x2="-0.33" y2="1.436" gradientUnits="objectBoundingBox"><stop offset="0" stop-color="#dba779"/><stop offset="0.23" stop-color="#e2b283"/><stop offset="0.667" stop-color="#ecc393"/><stop offset="1" stop-color="#f0c999"/></linearGradient><linearGradient id="ab" x1="0.227" y1="-0.043" x2="1.093" y2="1.617" xlink:href="#aa"/><linearGradient id="ac" x1="0.501" y1="0.973" x2="0.494" y2="0.044" gradientUnits="objectBoundingBox"><stop offset="0" stop-color="#f7d9ab"/><stop offset="0.517" stop-color="#f5d6a8"/><stop offset="0.855" stop-color="#f2ce9f"/><stop offset="1" stop-color="#f0c999"/></linearGradient><radialGradient id="ad" cx="0.515" cy="0.49" r="0.47" gradientTransform="translate(-0.072) scale(1.143 1)" gradientUnits="objectBoundingBox"><stop offset="0" stop-color="#f9b58e"/><stop offset="0.564" stop-color="#f7c79c"/><stop offset="1" stop-color="#f7d9ab"/></radialGradient><linearGradient id="ae" x1="0.492" y1="0.987" x2="0.518" y2="-0.025" xlink:href="#ac"/><radialGradient id="af" cx="0.467" cy="0.489" r="0.483" gradientTransform="translate(-0.037) scale(1.074 1)" xlink:href="#ad"/><linearGradient id="ag" x1="-0.011" y1="0.5" x2="0.989" y2="0.5" gradientUnits="objectBoundingBox"><stop offset="0" stop-color="#ffdeb3"/><stop offset="1" stop-color="#f7d9ab"/></linearGradient><linearGradient id="ah" x1="0.038" y1="0.5" x2="1.038" y2="0.5" xlink:href="#ag"/><linearGradient id="ai" x1="0.564" y1="-0.617" x2="0.491" y2="0.981" gradientUnits="objectBoundingBox"><stop offset="0" stop-color="#f7d9ab"/><stop offset="0.483" stop-color="#f2ce9f"/><stop offset="1" stop-color="#f0c999"/></linearGradient><linearGradient id="aj" x1="-0.334" y1="0.5" x2="0.979" y2="0.5" xlink:href="#d"/><linearGradient id="ak" x1="0.496" y1="3.339" x2="0.502" y2="-1.869" xlink:href="#y"/><linearGradient id="al" x1="0.253" y1="-0.725" x2="0.78" y2="1.554" gradientUnits="objectBoundingBox"><stop offset="0" stop-color="#6b3329"/><stop offset="0.283" stop-color="#5a2b21"/><stop offset="0.701" stop-color="#482219"/><stop offset="1" stop-color="#421f16"/></linearGradient><linearGradient id="am" x1="0.191" y1="0.913" x2="0.928" y2="-0.442" xlink:href="#al"/><linearGradient id="an" x1="1.44" y1="0.942" x2="-0.416" y2="0.142" gradientUnits="objectBoundingBox"><stop offset="0" stop-color="#673024"/><stop offset="0.585" stop-color="#4e241a"/><stop offset="1" stop-color="#421f16"/></linearGradient><linearGradient id="ao" x1="0.493" y1="0.06" x2="0.52" y2="1.083" xlink:href="#a"/><linearGradient id="ap" x1="0.496" y1="0.11" x2="0.514" y2="1.079" xlink:href="#a"/><linearGradient id="aq" x1="0.539" y1="0.99" x2="0.473" y2="-0.27" xlink:href="#a"/><linearGradient id="ar" x1="0.494" y1="0.887" x2="0.516" y2="0.066" gradientUnits="objectBoundingBox"><stop offset="0" stop-color="#593a33"/><stop offset="0.404" stop-color="#5d3d36"/><stop offset="0.849" stop-color="#6a4741"/><stop offset="1" stop-color="#714c46"/></linearGradient><linearGradient id="as" x1="0.214" y1="1.59" x2="0.868" y2="-0.899" xlink:href="#ar"/><linearGradient id="at" x1="0.36" y1="1.485" x2="0.712" y2="-0.923" xlink:href="#ar"/><linearGradient id="au" x1="0.321" y1="-2.196" x2="0.545" y2="1.283" gradientUnits="objectBoundingBox"><stop offset="0" stop-color="#3b2621"/><stop offset="0.392" stop-color="#3e2822"/><stop offset="0.711" stop-color="#482e29"/><stop offset="1" stop-color="#593a33"/></linearGradient><linearGradient id="av" x1="0.195" y1="-2.307" x2="0.535" y2="0.889" xlink:href="#au"/><linearGradient id="aw" x1="0.476" y1="1.724" x2="0.511" y2="-0.41" xlink:href="#a"/><linearGradient id="ax" x1="0.757" y1="0.998" x2="0.39" y2="-0.076" xlink:href="#a"/><linearGradient id="ay" x1="0.002" y1="0.5" x2="1.002" y2="0.5" xlink:href="#a"/><linearGradient id="az" x1="1.866" y1="-1.86" x2="0.365" y2="0.977" xlink:href="#au"/><linearGradient id="ba" x1="0.796" y1="1.229" x2="0.402" y2="0.033" gradientUnits="objectBoundingBox"><stop offset="0" stop-color="#3b2621"/><stop offset="0.361" stop-color="#3f2823"/><stop offset="0.742" stop-color="#4b312b"/><stop offset="1" stop-color="#593a33"/></linearGradient><linearGradient id="bc" x1="0" y1="0.5" x2="1" y2="0.5" xlink:href="#ba"/><linearGradient id="bd" y1="0.5" x2="1" y2="0.5" gradientUnits="objectBoundingBox"><stop offset="0" stop-color="#593a33"/><stop offset="0.258" stop-color="#4b312b"/><stop offset="0.639" stop-color="#3f2823"/><stop offset="1" stop-color="#3b2621"/></linearGradient><linearGradient id="be" x1="0.503" y1="1.438" x2="0.5" y2="-0.041" xlink:href="#ac"/><linearGradient id="bf" x1="0.665" y1="1.174" x2="0.154" y2="-1.34" xlink:href="#ag"/><linearGradient id="bg" x1="0.949" y1="0.218" x2="0.032" y2="1.258" xlink:href="#y"/><linearGradient id="bh" x1="0.057" y1="0.217" x2="0.992" y2="1.226" xlink:href="#y"/><linearGradient id="bi" x1="1.187" y1="1.312" x2="0.395" y2="0.447" xlink:href="#ac"/><linearGradient id="bj" x1="0.876" y1="0.741" x2="0.269" y2="0.375" xlink:href="#ac"/><linearGradient id="bk" x1="0.012" y1="0.5" x2="0.985" y2="0.5" gradientUnits="objectBoundingBox"><stop offset="0" stop-color="#e8d8d7"/><stop offset="0.137" stop-color="#efe4e4"/><stop offset="0.393" stop-color="#faf8f7"/><stop offset="0.569" stop-color="#fff"/><stop offset="1" stop-color="#e8d2d1"/></linearGradient><linearGradient id="bl" x1="-0.202" y1="0.5" x2="1.141" y2="0.5" gradientUnits="objectBoundingBox"><stop offset="0" stop-color="#e8d8d7"/><stop offset="0.041" stop-color="#ebdddc"/><stop offset="0.211" stop-color="#f6f0ef"/><stop offset="0.385" stop-color="#fcfbfb"/><stop offset="0.569" stop-color="#fff"/><stop offset="0.69" stop-color="#fbf7f7"/><stop offset="0.872" stop-color="#f1e3e3"/><stop offset="1" stop-color="#e8d2d1"/></linearGradient><linearGradient id="bm" x1="0.029" y1="0.5" x2="1.029" y2="0.5" gradientUnits="objectBoundingBox"><stop offset="0" stop-color="#f96e7e"/><stop offset="0.035" stop-color="#f9707f"/><stop offset="0.247" stop-color="#fd7985"/><stop offset="0.528" stop-color="#ff7d88"/><stop offset="0.764" stop-color="#fd7985"/><stop offset="0.997" stop-color="#f86d7d"/><stop offset="1" stop-color="#f86d7d"/></linearGradient><linearGradient id="bn" x1="-0.018" y1="0.493" x2="1.054" y2="0.514" gradientUnits="objectBoundingBox"><stop offset="0" stop-color="#e8d8d7"/><stop offset="0.047" stop-color="#eadcdb"/><stop offset="0.306" stop-color="#f6efee"/><stop offset="0.484" stop-color="#fbf6f6"/><stop offset="1" stop-color="#e8d2d1"/></linearGradient><linearGradient id="bo" x1="0" y1="0.5" x2="1" y2="0.5" xlink:href="#bm"/><linearGradient id="bp" x1="-0.011" y1="0.5" x2="0.93" y2="0.5" xlink:href="#y"/><linearGradient id="bq" y1="0.5" x2="3.509" y2="0.5" gradientUnits="objectBoundingBox"><stop offset="0" stop-color="#fff"/><stop offset="0.467" stop-color="#fcfcfc"/><stop offset="0.773" stop-color="#f5f3f3"/><stop offset="1" stop-color="#ece7e7"/></linearGradient><linearGradient id="br" x1="-2.082" y1="0.5" x2="1.007" y2="0.5" xlink:href="#bq"/><linearGradient id="bs" y1="0.5" x2="1" y2="0.5" gradientUnits="objectBoundingBox"><stop offset="0" stop-color="#715241"/><stop offset="1" stop-color="#b89c8c"/></linearGradient><linearGradient id="bt" x1="2.011" y1="2.648" x2="0.757" y2="1.018" gradientUnits="objectBoundingBox"><stop offset="0" stop-color="#b89c8c"/><stop offset="1" stop-color="#715241"/></linearGradient><linearGradient id="bu" x1="-0.016" y1="0.5" x2="0.983" y2="0.5" gradientUnits="objectBoundingBox"><stop offset="0" stop-color="#2a3a3b"/><stop offset="1" stop-color="#1c2727"/></linearGradient><linearGradient id="bv" x1="0.025" y1="0.69" x2="0.949" y2="0.194" xlink:href="#bd"/><linearGradient id="bw" x1="-0.771" y1="0.237" x2="0.838" y2="0.514" xlink:href="#bd"/><linearGradient id="bx" x1="0.01" y1="0.344" x2="1.797" y2="0.73" xlink:href="#y"/><linearGradient id="by" x1="-0.011" y1="0.5" x2="0.93" y2="0.5" gradientUnits="objectBoundingBox"><stop offset="0" stop-color="#f0c999"/><stop offset="0.52" stop-color="#e3b486"/><stop offset="1" stop-color="#dba779"/></linearGradient><linearGradient id="bz" x1="0" y1="0.5" x2="3.509" y2="0.5" xlink:href="#bq"/><linearGradient id="ca" x1="-0.057" y1="0.5" x2="217.992" y2="0.5" xlink:href="#bq"/><linearGradient id="cb" x1="-2.081" y1="0.5" x2="1.007" y2="0.5" xlink:href="#bq"/><linearGradient id="cc" x1="1.174" y1="0.857" x2="-0.399" y2="-0.081" xlink:href="#bt"/><linearGradient id="cd" x1="0.173" y1="0.46" x2="3.808" y2="1.829" xlink:href="#bs"/><linearGradient id="cf" x1="0.003" y1="0.764" x2="1.022" y2="0.218" xlink:href="#ba"/><linearGradient id="cg" x1="2.21" y1="0.703" x2="0.31" y2="0.505" xlink:href="#bd"/><linearGradient id="ch" x1="0.031" y1="0.441" x2="1.731" y2="0.809" xlink:href="#y"/></defs><g transform="translate(-1210.92 -1212.283)"><circle cx="28.819" cy="28.819" r="28.819" transform="translate(1210.92 1269.921) rotate(-90)" fill="#f6ece6"/><path d="M1343.745,1436.986c-.021-.12-.043-.24-.069-.359Z" transform="translate(-111.082 -187.718)" fill="url(#a)"/><path d="M1322.437,1271.665c-6.7,1.695-17.316,17.946-5.872,31.762,0,0,.116-.9.394-1.062a15.655,15.655,0,0,1-.744-3.765q-.036-.187-.072-.374.036.186.072.374a10.171,10.171,0,0,0,1,3.252,6.81,6.81,0,0,1,.9-.633,13.343,13.343,0,0,1,3.72-1.494,9.992,9.992,0,0,1,8.633,1.945,7.5,7.5,0,0,0,1.6-2.052c-.339.8-.806,1.59-1.2,2.385a5.921,5.921,0,0,0,.893.625s7.692-12.513,3.995-19.781C1332.869,1277.164,1328.135,1270.225,1322.437,1271.665Z" transform="translate(-84.163 -49.527)" fill="url(#b)"/><path d="M1444.343,1459.894s2.361,9.808,2.654,11.091a21.1,21.1,0,0,0,1.212,2.834,28.88,28.88,0,0,0,5.529-3.779c-1.142-2.435-3.285-6.681-3.844-7.805C1449.281,1461,1448.247,1459.842,1444.343,1459.894Z" transform="translate(-195.314 -207.184)" fill="#f7d9ab"/><path d="M1467.585,1516.931a28.842,28.842,0,0,0,3.214-1.953c-1.22-2.035-2.131-3.607-2.131-3.607Z" transform="translate(-214.762 -250.259)" fill="url(#c)"/><path d="M1475.221,1473.164c1.19,2.3,2.721,5.553,3.245,6.7.135.3.337.668.574,1.078q.221-.186.438-.375c-1.346-2.668-2.8-5.6-3.592-7.177C1475.607,1472.831,1474.588,1471.939,1475.221,1473.164Z" transform="translate(-220.981 -217.776)" fill="url(#d)"/><g transform="translate(1252.571 1252.892)"><path d="M1483.195,1515.2l.162.493a21.27,21.27,0,0,1,2.469-2.751l-.262-.523A14.275,14.275,0,0,0,1483.195,1515.2Z" transform="translate(-1480.395 -1504.031)" fill="url(#e)"/><path d="M1466.042,1461.021c.45,1.376,2.492,11.736,2.492,11.736a12.759,12.759,0,0,1,2.8-3.214C1468.221,1462.3,1466.687,1461.033,1466.042,1461.021Z" transform="translate(-1466.042 -1461.021)" fill="#fe743d"/><path d="M1476.038,1473.33l.59-.39c-2.787-6.2-4.357-7.873-4.357-7.873C1473.39,1467.386,1476.038,1473.33,1476.038,1473.33Z" transform="translate(-1471.253 -1464.406)" fill="url(#f)"/><path d="M1469.641,1484.736l1.252,4.626.725-1.242s-1.544-2.934-3.133-6.781C1468.405,1481.147,1469.641,1484.736,1469.641,1484.736Z" transform="translate(-1468.083 -1478.016)" fill="url(#g)"/><path d="M1482.377,1512.016l.181.84a9.941,9.941,0,0,1,2.552-2.685l-.309-.657A6.992,6.992,0,0,0,1482.377,1512.016Z" transform="translate(-1479.71 -1501.597)" fill="url(#h)"/></g><path d="M1339.431,1425.731a55.76,55.76,0,0,1-.677-5.989l-8.249-.17a17.624,17.624,0,0,1,.014,5.976c-.367,1.136-6.208,2.216-6.208,2.216,3.92,5.692,8.481,4.806,13.3,4.466s5.058-5.8,5.058-5.8S1339.817,1426.227,1339.431,1425.731Z" transform="translate(-94.879 -173.448)" fill="#f7d9ab"/><path d="M1345.436,1421.866a30.2,30.2,0,0,1-.169-3.077c.123-1.791.172-3.376.169-3.35l-9.052,1.487s.19,4.505-.2,5.236c-.51.945-4.711,1.8-4.711,1.8l.292.828s5.62-.8,5.874-.927.119-1.292.119-1.292c3.024-.368,5.087-.885,6.385-1.839a28.875,28.875,0,0,0,.188,3.109c.475.73,7.4-.828,7.4-.828l-3.65-.514A8.41,8.41,0,0,1,1345.436,1421.866Z" transform="translate(-100.868 -169.989)" fill="url(#i)"/><path d="M1346.988,1458.412s.95,4.474-4.785,5.077a11.163,11.163,0,0,1-10.175-3.844l-1.306.3s4.951,6.057,12.213,4.974,4.837-6.416,4.837-6.416Z" transform="translate(-100.244 -205.946)" fill="url(#j)"/><path d="M1322.218,1458.451l-5.454-.487s.619,4.363-3.22,5.213-8.857.777-12.826-3.849a50.939,50.939,0,0,0-6.611,1.895c1.107.326,3.628,3.341,2.743,11.529a28.845,28.845,0,0,0,28.212-2.064c-.27-1.185-.591-2.424-.9-3.858C1323.432,1463.452,1323.525,1462.019,1322.218,1458.451Z" transform="translate(-69.607 -205.571)" fill="#fe743d"/><path d="M1314.57,1506.924c-.669-1.97-1.131-3.307-1.131-3.307A20.764,20.764,0,0,0,1314.57,1506.924Z" transform="translate(-85.782 -243.771)" fill="url(#k)"/><path d="M1320.364,1523.871c.514,1.516,1.151,3.406,1.794,5.353a28.615,28.615,0,0,0,4.466,1.07A11.719,11.719,0,0,1,1320.364,1523.871Z" transform="translate(-91.576 -260.718)" fill="url(#l)"/><path d="M1309.332,1526.789a28.633,28.633,0,0,0,2.687,1.135,23.628,23.628,0,0,1-2.08-5.234A9.89,9.89,0,0,1,1309.332,1526.789Z" transform="translate(-82.345 -259.73)" fill="url(#m)"/><path d="M1365.746,1502.89c-2.293-.451-9.466-.65-11.59,1.034s-3.261,5.519,1.581,5.88a56.287,56.287,0,0,0,14.271-.541C1373.471,1508.557,1371.986,1504.118,1365.746,1502.89Z" transform="translate(-118.325 -242.899)" fill="url(#n)"/><path d="M1388.836,1470.485c-.177.13-1.068-.5-1.394-.57a7.09,7.09,0,0,0,1.227,1.432c.477.311,1.033-1.732,1.007-1.985S1389.013,1470.355,1388.836,1470.485Z" transform="translate(-147.703 -215.08)" fill="url(#o)"/><path d="M1476.247,1503.071c.1.516.2,1.033.283,1.539.154-.1.307-.2.458-.3-.591-2.334-1.536-6-1.536-6A28.251,28.251,0,0,0,1476.247,1503.071Z" transform="translate(-221.329 -239.327)" fill="url(#p)"/><path d="M1305.74,1545.268q.315.161.634.315c-.053-.125-.108-.246-.159-.373C1306.156,1545.063,1305.975,1545.114,1305.74,1545.268Z" transform="translate(-79.34 -278.5)" fill="url(#q)"/><path d="M1347.9,1457.964s.389,3.25-1.875,4.565c-1.7.987-5.788,1.57-9.441.237a18.161,18.161,0,0,1-4.73-3.439l-.535.119a11.825,11.825,0,0,0,6.854,4.38c4.9.956,8.181-.438,8.839-1.242a5.54,5.54,0,0,0,1.433-4.572Z" transform="translate(-100.744 -205.571)" fill="url(#r)"/><path d="M1285.891,1479.688c-1.727-2.12-2.842-2.3-3.767-2.2-.552.058-2.807.651-2.65,3.949a28.046,28.046,0,0,0,.857,5.154,28.677,28.677,0,0,0,9.918,4.454,28.631,28.631,0,0,1-1.96-6.389A14.063,14.063,0,0,0,1285.891,1479.688Z" transform="translate(-57.355 -221.888)" fill="#f7d9ab"/><path d="M1294.006,1477.886h0Z" transform="translate(-69.515 -222.241)" fill="url(#s)"/><path d="M1294.047,1477.438c.137-.024,2.109-.309,4.093,2.74,1.281,1.97,2.971,8.546,3.36,9.91.042.149.11.38.2.671.3.081.611.157.92.228-1.722-4.561-2.74-9.362-3.95-11.088C1297.647,1478.439,1296.011,1476.973,1294.047,1477.438Z" transform="translate(-69.556 -221.792)" fill="url(#t)"/><path d="M1284.943,1479.454c-.989-.023-3.555,1.1-2.532,5.43.269,1.142.622,2.491,1.058,3.957a28.681,28.681,0,0,0,7.521,3.461C1289.289,1485.827,1287.091,1479.505,1284.943,1479.454Z" transform="translate(-59.622 -223.553)" fill="url(#u)"/><path d="M1302.4,1540.557l-.265-.794a11.72,11.72,0,0,0-7.689-1.138q.7.428,1.433.816A13.176,13.176,0,0,1,1302.4,1540.557Z" transform="translate(-69.886 -272.889)" fill="url(#v)"/><path d="M1288.16,1486.192a10.794,10.794,0,0,1,.464-2.355c.209-.135.43-3.749-3.01-6.995-2.934-2.768-3.628-2.628-3.628-2.628-5.666,1.172-4.4,5.483-3.531,9.374q1.1.8,2.274,1.5C1285.792,1484.369,1288.16,1486.192,1288.16,1486.192Z" transform="translate(-55.869 -219.167)" fill="#fe743d"/><path d="M1291.016,1478.685s-2.115-5.99-2.508-7.6.049-3.555,2.922-4.772c0,0-7.359,1.5-7.84,2.587-1.061,2.4-.461,6.285.2,8.693q.558.375,1.135.725C1286.3,1478.091,1289.054,1477.8,1291.016,1478.685Z" transform="translate(-60.321 -212.56)" fill="url(#w)"/><path d="M1299.826,1537.849l-.207-.662c-2.142-1.719-6.021-1.3-8-.933q.445.283.9.549C1297.782,1536.276,1299.826,1537.849,1299.826,1537.849Z" transform="translate(-67.524 -270.806)" fill="url(#x)"/><path d="M1360.7,1424.7a14.406,14.406,0,0,0,8.905-2.167l.169-2.955-9.218.835A21.469,21.469,0,0,1,1360.7,1424.7Z" transform="translate(-125.209 -173.448)" fill="url(#y)"/><path d="M1334.9,1512.057a9.274,9.274,0,0,0-.163,2.233c0,.146,1.376,4.2,1.376,4.2a20.7,20.7,0,0,0,.053-3.069C1336.019,1515.125,1335.093,1511.717,1334.9,1512.057Z" transform="translate(-103.6 -250.813)" fill="url(#z)"/><g transform="translate(1224.695 1220.614)"><path d="M1449.714,1370.8a1.965,1.965,0,0,1-.233,1.532,3.666,3.666,0,0,0,.689-1.384c.184-1.237-.316-1.327-.093-1.633.18-.249.432.476.432.476C1450.767,1368.149,1449.25,1368.5,1449.714,1370.8Z" transform="translate(-1424.309 -1351.556)" fill="url(#aa)"/><path d="M1321.51,1364.957c-1.71-.076-.591,4.827,1.075,5.417,0,0-.108-2-.464-4.631C1322.121,1365.743,1321.809,1364.97,1321.51,1364.957Z" transform="translate(-1316.517 -1348.362)" fill="#f0c999"/><path d="M1322.437,1370.346c.351-2.43-1.3-2.59-.915-.934,0,0,.224-.783.433-.55.257.286-.272.447,0,1.7a3.444,3.444,0,0,0,.826,1.335A1.9,1.9,0,0,1,1322.437,1370.346Z" transform="translate(-1317.193 -1351.176)" fill="url(#ab)"/><path d="M1339.938,1290.383c-5.815-.966-9.954,4.141-11.043,10.332-.611,3.474-.371,6.573,1.492,9.127a11.591,11.591,0,0,0,2.774,2.351c.691.518,1.769,1.629,2.506,2.168a4.1,4.1,0,0,0,2.3.92c2.736.1,4.532-1.94,5.319-2.675,2.762-2.58,5.3-3.54,4.74-10.723C1347.593,1296.241,1343.75,1290.5,1339.938,1290.383Z" transform="translate(-1323.16 -1285.865)" fill="#f7d9ab"/><path d="M1400.556,1343.635c-3.24.58-3.112,3.021-3.355,5.875,5.234,2.145,8.258-.383,8.258-.383s-.015-3.159-.737-4.242C1404.444,1344.467,1403.583,1343.094,1400.556,1343.635Z" transform="translate(-1380.564 -1330.418)" fill="url(#ac)"/><path d="M1410.887,1367.745c-1.524.311-3.031,2.013-2.7,3.645a4.875,4.875,0,0,0,2.85,3.6c1.893.746,3.269-1.681,3.6-4.685C1414.814,1368.656,1412.411,1367.434,1410.887,1367.745Z" transform="translate(-1389.719 -1350.655)" fill="url(#ad)"/><path d="M1336.372,1345.046a4.646,4.646,0,0,0-3.106.794c-1.607,1.2-.667,4.373-.667,4.373s2.511,2.931,7.8.849C1340.032,1348.8,1340.655,1345.345,1336.372,1345.046Z" transform="translate(-1326.281 -1331.69)" fill="url(#ae)"/><path d="M1334.35,1370.942c-1.394-.352-3.6.688-3.565,2.131.069,3.409,1.45,4.41,3.287,4.682,1.423.212,2.734-1.965,3.087-3.362S1335.745,1371.294,1334.35,1370.942Z" transform="translate(-1324.991 -1353.313)" fill="url(#af)"/><path d="M1431.716,1377.012c-.519.131-.88.465-.81.747s.549.406,1.066.276.881-.464.809-.747S1432.232,1376.882,1431.716,1377.012Z" transform="translate(-1408.759 -1358.407)" fill="url(#ag)"/><path d="M1335.416,1377.582c-.519-.1-.984.05-1.038.332s.322.593.841.694.985-.05,1.04-.332S1335.935,1377.682,1335.416,1377.582Z" transform="translate(-1327.993 -1358.901)" fill="url(#ah)"/><path d="M1340.547,1290.777s-6.155-1.657-10.134,4.715c-2.034,3.258-2.766,8.864-1.664,12.031a7.905,7.905,0,0,1,1.036-4.324s2.423-10.328,8.96-10.692c6.344,2.154,7.735,8.046,9.044,12.352a18.712,18.712,0,0,0-.916-6.832C1345.745,1294.8,1343.575,1291.369,1340.547,1290.777Z" transform="translate(-1322.859 -1286.131)" fill="url(#ai)"/><path d="M1382.259,1427.746c-.722-.037-1.331.136-1.36.387s.531.487,1.254.525,1.329-.136,1.359-.389S1382.979,1427.783,1382.259,1427.746Z" transform="translate(-1366.923 -1400.897)" fill="url(#aj)"/><path d="M1333.245,1379.985c-3.693-2.661-2.59-7.421-2.59-7.421-1.926,4.831,1.391,7,2.061,7.449,1.383.917,3.683,2.812,3.683,2.812A19.55,19.55,0,0,0,1333.245,1379.985Z" transform="translate(-1324.386 -1354.728)" fill="#f0c999"/><path d="M1371.149,1436.573s2.263,2.98,6-.137C1377.151,1436.436,1374.148,1438.78,1371.149,1436.573Z" transform="translate(-1358.766 -1408.172)" fill="url(#ak)"/><path d="M1423.351,1344.686a5.927,5.927,0,0,0-3.326-.938,3.464,3.464,0,0,1,3.413,4.008S1424.343,1345.309,1423.351,1344.686Z" transform="translate(-1399.662 -1330.612)" fill="#f7d9ab"/><path d="M1445.936,1350.223l.23-1.687a28.64,28.64,0,0,0-.743-3.663S1445.682,1349.121,1445.936,1350.223Z" transform="translate(-1420.914 -1331.558)" fill="url(#al)"/><path d="M1327.216,1348.582c.327-1.307.661-5.072.661-5.072l-.823,3.5Z" transform="translate(-1321.869 -1330.417)" fill="url(#am)"/><path d="M1322.042,1366.046c-1.67-.056-.526,4.717,1.106,5.276,0,0-.126-1.952-.5-4.515C1322.647,1366.807,1322.333,1366.056,1322.042,1366.046Z" transform="translate(-1316.991 -1349.274)" fill="#f0c999"/><path d="M1322.964,1371.32c.318-2.376-1.291-2.514-.9-.9,0,0,.211-.767.417-.542.254.277-.261.439.021,1.659a3.367,3.367,0,0,0,.82,1.294A1.854,1.854,0,0,1,1322.964,1371.32Z" transform="translate(-1317.641 -1352.037)" fill="#dba779"/><path d="M1442.449,1350.591l.15-1.6a32.823,32.823,0,0,0-.826-3.915S1442.183,1349.532,1442.449,1350.591Z" transform="translate(-1417.859 -1331.731)" fill="url(#an)"/><path d="M1398.334,1273.529a26.957,26.957,0,0,0-2.259,4s5.715.657,7.791,8.272c1.5,5.514,2.278,10.7-1.982,18.989,0,0,5.691-4.987,6.165-14.66C1408.332,1284.341,1406.078,1273.056,1398.334,1273.529Z" transform="translate(-1379.622 -1271.85)" fill="url(#ao)"/><path d="M1304.207,1265.269c-3.974,1.839-9.182,7.887-8.9,19.095.211,8.314,7.5,13.077,7.5,13.077s-2.7-9.161-2.316-14.283c.545-7.222,6.28-14.491,11.261-13.386a15.713,15.713,0,0,0,2.252-4.073A10.281,10.281,0,0,0,1304.207,1265.269Z" transform="translate(-1295.298 -1264.087)" fill="url(#ap)"/><path d="M1399.344,1298.364c-2.386-1.412-3.259-.836-3.259-.836,8.221,3.046,8.567,11.31,8.907,15.4.4,4.791-3.1,11.863-3.1,11.863C1412.457,1307.775,1402.62,1300.3,1399.344,1298.364Z" transform="translate(-1379.63 -1291.845)" fill="url(#aq)"/><path d="M1348.446,1264.927c-6.474-4.12-11.993.962-11.993.962,7.48-3.855,11.657.066,11.657.066,4-1.26,8.39,5.444,8.39,5.444C1353.765,1264.125,1348.446,1264.927,1348.446,1264.927Z" transform="translate(-1329.734 -1263.316)" fill="url(#ar)"/><path d="M1421,1288.943c4.255,1.8,7.091,10.807,7.091,10.807C1426.562,1289.555,1421,1288.943,1421,1288.943Z" transform="translate(-1400.477 -1284.759)" fill="url(#as)"/><path d="M1306.139,1288.861s4.148-14.72,15.286-12.218C1321.426,1276.643,1308.927,1271.444,1306.139,1288.861Z" transform="translate(-1304.369 -1273.859)" fill="url(#at)"/><path d="M1440.4,1377.576c6.422-5.791,4.737-15.685,4.737-15.685C1444.818,1371.86,1440.4,1377.576,1440.4,1377.576Z" transform="translate(-1416.707 -1345.797)" fill="url(#au)"/><path d="M1295.987,1369.757s-.962,11.023,6.426,15.783C1302.412,1385.54,1297.067,1380.3,1295.987,1369.757Z" transform="translate(-1295.84 -1352.379)" fill="url(#av)"/><path d="M1328.4,1294.347c-5.605,3.128-10.342,12.689-3.7,27.659,0,0-3.844-13.7.221-21.042,2.68-4.842,4.889-6.833,8.725-6.623A4.913,4.913,0,0,0,1328.4,1294.347Z" transform="translate(-1317.182 -1288.656)" fill="url(#aw)"/><path d="M1438.671,1336.968c.967,3.962,1,11.765.524,13.717,3.8-9.179.123-13.543-1.164-15.52A9.407,9.407,0,0,1,1438.671,1336.968Z" transform="translate(-1414.728 -1323.435)" fill="url(#ax)"/><path d="M1444.42,1366.871c-.285.006-.6.736-.6.736a9.56,9.56,0,0,1-.466,4.335C1444.956,1371.419,1446.056,1366.84,1444.42,1366.871Z" transform="translate(-1419.181 -1349.964)" fill="#f0c999"/><path d="M1442.63,1351.529l.142-1.57a29.415,29.415,0,0,0-.832-3.849S1442.369,1350.492,1442.63,1351.529Z" transform="translate(-1417.999 -1332.593)" fill="url(#ay)"/><path d="M1447.562,1371.792a1.875,1.875,0,0,1-.207,1.468,3.5,3.5,0,0,0,.644-1.33c.163-1.183-.316-1.264-.107-1.56.17-.239.419.451.419.451C1448.539,1369.252,1447.095,1369.606,1447.562,1371.792Z" transform="translate(-1422.53 -1352.461)" fill="#dba779"/><path d="M1310.105,1332.635s-6.791,11.241,1.476,19.609A21.14,21.14,0,0,1,1310.105,1332.635Z" transform="translate(-1305.492 -1321.318)" fill="url(#az)"/><path d="M1329.518,1348.279c-.952-9.524,2.044-14,2.044-14C1327.2,1338.958,1329.518,1348.279,1329.518,1348.279Z" transform="translate(-1323.418 -1322.696)" fill="url(#ba)"/><path d="M1416.225,1368.119c2.093,2.983-.088,6.273-1.777,7.791-1.865,1.675-2.633,2.627-2.932,2.909.269-.234,2.753-2.4,3.463-2.9.657-.464,3.189-2.961,2.554-6.092A3.088,3.088,0,0,0,1416.225,1368.119Z" transform="translate(-1392.542 -1351.009)" fill="url(#d)"/><g transform="translate(6.637 12.958)"><path d="M1407.521,1343.044c-.7.32-1.217,1.235-.607,1.043a23.48,23.48,0,0,1,3.355-.562,5.406,5.406,0,0,1,2.175.594,4.74,4.74,0,0,0-1.956-1.169A10.307,10.307,0,0,0,1407.521,1343.044Z" transform="translate(-1395.101 -1342.858)" fill="url(#bc)"/><path d="M1340.974,1342.858a10.811,10.811,0,0,0-3.1-.114,4.724,4.724,0,0,0-1.93,1.236,5.155,5.155,0,0,1,2.162-.659,27.942,27.942,0,0,1,3.376.506C1342.1,1344,1341.685,1343.163,1340.974,1342.858Z" transform="translate(-1335.948 -1342.686)" fill="url(#bd)"/><g transform="translate(6.332 6.999)"><path d="M1379.118,1395.473a10.373,10.373,0,0,0,1.735-.929l-3.552-.05A7.309,7.309,0,0,0,1379.118,1395.473Z" transform="translate(-1376.882 -1393.034)" fill="url(#be)"/><path d="M1382.407,1385.554c-.943.013-1.213.248-1.147.5.16.614.558.734,1.148.741.62.006,1.105-.124,1.21-.781C1383.648,1385.819,1383.352,1385.54,1382.407,1385.554Z" transform="translate(-1380.187 -1385.553)" fill="url(#bf)"/><path d="M1392.077,1392.8s1.731.05,1.179-.528C1393.071,1392.079,1392.077,1392.8,1392.077,1392.8Z" transform="translate(-1389.245 -1391.148)" fill="url(#bg)"/><path d="M1376.771,1392.464c-.585.485,1.24.484,1.24.484S1376.977,1392.294,1376.771,1392.464Z" transform="translate(-1376.341 -1391.312)" fill="url(#bh)"/><path d="M1376.948,1391.436c-1.754-.049-1.942-.91-2.188-.363-.1.224.085.294.392.407,0,0-.1-.254.3-.223.284.022.5.631,1.518.616,1.082-.016,1.237-.558,1.516-.569a.2.2,0,0,1,.223.226s.516-.258.326-.5C1378.683,1390.6,1378.563,1391.48,1376.948,1391.436Z" transform="translate(-1374.732 -1390.02)" fill="#f0c999"/></g><g transform="translate(4.249 9.777)"><path d="M1362.008,1402.616c-.094.17.028.35.25.427a4.115,4.115,0,0,1,1.121.616C1363.023,1403.136,1362.092,1402.464,1362.008,1402.616Z" transform="translate(-1361.976 -1402.591)" fill="url(#bi)"/><path d="M1408.028,1403.708a4.107,4.107,0,0,1,1.085-.676c.218-.089.331-.275.227-.439C1409.248,1402.445,1408.354,1403.166,1408.028,1403.708Z" transform="translate(-1400.51 -1402.573)" fill="url(#bj)"/><path d="M1375.831,1416.178a2.663,2.663,0,0,0,4.446.019A5.684,5.684,0,0,1,1375.831,1416.178Z" transform="translate(-1373.569 -1413.957)" fill="#f0c999"/><path d="M1367.577,1404.281a17.644,17.644,0,0,1-3.963-.5v0a.6.6,0,0,1,.037.055,4.373,4.373,0,0,1,.985.5c.274.2.532,1.545,3.245,1.54a3.926,3.926,0,0,0,3.264-1.508,2.353,2.353,0,0,1,.754-.534c.006-.025.018-.035.024-.061A13.049,13.049,0,0,1,1367.577,1404.281Z" transform="translate(-1363.346 -1403.582)" fill="#961b27"/><path d="M1378.545,1408.433a13.794,13.794,0,0,1-4.344.125c-.434-.2-.4.357-.4.357a2.788,2.788,0,0,0,2.479.835,4.1,4.1,0,0,0,2.565-.86C1378.917,1408.71,1378.758,1408.387,1378.545,1408.433Z" transform="translate(-1371.874 -1407.473)" fill="url(#bk)"/><path d="M1372.988,1405.365a6.7,6.7,0,0,1-1.387-.25,1.507,1.507,0,0,1,.181.3c.091.214.543.939,2.726.932,1.643-.006,2.513-.583,2.633-.937.073-.213.226-.306.24-.378a5.525,5.525,0,0,1-1.665.35A14.226,14.226,0,0,1,1372.988,1405.365Z" transform="translate(-1370.03 -1404.633)" fill="url(#bl)"/><path d="M1368.219,1406.1c-3.335-.033-2.164-1.385-4.376-1.941a4.113,4.113,0,0,1,1.086.956c.638.75,1.183,1.929,3.052,1.93a4.076,4.076,0,0,0,3.171-1.89,5.474,5.474,0,0,1,.947-1C1370.283,1404.634,1370.87,1406.038,1368.219,1406.1Z" transform="translate(-1363.538 -1403.897)" fill="#f86d78"/><path d="M1376.545,1409.436a6.341,6.341,0,0,1-1.705.3,4.557,4.557,0,0,1-1.69-.3,5.072,5.072,0,0,1-1.059-.9,3.1,3.1,0,0,0,2.7,1.914c2.172-.028,2.576-1.482,2.968-1.912A3.308,3.308,0,0,1,1376.545,1409.436Z" transform="translate(-1370.44 -1407.563)" fill="url(#bm)"/><path d="M1389.646,1415.452c-.22.074-.976.12-.948.2a1.235,1.235,0,0,0,1.049.079c.444-.12.654-.371.627-.448S1389.866,1415.378,1389.646,1415.452Z" transform="translate(-1384.336 -1413.19)" fill="#ff9aa2"/><path d="M1363,1403.469a3.252,3.252,0,0,1,.755.156,7.475,7.475,0,0,0-.946-.446C1362.77,1403.2,1362.808,1403.379,1363,1403.469Z" transform="translate(-1362.663 -1403.08)" fill="#961b27"/><path d="M1409.909,1403.626a2.624,2.624,0,0,1,.735-.165c.194-.091.227-.264.19-.29A4.635,4.635,0,0,0,1409.909,1403.626Z" transform="translate(-1402.083 -1403.07)" fill="#961b27"/><path d="M1372.021,1406.1a6.523,6.523,0,0,0,2.88.527,6.071,6.071,0,0,0,2.467-.517l.113-.257-5.6-.014Z" transform="translate(-1370.265 -1405.31)" fill="url(#bn)"/><path d="M1369.967,1404.063a7.272,7.272,0,0,0-1.187.049,12.082,12.082,0,0,0-1.38-.091,8.8,8.8,0,0,1-2.684-.122,9.233,9.233,0,0,0,2.343.641,7.722,7.722,0,0,0,1.694.225,10,10,0,0,0,1.865-.223,9.4,9.4,0,0,0,2.061-.629A11.734,11.734,0,0,1,1369.967,1404.063Z" transform="translate(-1364.269 -1403.682)" fill="#f86d78"/><path d="M1379.369,1405.053a7.712,7.712,0,0,1-.937.063c-.192,0-.722-.1-.882-.1a5.165,5.165,0,0,0-1.15.143c-.056.2,2.166.364,2.368.348a13.4,13.4,0,0,0,1.928-.29A4.352,4.352,0,0,0,1379.369,1405.053Z" transform="translate(-1374.044 -1404.615)" fill="url(#bo)"/></g><g transform="translate(0.275 1.766)"><path d="M1343.107,1353.917c-1.185.146-2.621.737-2.409,2.018a1.855,1.855,0,0,0,1.866,1.566,6.747,6.747,0,0,0,2.517-.383,4.745,4.745,0,0,1,1-.09A2.627,2.627,0,0,0,1343.107,1353.917Z" transform="translate(-1340.18 -1353.843)" fill="url(#bp)"/><path d="M1366.547,1364.874a1.452,1.452,0,0,1,.066.261,1.233,1.233,0,0,1-.244,1.089,5.318,5.318,0,0,1,1.128-.094A2.444,2.444,0,0,0,1366.547,1364.874Z" transform="translate(-1361.678 -1363.018)" fill="url(#bq)"/><path d="M1344.289,1364.746a1.482,1.482,0,0,1,.133-.876,8.111,8.111,0,0,0-1.237.523,1.72,1.72,0,0,0,1.644,1.341A1.45,1.45,0,0,1,1344.289,1364.746Z" transform="translate(-1342.279 -1362.178)" fill="url(#br)"/><path d="M1347.144,1358.911a3.354,3.354,0,0,0-1.367-.734,5.114,5.114,0,0,0-2.274.658,3.405,3.405,0,0,0-.445.607s.054.31.076.424a6.319,6.319,0,0,1,1.048-.332c.206-.422.74-1.168,1.239-1.244.717-.11,1.477.745,1.707,1.41.738.487.864.826.864.826-.009-.055-.019-.108-.03-.16A2.792,2.792,0,0,0,1347.144,1358.911Z" transform="translate(-1342.172 -1357.414)" fill="#ddd"/><path d="M1352.717,1362.865a3.061,3.061,0,0,0-2.726-.164,1.481,1.481,0,0,0-.133.876,1.45,1.45,0,0,0,.54.988,6.269,6.269,0,0,0,2.141-.35,1.2,1.2,0,0,0,.244-1.089A1.474,1.474,0,0,0,1352.717,1362.865Z" transform="translate(-1347.848 -1361.009)" fill="url(#bs)"/><path d="M1351.865,1358.779a1.478,1.478,0,0,0-1.105.817,3.061,3.061,0,0,1,2.726.164A1.479,1.479,0,0,0,1351.865,1358.779Z" transform="translate(-1348.617 -1357.903)" fill="#ddd"/><path d="M1351.181,1358.8a1.419,1.419,0,0,0-1.238,1.244,4.41,4.41,0,0,1,2.946.165A1.537,1.537,0,0,0,1351.181,1358.8Z" transform="translate(-1347.933 -1357.925)" fill="url(#bt)"/><path d="M1353.5,1360.781a1.027,1.027,0,0,0-.856,1.172.988.988,0,0,0,.408.709,1.3,1.3,0,0,0,.862.13,1.028,1.028,0,0,0-.413-2.011Z" transform="translate(-1350.184 -1359.583)" fill="url(#bu)"/><path d="M1358.563,1365.173a.251.251,0,0,0-.336.13.263.263,0,0,0,.12.347.25.25,0,0,0,.335-.13A.264.264,0,0,0,1358.563,1365.173Z" transform="translate(-1354.845 -1363.249)" fill="#fff"/><path d="M1363.113,1367.083a.349.349,0,0,0-.462.166.342.342,0,0,0,.17.456.351.351,0,0,0,.462-.166A.344.344,0,0,0,1363.113,1367.083Z" transform="translate(-1358.54 -1364.839)" fill="#fff"/><path d="M1340.88,1357.828c-1.542-.07-1.915.712-3.18.047,0,0-.135.993.413,1.168l.007.138s-.206-.1-.485.193c0,0,.315-.2.876.562a1.958,1.958,0,0,0,1.543.72,1.864,1.864,0,0,1-1.534-1.508c4.153-2.131,4.934,1.083,4.934,1.083a1.883,1.883,0,0,0-.507-1.657A2.845,2.845,0,0,0,1340.88,1357.828Z" transform="translate(-1337.634 -1357.118)" fill="url(#bv)"/><path d="M1345.56,1360.761a4.06,4.06,0,0,0-2.5.843,8.492,8.492,0,0,1,2.467-.574,2.3,2.3,0,0,1,2.467,1.657A2.262,2.262,0,0,0,1345.56,1360.761Z" transform="translate(-1342.172 -1359.575)" fill="url(#bw)"/><path d="M1348.619,1353.57a3.468,3.468,0,0,0-2.583.484,4.9,4.9,0,0,1,2.491-.306,2.45,2.45,0,0,1,1.923,1.556A2.224,2.224,0,0,0,1348.619,1353.57Z" transform="translate(-1344.664 -1353.504)" fill="url(#bx)"/><g transform="translate(10.626)"><path d="M1405.714,1353.917a2.627,2.627,0,0,0-2.974,3.111,4.746,4.746,0,0,1,1,.09,6.747,6.747,0,0,0,2.517.383,1.854,1.854,0,0,0,1.865-1.566C1408.335,1354.653,1406.9,1354.062,1405.714,1353.917Z" transform="translate(-1402.719 -1353.843)" fill="url(#by)"/><path d="M1404.228,1365.135a1.462,1.462,0,0,1,.067-.261,2.442,2.442,0,0,0-.951,1.255,5.316,5.316,0,0,1,1.128.094A1.233,1.233,0,0,1,1404.228,1365.135Z" transform="translate(-1403.242 -1363.018)" fill="url(#bz)"/><path d="M1403.374,1371.585c-.022.1-.03.16-.03.16C1403.353,1371.69,1403.363,1371.637,1403.374,1371.585Z" transform="translate(-1403.242 -1368.633)" fill="url(#ca)"/><path d="M1423.911,1364.746a1.45,1.45,0,0,1-.54.988,1.72,1.72,0,0,0,1.644-1.341,8.113,8.113,0,0,0-1.237-.523A1.48,1.48,0,0,1,1423.911,1364.746Z" transform="translate(-1420 -1362.178)" fill="url(#cb)"/><path d="M1405.559,1358.177a3.355,3.355,0,0,0-1.367.734,2.793,2.793,0,0,0-.818,1.455c-.011.052-.021.1-.03.16,0,0,.127-.339.865-.826.229-.665.99-1.52,1.707-1.41.5.077,1.033.822,1.238,1.244a6.314,6.314,0,0,1,1.049.332c.021-.114.076-.424.076-.424a3.411,3.411,0,0,0-.445-.607A5.114,5.114,0,0,0,1405.559,1358.177Z" transform="translate(-1403.242 -1357.414)" fill="#ddd"/><path d="M1408.683,1362.865a1.453,1.453,0,0,0-.066.261,1.2,1.2,0,0,0,.244,1.089,6.268,6.268,0,0,0,2.141.35,1.45,1.45,0,0,0,.54-.988,1.481,1.481,0,0,0-.133-.876A3.06,3.06,0,0,0,1408.683,1362.865Z" transform="translate(-1407.631 -1361.009)" fill="url(#cc)"/><path d="M1410.788,1358.779a1.478,1.478,0,0,0-1.621.98,3.06,3.06,0,0,1,2.726-.164A1.478,1.478,0,0,0,1410.788,1358.779Z" transform="translate(-1408.114 -1357.903)" fill="#ddd"/><path d="M1410.346,1358.8a1.536,1.536,0,0,0-1.707,1.41,4.409,4.409,0,0,1,2.945-.165A1.419,1.419,0,0,0,1410.346,1358.8Z" transform="translate(-1407.673 -1357.925)" fill="url(#cd)"/><path d="M1412.623,1360.781a1.028,1.028,0,0,0-.413,2.011,1.3,1.3,0,0,0,.862-.13.987.987,0,0,0,.407-.709A1.027,1.027,0,0,0,1412.623,1360.781Z" transform="translate(-1410.019 -1359.583)" fill="url(#bu)"/><path d="M1408.506,1359.182l.007-.138c.549-.175.413-1.168.413-1.168-.98.708-1.638-.117-3.18-.047a2.844,2.844,0,0,0-2.067.745,1.883,1.883,0,0,0-.507,1.657s.781-3.214,4.934-1.083a1.864,1.864,0,0,1-1.535,1.508,1.958,1.958,0,0,0,1.544-.72c.561-.762.876-.562.876-.562C1408.712,1359.083,1408.506,1359.182,1408.506,1359.182Z" transform="translate(-1403.07 -1357.119)" fill="url(#cf)"/><path d="M1403.344,1362.687a2.3,2.3,0,0,1,2.467-1.657,8.491,8.491,0,0,1,2.467.574,4.06,4.06,0,0,0-2.5-.843A2.262,2.262,0,0,0,1403.344,1362.687Z" transform="translate(-1403.242 -1359.575)" fill="url(#cg)"/><path d="M1405.383,1353.57a2.224,2.224,0,0,0-1.83,1.734,2.45,2.45,0,0,1,1.923-1.556,4.9,4.9,0,0,1,2.491.306A3.468,3.468,0,0,0,1405.383,1353.57Z" transform="translate(-1403.417 -1353.504)" fill="url(#ch)"/><path d="M1417.084,1365.157a.251.251,0,0,0-.335.13.264.264,0,0,0,.12.347.25.25,0,0,0,.335-.13A.264.264,0,0,0,1417.084,1365.157Z" transform="translate(-1414.438 -1363.235)" fill="#fff"/><path d="M1421.634,1367.066a.349.349,0,0,0-.462.166.342.342,0,0,0,.17.457.35.35,0,0,0,.462-.166A.344.344,0,0,0,1421.634,1367.066Z" transform="translate(-1418.133 -1364.825)" fill="#fff"/></g></g></g></g></g></svg>