<svg xmlns="http://www.w3.org/2000/svg" xmlns:xlink="http://www.w3.org/1999/xlink" width="57.638" height="57.638" viewBox="0 0 57.638 57.638"><defs><linearGradient id="a" x1="1.432" y1="0.64" x2="-2.711" y2="-0.225" gradientUnits="objectBoundingBox"><stop offset="0" stop-color="#cd8845"/><stop offset="1" stop-color="#b35f38"/></linearGradient><linearGradient id="b" x1="1.095" y1="0.528" x2="-0.406" y2="0.435" xlink:href="#a"/><linearGradient id="c" x1="0.504" y1="1.097" x2="0.499" y2="-0.222" gradientUnits="objectBoundingBox"><stop offset="0" stop-color="#77c3e5"/><stop offset="0.289" stop-color="#6dbee0"/><stop offset="1" stop-color="#59b5d6"/></linearGradient><linearGradient id="d" x1="1.122" y1="4.442" x2="0.406" y2="0.017" gradientUnits="objectBoundingBox"><stop offset="0" stop-color="#cd8845"/><stop offset="1" stop-color="#d59149"/></linearGradient><linearGradient id="e" x1="0.708" y1="1.102" x2="0.268" y2="0.02" xlink:href="#a"/><radialGradient id="f" cx="66.266" cy="-1.559" r="0.645" gradientTransform="matrix(-0.836, 0.053, 0.044, 0.999, -146.257, 4.191)" gradientUnits="objectBoundingBox"><stop offset="0" stop-color="#d78144"/><stop offset="1" stop-color="#cd8845"/></radialGradient><linearGradient id="g" x1="0.5" y1="-0.027" x2="0.5" y2="1.221" xlink:href="#d"/><linearGradient id="h" x1="0.511" y1="0.935" x2="0.477" y2="-1.736" xlink:href="#a"/><radialGradient id="i" cx="0.57" cy="3.793" r="0.596" gradientTransform="matrix(0.933, -0.092, 0.086, 0.996, -0.403, 0.009)" xlink:href="#f"/><linearGradient id="j" x1="0.278" y1="10.696" x2="0.483" y2="1.569" xlink:href="#a"/><linearGradient id="k" x1="0.758" y1="0.994" x2="-0.341" y2="-0.807" gradientUnits="objectBoundingBox"><stop offset="0" stop-color="#cd8845"/><stop offset="0.296" stop-color="#c98243"/><stop offset="0.66" stop-color="#c0733e"/><stop offset="1" stop-color="#b35f38"/></linearGradient><linearGradient id="l" x1="-0.076" y1="1.122" x2="1.579" y2="-0.554" xlink:href="#k"/><linearGradient id="m" x1="0.284" y1="9.224" x2="0.503" y2="0.599" xlink:href="#a"/><linearGradient id="n" x1="0.488" y1="-0.254" x2="0.515" y2="1.635" xlink:href="#a"/><linearGradient id="o" x1="0.53" y1="0.997" x2="0.421" y2="-0.062" xlink:href="#a"/><linearGradient id="p" x1="0.121" y1="0.777" x2="1.305" y2="0.149" xlink:href="#d"/><linearGradient id="q" x1="1.051" y1="0.879" x2="-0.374" y2="0.113" xlink:href="#d"/><linearGradient id="r" x1="-0.178" y1="1.232" x2="0.912" y2="0.125" xlink:href="#a"/><linearGradient id="s" x1="1.004" y1="0.751" x2="0.183" y2="0.352" gradientUnits="objectBoundingBox"><stop offset="0" stop-color="#fff"/><stop offset="0.46" stop-color="#fcfcfc"/><stop offset="0.762" stop-color="#f6f3f3"/><stop offset="1" stop-color="#ece7e6"/></linearGradient><linearGradient id="t" x1="1.002" y1="0.472" x2="-0.372" y2="0.549" gradientUnits="objectBoundingBox"><stop offset="0" stop-color="#a9734f"/><stop offset="1" stop-color="#633726"/></linearGradient><linearGradient id="u" x1="1.038" y1="0.732" x2="0.143" y2="0.353" gradientUnits="objectBoundingBox"><stop offset="0" stop-color="#936444"/><stop offset="1" stop-color="#593427"/></linearGradient><radialGradient id="v" cx="-292.233" cy="8.049" r="1.391" gradientTransform="translate(-0.007) scale(1.014 1)" gradientUnits="objectBoundingBox"><stop offset="0" stop-color="#2b3b3b"/><stop offset="1" stop-color="#1d2827"/></radialGradient><linearGradient id="w" x1="1.348" y1="0.545" x2="-0.028" y2="0.468" xlink:href="#a"/><linearGradient id="x" x1="-98.691" y1="-47.992" x2="-99.474" y2="-48.375" xlink:href="#s"/><linearGradient id="y" x1="1.142" y1="1.252" x2="-0.339" y2="-0.302" xlink:href="#t"/><linearGradient id="z" x1="1.02" y1="1.51" x2="0.091" y2="0.084" xlink:href="#u"/><radialGradient id="aa" cx="6.481" cy="-8.201" r="1.452" xlink:href="#v"/><linearGradient id="ab" x1="-0.021" y1="0.53" x2="0.95" y2="0.424" gradientUnits="objectBoundingBox"><stop offset="0" stop-color="#1f120f"/><stop offset="0.068" stop-color="#241411"/><stop offset="0.341" stop-color="#351d17"/><stop offset="0.638" stop-color="#3f221b"/><stop offset="1" stop-color="#43241d"/></linearGradient><linearGradient id="ac" x1="-2.266" y1="81.979" x2="-1.789" y2="67.931" xlink:href="#a"/><linearGradient id="ad" x1="1.126" y1="0.902" x2="-0.047" y2="0.174" xlink:href="#ab"/><linearGradient id="ae" x1="0.132" y1="11.061" x2="0.459" y2="1.641" xlink:href="#a"/><linearGradient id="af" x1="0.151" y1="0.556" x2="1.251" y2="0.38" xlink:href="#a"/><linearGradient id="ag" x1="0.251" y1="0.49" x2="1.154" y2="0.392" xlink:href="#a"/><linearGradient id="ah" x1="0.926" y1="0.508" x2="-0.231" y2="0.378" xlink:href="#a"/><linearGradient id="ai" x1="0.509" y1="-2.477" x2="0.498" y2="1.802" xlink:href="#a"/><linearGradient id="aj" x1="0" y1="0.5" x2="1" y2="0.5" xlink:href="#d"/><linearGradient id="ak" x1="-0.062" y1="0.432" x2="1.139" y2="0.538" gradientUnits="objectBoundingBox"><stop offset="0" stop-color="#e8d9d7"/><stop offset="0.137" stop-color="#efe5e4"/><stop offset="0.393" stop-color="#faf8f7"/><stop offset="0.569" stop-color="#fff"/><stop offset="1" stop-color="#e8d3d1"/></linearGradient><linearGradient id="al" x1="0.502" y1="-0.337" x2="0.493" y2="1.77" xlink:href="#a"/><linearGradient id="am" x1="0.493" y1="-0.899" x2="0.508" y2="1.092" gradientUnits="objectBoundingBox"><stop offset="0" stop-color="#e8d9d7"/><stop offset="0.397" stop-color="#efe5e3"/><stop offset="1" stop-color="#fff"/></linearGradient><linearGradient id="an" x1="0.515" y1="12.118" x2="0.497" y2="-1.984" xlink:href="#a"/><linearGradient id="ao" x1="0.898" y1="1.617" x2="0.512" y2="0.524" xlink:href="#a"/><linearGradient id="ap" x1="0.503" y1="-0.947" x2="0.498" y2="0.851" xlink:href="#a"/><linearGradient id="aq" x1="-0.047" y1="1.111" x2="1.068" y2="0.168" xlink:href="#d"/><linearGradient id="ar" x1="0.849" y1="1.089" x2="-0.118" y2="-0.119" xlink:href="#a"/><linearGradient id="as" x1="0.038" y1="0.5" x2="1.038" y2="0.5" gradientUnits="objectBoundingBox"><stop offset="0" stop-color="#43241d"/><stop offset="0.362" stop-color="#3f221b"/><stop offset="0.659" stop-color="#351d17"/><stop offset="0.932" stop-color="#241411"/><stop offset="1" stop-color="#1f120f"/></linearGradient><linearGradient id="at" x1="-92.249" y1="0.5" x2="-91.249" y2="0.5" xlink:href="#as"/><linearGradient id="au" x1="0.463" y1="-0.008" x2="0.511" y2="1.025" xlink:href="#as"/><linearGradient id="av" x1="0.268" y1="-0.292" x2="0.575" y2="0.953" xlink:href="#d"/><linearGradient id="aw" x1="0.512" y1="1.148" x2="0.458" y2="0.03" gradientUnits="objectBoundingBox"><stop offset="0" stop-color="#3f221a"/><stop offset="0.413" stop-color="#43241c"/><stop offset="0.869" stop-color="#502c25"/><stop offset="1" stop-color="#563029"/></linearGradient><linearGradient id="ax" x1="0.487" y1="1.637" x2="0.517" y2="-0.992" gradientUnits="objectBoundingBox"><stop offset="0" stop-color="#77c3e5"/><stop offset="0.309" stop-color="#81c9e8"/><stop offset="1" stop-color="#96d5f0"/></linearGradient><linearGradient id="ay" x1="0.486" y1="1.541" x2="0.519" y2="-0.865" xlink:href="#ax"/><linearGradient id="az" x1="0.481" y1="1.388" x2="0.525" y2="-0.661" xlink:href="#ax"/><linearGradient id="ba" x1="0.482" y1="1.426" x2="0.523" y2="-0.711" xlink:href="#ax"/><linearGradient id="bb" x1="0.497" y1="1.473" x2="0.505" y2="-0.778" xlink:href="#ax"/><linearGradient id="bc" x1="0.477" y1="1.332" x2="0.529" y2="-0.587" xlink:href="#ax"/><linearGradient id="bd" x1="0.498" y1="0.839" x2="0.503" y2="0.061" xlink:href="#ax"/><linearGradient id="be" x1="0.492" y1="2.71" x2="0.511" y2="-2.389" xlink:href="#ax"/><linearGradient id="bf" x1="0.49" y1="2.079" x2="0.513" y2="-1.572" xlink:href="#ax"/><linearGradient id="bg" x1="0.471" y1="1.27" x2="0.538" y2="-0.507" xlink:href="#ax"/><linearGradient id="bh" x1="0.458" y1="1.212" x2="0.554" y2="-0.432" xlink:href="#ax"/><linearGradient id="bi" x1="0.464" y1="1.234" x2="0.547" y2="-0.458" xlink:href="#ax"/><linearGradient id="bj" x1="0.46" y1="1.221" x2="0.552" y2="-0.442" xlink:href="#ax"/><linearGradient id="bk" x1="0.466" y1="1.241" x2="0.545" y2="-0.468" xlink:href="#ax"/><linearGradient id="bl" x1="0.475" y1="1.301" x2="0.534" y2="-0.542" xlink:href="#ax"/><linearGradient id="bm" x1="0.476" y1="1.313" x2="0.531" y2="-0.564" xlink:href="#ax"/><linearGradient id="bn" x1="0.469" y1="1.257" x2="0.54" y2="-0.49" xlink:href="#ax"/><linearGradient id="bo" x1="0.499" y1="0.585" x2="0.501" y2="0.39" xlink:href="#ax"/><linearGradient id="bp" x1="0.479" y1="0.971" x2="0.526" y2="-0.122" xlink:href="#ax"/><linearGradient id="bq" x1="0.493" y1="0.836" x2="0.51" y2="0.063" xlink:href="#ax"/><linearGradient id="br" x1="0.473" y1="0.998" x2="0.533" y2="-0.15" xlink:href="#ax"/><linearGradient id="bs" x1="0.491" y1="0.865" x2="0.512" y2="0.025" xlink:href="#ax"/><linearGradient id="bt" x1="0.486" y1="0.925" x2="0.518" y2="-0.059" xlink:href="#ax"/><linearGradient id="bu" x1="0.482" y1="0.965" x2="0.525" y2="-0.105" xlink:href="#ax"/><linearGradient id="bv" x1="0.486" y1="0.913" x2="0.513" y2="-0.038" xlink:href="#ax"/><linearGradient id="bw" x1="0.497" y1="0.681" x2="0.503" y2="0.263" xlink:href="#ax"/><linearGradient id="bx" x1="0.495" y1="0.751" x2="0.504" y2="0.188" xlink:href="#ax"/><linearGradient id="by" x1="0.482" y1="1.143" x2="0.528" y2="-0.435" xlink:href="#ax"/></defs><g transform="translate(-1209.583 -822.77)"><circle cx="28.819" cy="28.819" r="28.819" transform="translate(1209.583 880.408) rotate(-90)" fill="#f6ece6"/><g transform="translate(1215.604 830.317)"><path d="M1326.113,1054.857c-.7.957-4.262,2-4.262,2s5.654,6,11.569,6.089,9.307-6.784,9.307-6.784l-3.762-1.772C1335.137,1057.869,1326.113,1054.857,1326.113,1054.857Z" transform="translate(-1309.544 -1024.123)" fill="#cd8845"/><path d="M1300.9,1070.981c.067-.8.127-1.563.178-2.244.186-.6.3-.957.3-.957-.058-.042-.132-.09-.219-.141.088-1.251.136-2.048.136-2.048-1.52-1.105-11.787-4.867-11.787-4.867a9.111,9.111,0,0,1-8.6,6.74c-7.2.4-8.4-6.41-8.4-6.41-12.646,5.076-12.683,5.125-12.683,5.125.135.271.348,2.531.622,5.267a28.814,28.814,0,0,0,40.463-.464Z" transform="translate(-1257.636 -1029.422)" fill="#77c3e5"/><path d="M1378.954,1083.427l2.072,2.487,1.865-2.9-2.487,1.243Z" transform="translate(-1357.324 -1048.073)" fill="url(#a)"/><path d="M1347.449,1020.055c-.094-1.607-.2-3.386-.234-3.669,0,0-4.626,3.339-12.727.521,0,0,0,2.67.037,4.9-.031.506-.061.741-.1,1.025-.087.609-2.446,1.533-2.446,1.533s.956,6.262,8.871,6.784,10.3-6.969,10.3-6.969-2.822-1.207-3.17-1.468A8.242,8.242,0,0,1,1347.449,1020.055Zm-6.208,9.657a7.157,7.157,0,0,1-7.35-4.566,10.4,10.4,0,0,1,1.043-.7c.238-.119.383-.552.472-1.014,1.987,1.833,4.295,2.931,5.616,2.811a12.563,12.563,0,0,0,5.38-2.438l2.014,1.555C1346.72,1028.885,1342.545,1029.668,1341.24,1029.712Z" transform="translate(-1318.016 -992.324)" fill="url(#b)"/><path d="M1335.772,1067.289c-6.965.3-8.448-6.236-8.448-6.236l-1.985.8s1.084,7.264,9.608,7.786,11.168-8.249,11.168-8.249l-1.783-.665A9.062,9.062,0,0,1,1335.772,1067.289Z" transform="translate(-1312.461 -1029.422)" fill="url(#c)"/><path d="M1248.537,1106.49q.84,1.044,1.773,2.006c-.791-1.554-1.372-2.67-1.372-2.67A5.707,5.707,0,0,0,1248.537,1106.49Z" transform="translate(-1248.199 -1067.162)" fill="#cd8845"/><path d="M1250.562,1108.423q.618.74,1.283,1.438C1251.788,1107.8,1251.41,1106.887,1250.562,1108.423Z" transform="translate(-1249.893 -1068.691)" fill="url(#d)"/><g transform="translate(40.909 36.168)"><path d="M1502.057,1092.839a5.707,5.707,0,0,0-2.265-2.306,18.669,18.669,0,0,0-2.492,6.245c-.089.37-.173.8-.255,1.274A29,29,0,0,0,1502.057,1092.839Z" transform="translate(-1497.045 -1090.533)" fill="#77c3e5"/></g><g transform="translate(10.003 0)"><path d="M1446.721,957.039c1.24.138,1.013.872.552,2.158-.321,3.377-1.361,4.991-1.8,4.806C1444.674,963.666,1445.22,956.872,1446.721,957.039Z" transform="translate(-1422.679 -942.663)" fill="#cd8845"/><path d="M1450.656,964.4a2.112,2.112,0,0,0,.237-1.822c-.707-2.754,1.255-3.123.991-1.176,0,0-.362-.874-.587-.583-.276.357.38.482.2,1.953A3.93,3.93,0,0,1,1450.656,964.4Z" transform="translate(-1427.323 -945.296)" fill="url(#e)"/><path d="M1308.614,957.9c-1.231.2-.965.924-.436,2.184.5,3.355,1.764,4.7,2.191,4.491C1311.15,964.193,1310.1,957.652,1308.614,957.9Z" transform="translate(-1307.734 -943.379)" fill="#cd8845"/><path d="M1341.869,893c.36-9.073-3.415-12.838-11.7-12.331,0,0-5.647.2-7.057,3.293a22,22,0,0,0-1.945,10.552c.235,8.9,1.938,9.076,3.323,10.8a25.662,25.662,0,0,0,4.267,4.021c1.311.706,5.315.6,6.56-.187a21.179,21.179,0,0,0,4.041-4.435c1.3-1.678,2.531-2.036,2.39-6.836A40.367,40.367,0,0,1,1341.869,893Z" transform="translate(-1318.963 -878.725)" fill="#cd8845"/><path d="M1399.645,970.935c1.784.169,4.8,1.024,5.3-2,.472-2.85.063-4.259-.819-4.492-2.167-.569-4.663.74-5.675,1.482C1396.086,967.659,1396.484,970.636,1399.645,970.935Z" transform="translate(-1382.37 -948.745)" fill="url(#f)"/><path d="M1377.411,1043.215c-.62,0-2.172.422-2.127.65.137.687,1.575.8,2.194.8s1.874-.16,1.9-.747C1379.387,1043.684,1378.031,1043.212,1377.411,1043.215Z" transform="translate(-1364.255 -1014.772)" fill="url(#g)"/><path d="M1370.779,993.149a11.982,11.982,0,0,1,2.47.274s2.986-.367,2.718-.087a3.24,3.24,0,0,1-2.718,1.267A3.3,3.3,0,0,1,1370.779,993.149Z" transform="translate(-1360.483 -972.843)" fill="url(#h)"/><path d="M1328.083,966.431c-.331-.177-4.171-1.652-5.549-1.065-.977.416-1.06,2.572-.184,5.423,1,3.26,3.83,1.571,4.983.942C1330.12,970.209,1330.67,967.805,1328.083,966.431Z" transform="translate(-1319.456 -949.518)" fill="url(#i)"/><path d="M1392.582,993.751a3.284,3.284,0,0,1,1.712-.124C1393.579,993,1392.582,993.751,1392.582,993.751Z" transform="translate(-1378.73 -973.072)" fill="url(#j)"/><path d="M1395.51,943.814c-.563.525-.887,3.562-.374,3.865,3.207,1.889,6.714-.5,6.714-.5C1402.626,941.31,1395.51,943.814,1395.51,943.814Z" transform="translate(-1380.653 -931.155)" fill="url(#k)"/><path d="M1333.948,947.432s3.405,2.276,6.684.168c.5-.324-.236-3-.652-3.629C1339.979,943.971,1333.434,941.325,1333.948,947.432Z" transform="translate(-1329.645 -931.254)" fill="url(#l)"/><path d="M1371.258,993.481a3.655,3.655,0,0,1,1.6.224S1371.919,992.991,1371.258,993.481Z" transform="translate(-1360.887 -973.014)" fill="url(#m)"/><path d="M1372.962,982.681a1.174,1.174,0,0,1-.539,1.531,3.624,3.624,0,0,1-2.645.126,1.521,1.521,0,0,1-.741-1.748,6.507,6.507,0,0,0-.579.5c-.587.53-.639,1.45.005,1.461a1.378,1.378,0,0,1,.869-.148c.582.1.467.7,1.816.712,1.176.011.8-.553,1.549-.66a1.169,1.169,0,0,1,1.015.16C1374.086,984.617,1374.454,983.455,1372.962,982.681Z" transform="translate(-1358.16 -964.045)" fill="url(#n)"/><path d="M1330.94,880.185c-7.147.823-9.191,4.475-9.565,7.882-.12,1.106.149,8.495.2,9.537.251-2.407,1.078-3.253,1.485-4.458a11.408,11.408,0,0,0,1.073-5.109c.05-4.543,4.585-5.233,7.072-5.279,5.316-.1,7.716,1.34,7.786,5.016.05,2.61.88,3.421,1.382,4.942a24,24,0,0,1,1.665,5.49s-.258-9.881-.437-11.805C1341.364,883.878,1339.275,879.225,1330.94,880.185Z" transform="translate(-1319.123 -878.251)" fill="url(#o)"/><path d="M1426.329,971.833c-.322-.181-.561.082-1.229.3s-2.448.555-1.605,1.013a2.677,2.677,0,0,0,2.39-.319C1426.041,972.7,1426.726,972.057,1426.329,971.833Z" transform="translate(-1404.41 -954.994)" fill="url(#p)"/><path d="M1328.432,973.722c-.679-.185-.931-.434-1.244-.237-.385.243.332.85.5.972a2.675,2.675,0,0,0,2.4.194C1330.906,974.15,1329.1,973.9,1328.432,973.722Z" transform="translate(-1323.919 -956.366)" fill="url(#q)"/><g transform="translate(4.743 13.473)"><path d="M1339.61,951.533a3.153,3.153,0,0,0-2.113.577,2.254,2.254,0,0,0-.709,1.56c.019.191.347,1.119,2.18,1.24,1.2.079,3.093-.122,3.552-.643.221-.251.019-.812-.089-1.16C1342.091,952.014,1341.291,951.628,1339.61,951.533Z" transform="translate(-1336.784 -951.527)" fill="url(#r)"/><path d="M1343.206,956.142c-2.963-.428-2.435.03-3.474,1.268a2.2,2.2,0,0,0,1,.775,6.8,6.8,0,0,0,3.222.056,1.016,1.016,0,0,0,.666-.322S1344.089,956.269,1343.206,956.142Z" transform="translate(-1339.251 -955.257)" fill="url(#s)"/><path d="M1341.948,955.561c-.957-.109-2.216,1.489-2.216,1.489a1.028,1.028,0,0,0,.264.324,2.317,2.317,0,0,1,1.455-.521c2.672.064,3.164.7,3.164.7C1344.422,956.337,1342.907,955.67,1341.948,955.561Z" transform="translate(-1339.251 -954.898)" fill="#dededd"/><path d="M1348.15,957.87c-.812.039-1.531.474-1.43,1.33a1.106,1.106,0,0,0,.245.649,5.118,5.118,0,0,0,1.181.152,7.447,7.447,0,0,0,1.31-.127,1.825,1.825,0,0,0,.222-.741C1349.726,958.251,1348.962,957.83,1348.15,957.87Z" transform="translate(-1345.09 -956.832)" fill="url(#t)"/><path d="M1347.936,957.532c-.938,0-1.139,1.042-1.139,1.042a6.933,6.933,0,0,1,2.951.238C1349.744,957.717,1348.962,957.535,1347.936,957.532Z" transform="translate(-1345.162 -956.552)" fill="url(#u)"/><path d="M1350.993,958.629a.914.914,0,1,0,.915.9A.911.911,0,0,0,1350.993,958.629Z" transform="translate(-1347.93 -957.469)" fill="url(#v)"/><path d="M1357.993,963.5a.4.4,0,0,0-.188.521.376.376,0,0,0,.517.158.4.4,0,0,0,.187-.521A.376.376,0,0,0,1357.993,963.5Z" transform="translate(-1354.342 -961.506)" fill="#fff"/><path d="M1400.419,951.918c-1.682.075-2.487.452-2.839,1.538-.112.348-.322.905-.1,1.159.453.527,2.346.751,3.544.686,1.834-.1,2.173-1.022,2.195-1.213a2.254,2.254,0,0,0-.691-1.569A3.15,3.15,0,0,0,1400.419,951.918Z" transform="translate(-1387.488 -951.851)" fill="url(#w)"/><path d="M1401.658,956.529c-.884.117-1.433,1.759-1.433,1.759a1.016,1.016,0,0,0,.662.33,6.8,6.8,0,0,0,3.222-.017,2.2,2.2,0,0,0,1.007-.763C1404.092,956.589,1404.626,956.137,1401.658,956.529Z" transform="translate(-1389.868 -955.598)" fill="url(#x)"/><path d="M1402.933,955.948c-.96.1-2.483.746-2.691,1.958,0,0,.5-.628,3.172-.66a2.321,2.321,0,0,1,1.45.539,1.032,1.032,0,0,0,.267-.32S1403.891,955.851,1402.933,955.948Z" transform="translate(-1389.882 -955.223)" fill="#dededd"/><path d="M1406.566,958.218c-.812-.05-1.581.363-1.542,1.246a1.793,1.793,0,0,0,.221.743,8.579,8.579,0,0,0,1.309.149,4.935,4.935,0,0,0,1.173-.144,1.1,1.1,0,0,0,.252-.646C1408.092,958.71,1407.378,958.267,1406.566,958.218Z" transform="translate(-1393.882 -957.122)" fill="url(#y)"/><path d="M1406.87,957.907c-1.026-.009-1.81.163-1.827,1.259a6.932,6.932,0,0,1,2.953-.2S1407.808,957.917,1406.87,957.907Z" transform="translate(-1393.899 -956.865)" fill="url(#z)"/><path d="M1409.7,958.983a.9.9,0,0,0-.926.886.9.9,0,1,0,.926-.886Z" transform="translate(-1397.021 -957.765)" fill="url(#aa)"/><path d="M1417,963.5a.376.376,0,0,0-.518.152.4.4,0,0,0,.181.523.376.376,0,0,0,.519-.152A.4.4,0,0,0,1417,963.5Z" transform="translate(-1403.434 -961.504)" fill="#fff"/><path d="M1412.181,961.285a.3.3,0,0,0-.41.12.31.31,0,0,0,.142.41.3.3,0,0,0,.41-.12A.31.31,0,0,0,1412.181,961.285Z" transform="translate(-1399.502 -959.661)" fill="#fff"/><path d="M1404.447,955.33a3.553,3.553,0,0,0-3.364.067,2.328,2.328,0,0,0-.847,1.673s.435-1,1.185-1.2a3.442,3.442,0,0,1,1.17-.184,2.663,2.663,0,0,1,1.439.309,8.881,8.881,0,0,1,1.1.63S1404.965,955.64,1404.447,955.33Z" transform="translate(-1389.877 -954.382)" fill="url(#ab)"/><path d="M1413.746,966.051a5.449,5.449,0,0,1-1.874.19,3.544,3.544,0,0,0,1.985-.071,1.662,1.662,0,0,0,1-.89A2.318,2.318,0,0,1,1413.746,966.051Z" transform="translate(-1399.613 -963.035)" fill="url(#ac)"/><path d="M1353.3,961.284a.311.311,0,0,0-.147.409.3.3,0,0,0,.409.125.31.31,0,0,0,.147-.409A.3.3,0,0,0,1353.3,961.284Z" transform="translate(-1350.458 -959.662)" fill="#fff"/><path d="M1343.79,955.044a3.552,3.552,0,0,0-3.363-.108c-.522.3-.694,1.286-.694,1.286a8.919,8.919,0,0,1,1.1-.617,2.662,2.662,0,0,1,1.443-.292,3.43,3.43,0,0,1,1.168.2c.747.209,1.17,1.216,1.17,1.216A2.329,2.329,0,0,0,1343.79,955.044Z" transform="translate(-1339.251 -954.069)" fill="url(#ad)"/><path d="M1340.842,965.518a2.319,2.319,0,0,1-1.106-.784,1.661,1.661,0,0,0,.994.9,3.632,3.632,0,0,0,2.006.094A5.6,5.6,0,0,1,1340.842,965.518Z" transform="translate(-1339.254 -962.578)" fill="url(#ae)"/></g><g transform="translate(6.371 20.623)"><path d="M1413.87,1016.972c-.072.06-.142.12-.208.178A1.743,1.743,0,0,0,1413.87,1016.972Z" transform="translate(-1402.739 -1013.437)" fill="url(#af)"/><path d="M1409.67,995.319c2.219,1.795,1.32,3.083.86,3.535.854-.715,2-1.514,1.929-1.828C1412.184,995.883,1409.67,995.319,1409.67,995.319Z" transform="translate(-1399.399 -995.319)" fill="url(#ag)"/><path d="M1346.765,998.32c.051.351,1.042,1.214,1.692,1.888,0,0-1.736-1.867.679-3.55C1349.136,996.658,1346.6,997.141,1346.765,998.32Z" transform="translate(-1346.757 -996.439)" fill="url(#ah)"/><path d="M1372.244,1032.056a19.2,19.2,0,0,1,5.053.038C1375.009,1030.671,1372.244,1032.056,1372.244,1032.056Z" transform="translate(-1368.083 -1025.552)" fill="url(#ai)"/><path d="M1352.088,1005.024c.061.063.106.151.185.186,1.448.641,1.468,1.253,2.089,1.589a6.947,6.947,0,0,0,6.5-.056c.994-.548,1.121-1.188,2.31-1.651a.3.3,0,0,0,.19-.186A23.761,23.761,0,0,1,1352.088,1005.024Z" transform="translate(-1351.218 -1003.341)" fill="#96282d"/><path d="M1378.232,1023.775c-.857,0-1.7-.167-1.7,0s.745.54,1.6.54,1.7-.373,1.7-.54S1379.09,1023.775,1378.232,1023.775Z" transform="translate(-1371.669 -1019.067)" fill="url(#aj)"/><path d="M1371.788,1013.691a14.312,14.312,0,0,1-2.686.337,16.332,16.332,0,0,1-2.846-.314c-.268-.049-.384.419-.384.419a5.358,5.358,0,0,0,3.332.823,5.424,5.424,0,0,0,3.217-.883S1372.129,1013.622,1371.788,1013.691Z" transform="translate(-1362.751 -1010.685)" fill="url(#ak)"/><path d="M1367.577,1024.564c3.308,2.631,6.474-.18,6.474-.18A7.438,7.438,0,0,1,1367.577,1024.564Z" transform="translate(-1364.178 -1019.639)" fill="url(#al)"/><path d="M1360.893,1007.045a.942.942,0,0,0,.574.783c.321.138,1.04.685,3.835.6s3.347-.76,3.475-.878a1.492,1.492,0,0,0,.345-.591A25.3,25.3,0,0,1,1360.893,1007.045Z" transform="translate(-1358.585 -1005.059)" fill="url(#am)"/><path d="M1360.834,1006.716a1.062,1.062,0,0,0,.109.393,16.8,16.8,0,0,0,4,.458,15.445,15.445,0,0,0,3.965-.521,1.317,1.317,0,0,0,.188-.42S1367.2,1007.264,1360.834,1006.716Z" transform="translate(-1358.536 -1004.78)" fill="#f3eceb"/><path d="M1349.974,1003.966s.406.236.345.172a23.76,23.76,0,0,0,11.271-.118l.344-.173C1358.484,1004.423,1349.974,1003.966,1349.974,1003.966Z" transform="translate(-1349.449 -1002.455)" fill="url(#an)"/></g><path d="M1311.97,963.58c.561-2.787-1.418-3.052-1.052-1.122,0,0,.315-.892.555-.614.294.343-.354.5-.093,1.961a3.927,3.927,0,0,0,.922,1.581A2.112,2.112,0,0,1,1311.97,963.58Z" transform="translate(-1310.36 -946.157)" fill="url(#ao)"/><path d="M1359.876,1047.733a7.95,7.95,0,0,1-5.153-2.11,6.807,6.807,0,0,0,5.363,2.677,5.518,5.518,0,0,0,4.8-2.4A7.04,7.04,0,0,1,1359.876,1047.733Z" transform="translate(-1347.052 -1016.787)" fill="url(#ap)"/><path d="M1419.956,982.6a9.183,9.183,0,0,0-1.35,3.341c.479-.6,3.677-3.961,4.143-5.06.77-1.818.62-6.555.62-6.555C1423.265,980.454,1420.892,981.445,1419.956,982.6Z" transform="translate(-1400.505 -957.132)" fill="url(#aq)"/><path d="M1322.363,978.24s0,4.762.991,6.3a38.394,38.394,0,0,0,4.1,4.512,4.786,4.786,0,0,0-1.124-2.685C1325.309,985.291,1322.747,983.8,1322.363,978.24Z" transform="translate(-1319.975 -960.405)" fill="url(#ar)"/><path d="M1340.676,940.773a6.556,6.556,0,0,0-4.284-.251c-.512.182-1.233,1.351-1.233,1.351a4.066,4.066,0,0,1,2.016-.493c1.2-.056,2.349.311,3.363.3A.468.468,0,0,0,1340.676,940.773Z" transform="translate(-1330.682 -928.631)" fill="url(#as)"/><path d="M1403.066,940.051a6.555,6.555,0,0,0-4.279.312.468.468,0,0,0,.151.908c1.014-.006,2.158-.39,3.359-.351a4.067,4.067,0,0,1,2.023.464S1403.581,940.226,1403.066,940.051Z" transform="translate(-1383.668 -928.256)" fill="url(#at)"/><path d="M1331.132,869.724a23.7,23.7,0,0,0-8.025.6,8.4,8.4,0,0,0-5.015,6.184c-.327,2.522-.549,7.946-.549,7.946a5.124,5.124,0,0,1,.79,3.089,27.293,27.293,0,0,1,.7-3.828c.453-1.644.915-2.157.865-3.34-.073-1.724.953-4.935,1.555-5.286,4.47-2.607,12.3-1.255,13.943-.127.7.483,1.5,3.9,1.555,5.268.05,1.278.738,1.916,1.191,3.523a28.482,28.482,0,0,1,.677,3.387s.195-2.547.646-3a60.351,60.351,0,0,0-.658-8.649C1338.48,873.828,1336.649,870.159,1331.132,869.724Z" transform="translate(-1315.942 -869.53)" fill="url(#au)"/><path d="M1380.408,975.909a1.615,1.615,0,0,0-1.213,1.843c.142,1.154,2.146.64,2.271.188S1381.31,975.909,1380.408,975.909Z" transform="translate(-1367.517 -958.455)" fill="url(#av)"/><path d="M1344.388,869.689c-3.114-1.182-9.809-.7-11.86.344a8.291,8.291,0,0,0-2.865,2.607c2.979-2.865,6.761-3.065,11.115-2.836a11.562,11.562,0,0,1,6.587,2.138A8.326,8.326,0,0,0,1344.388,869.689Z" transform="translate(-1326.083 -868.999)" fill="url(#aw)"/></g><g transform="translate(0 36.755)"><path d="M1257.063,1119.725q.285.305.578.6Q1257.348,1120.031,1257.063,1119.725Z" transform="translate(-1255.333 -1115.547)" fill="#77c3e5"/><path d="M1246.466,1107.276h0q.8,1.027,1.68,1.979Q1247.263,1108.3,1246.466,1107.276Z" transform="translate(-1246.466 -1105.13)" fill="#77c3e5"/><path d="M1268.687,1131.085q.279.249.565.49Q1268.966,1131.334,1268.687,1131.085Z" transform="translate(-1265.059 -1125.052)" fill="#77c3e5"/><path d="M1261.884,1124.636q-.641-.575-1.246-1.186Q1261.243,1124.061,1261.884,1124.636Z" transform="translate(-1258.324 -1118.664)" fill="#77c3e5"/><path d="M1272.731,1134.584q.315.265.638.521h0Q1273.046,1134.849,1272.731,1134.584Z" transform="translate(-1268.443 -1127.98)" fill="#77c3e5"/><path d="M1272.241,1134.17l-.1-.081Z" transform="translate(-1267.953 -1127.566)" fill="#77c3e5"/><path d="M1260.61,1123.422l-.005-.005Z" transform="translate(-1258.297 -1118.635)" fill="#77c3e5"/><path d="M1268.337,1130.775l-.068-.06Z" transform="translate(-1264.71 -1124.743)" fill="#77c3e5"/><path d="M1256.806,1119.45l-.05-.054Z" transform="translate(-1255.076 -1115.272)" fill="#77c3e5"/><path d="M1251.206,1100.406a19.478,19.478,0,0,0-2.56-6.272,6.139,6.139,0,0,0-2.18,2.146q.8,1.027,1.68,1.979l.05.054q.285.305.578.6l.005.005q.605.612,1.246,1.186l.068.06q.279.249.565.49l.1.081q.315.265.638.521C1251.33,1100.95,1251.268,1100.663,1251.206,1100.406Z" transform="translate(-1246.466 -1094.134)" fill="#77c3e5"/></g><path d="M1405.268,1174.641l-.23.026Z" transform="translate(-1379.15 -1124.742)" fill="url(#ax)"/><path d="M1411.269,1173.873l-.207.029Z" transform="translate(-1384.19 -1124.1)" fill="url(#ay)"/><path d="M1423.813,1171.512l-.226.049Z" transform="translate(-1394.67 -1122.124)" fill="url(#az)"/><path d="M1418.063,1172.742l-.183.035Z" transform="translate(-1389.895 -1123.153)" fill="url(#ba)"/><path d="M1379.126,1175.665l-.258-.01Z" transform="translate(-1357.252 -1125.591)" fill="url(#bb)"/><path d="M1430.514,1170.058l-.086.023Z" transform="translate(-1400.394 -1120.907)" fill="url(#bc)"/><path d="M1373.346,1175.351l-.21-.013Z" transform="translate(-1352.456 -1125.325)" fill="url(#bd)"/><path d="M1392.194,1175.649l-.255.01Z" transform="translate(-1368.189 -1125.585)" fill="url(#be)"/><path d="M1398.595,1175.321l-.149.009Z" transform="translate(-1373.634 -1125.311)" fill="url(#bf)"/><path d="M1448.052,1164.225l-.206.078Z" transform="translate(-1414.969 -1116.026)" fill="url(#bg)"/><path d="M1475.687,1150.861l-.182.108Z" transform="translate(-1438.112 -1104.844)" fill="url(#bh)"/><path d="M1464.848,1156.868l-.172.086Z" transform="translate(-1429.05 -1109.871)" fill="url(#bi)"/><path d="M1470.74,1153.913l-.112.062Z" transform="translate(-1434.031 -1107.398)" fill="url(#bj)"/><path d="M1481.349,1147.939Z" transform="translate(-1443.002 -1102.399)" fill="#fff"/><path d="M1459.619,1159.407l-.171.08Z" transform="translate(-1424.677 -1111.995)" fill="url(#bk)"/><path d="M1442.345,1166.585l-.046.015Z" transform="translate(-1410.328 -1118.001)" fill="url(#bl)"/><path d="M1436.1,1168.279l-.225.067Z" transform="translate(-1404.951 -1119.419)" fill="url(#bm)"/><path d="M1453.669,1162.123l-.137.056Z" transform="translate(-1419.726 -1114.268)" fill="url(#bn)"/><path d="M1366.719,1174.75l-.17-.019Z" transform="translate(-1346.944 -1124.817)" fill="url(#bo)"/><path d="M1314.665,1160.749l-.079-.035Z" transform="translate(-1303.465 -1113.089)" fill="url(#bp)"/><path d="M1348.58,1171.8l-.186-.041Z" transform="translate(-1331.753 -1122.334)" fill="url(#bq)"/><path d="M1303.889,1155.524l-.075-.039Z" transform="translate(-1294.451 -1108.714)" fill="url(#br)"/><path d="M1343,1170.5l-.155-.038Z" transform="translate(-1327.112 -1121.249)" fill="url(#bs)"/><path d="M1331.241,1167.109l-.151-.049Z" transform="translate(-1317.274 -1118.399)" fill="url(#bt)"/><path d="M1320.036,1163.022l-.077-.032Z" transform="translate(-1307.961 -1114.993)" fill="url(#bu)"/><path d="M1337.209,1168.948l-.028-.008Z" transform="translate(-1322.371 -1119.972)" fill="url(#bv)"/><path d="M1360.753,1173.995l-.233-.033Z" transform="translate(-1341.9 -1124.174)" fill="url(#bw)"/><path d="M1355.1,1173.1l-.032-.005Z" transform="translate(-1337.334 -1123.445)" fill="url(#bx)"/><path d="M1309.464,1120.034c-6.929-.2-9.5-1.009-13.946,1.607a3.778,3.778,0,0,0-1.753,3.017q.8.494,1.641.935l.075.039q.827.433,1.684.814l.079.035q.4.174.8.337l.077.031q.857.344,1.74.633l.151.049q.419.135.844.258l.028.008q.445.128.9.241l.155.038q.374.092.751.174l.186.041c.3.063.6.123.9.176l.032.005c.285.05.571.095.859.137l.233.033q.374.051.751.093l.17.019q.451.047.906.08l.21.013q.362.024.726.038l.258.01c.307.01.614.016.923.016s.636-.007.953-.017l.255-.01q.405-.016.807-.044l.149-.009q.466-.035.927-.085l.23-.026q.378-.043.753-.1l.207-.029q.456-.068.906-.15l.183-.035q.376-.071.749-.152l.226-.049q.448-.1.891-.214l.086-.023q.4-.106.8-.224l.224-.067c.276-.083.552-.17.825-.262l.046-.015c.289-.1.575-.2.86-.307l.206-.078q.363-.139.722-.287l.137-.056q.418-.175.829-.364l.171-.08q.344-.16.683-.329l.173-.086q.4-.2.8-.42l.112-.062q.345-.191.684-.391l.182-.108c.26-.155.518-.314.772-.477h0a4.551,4.551,0,0,0-1.065-3.019C1320.84,1118.857,1316.393,1120.229,1309.464,1120.034Z" transform="translate(-1286.043 -1078.821)" fill="url(#by)"/></g></g></svg>