<svg xmlns="http://www.w3.org/2000/svg" xmlns:xlink="http://www.w3.org/1999/xlink" width="57.638" height="57.638" viewBox="0 0 57.638 57.638"><defs><linearGradient id="a" x1="0.478" y1="1.136" x2="0.531" y2="-0.416" gradientUnits="objectBoundingBox"><stop offset="0" stop-color="#f1f0f4"/><stop offset="0.643" stop-color="#f8f8f9"/><stop offset="1" stop-color="#fff"/></linearGradient><linearGradient id="b" x1="0.452" y1="0.996" x2="0.568" y2="-0.122" gradientUnits="objectBoundingBox"><stop offset="0" stop-color="#f1f0f5"/><stop offset="1" stop-color="#e1e1e5"/></linearGradient><linearGradient id="c" x1="0.993" y1="0.545" x2="0.126" y2="0.376" gradientUnits="objectBoundingBox"><stop offset="0" stop-color="#f1ca9a"/><stop offset="0.527" stop-color="#f1cc9c"/><stop offset="0.872" stop-color="#f5d4a5"/><stop offset="1" stop-color="#f7d9ab"/></linearGradient><linearGradient id="d" x1="0.974" y1="0.163" x2="-0.003" y2="0.741" xlink:href="#c"/><linearGradient id="e" x1="0.426" y1="7.149" x2="0.504" y2="-0.26" xlink:href="#b"/><linearGradient id="f" x1="0.457" y1="0.994" x2="0.562" y2="-0.119" xlink:href="#b"/><linearGradient id="g" x1="0.368" y1="0.172" x2="0.781" y2="2.448" gradientUnits="objectBoundingBox"><stop offset="0" stop-color="#6a95b7"/><stop offset="0.626" stop-color="#82a7c5"/><stop offset="1" stop-color="#93b4cf"/></linearGradient><linearGradient id="h" x1="0.112" y1="0.524" x2="0.747" y2="0.422" gradientUnits="objectBoundingBox"><stop offset="0" stop-color="#7faace"/><stop offset="0.475" stop-color="#77a2c5"/><stop offset="1" stop-color="#6a95b7"/></linearGradient><linearGradient id="i" x1="0.482" y1="1.014" x2="0.563" gradientUnits="objectBoundingBox"><stop offset="0" stop-color="#c2d6e8"/><stop offset="0.271" stop-color="#b1c9df"/><stop offset="0.715" stop-color="#9bb9d3"/><stop offset="1" stop-color="#93b4cf"/></linearGradient><linearGradient id="j" x1="0.525" y1="1.007" x2="0.392" y2="0.016" xlink:href="#h"/><linearGradient id="k" x1="0.444" y1="0.015" x2="0.57" y2="1.112" xlink:href="#h"/><linearGradient id="l" x1="0.599" y1="0.346" x2="-0.438" y2="1.676" xlink:href="#g"/><linearGradient id="m" x1="1.024" y1="0.652" x2="-0.286" y2="0.37" xlink:href="#h"/><linearGradient id="n" x1="0.512" y1="0.99" x2="0.449" y2="-0.061" xlink:href="#i"/><linearGradient id="o" x1="0.529" y1="1.018" x2="0.393" y2="0.02" xlink:href="#h"/><linearGradient id="p" x1="0.399" y1="0.011" x2="0.624" y2="1.109" xlink:href="#h"/><linearGradient id="q" x1="-0.038" y1="0.029" x2="1.581" y2="1.436" gradientUnits="objectBoundingBox"><stop offset="0" stop-color="#6a95b7"/><stop offset="0.196" stop-color="#749dbd"/><stop offset="0.686" stop-color="#8aadca"/><stop offset="1" stop-color="#93b4cf"/></linearGradient><linearGradient id="r" x1="0.431" y1="0.179" x2="0.927" y2="2.459" xlink:href="#g"/><linearGradient id="s" x1="0.958" y1="0.339" x2="-0.033" y2="1.668" xlink:href="#g"/><linearGradient id="t" x1="0.455" y1="-0.661" x2="0.55" y2="1.7" gradientUnits="objectBoundingBox"><stop offset="0" stop-color="#bda085"/><stop offset="0.26" stop-color="#b7997d"/><stop offset="1" stop-color="#ab896a"/></linearGradient><linearGradient id="u" x1="-0.008" y1="-0.007" x2="1.504" y2="1.091" gradientUnits="objectBoundingBox"><stop offset="0" stop-color="#dba779"/><stop offset="0.48" stop-color="#e3b486"/><stop offset="1" stop-color="#f0c999"/></linearGradient><linearGradient id="v" x1="-0.334" y1="0.055" x2="1.228" y2="1.008" xlink:href="#u"/><radialGradient id="w" cx="0.591" cy="0.503" r="0.704" gradientTransform="matrix(-0.932, 0.037, 0.025, 0.713, 35.429, -2.195)" gradientUnits="objectBoundingBox"><stop offset="0" stop-color="#f8c79c"/><stop offset="1" stop-color="#f7d9ab"/></radialGradient><radialGradient id="x" cx="0.419" cy="0.494" r="0.74" gradientTransform="matrix(0.878, -0.132, 0.081, 0.687, 0.598, -1.979)" xlink:href="#w"/><linearGradient id="y" x1="0.991" y1="0.26" x2="0.017" y2="0.946" gradientUnits="objectBoundingBox"><stop offset="0" stop-color="#fbdbaf"/><stop offset="1" stop-color="#f7d9ab"/></linearGradient><linearGradient id="z" x1="1.045" y1="0.875" x2="-0.38" y2="0.11" xlink:href="#y"/><linearGradient id="aa" x1="0.523" y1="1.026" x2="0.483" y2="0.381" gradientUnits="objectBoundingBox"><stop offset="0" stop-color="#f7d9ab"/><stop offset="0.517" stop-color="#f5d6a8"/><stop offset="0.855" stop-color="#f2ce9f"/><stop offset="1" stop-color="#f0c999"/></linearGradient><linearGradient id="ab" x1="0.519" y1="1.039" x2="0.481" y2="0.382" xlink:href="#aa"/><linearGradient id="ac" x1="0.508" y1="0.077" x2="0.505" y2="0.33" gradientUnits="objectBoundingBox"><stop offset="0" stop-color="#f7d9ab"/><stop offset="0.475" stop-color="#f5d4a6"/><stop offset="1" stop-color="#f0c999"/></linearGradient><linearGradient id="ad" x1="0.036" y1="0.278" x2="1.02" y2="0.806" xlink:href="#u"/><linearGradient id="ae" x1="1.035" y1="0.44" x2="-0.087" y2="0.562" gradientUnits="objectBoundingBox"><stop offset="0" stop-color="#fff"/><stop offset="0.467" stop-color="#fcfcfc"/><stop offset="0.773" stop-color="#f5f3f3"/><stop offset="1" stop-color="#ece7e7"/></linearGradient><linearGradient id="af" x1="1.042" y1="0.528" x2="-0.428" y2="0.451" gradientUnits="objectBoundingBox"><stop offset="0" stop-color="#b89c8c"/><stop offset="1" stop-color="#715241"/></linearGradient><linearGradient id="ag" x1="1.036" y1="0.363" x2="-0.243" y2="0.624" xlink:href="#af"/><radialGradient id="ah" cx="0.944" cy="0.805" r="1.473" gradientTransform="translate(0.013) scale(0.975 1)" gradientUnits="objectBoundingBox"><stop offset="0" stop-color="#2a3a3b"/><stop offset="1" stop-color="#1c2727"/></radialGradient><linearGradient id="ai" x1="-0.017" y1="0.529" x2="0.954" y2="0.411" gradientUnits="objectBoundingBox"><stop offset="0" stop-color="#674024"/><stop offset="0.336" stop-color="#52341c"/><stop offset="0.677" stop-color="#462c17"/><stop offset="1" stop-color="#422a16"/></linearGradient><linearGradient id="aj" x1="0.045" y1="0.261" x2="1.035" y2="0.791" gradientUnits="objectBoundingBox"><stop offset="0" stop-color="#f0c999"/><stop offset="0.52" stop-color="#e3b486"/><stop offset="1" stop-color="#dba779"/></linearGradient><linearGradient id="ak" x1="1.002" y1="0.742" x2="0.182" y2="0.32" xlink:href="#ae"/><linearGradient id="al" x1="1.003" y1="0.471" x2="-0.371" y2="0.55" xlink:href="#af"/><linearGradient id="am" x1="1.032" y1="0.741" x2="0.137" y2="0.347" xlink:href="#af"/><radialGradient id="an" cx="0.945" cy="0.812" r="1.472" xlink:href="#ah"/><linearGradient id="ao" x1="-0.011" y1="0.591" x2="0.952" y2="0.476" gradientUnits="objectBoundingBox"><stop offset="0" stop-color="#422a16"/><stop offset="0.323" stop-color="#462c17"/><stop offset="0.664" stop-color="#52341c"/><stop offset="1" stop-color="#674024"/></linearGradient><linearGradient id="ap" x1="0.471" y1="-0.001" x2="0.538" y2="1.231" gradientUnits="objectBoundingBox"><stop offset="0" stop-color="#855e3b"/><stop offset="0.216" stop-color="#7a5434"/><stop offset="0.619" stop-color="#6e482c"/><stop offset="1" stop-color="#6a452a"/></linearGradient><linearGradient id="aq" x1="0.467" y1="0.067" x2="0.556" y2="1.717" gradientUnits="objectBoundingBox"><stop offset="0" stop-color="#855e3b"/><stop offset="0.92" stop-color="#95714e"/><stop offset="1" stop-color="#977350"/></linearGradient><linearGradient id="ar" x1="0.532" y1="8.128" x2="0.489" y2="-1.636" gradientUnits="objectBoundingBox"><stop offset="0" stop-color="#f7d9ab"/><stop offset="0.527" stop-color="#f6d6a8"/><stop offset="0.872" stop-color="#f2ce9f"/><stop offset="1" stop-color="#f1ca9a"/></linearGradient><linearGradient id="as" x1="-0.062" y1="0.432" x2="1.139" y2="0.538" gradientUnits="objectBoundingBox"><stop offset="0" stop-color="#e8d9d7"/><stop offset="0.137" stop-color="#efe5e4"/><stop offset="0.393" stop-color="#faf8f7"/><stop offset="0.569" stop-color="#fff"/><stop offset="1" stop-color="#e8d3d1"/></linearGradient><linearGradient id="at" x1="0.533" y1="4.788" x2="0.5" y2="0.117" xlink:href="#ar"/><linearGradient id="au" x1="0.493" y1="-0.899" x2="0.508" y2="1.092" gradientUnits="objectBoundingBox"><stop offset="0" stop-color="#e8d9d7"/><stop offset="0.397" stop-color="#efe5e3"/><stop offset="1" stop-color="#fff"/></linearGradient><linearGradient id="av" x1="0.515" y1="12.024" x2="0.497" y2="-2.076" xlink:href="#ar"/><linearGradient id="aw" x1="0.519" y1="1.002" x2="0.503" y2="0.177" gradientUnits="objectBoundingBox"><stop offset="0" stop-color="#ab896a"/><stop offset="0.74" stop-color="#b7997d"/><stop offset="1" stop-color="#bda085"/></linearGradient><linearGradient id="ax" x1="0.846" y1="0.35" x2="3.142" y2="-1.841" xlink:href="#t"/><linearGradient id="ay" x1="0.41" y1="-0.674" x2="0.505" y2="0.954" gradientUnits="objectBoundingBox"><stop offset="0" stop-color="#ffdeb3"/><stop offset="0.196" stop-color="#fcdcb0"/><stop offset="1" stop-color="#f7d9ab"/></linearGradient><linearGradient id="az" x1="0.477" y1="-1.123" x2="0.505" y2="1" xlink:href="#ar"/><linearGradient id="ba" x1="0.458" y1="1.068" x2="0.593" y2="-0.197" gradientUnits="objectBoundingBox"><stop offset="0" stop-color="#ffdeb3"/><stop offset="0.283" stop-color="#fbdbaf"/><stop offset="1" stop-color="#f7d9ab"/></linearGradient><linearGradient id="bb" x1="-0.452" y1="-0.452" x2="0.307" y2="0.443" xlink:href="#t"/></defs><g transform="translate(-432.297 -822.77)"><circle cx="28.819" cy="28.819" r="28.819" transform="translate(432.297 880.408) rotate(-90)" fill="#f6ece6"/><g transform="translate(440.031 830.537)"><path d="M559.919,1039.524l-1.979,2.934,16.638-.037-2.269-2.929Z" transform="translate(-545.161 -1011.877)" fill="#6e9bbf"/><path d="M549.679,1051.842c-.664.912-4.063,1.907-4.063,1.907s5.391,5.722,11.029,5.8,8.873-6.468,8.873-6.468l-3.587-1.689C558.283,1054.714,549.679,1051.842,549.679,1051.842Z" transform="translate(-534.849 -1021.838)" fill="#f7d9ab"/><path d="M536.191,1070.733c.937-4.24,1.932-8.658,1.932-8.658-1.449-1.054-11.238-4.641-11.238-4.641a8.686,8.686,0,0,1-8.2,6.426c-6.86.378-8.013-6.111-8.013-6.111s-8.625,4.024-9.659,4.453a61.31,61.31,0,0,1-.07,8.551,28.817,28.817,0,0,0,35.25-.019Z" transform="translate(-497.468 -1026.89)" fill="#f1f0f4"/><path d="M546.9,1115.226c-2.369-2.369-6.609-1.061-13.215-1.247s-9.058-.962-13.3,1.532a4.059,4.059,0,0,0-1.609,4.36,28.846,28.846,0,0,0,28.942.185C548.2,1117.981,547.775,1116.1,546.9,1115.226Z" transform="translate(-512.326 -1073.985)" fill="url(#a)"/><path d="M633.892,1088.37,635.3,1101q.958-.185,1.893-.433l-1.383-13.534Z" transform="translate(-608.713 -1051.657)" fill="url(#b)"/><path d="M722.922,1097.515a8.521,8.521,0,0,0-1.216-2.584s-1.777,3.711-3.226,6.969A28.982,28.982,0,0,0,722.922,1097.515Z" transform="translate(-679.491 -1058.265)" fill="#f7d9ab"/><path d="M600.056,1079.08l1.975,2.371,1.778-2.766-2.371,1.185Z" transform="translate(-580.401 -1044.671)" fill="url(#c)"/><path d="M570.019,1018.663c-.09-1.532-.193-3.228-.223-3.5,0,0-4.41,3.183-12.133.5,0,0,0,2.545.036,4.669-.03.482-.058.706-.1.977-.083.581-2.332,1.461-2.332,1.461s.912,5.97,8.458,6.468,9.822-6.644,9.822-6.644-2.69-1.15-3.022-1.4A7.855,7.855,0,0,1,570.019,1018.663Zm-5.919,9.207a6.823,6.823,0,0,1-7.007-4.353,9.907,9.907,0,0,1,.995-.664c.227-.113.365-.527.45-.967,1.895,1.747,4.094,2.794,5.354,2.68a11.979,11.979,0,0,0,5.129-2.324l1.92,1.482C569.324,1027.082,565.344,1027.828,564.1,1027.869Z" transform="translate(-542.926 -991.522)" fill="url(#d)"/><path d="M558.651,1063.694c-6.64.287-8.054-5.945-8.054-5.945l-1.939.458a9.514,9.514,0,0,0,9.206,7.727c8.126.5,10.648-7.865,10.648-7.865l-1.7-.634A8.64,8.64,0,0,1,558.651,1063.694Z" transform="translate(-537.394 -1026.89)" fill="url(#e)"/><path d="M561.169,1089.015l-.354,13.092a28.647,28.647,0,0,0,2.923.66l.654-11.954Z" transform="translate(-547.567 -1053.315)" fill="url(#f)"/><path d="M652.884,1063.017l-8.29-3.378-.072,4.2-4.487,2.915s1.257,7.233,1.831,11.01a28.705,28.705,0,0,0,10.746-5.215Z" transform="translate(-613.853 -1028.735)" fill="#c2d6e8"/><path d="M662.14,1056.537l1.069,17.772a28.647,28.647,0,0,0,3.747-1.663l-1.033-14.448Z" transform="translate(-632.349 -1026.139)" fill="#93b4cf"/><path d="M707.564,1079.548a11.93,11.93,0,0,0-.914-2.226c-1.3-2.262-6.578-3.8-6.578-3.8l.51,12.238A28.967,28.967,0,0,0,707.564,1079.548Z" transform="translate(-664.088 -1040.353)" fill="#c2d6e8"/><path d="M652.176,1073.176c-.636,0-6.922.035-6.922.035a10.39,10.39,0,0,1-1.749,2.907,3.872,3.872,0,0,1-.89,1.558c8,.024,14.742.009,16.307.054C658.258,1075.162,653.405,1073.656,652.176,1073.176Z" transform="translate(-616.012 -1040.062)" fill="#93b4cf"/><path d="M710.582,1082.715l-.544-5-4.713-2.289,1.154,10.907A28.976,28.976,0,0,0,710.582,1082.715Z" transform="translate(-668.483 -1041.942)" fill="#93b4cf"/><path d="M644.1,1129.43a29.561,29.561,0,0,0,.737,4.508l6.381.032a28.887,28.887,0,0,0,6.591-4.54Z" transform="translate(-617.254 -1087.132)" fill="#93b4cf"/><path d="M704.072,1139.413q0,.543,0,1.063c.113-.073.224-.147.336-.221C704.209,1139.1,704.067,1138.622,704.072,1139.413Z" transform="translate(-667.435 -1095.158)" fill="url(#g)"/><path d="M666.523,1129.43l.272,4.524,3.186.016q.323-.162.642-.331l-.3-4.209Z" transform="translate(-636.017 -1087.132)" fill="#6a95b7"/><path d="M711.039,1129.43l.221,2.09a28.961,28.961,0,0,0,2.56-2.09Z" transform="translate(-673.265 -1087.132)" fill="#6a95b7"/><path d="M640.035,1089.966l3.392-1.052,4,.664-4-2.2Z" transform="translate(-613.853 -1051.945)" fill="url(#h)"/><path d="M662.671,1073.239l.348,4.5,3.746.006-.322-4.5Z" transform="translate(-632.794 -1040.114)" fill="#6a95b7"/><path d="M710.037,1077.116a15.445,15.445,0,0,0-4.713-2.405l.439,4.269,4.478.017Z" transform="translate(-668.483 -1041.346)" fill="#6a95b7"/><g transform="translate(26.182 27.615)"><path d="M641,1039.492s1.886,6.442,1.387,6.985-2.353,3.421-2.353,3.421l3.513-1.889,3.879,1.5a48.554,48.554,0,0,1-1.589-4.908A7.254,7.254,0,0,0,641,1039.492Z" transform="translate(-640.035 -1039.492)" fill="#93b4cf"/><path d="M642.874,1046.053l-2.839,3.844,3.513-1.889a11.067,11.067,0,0,0,.8-2.495c.092-.919-3.35-6.023-3.35-6.023Z" transform="translate(-640.035 -1039.492)" fill="url(#i)"/><path d="M642.465,1046.229c-.02.1-1.984,2.943-2.43,3.668.332-.352,2.773-3.238,2.984-3.66s-2.018-6.746-2.018-6.746S642.594,1045.6,642.465,1046.229Z" transform="translate(-640.035 -1039.492)" fill="url(#j)"/></g><path d="M640.035,1102.562s.632,4.961,1.336,11.129c.176-.04.351-.083.525-.126-.737-6-1.441-11.133-1.441-11.133Z" transform="translate(-613.853 -1064.54)" fill="url(#k)"/><path d="M704.054,1142.477l.134-.088q-.069-.49-.131-.978S704.051,1141.81,704.054,1142.477Z" transform="translate(-667.42 -1097.156)" fill="url(#l)"/><path d="M652.227,1115.273l.286-.085c-.758-5.295-1.49-10.348-1.49-10.348S651.606,1109.932,652.227,1115.273Z" transform="translate(-623.047 -1066.556)" fill="#6a95b7"/><path d="M509.99,1063.049l.334-4.217-8.954,4.539,2.493,10.321a28.642,28.642,0,0,0,9.263,3.657c.158-3,.5-10.728.5-10.728Z" transform="translate(-497.827 -1028.059)" fill="#c2d6e8"/><path d="M529.926,1058.7l-.51,14.064a28.609,28.609,0,0,0,4.461,1.8l.661-18.232Z" transform="translate(-521.294 -1025.964)" fill="#93b4cf"/><path d="M480.967,1077.392a16,16,0,0,0-1.278,3.421,28.931,28.931,0,0,0,7.272,5.654l.582-13.228S482.271,1075.13,480.967,1077.392Z" transform="translate(-479.685 -1040.114)" fill="#c2d6e8"/><path d="M492.993,1072.788c-2.592,1.021-6,2.592-6.965,4.525,2.62.009,7.934,0,13.673.01-1.048-1.152-2.263-2.845-2.262-4.491C497.439,1072.832,495.314,1072.8,492.993,1072.788Z" transform="translate(-484.989 -1039.737)" fill="#93b4cf"/><path d="M482.412,1085.759a5.515,5.515,0,0,0-2.006,2.582c-.251.738-.511,1.609-.74,2.448a28.967,28.967,0,0,0,3.7,3.344l.325-8.967A3.1,3.1,0,0,0,482.412,1085.759Z" transform="translate(-479.666 -1050.094)" fill="#93b4cf"/><path d="M503.393,1129.3l-13.987-.012a28.871,28.871,0,0,0,6.5,4.506l7.2.026C503.128,1132.224,503.324,1130.8,503.393,1129.3Z" transform="translate(-487.816 -1087.008)" fill="#93b4cf"/><path d="M529.419,1133.818l4.526.016.164-4.512-4.526,0Z" transform="translate(-521.296 -1087.038)" fill="#6a95b7"/><path d="M489.375,1129.254q1.015.933,2.117,1.769l.064-1.762Z" transform="translate(-487.79 -1086.984)" fill="#6a95b7"/><path d="M486.041,1086.809l2.9.02.086-2.673A6.46,6.46,0,0,0,486.041,1086.809Z" transform="translate(-485 -1049.249)" fill="#6a95b7"/><path d="M531.181,1077.911s3.392-.594,3.551-.594,3.84.981,3.84.981l-5.1-5.511Z" transform="translate(-522.771 -1039.737)" fill="url(#m)"/><path d="M531.464,1077.342l4.53.022.1-4.523-4.461-.023Z" transform="translate(-523.007 -1039.762)" fill="#6a95b7"/><g transform="translate(8.41 27.647)"><path d="M537.529,1039.69a8.813,8.813,0,0,0-4.759,5.619,48.513,48.513,0,0,1-1.589,4.908l3.879-1.5,3.513,1.889a45.979,45.979,0,0,0-2.353-3.961C535.72,1046.1,537.529,1039.69,537.529,1039.69Z" transform="translate(-531.181 -1039.69)" fill="#93b4cf"/><path d="M552.449,1039.69s-3.527,5.447-3.434,6.366a11.141,11.141,0,0,0,.965,2.659l3.513,1.889-2.72-4.307Z" transform="translate(-546.102 -1039.69)" fill="url(#n)"/><path d="M558.735,1043.291c.082-.353.886-3.6.886-3.6s-2.111,6.16-2.035,6.661a39.373,39.373,0,0,0,3.079,4.253s-2.353-3.961-2.429-4.2A23.921,23.921,0,0,1,558.735,1043.291Z" transform="translate(-553.273 -1039.69)" fill="url(#o)"/></g><path d="M570.782,1105.4l-.545,10.8c.166.037.332.074.5.109l.516-10.726Z" transform="translate(-555.45 -1067.021)" fill="url(#p)"/><g transform="translate(13.038 38.89)"><path d="M559.526,1118.392l.229.066c.117-3.44.205-6.784.25-9.907Z" transform="translate(-559.526 -1108.551)" fill="url(#q)"/><path d="M563.83,1121.443a.533.533,0,1,0,.622.525A.58.58,0,0,0,563.83,1121.443Z" transform="translate(-562.607 -1119.338)" fill="#6a95b7"/></g><path d="M520.473,1137.075c.005-1.034-.238.1-.539,2.081q.268.157.54.308Q520.467,1138.329,520.473,1137.075Z" transform="translate(-513.36 -1093.202)" fill="url(#r)"/><path d="M521.993,1142.288q-.11.86-.24,1.728l.242.135C522,1143.016,521.993,1142.288,521.993,1142.288Z" transform="translate(-514.882 -1097.89)" fill="url(#s)"/><path d="M593.978,1038.254c-.865,0-3.035.59-2.972.907.19.96,2.2,1.12,3.064,1.116s2.618-.224,2.654-1.043C596.739,1038.911,594.844,1038.25,593.978,1038.254Z" transform="translate(-572.827 -1010.841)" fill="url(#t)"/><g transform="translate(8.727 0)"><g transform="translate(0 14.916)"><path d="M533.951,961.714c-1.169.216-.912,1.013-.4,2.407.5,3.706,1.45,4.446,1.855,4.22C536.145,967.928,535.366,961.453,533.951,961.714Z" transform="translate(-533.119 -961.707)" fill="#f0c999"/><path d="M536.6,968.419c.515-3.072-1.368-3.378-1.007-1.246,0,0,.294-.982.523-.673.282.38-.333.552-.075,2.163a4.564,4.564,0,0,0,.887,1.751A2.631,2.631,0,0,1,536.6,968.419Z" transform="translate(-535.146 -965.133)" fill="url(#u)"/></g><g transform="translate(21.402 14.892)"><path d="M665.661,961.563c-1.428-.2-1.835,6.307-1.073,6.685.418.207,1.328-.577,1.611-4.3C666.629,962.532,666.84,961.724,665.661,961.563Z" transform="translate(-664.21 -961.559)" fill="#f0c999"/><path d="M669.377,968.269a2.615,2.615,0,0,1-.214,2.009,4.513,4.513,0,0,0,.786-1.79c.165-1.621-.459-1.764-.2-2.156.212-.319.562.647.562.647C670.549,964.833,668.686,965.226,669.377,968.269Z" transform="translate(-668.354 -964.962)" fill="url(#v)"/></g><path d="M561.795,882.439a8.892,8.892,0,0,0-7.752-3.347s-5.427.192-6.783,3.163a27.689,27.689,0,0,0-1.9,11.624c.13,4.967.389,6.288.822,7.33a4.509,4.509,0,0,0,1.5,1.932,45.334,45.334,0,0,1,4.643,5.045c.428.484,6.334.322,7.031-.161,1.132-.784,2.52-3.03,4.214-4.723a4.48,4.48,0,0,0,1.234-2.576c0-.7.335-3.381.351-3.9.084-2.81.031-2.027.127-4.45C565.631,883.656,562.556,883.328,561.795,882.439Z" transform="translate(-543.349 -877.66)" fill="#f7d9ab"/><path d="M624.053,975.155c1.714.115,3.712.294,4.071-3.264.2-2.027-.094-3.481-.942-3.64a10.239,10.239,0,0,0-5.455,1.013C619.457,970.449,621.015,974.95,624.053,975.155Z" transform="translate(-606.357 -952.199)" fill="url(#w)"/><path d="M552.087,969.832c-.49-.18-4.222-1.031-5.333-.706-.634.185-.859,1.7-.753,3.06a11.157,11.157,0,0,0,.242,2.023c.718,2.006,3.894,2.082,5.475,1.522C554.414,974.776,554.573,970.741,552.087,969.832Z" transform="translate(-543.876 -952.937)" fill="url(#x)"/><path d="M644.382,974.329c-.31-.174-.539.078-1.182.29s-2.353.533-1.543.973a2.567,2.567,0,0,0,2.3-.305C644.106,975.162,644.764,974.544,644.382,974.329Z" transform="translate(-623.76 -957.304)" fill="url(#y)"/><path d="M552.835,975.318c-.653-.179-.9-.418-1.2-.229-.37.234.319.817.477.934a2.567,2.567,0,0,0,2.309.187C555.211,975.729,553.475,975.493,552.835,975.318Z" transform="translate(-548.526 -957.931)" fill="url(#z)"/><path d="M616.247,948.968c-.132.805-.539,3.282-.042,3.561,3.11,1.74,6.513-.463,6.513-.463C623.179,946.139,616.247,948.968,616.247,948.968Z" transform="translate(-602.439 -935.567)" fill="url(#aa)"/><path d="M556.344,953.05s3.3,2.1,6.483.155c.487-.3-.091-2.346-.225-3.151C562.6,950.053,556.031,947.274,556.344,953.05Z" transform="translate(-552.544 -936.481)" fill="url(#ab)"/><path d="M562.07,894.97c-.227-.062-.479-.123-.753-.182-2-.435-5.149-1.905-8.014-1.9a18.685,18.685,0,0,0-4.615.669,4.493,4.493,0,0,0-1.386.569c-1.085.738-1.716,2.137-2.08,5.459-.117,1.078.1,8.264.1,8.344,2.279-5.269,1.99-10.018,3.2-10.741s5.4-.009,7.811.107c2.394.115,5.5-.449,5.681-.285.561.5.735,5.13,3.038,10.876,0,0-.033-8.049-.208-9.925C564.611,895.5,563.965,895.492,562.07,894.97Z" transform="translate(-543.216 -889.203)" fill="url(#ac)"/><g transform="translate(4.333 14.188)"><path d="M621.878,957.591c-1.584.069-2.443.388-2.608.992-.087.32-.366,1.223-.16,1.453.427.478,2.217.581,3.345.507,1.508-.1,2.248-.757,2.243-.931a2.261,2.261,0,0,0-2.819-2.021Z" transform="translate(-609.342 -957.533)" fill="url(#ad)"/><path d="M622.378,961.111c-1.164.085-1.416,1.772-1.416,1.772a1.383,1.383,0,0,0,.528.232,6.688,6.688,0,0,0,3.24.042,3.005,3.005,0,0,0,1.094-.69C624.857,961.336,625.19,960.907,622.378,961.111Z" transform="translate(-610.954 -960.44)" fill="url(#ae)"/><path d="M624.447,962.366c-.9.089-2.523-.091-3.493,1.6,0,0,.71-.609,3.1-.606a3.169,3.169,0,0,1,1.471.442,2.182,2.182,0,0,0,.293-.251S625.35,962.277,624.447,962.366Z" transform="translate(-610.947 -961.527)" fill="#ddd"/><path d="M627.588,963.3c-.765-.045-1.489.329-1.451,1.129a1.573,1.573,0,0,0,.209.672,8.356,8.356,0,0,0,1.225.13,4.978,4.978,0,0,0,1.114-.126.979.979,0,0,0,.237-.586C629.026,963.741,628.353,963.34,627.588,963.3Z" transform="translate(-615.282 -962.306)" fill="url(#af)"/><path d="M627.873,963.013c-.967-.008-1.723.2-1.72,1.141a7.368,7.368,0,0,1,2.782-.185A1.159,1.159,0,0,0,627.873,963.013Z" transform="translate(-615.297 -962.072)" fill="url(#ag)"/><path d="M630.532,964.725a.828.828,0,1,0,.828.851A.837.837,0,0,0,630.532,964.725Z" transform="translate(-618.232 -963.504)" fill="url(#ah)"/><path d="M625.037,960.875c-.856-.331-2.54-.522-3.322.06a2.583,2.583,0,0,0-.753,1.529,2.7,2.7,0,0,1,1.07-.956,4.347,4.347,0,0,1,1.413-.162,5.483,5.483,0,0,1,1.47.283,2.944,2.944,0,0,1,.91.42S625.564,961.08,625.037,960.875Z" transform="translate(-610.954 -960.021)" fill="url(#ai)"/><path d="M638.362,968.692a.376.376,0,0,0-.322.415.363.363,0,0,0,.4.325.373.373,0,0,0,.322-.415A.363.363,0,0,0,638.362,968.692Z" transform="translate(-625.242 -966.822)" fill="#fff"/><path d="M633.836,966.6a.293.293,0,1,0,.32.257A.29.29,0,0,0,633.836,966.6Z" transform="translate(-621.512 -965.076)" fill="#fff"/><path d="M562.5,957.254a2.26,2.26,0,0,0-2.841,1.988c-.007.174.725.841,2.231.956,1.127.087,2.918,0,3.351-.469.208-.228-.06-1.133-.144-1.454C564.939,957.669,564.083,957.341,562.5,957.254Z" transform="translate(-559.659 -957.25)" fill="url(#aj)"/><path d="M566.093,960.787c-2.81-.236-2.482.2-3.461,1.318a3,3,0,0,0,1.086.7,6.68,6.68,0,0,0,3.24-.006,1.369,1.369,0,0,0,.531-.227S567.256,960.885,566.093,960.787Z" transform="translate(-562.147 -960.158)" fill="url(#ak)"/><path d="M564.015,961.961c-.9-.1-1.383,1.174-1.383,1.174a2.2,2.2,0,0,0,.29.254,3.18,3.18,0,0,1,1.476-.425c2.388.024,3.091.641,3.091.641C566.54,961.9,564.919,962.06,564.015,961.961Z" transform="translate(-562.147 -961.188)" fill="#ddd"/><path d="M571.459,962.986c-.766.036-1.443.429-1.347,1.2a.977.977,0,0,0,.23.589,4.994,4.994,0,0,0,1.113.138,8.411,8.411,0,0,0,1.226-.115,1.576,1.576,0,0,0,.217-.67C572.944,963.331,572.225,962.95,571.459,962.986Z" transform="translate(-568.398 -962.047)" fill="url(#al)"/><path d="M571.259,962.68a1.159,1.159,0,0,0-1.073.944,7.381,7.381,0,0,1,2.78.216C572.963,962.848,572.226,962.682,571.259,962.68Z" transform="translate(-568.467 -961.793)" fill="url(#am)"/><path d="M574.138,964.41a.828.828,0,1,0,.862.812A.841.841,0,0,0,574.138,964.41Z" transform="translate(-571.073 -963.241)" fill="url(#an)"/><path d="M581.715,968.659a.355.355,0,0,0-.177.472.361.361,0,0,0,.487.143.354.354,0,0,0,.177-.471A.361.361,0,0,0,581.715,968.659Z" transform="translate(-577.937 -966.762)" fill="#fff"/><path d="M577.3,966.562a.276.276,0,0,0-.138.37.287.287,0,0,0,.385.113.277.277,0,0,0,.138-.37A.288.288,0,0,0,577.3,966.562Z" transform="translate(-574.277 -965.015)" fill="#fff"/><path d="M566.753,960.638c-.776-.592-2.461-.419-3.321-.1-.53.2-.8,1.165-.8,1.165a3.218,3.218,0,0,1,.949-.424,6.034,6.034,0,0,1,1.6-.252,4.192,4.192,0,0,1,1.252.179,2.7,2.7,0,0,1,1.059.967A2.586,2.586,0,0,0,566.753,960.638Z" transform="translate(-562.147 -959.757)" fill="url(#ao)"/></g><path d="M565.608,947.68a6.766,6.766,0,0,0-3.753-.421,3.248,3.248,0,0,0-1.638,1.29,3.651,3.651,0,0,1,1.98-.495c1.2-.047,2.245.509,3.263.507A.453.453,0,0,0,565.608,947.68Z" transform="translate(-555.793 -934.612)" fill="#633f27"/><path d="M558.166,876.988a2.286,2.286,0,0,0,.939-1.112c-.281-.256-8.75-4.209-11.744-3.939-6.576.594-7.1,3.408-7.1,3.408a1.712,1.712,0,0,1-.754-1.391c-.023.012-.046.028-.069.042a2.186,2.186,0,0,0-.372,2.264c-.207-.414-.456-.441-.649-1.172a6.205,6.205,0,0,0-1,2.654,66.115,66.115,0,0,0,.168,8.842,1.443,1.443,0,0,1,.84,1.005,21.629,21.629,0,0,1,.322,2.814c.195-1.8.679-3.93.837-4.879.33-1.987.671-6.143,1.562-6.9a16.715,16.715,0,0,1,3.71-.534c1.842.165,4.77.432,5.387.513.721.094,4.183-.141,5.615-.245a.522.522,0,0,1,.149.077S557.6,885,557.736,885.7c.34,1.819.519,3.033.743,4.7,0,0-.062-3.845.968-3.845.137-3.69-.195-9.085-.234-9.907A2.118,2.118,0,0,1,558.166,876.988Z" transform="translate(-536.652 -871.667)" fill="url(#ap)"/><path d="M563.84,900.586c-.543-.331-5.057.632-5.563.636-5.312.04-8.772-2.119-10.372-1.88s-1.46,4.167-1.637,4.683-.477,8.457-.38,9.288c1.287-5.638,1.521-10.955,2.452-11.535,1.042-.648,1.821-.3,3.026-.238.231.012,5.612.591,6.6.556a25.665,25.665,0,0,0,5.029-.81c.149.077,2.222,9.5,2.618,12.04,0,0-.8-9.032-.85-9.3C564.644,903.326,564.383,900.917,563.84,900.586Z" transform="translate(-543.787 -894.592)" fill="#633f27"/><path d="M558.677,874.024s2.495-1.23,3.927-.508,4.332,2.413,5.65,2.531a19.072,19.072,0,0,0,6.441-.671c-1.117-.1-2.224-1.218-3.222-1.717,3.222,1.717,4.881,1.072,5.485.9-2.926-1.339-3.989-3.383-7.689-3.952C560.1,869.193,558.677,874.024,558.677,874.024Z" transform="translate(-554.504 -870.345)" fill="url(#aq)"/><g transform="translate(6.257 22.068)"><path d="M633.677,1006.675a10.521,10.521,0,0,0,1.213-.339,1.055,1.055,0,0,0,.188-.363l-.708.216Z" transform="translate(-623.516 -1005.898)" fill="#e1b58c"/><path d="M571.892,1006.41a1.056,1.056,0,0,0,.188.363,10.512,10.512,0,0,0,1.213.339l-.692-.487Z" transform="translate(-571.819 -1006.264)" fill="#e1b58c"/><path d="M593.245,1033.135a18.777,18.777,0,0,1,4.948.038C595.952,1031.779,593.245,1033.135,593.245,1033.135Z" transform="translate(-589.685 -1028.13)" fill="url(#ar)"/><path d="M573.511,1006.666c.06.062.1.148.182.182,1.418.628,1.438,1.227,2.046,1.556a6.8,6.8,0,0,0,6.36-.054c.973-.537,1.1-1.163,2.262-1.617a.3.3,0,0,0,.186-.182A23.265,23.265,0,0,1,573.511,1006.666Z" transform="translate(-573.173 -1006.381)" fill="#96282d"/><path d="M599.109,1025.026c-.839,0-1.667-.164-1.667,0s.729.528,1.569.528,1.669-.365,1.669-.529S599.949,1025.025,599.109,1025.026Z" transform="translate(-593.197 -1021.779)" fill="#fdddb3"/><path d="M592.8,1015.151a14,14,0,0,1-2.63.33,15.941,15.941,0,0,1-2.788-.308c-.262-.048-.375.411-.375.411a5.248,5.248,0,0,0,3.262.806,5.312,5.312,0,0,0,3.15-.864S593.134,1015.084,592.8,1015.151Z" transform="translate(-584.467 -1013.571)" fill="url(#as)"/><path d="M588.674,1025.8a4.968,4.968,0,0,0,6.34-.176A7.286,7.286,0,0,1,588.674,1025.8Z" transform="translate(-585.861 -1022.341)" fill="url(#at)"/><path d="M582.132,1008.644a.923.923,0,0,0,.562.766c.314.136,1.018.671,3.755.587s3.277-.745,3.4-.86a1.456,1.456,0,0,0,.338-.578A24.774,24.774,0,0,1,582.132,1008.644Z" transform="translate(-580.387 -1008.062)" fill="url(#au)"/><path d="M582.075,1008.321a1.032,1.032,0,0,0,.107.385,16.442,16.442,0,0,0,3.913.448,15.115,15.115,0,0,0,3.882-.511,1.285,1.285,0,0,0,.184-.411S588.3,1008.857,582.075,1008.321Z" transform="translate(-580.339 -1007.789)" fill="#f3eceb"/><path d="M571.442,1005.63s.4.231.338.168a23.263,23.263,0,0,0,11.036-.116l.337-.169C579.774,1006.077,571.442,1005.63,571.442,1005.63Z" transform="translate(-571.442 -1005.513)" fill="url(#av)"/></g><path d="M562.706,990.386c-.145-1.036-.475-2.445-.475-2.445a21.171,21.171,0,0,0-2.795-.478c-.317-.051-1.311-.17-1.741-.183s-1.073.444-1.774.43a3.329,3.329,0,0,1-1.391-.48,2.83,2.83,0,0,0-1.424.184c-.475.153-3.122.526-3.122.526-.3.173-.444,1.879-.515,2.445-2.668-1.478-3.484-5.376-3.484-5.376.122,1.677.477,4.821,1.11,5.483s5.4,6.284,5.86,6.43a22.286,22.286,0,0,0,6.83,0c.826-.154,4.632-5.342,5.452-6.43.424-.563.475-5.466.475-5.466A7.83,7.83,0,0,1,562.706,990.386Zm-2.295,2.119c-.593,1.165-2.632.367-4.571.412-1.661.038-2.989.759-3.731-.524-.6-1.255-1.893-3.889-1.893-3.889,1.514.04,4.353,0,5.79,0a48.557,48.557,0,0,0,5.629-.109A33.987,33.987,0,0,1,560.411,992.5Z" transform="translate(-543.885 -966.29)" fill="url(#aw)"/><path d="M636.224,996.253c.416-.467,4.436-4.864,4.671-5.984.16-.765.324-5.158.324-5.158a8.959,8.959,0,0,1-1.528,5.017C636.72,994.333,637.172,994.737,636.224,996.253Z" transform="translate(-619.391 -966.374)" fill="url(#ax)"/><g transform="translate(9.283 14.852)"><path d="M601.875,963.553c.1-1.973-.591-2.256-1.1-2.239s-.772.7-.671,2.206-.193,2.073-.126,2.776c.031.32.179.529.989.535.89.007,1.2-.2,1.237-.5C602.307,965.511,601.8,964.975,601.875,963.553Z" transform="translate(-598.336 -961.313)" fill="url(#ay)"/><path d="M612.261,996.657a3.211,3.211,0,0,1,1.676-.121C613.237,995.922,612.261,996.657,612.261,996.657Z" transform="translate(-608.623 -990.581)" fill="#e1b58c"/><path d="M591.38,996.393a3.58,3.58,0,0,1,1.57.219S592.027,995.913,591.38,996.393Z" transform="translate(-591.152 -990.525)" fill="#e1b58c"/><path d="M594.548,986.274c-.008.494.107.824-.044,1.1a1.933,1.933,0,0,1-1.781.828,2.276,2.276,0,0,1-1.9-.824c-.175-.267-.065-.507-.143-1.032,0,0-1.191,1.438-.476,1.716a1.21,1.21,0,0,1,.785-.105c.576.052.457.685,1.778.7,1.152.011.784-.541,1.517-.646a1.144,1.144,0,0,1,.993.157C595.648,988.17,595.385,986.953,594.548,986.274Z" transform="translate(-589.98 -982.199)" fill="url(#az)"/><path d="M599.233,985.831c-.05.322.4.667,1.212.674.89.007,1.089-.345,1.014-.641C601.02,984.113,599.419,984.634,599.233,985.831Z" transform="translate(-597.719 -980.911)" fill="url(#ba)"/></g><path d="M621.9,946.8a6.748,6.748,0,0,0-3.972.383.494.494,0,0,0,.2.948c1.059,0,2.406-.577,3.411-.565a3.7,3.7,0,0,1,2.06.46A3.71,3.71,0,0,0,621.9,946.8Z" transform="translate(-603.831 -934.194)" fill="#633f27"/><path d="M548.058,990.044c-1.859-1.738-2.072-5.034-2.072-5.034.008.466.064.971.107,1.617a13.9,13.9,0,0,0,.516,3.557c.168.353,2.109,2.189,2.405,2.586.391.523,3.347,3.627,3.347,3.627C551.5,995.165,551.257,993.036,548.058,990.044Z" transform="translate(-543.885 -966.29)" fill="url(#bb)"/></g></g></g></svg>