<svg width="18" height="13" viewBox="0 0 18 13" fill="none" xmlns="http://www.w3.org/2000/svg">
<path d="M6.00034 12.9983C4.01501 12.9983 2.02977 12.998 0.0444373 12.9999C0.00431248 12.9999 0 12.9844 0 12.9325C0.00103124 8.64414 0.00103124 4.35579 9.37495e-05 0.0674371C9.37495e-05 0.0155728 0.00440623 0 0.044531 0C2.02977 0.00189582 4.0151 0.00162499 6.00034 0.00162499C6.01684 0.0197707 6.02059 0.0456352 6.02153 0.0735309C6.02284 0.111854 6.02266 0.150176 6.02266 0.188499C6.02266 4.39601 6.02266 8.60352 6.02266 12.811C6.02266 12.8493 6.02284 12.8877 6.02153 12.926C6.02059 12.9539 6.01684 12.9798 6.00034 12.9979V12.9983Z" fill="#169A61"/>
<path d="M6.00037 12.9984V0.00170898H11.9998C12.0163 0.0198547 12.02 0.0457192 12.021 0.0736149C12.0223 0.111938 12.0221 0.15026 12.0221 0.188583C12.0221 4.39609 12.0221 8.6036 12.0221 12.8111C12.0221 12.8494 12.0223 12.8878 12.021 12.9261C12.02 12.954 12.0163 12.9798 11.9998 12.998H6.00037V12.9984Z" fill="#FDFDFD"/>
<path d="M11.9998 12.9982V0.00152392C13.9855 0.00152392 15.9712 0.00165934 17.957 0.000305176C17.9921 0.000305176 18 0.0116801 18 0.0624611C17.9991 4.35406 17.9991 8.64567 18 12.9371C18 12.9879 17.9921 12.9993 17.957 12.9993C15.9713 12.9978 13.9855 12.9981 11.9998 12.9981V12.9982Z" fill="#FD873E"/>
</svg>
