<svg xmlns="http://www.w3.org/2000/svg" width="826.158" height="685.461" viewBox="0 0 826.158 685.461">
  <g id="Group_372" data-name="Group 372" transform="translate(-569.039 -7419.735)">
    <path id="Path_221" data-name="Path 221" d="M1327,5575s-124,199-324,205-34.434-54.227,38.394-54.577c12.6.7,28.306,4.146,32.562,7,24.265,16.288-8.039,26.933-59.172,61.272-16.509,11.086-73.526,54.97-73.526,54.97S745,6016.75,658,6063s-120,30-56-43,250-81,353,0,171,9,271,90,140,122,140,122" transform="translate(1 1845)" fill="none" stroke="#707070" stroke-width="1" stroke-dasharray="6"/>
    <g id="Path_222" data-name="Path 222" transform="translate(1395.197 8080.695) rotate(135)" fill="#fff">
      <path d="M 33.44974517822266 28.94962501525879 L 17.5283374786377 21.87345123291016 L 17.32526779174805 21.78320121765137 L 17.1221981048584 21.87345123291016 L 1.200809121131897 28.94962310791016 L 17.32527732849121 1.000549912452698 L 33.44974517822266 28.94962501525879 Z" stroke="none"/>
      <path d="M 17.32527732849121 2.001115798950195 L 2.401626586914063 27.86877250671387 L 16.91912651062012 21.41654968261719 L 17.32526779174805 21.23604202270508 L 17.73140716552734 21.41654968261719 L 32.24892807006836 27.8687744140625 L 17.32527732849121 2.001115798950195 M 17.32527732849121 0 L 34.65055847167969 30.03048133850098 L 17.32526779174805 22.33036041259766 L -3.814697265625e-06 30.03048133850098 L 17.32527732849121 0 Z" stroke="none" fill="#707070"/>
    </g>
  </g>
</svg>
