<svg id="Chris_Tate" data-name="Chris Tate" xmlns="http://www.w3.org/2000/svg" xmlns:xlink="http://www.w3.org/1999/xlink" width="28.71" height="28.71" viewBox="0 0 28.71 28.71">
  <defs>
    <clipPath id="clip-path">
      <rect id="Rectangle_2753" data-name="Rectangle 2753" width="28.71" height="28.71" fill="none"/>
    </clipPath>
  </defs>
  <g id="Group_1507" data-name="Group 1507" clip-path="url(#clip-path)">
    <path id="Path_1817" data-name="Path 1817" d="M61.28,53.52a.42.42,0,1,1,.42.42.421.421,0,0,1-.42-.42" transform="translate(-49.302 -42.721)" fill="#fff"/>
    <path id="Path_1818" data-name="Path 1818" d="M62.844,57.14a.056.056,0,0,1-.016.078l-1.046.69a.059.059,0,0,1-.031.01.06.06,0,0,1-.047-.025.059.059,0,0,1,.016-.078l1.046-.69a.059.059,0,0,1,.078.016" transform="translate(-49.636 -45.952)" fill="#fff"/>
    <path id="Path_1819" data-name="Path 1819" d="M57.608,45.5,55.2,45.76l.766-.553a1.788,1.788,0,0,1,.643-.258l1.173-.229c-.031.059-.174.776-.174.776" transform="translate(-44.41 -35.979)" fill="#fff"/>
    <path id="Path_1820" data-name="Path 1820" d="M71.219,57.111a.513.513,0,0,1-.039-.2V54.768a.108.108,0,0,1,.108-.108.107.107,0,0,1,.106.108v2.148a.283.283,0,0,0,.023.115.3.3,0,0,0,.362.164l.422-.111a.106.106,0,0,1,.131.074.108.108,0,0,1-.076.131l-.422.111a.5.5,0,0,1-.141.02.5.5,0,0,1-.473-.309" transform="translate(-57.267 -43.976)" fill="#fff"/>
    <path id="Path_1821" data-name="Path 1821" d="M68.018,73.04h2.039a.107.107,0,0,1,.108.106.108.108,0,0,1-.108.108H68.018a.108.108,0,0,1-.108-.108.107.107,0,0,1,.108-.106" transform="translate(-54.636 -58.763)" fill="#fff"/>
    <path id="Path_1822" data-name="Path 1822" d="M80.82,58.21a.054.054,0,0,1,.01.078.055.055,0,0,1-.043.021.067.067,0,0,1-.035-.01l-.925-.7a.056.056,0,1,1,.068-.09Z" transform="translate(-64.206 -46.261)" fill="#fff"/>
    <path id="Path_1823" data-name="Path 1823" d="M82.171,53.52a.42.42,0,1,1-.42-.42.42.42,0,0,1,.42.42" transform="translate(-65.433 -42.721)" fill="#fff"/>
    <path id="Path_1824" data-name="Path 1824" d="M77.04,45.458s-.141-.717-.17-.778l1.171.235a1.859,1.859,0,0,1,.641.262l.764.557Z" transform="translate(-61.845 -35.947)" fill="#fff"/>
    <path id="Path_1825" data-name="Path 1825" d="M6.181,26.157c.111.076.225.152.338.225H22.2c.111-.074.223-.149.332-.225Zm3.876,1.9c.262.082.53.156.8.225a14.481,14.481,0,0,0,7.005,0c.268-.068.534-.143.794-.225ZM14.355,0A14.352,14.352,0,0,0,4.376,24.67c.053.055.108.106.162.156.1-.121.2-.237.3-.35a.079.079,0,0,0,.037.008H23.859a.067.067,0,0,0,.02,0c.1.111.2.227.293.344.055-.049.109-.1.164-.154A14.354,14.354,0,0,0,14.355,0M10.01,8.313a2.686,2.686,0,0,1,.354-.995,1.7,1.7,0,0,1,2.455-.766c1.443.966,3.127,2.435,5.557,1.134L18.72,11v0c-.057,1.618-.375,4.345-1.789,5.856a3.441,3.441,0,0,1-2.611,1.106,3.507,3.507,0,0,1-2.637-1.11C9.9,14.984,9.76,11.269,9.762,10.065Zm1.321,8.479c.025.029.049.059.076.088a6.907,6.907,0,0,0,2.279,2.465,2.429,2.429,0,0,0,3.167-.62,3.175,3.175,0,0,0,.524-1.194v2.563c-3.241,2.457-5.727.307-6.046.008Zm-.09,3.528a4.776,4.776,0,0,0,6.247-.029c.2.151.76.581,1.341.95-4.9,3.769-8.081.614-8.647-.029a3.393,3.393,0,0,0,1.059-.891m-6.2,3.939a11.576,11.576,0,0,1,1.237-1.116A8.281,8.281,0,0,1,8.821,21.8a8,8,0,0,0,1.161-.479,5.961,5.961,0,0,0,2.42,1.628,5.427,5.427,0,0,0,1.845.319,7.792,7.792,0,0,0,4.787-1.9,4.431,4.431,0,0,0,.854.432,8.281,8.281,0,0,1,2.543,1.345,11.575,11.575,0,0,1,1.237,1.116Z" fill="#dfdfdb"/>
    <path id="Path_1826" data-name="Path 1826" d="M64.016,86.649v2.563c-3.241,2.457-5.727.307-6.046.008V85.91c.025.029.049.059.076.088a6.907,6.907,0,0,0,2.279,2.465,2.429,2.429,0,0,0,3.167-.62,3.175,3.175,0,0,0,.524-1.194" transform="translate(-46.639 -69.118)" fill="#fff"/>
    <path id="Path_1827" data-name="Path 1827" d="M60.737,104.76c-4.9,3.769-8.081.614-8.647-.029a3.393,3.393,0,0,0,1.059-.891,4.776,4.776,0,0,0,6.247-.029c.2.151.76.581,1.341.95" transform="translate(-41.908 -83.519)" fill="#1a1a1a"/>
    <path id="Path_1828" data-name="Path 1828" d="M49.026,134.97a14.324,14.324,0,0,1-3.542,1.673h-8.6a14.2,14.2,0,0,1-3.538-1.673Z" transform="translate(-26.831 -108.588)" fill="#1a1a1a"/>
    <path id="Path_1829" data-name="Path 1829" d="M42.853,125.57c-.123.117-.25.233-.377.344-.025.023-.051.045-.078.068s-.061.053-.092.076q-.528.446-1.1.842H24.862c-.338-.237-.667-.485-.983-.749-.031-.023-.061-.049-.092-.076a.851.851,0,0,1-.078-.068c-.166-.143-.328-.287-.489-.438.1-.121.2-.237.3-.35a.079.079,0,0,0,.037.008H42.54a.067.067,0,0,0,.02,0c.1.111.2.227.293.344" transform="translate(-18.681 -100.744)" fill="#1a1a1a"/>
    <path id="Path_1830" data-name="Path 1830" d="M44.418,112.01H25.79a11.577,11.577,0,0,1,1.237-1.116,8.281,8.281,0,0,1,2.543-1.345,8,8,0,0,0,1.161-.479,5.961,5.961,0,0,0,2.42,1.628,5.427,5.427,0,0,0,1.845.319,7.792,7.792,0,0,0,4.787-1.9,4.431,4.431,0,0,0,.854.432,8.281,8.281,0,0,1,2.543,1.345,11.577,11.577,0,0,1,1.237,1.116" transform="translate(-20.749 -87.751)" fill="#1a1a1a"/>
    <path id="Path_1831" data-name="Path 1831" d="M43.248,57.762h-.023a1.379,1.379,0,0,1-1-.729,2.654,2.654,0,0,1-.33-1.782.833.833,0,0,1,.368-.55.921.921,0,0,1,1.188.386l-.185.128c-.017-.025-.423-.6-.889-.321a.62.62,0,0,0-.264.41,2.4,2.4,0,0,0,.3,1.61,1.183,1.183,0,0,0,.813.624.4.4,0,0,0,.348-.184l.182.132a.621.621,0,0,1-.514.277" transform="translate(-33.673 -43.922)" fill="#1a1a1a"/>
    <path id="Path_1832" data-name="Path 1832" d="M45.429,60.032A.057.057,0,0,1,45.378,60c-.422-.876-.993-.7-1.017-.694a.057.057,0,0,1-.071-.036.056.056,0,0,1,.035-.071c.007,0,.687-.217,1.154.752a.056.056,0,0,1-.026.075.057.057,0,0,1-.024.005" transform="translate(-35.631 -47.611)" fill="#1a1a1a"/>
    <path id="Path_1833" data-name="Path 1833" d="M46.478,61.669a.057.057,0,0,1-.043-.02.6.6,0,0,1-.159-.51.849.849,0,0,1,.41-.5.056.056,0,0,1,.053.1.749.749,0,0,0-.353.424.5.5,0,0,0,.136.416.056.056,0,0,1-.043.092" transform="translate(-37.223 -48.781)" fill="#1a1a1a"/>
    <path id="Path_1834" data-name="Path 1834" d="M58.181,28.552A5.6,5.6,0,0,0,56.967,24.7a4.211,4.211,0,0,0-3.235-1.247A4.779,4.779,0,0,0,50.114,24.8a5.535,5.535,0,0,0-1.331,3.743c0,.061-.023.536.008,1.231v0c0,.109.012.223.02.344,0,.014,0,.029,0,.043.016.215.035.446.061.686.008.078.018.158.027.24v0c.051.4.117.819.211,1.247.018.084.035.166.057.25a7.794,7.794,0,0,0,1.21,2.819c.061.086.125.168.194.248.025.029.049.059.076.088s.074.084.113.125a3.718,3.718,0,0,0,2.8,1.181,3.655,3.655,0,0,0,2.776-1.179,4.144,4.144,0,0,0,.281-.332c.039-.051.076-.1.111-.154s.066-.094.1-.141c0,0,0,0,0,0a7.73,7.73,0,0,0,1.018-2.529c.02-.082.037-.166.055-.25.09-.43.154-.856.2-1.259.01-.08.02-.158.025-.237.025-.254.043-.5.055-.723.008-.119.012-.233.016-.342v-.031c.025-.725,0-1.231-.01-1.321m-2.009,7.17a3.441,3.441,0,0,1-2.611,1.106,3.507,3.507,0,0,1-2.637-1.11C49.144,33.851,49,30.135,49,28.931c0-.237.006-.375.006-.385a5.4,5.4,0,0,1,1.271-3.589,4.558,4.558,0,0,1,3.454-1.282A3.994,3.994,0,0,1,56.8,24.848a5.478,5.478,0,0,1,1.155,3.694l0,.008,0,.008c0,.016.033.534,0,1.306v0c-.057,1.618-.375,4.345-1.789,5.856" transform="translate(-39.24 -18.866)" fill="#1a1a1a"/>
    <path id="Path_1835" data-name="Path 1835" d="M58.554,33.4c-2.43,1.3-4.115-.168-5.557-1.134a1.7,1.7,0,0,0-2.455.766,2.686,2.686,0,0,0-.354.995l-.248,1.751c0,1.2.143,4.92,1.921,6.787a3.507,3.507,0,0,0,2.637,1.11,3.441,3.441,0,0,0,2.611-1.106c1.413-1.511,1.732-4.238,1.789-5.856v0ZM54.092,36.5a.108.108,0,0,1,.108-.108.107.107,0,0,1,.106.108V38.65a.283.283,0,0,0,.023.115.3.3,0,0,0,.362.164l.422-.111a.106.106,0,0,1,.131.074.108.108,0,0,1-.076.131l-.422.111a.5.5,0,0,1-.141.02.5.5,0,0,1-.473-.309.513.513,0,0,1-.039-.2Zm-3.124-1.011.766-.553a1.788,1.788,0,0,1,.643-.258l1.173-.229c-.031.059-.174.776-.174.776Zm1.609.6a.42.42,0,1,1-.42.42.42.42,0,0,1,.42-.42m.794.887-1.046.69a.059.059,0,0,1-.031.01.06.06,0,0,1-.047-.025.059.059,0,0,1,.016-.078l1.046-.69a.059.059,0,0,1,.078.016.056.056,0,0,1-.016.078M55.6,40.2H53.56a.108.108,0,0,1-.108-.108.107.107,0,0,1,.108-.106H55.6a.107.107,0,0,1,.108.106.108.108,0,0,1-.108.108m1.2-2.463a.055.055,0,0,1-.043.021.068.068,0,0,1-.035-.01l-.925-.7a.056.056,0,1,1,.068-.09l.925.7a.054.054,0,0,1,.01.078M56.5,36.93a.42.42,0,1,1,.42-.42.42.42,0,0,1-.42.42m-1.122-1.708s-.141-.717-.17-.778l1.171.235a1.859,1.859,0,0,1,.641.262l.764.557Z" transform="translate(-40.178 -25.71)" fill="#fff"/>
    <path id="Path_1836" data-name="Path 1836" d="M72.255,57.289l-.422.111a.5.5,0,0,1-.141.02.5.5,0,0,1-.473-.309.513.513,0,0,1-.039-.2V54.768a.108.108,0,0,1,.108-.108.107.107,0,0,1,.106.108v2.148a.283.283,0,0,0,.023.115.3.3,0,0,0,.362.164l.422-.111a.106.106,0,0,1,.131.074.108.108,0,0,1-.076.131" transform="translate(-57.267 -43.976)" fill="#1a1a1a"/>
    <path id="Path_1837" data-name="Path 1837" d="M57.782,44.72c-.031.059-.174.776-.174.776L55.2,45.76l.766-.553a1.788,1.788,0,0,1,.643-.258Z" transform="translate(-44.41 -35.979)" fill="#1a1a1a"/>
    <path id="Path_1838" data-name="Path 1838" d="M79.446,45.734l-2.406-.276s-.141-.717-.17-.778l1.171.235a1.859,1.859,0,0,1,.641.262Z" transform="translate(-61.845 -35.947)" fill="#1a1a1a"/>
    <path id="Path_1839" data-name="Path 1839" d="M62.12,53.52a.42.42,0,1,1-.42-.42.42.42,0,0,1,.42.42" transform="translate(-49.302 -42.721)" fill="#1a1a1a"/>
    <path id="Path_1840" data-name="Path 1840" d="M82.171,53.52a.42.42,0,1,1-.42-.42.42.42,0,0,1,.42.42" transform="translate(-65.433 -42.721)" fill="#1a1a1a"/>
    <path id="Path_1841" data-name="Path 1841" d="M62.828,57.218l-1.046.69a.059.059,0,0,1-.031.01.06.06,0,0,1-.047-.025.059.059,0,0,1,.016-.078l1.046-.69a.059.059,0,0,1,.078.016.056.056,0,0,1-.016.078" transform="translate(-49.636 -45.952)" fill="#1a1a1a"/>
    <path id="Path_1842" data-name="Path 1842" d="M80.83,58.288a.055.055,0,0,1-.043.021.067.067,0,0,1-.035-.01l-.925-.7a.056.056,0,1,1,.068-.09l.925.7a.054.054,0,0,1,.01.078" transform="translate(-64.206 -46.261)" fill="#1a1a1a"/>
    <path id="Path_1843" data-name="Path 1843" d="M70.164,73.146a.108.108,0,0,1-.108.108H68.018a.108.108,0,0,1-.108-.108.107.107,0,0,1,.108-.106h2.039a.107.107,0,0,1,.108.106" transform="translate(-54.636 -58.763)" fill="#1a1a1a"/>
    <path id="Path_1844" data-name="Path 1844" d="M94.782,58.336a.621.621,0,0,1-.514-.277l.182-.132a.392.392,0,0,0,.348.184,1.182,1.182,0,0,0,.813-.624,2.4,2.4,0,0,0,.3-1.61.62.62,0,0,0-.264-.41c-.467-.276-.872.3-.889.321l-.185-.128a.92.92,0,0,1,1.188-.386.833.833,0,0,1,.368.55,2.654,2.654,0,0,1-.33,1.782,1.38,1.38,0,0,1-1,.729h-.023" transform="translate(-75.842 -44.384)" fill="#1a1a1a"/>
    <path id="Path_1845" data-name="Path 1845" d="M95.524,60.607A.057.057,0,0,1,95.5,60.6a.056.056,0,0,1-.026-.075c.467-.968,1.147-.754,1.154-.752a.056.056,0,0,1-.035.107c-.024-.008-.6-.182-1.017.694a.056.056,0,0,1-.051.032" transform="translate(-76.807 -48.073)" fill="#1a1a1a"/>
    <path id="Path_1846" data-name="Path 1846" d="M97.336,62.244a.056.056,0,0,1-.043-.092.5.5,0,0,0,.135-.416.742.742,0,0,0-.353-.423.056.056,0,0,1,.053-.1.849.849,0,0,1,.41.5.6.6,0,0,1-.159.51.057.057,0,0,1-.043.02" transform="translate(-78.076 -49.243)" fill="#1a1a1a"/>
    <path id="Path_1847" data-name="Path 1847" d="M55.43,17.041a8.659,8.659,0,0,1-.5,2.727,15.126,15.126,0,0,1-.379,1.534l-.012.041c-.029.1-.061.205-.094.307-.021.07-.043.141-.066.211l-.029-.278,0-.031-.027-.258v0l-.344-3.311c-2.43,1.3-4.115-.168-5.557-1.134a1.7,1.7,0,0,0-2.455.766,2.685,2.685,0,0,0-.354.995l-.248,1.751-.131.923-.041.3-.008.053c0-.012-.006-.023-.01-.035s-.01-.039-.014-.059c-.035-.133-.07-.268-.1-.4-.053-.205-.106-.412-.154-.622-.283-.839-1.048-3.376-.393-4.752a1.931,1.931,0,0,1,2.453-1.028l.01,0a4.4,4.4,0,0,1,3.9-1.931c1.923-.029,4.556,1,4.556,4.244" transform="translate(-35.601 -10.296)" fill="#1a1a1a"/>
    <path id="Path_1848" data-name="Path 1848" d="M57.053,84.581V88.11a.111.111,0,0,1-.223,0V84.581a.12.12,0,0,1,.029-.078.124.124,0,0,1,.082-.033.11.11,0,0,1,.111.111" transform="translate(-45.722 -67.959)" fill="#1a1a1a"/>
    <path id="Path_1849" data-name="Path 1849" d="M89.125,83.623v3.714a.112.112,0,0,1-.225,0V83.623a.113.113,0,0,1,.113-.113.109.109,0,0,1,.094.055s0,0,0,0a.093.093,0,0,1,.018.057" transform="translate(-71.523 -67.187)" fill="#1a1a1a"/>
    <path id="Path_1850" data-name="Path 1850" d="M64.057,84.09c0,.029,0,.057,0,.084a4.81,4.81,0,0,1-.111,1.011,3.175,3.175,0,0,1-.524,1.194,2.429,2.429,0,0,1-3.167.62,6.907,6.907,0,0,1-2.279-2.465c-.035-.063-.061-.111-.076-.139l-.018-.033.018.018a5.074,5.074,0,0,0,3.231,1.329,4.245,4.245,0,0,0,2.815-1.484c.074-.084.113-.135.113-.135" transform="translate(-46.566 -67.653)" fill="#1a1a1a"/>
    <path id="Path_1851" data-name="Path 1851" d="M42.349,107.144c-.055.053-.109.106-.164.154-.1-.117-.2-.233-.293-.344-.07-.076-.139-.151-.209-.223a11.574,11.574,0,0,0-1.237-1.116,8.281,8.281,0,0,0-2.543-1.345,4.431,4.431,0,0,1-.854-.432c-.066-.039-.135-.082-.2-.125h0c-.581-.369-1.145-.8-1.341-.95a4.776,4.776,0,0,1-6.247.029,3.393,3.393,0,0,1-1.059.891c-.066.037-.133.074-.2.108a8,8,0,0,1-1.161.479,8.281,8.281,0,0,0-2.543,1.345,11.575,11.575,0,0,0-1.237,1.116c-.068.07-.137.143-.2.217-.1.113-.2.229-.3.35-.055-.051-.109-.1-.162-.156a11.36,11.36,0,0,1,1.763-1.7,8.472,8.472,0,0,1,2.611-1.382,7.594,7.594,0,0,0,1.2-.5.066.066,0,0,1,.023-.012,3.063,3.063,0,0,0,1.136-.96.149.149,0,0,0,.016-.022.113.113,0,0,1,.084-.051.116.116,0,0,1,.092.031l.031.031c.319.3,2.8,2.449,6.046-.008.016-.01.029-.022.045-.033a.111.111,0,0,1,.137,0,.5.5,0,0,0,.043.033c.17.133.837.639,1.472,1.036a.131.131,0,0,1,.021.014,4.531,4.531,0,0,0,.864.442,8.494,8.494,0,0,1,2.611,1.382,11.3,11.3,0,0,1,1.765,1.7" transform="translate(-18.014 -82.473)" fill="#1a1a1a"/>
    <path id="Path_1852" data-name="Path 1852" d="M59.826,108.026l-.061.047a7.792,7.792,0,0,1-4.787,1.9,5.427,5.427,0,0,1-1.845-.319,5.961,5.961,0,0,1-2.42-1.628c-.037-.041-.059-.066-.063-.072a.11.11,0,0,1,.02-.156.034.034,0,0,1,.01-.008.066.066,0,0,1,.023-.012.111.111,0,0,1,.123.037c.012.014.039.049.086.1.567.643,3.747,3.8,8.647.029h0c.041-.031.084-.064.125-.1a.111.111,0,0,1,.117-.014.131.131,0,0,1,.022.014.15.15,0,0,1,.018.018.112.112,0,0,1-.018.158" transform="translate(-40.731 -86.706)" fill="#1a1a1a"/>
    <path id="Path_1853" data-name="Path 1853" d="M43.57,124.221a.112.112,0,0,1-.094.111.067.067,0,0,1-.02,0H24.473a.079.079,0,0,1-.037-.008.11.11,0,0,1-.076-.106.112.112,0,0,1,.113-.111H43.457a.112.112,0,0,1,.113.111" transform="translate(-19.598 -99.851)" fill="#1a1a1a"/>
    <path id="Path_1854" data-name="Path 1854" d="M60.047,143.53c-.26.082-.526.156-.794.225H52.247c-.268-.068-.536-.143-.8-.225Z" transform="translate(-41.393 -115.475)" fill="#1a1a1a"/>
    <path id="Path_1855" data-name="Path 1855" d="M47.967,133.82c-.109.076-.221.151-.332.225H31.958c-.113-.072-.227-.149-.338-.225Z" transform="translate(-25.439 -107.663)" fill="#1a1a1a"/>
  </g>
</svg>
