<svg xmlns="http://www.w3.org/2000/svg" width="16.002" height="16" viewBox="0 0 16.002 16">
  <path id="cross-icon" d="M-10014.153,3474.8l-4.433-4.433-4.433,4.433a2.089,2.089,0,0,1-2.954,0,2.082,2.082,0,0,1-.614-1.477,2.084,2.084,0,0,1,.613-1.477l4.434-4.433-4.433-4.433a2.089,2.089,0,0,1,0-2.954,2.086,2.086,0,0,1,1.478-.613,2.084,2.084,0,0,1,1.477.613l4.433,4.433,4.433-4.433a2.085,2.085,0,0,1,1.478-.614,2.086,2.086,0,0,1,1.478.614,2.091,2.091,0,0,1,0,2.954l-4.432,4.433,4.433,4.433a2.082,2.082,0,0,1,.614,1.477,2.084,2.084,0,0,1-.613,1.477,2.082,2.082,0,0,1-1.478.612,2.083,2.083,0,0,1-1.479-.612Z" transform="translate(10026.587 -3459.412)"/>
</svg>
