<svg xmlns="http://www.w3.org/2000/svg" width="28.322" height="19.471" viewBox="0 0 28.322 19.471">
  <g id="email" transform="translate(0 -80)">
    <g id="Group_255" data-name="Group 255" transform="translate(0 80)">
      <g id="Group_254" data-name="Group 254">
        <path id="Path_246" data-name="Path 246" d="M26.552,80H1.77A1.771,1.771,0,0,0,0,81.77v1.007l14.161,6,14.161-6V81.77A1.771,1.771,0,0,0,26.552,80Z" transform="translate(0 -80)" fill="#fff"/>
      </g>
    </g>
    <g id="Group_257" data-name="Group 257" transform="translate(0 84.7)">
      <g id="Group_256" data-name="Group 256">
        <path id="Path_247" data-name="Path 247" d="M14.506,170.81a.877.877,0,0,1-.69,0L0,164.96v13a1.771,1.771,0,0,0,1.77,1.77H26.552a1.771,1.771,0,0,0,1.77-1.77v-13Z" transform="translate(0 -164.96)" fill="#fff"/>
      </g>
    </g>
  </g>
</svg>
