<svg xmlns="http://www.w3.org/2000/svg" width="119" height="119" viewBox="0 0 119 119">
  <g id="Group_366" data-name="Group 366" transform="translate(-988 -5032)">
    <circle id="Ellipse_15" data-name="Ellipse 15" cx="59.5" cy="59.5" r="59.5" transform="translate(988 5032)" fill="#dff6f6"/>
    <g id="High-res_logos" data-name="High-res logos" transform="translate(1026 5062.65)">
      <path id="Path_141" data-name="Path 141" d="M37.252,9.35H4.75A4.794,4.794,0,0,0,0,14.179V44.527A4.791,4.791,0,0,0,4.75,49.35h32.5A4.789,4.789,0,0,0,42,44.527V14.179A4.791,4.791,0,0,0,37.252,9.35ZM27.159,16.531a4.662,4.662,0,1,1-4.588,4.661A4.626,4.626,0,0,1,27.159,16.531Zm8.6,28.358H6.895a1.316,1.316,0,0,1-1.26-2.081l7.874-15.845a1.318,1.318,0,0,1,2.428-.229l7.918,10.513a1.922,1.922,0,0,0,3.007.193L28.8,35.447a1.827,1.827,0,0,1,2.928.252l5.016,7.279C37.467,44.033,37.03,44.889,35.762,44.889Z" fill="#2c143a"/>
    </g>
  </g>
</svg>
