<svg xmlns="http://www.w3.org/2000/svg" width="119" height="119" viewBox="0 0 119 119">
  <g id="Group_367" data-name="Group 367" transform="translate(-1288 -5032)">
    <circle id="Ellipse_15" data-name="Ellipse 15" cx="59.5" cy="59.5" r="59.5" transform="translate(1288 5032)" fill="#fbeee6"/>
    <g id="Wide_Variety_of_Templates" data-name="Wide Variety of Templates" transform="translate(1327 5071)">
      <g id="Group_275" data-name="Group 275">
        <g id="Group_274" data-name="Group 274">
          <g id="Group_283" data-name="Group 283">
            <path id="Path_249" data-name="Path 249" d="M40.5,0H1.5A1.5,1.5,0,0,0,0,1.5v39A1.5,1.5,0,0,0,1.5,42h39A1.5,1.5,0,0,0,42,40.5V1.5A1.5,1.5,0,0,0,40.5,0Z" fill="#2c143a"/>
            <g id="Group_276" data-name="Group 276" transform="translate(22.542 5.987)">
              <g id="Group_276-2" data-name="Group 276">
                <path id="Path_250" data-name="Path 250" d="M267.977,68.267H261.99a1.5,1.5,0,1,0,0,2.994h2.374l-7.923,7.923a1.5,1.5,0,1,0,2.117,2.116l7.923-7.923v2.374a1.5,1.5,0,1,0,2.994,0V69.764A1.5,1.5,0,0,0,267.977,68.267Z" transform="translate(-256.003 -68.267)" fill="#fff"/>
              </g>
            </g>
            <g id="Group_277" data-name="Group 277" transform="translate(22.56 22.56)">
              <g id="Group_278" data-name="Group 278">
                <path id="Path_251" data-name="Path 251" d="M268.166,260.682a1.5,1.5,0,0,0-1.5,1.5v2.374l-7.923-7.923a1.5,1.5,0,0,0-2.116,2.116l7.922,7.923h-2.374a1.5,1.5,0,0,0,0,2.994h5.987a1.5,1.5,0,0,0,1.5-1.5v-5.987A1.5,1.5,0,0,0,268.166,260.682Z" transform="translate(-256.21 -256.21)" fill="#fff"/>
              </g>
            </g>
            <g id="Group_278-2" data-name="Group 278" transform="translate(5.987 22.56)">
              <g id="Group_280" data-name="Group 280">
                <path id="Path_252" data-name="Path 252" d="M81.262,256.63a1.5,1.5,0,0,0-2.08,0l-7.923,7.922v-2.374a1.5,1.5,0,1,0-2.994,0v5.987a1.5,1.5,0,0,0,1.5,1.5H75.75a1.5,1.5,0,1,0,0-2.994H73.376l7.923-7.923A1.5,1.5,0,0,0,81.262,256.63Z" transform="translate(-68.266 -256.21)" fill="#fff"/>
              </g>
            </g>
            <g id="Group_279" data-name="Group 279" transform="translate(5.987 5.987)">
              <g id="Group_282" data-name="Group 282">
                <path id="Path_253" data-name="Path 253" d="M81.3,79.182,73.376,71.26H75.75a1.5,1.5,0,0,0,0-2.994H69.763a1.5,1.5,0,0,0-1.5,1.5V75.75a1.5,1.5,0,0,0,2.994,0V73.376L79.182,81.3A1.5,1.5,0,0,0,81.3,79.182Z" transform="translate(-68.266 -68.266)" fill="#fff"/>
              </g>
            </g>
          </g>
        </g>
      </g>
    </g>
  </g>
</svg>
