<svg xmlns="http://www.w3.org/2000/svg" width="119" height="119" viewBox="0 0 119 119">
  <g id="Group_368" data-name="Group 368" transform="translate(-388 -5372)">
    <circle id="Ellipse_15" data-name="Ellipse 15" cx="59.5" cy="59.5" r="59.5" transform="translate(388 5372)" fill="#ddfce6"/>
    <g id="_100_Free_Tool" data-name="100% Free Tool" transform="translate(427 5411)">
      <path id="Path_254" data-name="Path 254" d="M37.625,0h-11.1a7.826,7.826,0,0,0-5.57,2.307L1.492,21.77a5.1,5.1,0,0,0,0,7.208L13.019,40.508a5.1,5.1,0,0,0,7.208,0L39.693,21.044A7.929,7.929,0,0,0,42,15.475V4.375A4.375,4.375,0,0,0,37.625,0Zm-5.25,14A4.375,4.375,0,1,1,36.75,9.625,4.375,4.375,0,0,1,32.375,14Z" transform="translate(0 0)" fill="#2c143a"/>
      <g id="Group_284" data-name="Group 284" transform="translate(10.401 15.603)">
        <path id="Path_255" data-name="Path 255" d="M214.211,208a.889.889,0,0,1-.889-.889V192.889a.889.889,0,1,1,1.777,0v14.218A.889.889,0,0,1,214.211,208Z" transform="translate(-206.213 -192)" fill="#fff"/>
        <path id="Path_256" data-name="Path 256" d="M130.655,240a2.666,2.666,0,1,1,2.666-2.666A2.666,2.666,0,0,1,130.655,240Zm0-3.554a.889.889,0,1,0,.889.889A.889.889,0,0,0,130.655,236.444Z" transform="translate(-127.989 -231.113)" fill="#fff"/>
        <path id="Path_257" data-name="Path 257" d="M258.655,282.666A2.666,2.666,0,1,1,261.321,280a2.666,2.666,0,0,1-2.666,2.666Zm0-3.555a.889.889,0,1,0,.889.889A.889.889,0,0,0,258.655,279.111Z" transform="translate(-245.326 -270.225)" fill="#fff"/>
      </g>
    </g>
  </g>
</svg>
