<svg xmlns="http://www.w3.org/2000/svg" width="119" height="119" viewBox="0 0 119 119">
  <g id="Group_369" data-name="Group 369" transform="translate(-688 -5372)">
    <path id="Path_142" data-name="Path 142" d="M59.5,0A59.5,59.5,0,1,1,0,59.5,59.5,59.5,0,0,1,59.5,0Z" transform="translate(688 5372)" fill="#edeef3"/>
    <g id="User_Friendly_Editor" data-name="User Friendly Editor" transform="translate(727 5401.987)">
      <path id="Path_258" data-name="Path 258" d="M37.707,15.671a1.731,1.731,0,0,0,1.412-2,8.715,8.715,0,1,1,17.175-.021,1.731,1.731,0,0,0,3.414.581,12.177,12.177,0,1,0-24,.029,1.731,1.731,0,0,0,2,1.412Zm0,0" transform="translate(-31.426)"/>
      <g id="Group_285" data-name="Group 285" transform="translate(0 7.04)">
        <path id="Path_259" data-name="Path 259" d="M34.545,81.731a5.157,5.157,0,0,0-6.894-2.308,5.158,5.158,0,0,0-6.3-2.558v-10.6A5.261,5.261,0,0,0,16.311,61a5.185,5.185,0,0,0-5.326,5.192V92.86l-2.025-2.13a5.182,5.182,0,1,0-7.534,7.115l11.636,12.467a8.632,8.632,0,0,0,6.286,2.735H33.383A8.646,8.646,0,0,0,42,104.392v-18a5.176,5.176,0,0,0-7.455-4.657Zm4.008,22.661a5.188,5.188,0,0,1-5.17,5.193H19.349a5.177,5.177,0,0,1-3.772-1.641L3.925,95.461a1.736,1.736,0,0,1,.092-2.482,1.767,1.767,0,0,1,2.45.142l4.994,5.253a1.724,1.724,0,0,0,2.97-1.2V66.191a1.733,1.733,0,0,1,1.785-1.731,1.783,1.783,0,0,1,1.687,1.8c0,19.049-.032,10.414-.032,20.7a1.74,1.74,0,0,0,3.479,0V81.442a1.722,1.722,0,0,1,3.415.329v5.193a1.723,1.723,0,1,0,3.447,0V84.08a1.723,1.723,0,1,1,3.447,0v2.885a1.723,1.723,0,1,0,3.447,0v-.577a1.723,1.723,0,1,1,3.447,0Zm0,0" transform="translate(0 -60.997)"/>
        <path id="Path_260" data-name="Path 260" d="M33.744,30.937l2.079-1.642H37.83l1.931.97.966,3.21-.966,17.693L39.093,54.6l-3.27,1.791-5.869.9H17.845L14.427,54.6,2.911,43.329,1.5,39.82l.892-2.613,1.931-.6,1.931.6,4.458,2.613,1.263,1.493.668-27.92.594-4.031,2.08-1.045h1.56L18.29,9.363,19.4,10.781l.445,9.257v4.7h1.932a12.134,12.134,0,0,1,1.559-.373,15.084,15.084,0,0,1,2.229,1.194l1.114,1.12h5.052l1.56,1.941Z" transform="translate(0.043 -6.797)" fill="#2c143a"/>
      </g>
    </g>
  </g>
</svg>
