<svg xmlns="http://www.w3.org/2000/svg" width="119" height="119" viewBox="0 0 119 119">
  <g id="Group_370" data-name="Group 370" transform="translate(-988 -5372)">
    <path id="Path_232" data-name="Path 232" d="M59.5,0A59.5,59.5,0,1,1,0,59.5,59.5,59.5,0,0,1,59.5,0Z" transform="translate(988 5372)" fill="#f5f4ea"/>
    <g id="Distinctive_Brand_Identity" data-name="Distinctive Brand Identity" transform="translate(1026.204 5410.366)">
      <g id="Group_287" data-name="Group 287">
        <g id="Group_286" data-name="Group 286">
          <path id="Path_261" data-name="Path 261" d="M13.738,0H6.207A6.214,6.214,0,0,0,0,6.207v7.531a6.214,6.214,0,0,0,6.207,6.207h7.531a6.214,6.214,0,0,0,6.207-6.207V6.207A6.214,6.214,0,0,0,13.738,0Z" fill="#2c143a"/>
        </g>
      </g>
      <g id="Group_289" data-name="Group 289" transform="translate(22.056 22.056)">
        <g id="Group_288" data-name="Group 288">
          <path id="Path_262" data-name="Path 262" d="M284.738,271h-7.531A6.214,6.214,0,0,0,271,277.207v7.531a6.214,6.214,0,0,0,6.207,6.207h7.531a6.214,6.214,0,0,0,6.207-6.207v-7.531A6.214,6.214,0,0,0,284.738,271Z" transform="translate(-271 -271)" fill="#2c143a"/>
        </g>
      </g>
      <g id="Group_291" data-name="Group 291">
        <g id="Group_290" data-name="Group 290">
          <path id="Path_263" data-name="Path 263" d="M35.848,0H28.383A6.159,6.159,0,0,0,22.23,6.152v7.465a8.623,8.623,0,0,1-8.613,8.613H6.152A6.159,6.159,0,0,0,0,28.383v7.465A6.159,6.159,0,0,0,6.152,42h7.465a6.159,6.159,0,0,0,6.152-6.152V28.383a8.623,8.623,0,0,1,8.613-8.613h7.465A6.159,6.159,0,0,0,42,13.617V6.152A6.159,6.159,0,0,0,35.848,0Z" fill="#2c143a"/>
        </g>
      </g>
    </g>
  </g>
</svg>
