<svg xmlns="http://www.w3.org/2000/svg" width="119" height="119" viewBox="0 0 119 119">
  <g id="Group_371" data-name="Group 371" transform="translate(-1288 -5372)">
    <circle id="Ellipse_15" data-name="Ellipse 15" cx="59.5" cy="59.5" r="59.5" transform="translate(1288 5372)" fill="#eaefff"/>
    <g id="Logo_Copyright_Ownership" data-name="Logo Copyright Ownership" transform="translate(1300.098 5408.341)">
      <g id="Group_293" data-name="Group 293" transform="translate(25.999 0)">
        <g id="Group_292" data-name="Group 292" transform="translate(0 0)">
          <path id="Path_264" data-name="Path 264" d="M65.313,9.817,49.685.723a5.35,5.35,0,0,0-5.371,0L28.685,9.817A5.436,5.436,0,0,0,26,14.5V32.692a5.436,5.436,0,0,0,2.686,4.688l15.629,9.094a5.35,5.35,0,0,0,5.371,0L65.313,37.38A5.436,5.436,0,0,0,68,32.692V14.5A5.436,5.436,0,0,0,65.313,9.817Z" transform="translate(-25.999 0)" fill="#2c143a"/>
        </g>
      </g>
    </g>
    <path id="Path_265" data-name="Path 265" d="M197.742,148.075a2.481,2.481,0,0,1,2.788,2.649c.027.8.751,1.1,1.742,1.1,1.18,0,1.742-.321,1.742-1.713,0-3.1-2.654-5.084-6.38-5.084-3.378,0-6.192,1.659-6.192,6.128v7.466c0,4.469,2.788,6.128,6.165,6.128,3.753,0,6.407-2.06,6.407-5.3,0-1.365-.563-1.713-1.769-1.713-.911,0-1.662.268-1.716,1.1-.08,1.124-.295,2.863-2.734,2.863-1.85,0-2.868-.99-2.868-3.077v-7.466C194.928,149.066,195.946,148.075,197.742,148.075Z" transform="translate(1149.698 5276.685)" fill="#fff"/>
  </g>
</svg>
