<svg xmlns="http://www.w3.org/2000/svg" width="72" height="72" viewBox="0 0 72 72">
  <g id="feature_2" transform="translate(-704 -6427)">
    <rect id="Rectangle_138" data-name="Rectangle 138" width="72" height="72" rx="14" transform="translate(704 6427)" fill="#f99c4e"/>
    <g id="Group_660" data-name="Group 660" transform="translate(-2.854 0.657)">
      <g id="Group_658" data-name="Group 658" transform="translate(718.854 6448.803)">
        <path id="Path_1660" data-name="Path 1660" d="M23.268,3H16.423A3.423,3.423,0,0,0,13,6.423V26.958a6.845,6.845,0,0,0,13.69,0V6.423A3.423,3.423,0,0,0,23.268,3" transform="translate(4.113 -3)" fill="#fff"/>
        <path id="Path_1661" data-name="Path 1661" d="M18.862,9.189,15.439,5.766a3.423,3.423,0,0,0-4.839,0L5.76,10.606a3.423,3.423,0,0,0,0,4.839l15.4,15.4" transform="translate(-1.749 -1.745)" fill="#fff1e6"/>
        <path id="Path_1662" data-name="Path 1662" d="M10.358,13H6.423A3.423,3.423,0,0,0,3,16.423v6.845A3.423,3.423,0,0,0,6.423,26.69H26.958" transform="translate(-3 4.113)" fill="#ffd4b1"/>
        <line id="Line_104" data-name="Line 104" transform="translate(24.801 23.958)" fill="none" stroke="#f99c4e" stroke-linecap="round" stroke-linejoin="round" stroke-width="5"/>
      </g>
      <g id="Ellipse_573" data-name="Ellipse 573" transform="translate(739.393 6439.605)" fill="#fff" stroke="#f99c4e" stroke-width="2.5">
        <circle cx="13.731" cy="13.731" r="13.731" stroke="none"/>
        <circle cx="13.731" cy="13.731" r="12.481" fill="none"/>
      </g>
      <g id="Group_659" data-name="Group 659" transform="translate(746.766 6447.11)">
        <path id="Path_1666" data-name="Path 1666" d="M-.75,0h2.9" transform="translate(0.75 10.562)" fill="none" stroke="#f99c4e" stroke-linecap="round" stroke-width="2"/>
        <path id="Path_1664" data-name="Path 1664" d="M0,0H3.152" transform="translate(9.242 10.562)" fill="none" stroke="#f99c4e" stroke-linecap="round" stroke-width="2"/>
        <path id="Path_1665" data-name="Path 1665" d="M0,0H6.269" transform="translate(2.659 7.083)" fill="none" stroke="#f99c4e" stroke-linecap="round" stroke-width="2"/>
        <path id="Path_1663" data-name="Path 1663" d="M5,14.3,8.863,4h1.288l4.507,10.3" transform="translate(-3.564 -4)" fill="none" stroke="#f99c4e" stroke-linecap="round" stroke-linejoin="round" stroke-width="2"/>
      </g>
    </g>
  </g>
</svg>
