<svg xmlns="http://www.w3.org/2000/svg" width="72" height="72" viewBox="0 0 72 72">
  <g id="feature_3" transform="translate(-1014 -6427)">
    <rect id="Rectangle_138" data-name="Rectangle 138" width="72" height="72" rx="14" transform="translate(1014 6427)" fill="#fa4f58"/>
    <g id="Group_664" data-name="Group 664" transform="translate(-0.807 2.692)">
      <g id="Group_662" data-name="Group 662" transform="translate(1029.807 6441.308)">
        <path id="Path_1667" data-name="Path 1667" d="M29.721,24.269h3.817a3.817,3.817,0,0,0,3.817-3.817V12.817A3.817,3.817,0,0,0,33.538,9H6.817A3.817,3.817,0,0,0,3,12.817v7.635a3.817,3.817,0,0,0,3.817,3.817h3.817" transform="translate(-3 2.452)" fill="#fff"/>
        <path id="Path_1668" data-name="Path 1668" d="M26.086,14.452V6.817A3.817,3.817,0,0,0,22.269,3H10.817A3.817,3.817,0,0,0,7,6.817v7.635" transform="translate(0.634 -3)" fill="#fa4f58" stroke="#fff" stroke-linecap="round" stroke-linejoin="round" stroke-width="2"/>
        <rect id="Rectangle_222" data-name="Rectangle 222" width="19.012" height="11.494" rx="2" transform="translate(8.148 22.457)" fill="#fa4f58" stroke="#fff" stroke-linecap="round" stroke-linejoin="round" stroke-width="2"/>
      </g>
      <g id="Ellipse_577" data-name="Ellipse 577" transform="translate(1049.94 6455.44)" fill="#fff" stroke="#fa4f58" stroke-width="2.5">
        <circle cx="12.934" cy="12.934" r="12.934" stroke="none"/>
        <circle cx="12.934" cy="12.934" r="11.684" fill="none"/>
      </g>
      <g id="Group_663" data-name="Group 663" transform="translate(1056.176 6463.028)">
        <circle id="Ellipse_574" data-name="Ellipse 574" cx="1.917" cy="1.917" r="1.917" transform="translate(0 3.834)" fill="#fa4f58" stroke="#fa4f58" stroke-linecap="round" stroke-linejoin="round" stroke-width="1"/>
        <circle id="Ellipse_575" data-name="Ellipse 575" cx="1.917" cy="1.917" r="1.917" transform="translate(7.668)" fill="#fa4f58" stroke="#fa4f58" stroke-linecap="round" stroke-linejoin="round" stroke-width="1"/>
        <circle id="Ellipse_576" data-name="Ellipse 576" cx="1.917" cy="1.917" r="1.917" transform="translate(7.668 7.668)" fill="#fa4f58" stroke="#fa4f58" stroke-linecap="round" stroke-linejoin="round" stroke-width="1"/>
        <line id="Line_105" data-name="Line 105" y1="2.064" x2="4.006" transform="translate(3.748 2.898)" fill="none" stroke="#fa4f58" stroke-linecap="round" stroke-linejoin="round" stroke-width="1.5"/>
        <line id="Line_106" data-name="Line 106" x2="4.006" y2="2.064" transform="translate(3.748 6.54)" fill="none" stroke="#fa4f58" stroke-linecap="round" stroke-linejoin="round" stroke-width="1.5"/>
      </g>
    </g>
  </g>
</svg>
