<svg xmlns="http://www.w3.org/2000/svg" width="72" height="72" viewBox="0 0 72 72">
  <g id="feature_1" transform="translate(-394 -6427)">
    <rect id="Rectangle_138" data-name="Rectangle 138" width="72" height="72" rx="14" transform="translate(394 6427)" fill="#00d2ff"/>
    <g id="Group_657" data-name="Group 657" transform="translate(1 0.606)">
      <path id="Subtraction_2" data-name="Subtraction 2" d="M8.217,33.9a3.781,3.781,0,0,1-3.226-1.939,3.557,3.557,0,0,1,.094-3.681,3.679,3.679,0,0,0-2.273-5.49,3.679,3.679,0,0,1,0-7.15,3.681,3.681,0,0,0,2.276-5.492,3.555,3.555,0,0,1-.1-3.679A3.785,3.785,0,0,1,8.22,4.523a3.664,3.664,0,0,1,1.926.561,3.673,3.673,0,0,0,5.49-2.272,3.679,3.679,0,0,1,7.151,0,3.684,3.684,0,0,0,2.168,2.532,3.656,3.656,0,0,0,1.408.28,3.679,3.679,0,0,0,1.915-.537A3.664,3.664,0,0,1,30.2,4.526a3.783,3.783,0,0,1,3.227,1.94,3.555,3.555,0,0,1-.095,3.679,3.7,3.7,0,0,0-.508,2.368L25.591,19.75c.014-.173.023-.354.023-.54a6.4,6.4,0,1,0-6.4,6.4c.18,0,.361-.008.54-.023l-7.233,7.234a3.686,3.686,0,0,0-2.374.509A3.67,3.67,0,0,1,8.217,33.9Z" transform="translate(409 6442)" fill="#fff"/>
      <g id="Group_656" data-name="Group 656" transform="translate(422.994 6455.995)">
        <path id="Path_1658" data-name="Path 1658" d="M9,28.884h6.436L33.673,10.648a4.551,4.551,0,0,0-6.436-6.436L9,22.448v6.436" transform="translate(-9 -2.879)" fill="#fff"/>
        <path id="Path_1659" data-name="Path 1659" d="M0,0,6.465,6.465" transform="translate(15.366 4.193)" fill="none" stroke="#00d2ff" stroke-width="2"/>
      </g>
    </g>
  </g>
</svg>
