<svg xmlns="http://www.w3.org/2000/svg" width="72" height="72" viewBox="0 0 72 72">
  <g id="feature_4" transform="translate(-1324 -6427)">
    <rect id="Rectangle_138" data-name="Rectangle 138" width="72" height="72" rx="14" transform="translate(1324 6427)" fill="#3346d3"/>
    <g id="Group_666" data-name="Group 666" transform="translate(-7 -7.553)">
      <g id="Group_665" data-name="Group 665" transform="translate(1347 6451.553)">
        <rect id="Rectangle_223" data-name="Rectangle 223" width="35.057" height="12.172" rx="1" fill="#fff"/>
        <rect id="Rectangle_224" data-name="Rectangle 224" width="14.713" height="20.843" rx="1" transform="translate(0 17.157)" fill="#fff"/>
      </g>
      <path id="Path_1669" data-name="Path 1669" d="M8.67,13.922V25.261a1.417,1.417,0,0,1-1.417,1.417H4.417A1.417,1.417,0,0,1,3,25.261V15.339a1.417,1.417,0,0,1,1.417-1.417H8.67a5.67,5.67,0,0,0,5.67-5.67V6.835a2.835,2.835,0,1,1,5.67,0v7.087h4.252A2.835,2.835,0,0,1,27.1,16.757l-1.417,7.087c-.419,1.786-1.574,2.942-2.835,2.835H12.922A4.252,4.252,0,0,1,8.67,22.426" transform="translate(1359.904 6462.867)" fill="#fff" stroke="#3346d3" stroke-linecap="round" stroke-linejoin="round" stroke-width="2"/>
    </g>
  </g>
</svg>
