<svg xmlns="http://www.w3.org/2000/svg" xmlns:xlink="http://www.w3.org/1999/xlink" width="28.71" height="28.71" viewBox="0 0 28.71 28.71">
  <defs>
    <clipPath id="clip-path">
      <path id="Path_2035" data-name="Path 2035" d="M14.355,0A14.353,14.353,0,0,0,5.027,25.263a.823.823,0,0,0,.078.068c.031.028.061.053.092.076a14.351,14.351,0,0,0,18.426-.094c.031-.023.063-.051.092-.076s.053-.045.078-.069A14.355,14.355,0,0,0,14.355,0Z" transform="translate(0 0.001)" fill="none"/>
    </clipPath>
  </defs>
  <g id="Harry_Mason" data-name="Harry Mason" transform="translate(0 0.001)">
    <g id="Group_1540" data-name="Group 1540" transform="translate(0 -0.001)">
      <g id="Group_1544" data-name="Group 1544">
        <path id="Path_2016" data-name="Path 2016" d="M28.71,14.355A14.322,14.322,0,0,1,23.794,25.17c-.025.023-.051.045-.078.068s-.061.053-.092.076A14.35,14.35,0,0,1,5.2,25.408c-.031-.023-.061-.049-.092-.076a.851.851,0,0,1-.078-.068A14.354,14.354,0,1,1,28.71,14.355" fill="#dfdfdb"/>
      </g>
    </g>
    <g id="Group_1542" data-name="Group 1542" transform="translate(0 -0.001)">
      <g id="Group_1541" data-name="Group 1541" clip-path="url(#clip-path)">
        <path id="Path_2017" data-name="Path 2017" d="M55.7,27.494a.96.96,0,0,0-.809-.688,14.877,14.877,0,0,0-.021-2.525,5.01,5.01,0,0,0-.424-1.645,4.554,4.554,0,0,0-4.134-2.607c-2.3,0-3.875,1.362-4.676,4.021a7.912,7.912,0,0,0-.3,2.353.52.52,0,0,1-.325.475.955.955,0,0,0-.409.344.977.977,0,0,0,.794,1.465l.22.016A6.914,6.914,0,0,0,47,31.722l-.163,7.844a4.326,4.326,0,0,0,6.684.067l-.244-7.911a9.794,9.794,0,0,0,1.321-3.02l.225-.016a.934.934,0,0,0,.879-1.192" transform="translate(-35.766 -16.114)" fill="#fff"/>
        <path id="Path_2018" data-name="Path 2018" d="M50.085,41.039a4.65,4.65,0,0,1-3.475-1.63L46.6,39.4v-.018l.163-7.825A6.97,6.97,0,0,1,45.39,28.56l-.187-.014a1.074,1.074,0,0,1-.88-.6.917.917,0,0,1,.052-.933,1,1,0,0,1,.429-.361.472.472,0,0,0,.3-.433,7.9,7.9,0,0,1,.3-2.367c.81-2.69,2.4-4.053,4.719-4.053A4.592,4.592,0,0,1,54.3,22.431a5.043,5.043,0,0,1,.427,1.66,14.843,14.843,0,0,1,.024,2.491,1,1,0,0,1,.8.714h0a.942.942,0,0,1-.126.815,1.047,1.047,0,0,1-.793.435l-.192.014a9.864,9.864,0,0,1-1.311,2.99l.244,7.914-.011.013a4.23,4.23,0,0,1-3.227,1.563h-.051m-3.4-1.676a4.558,4.558,0,0,0,3.4,1.586h.049a4.14,4.14,0,0,0,3.148-1.517l-.244-7.906.013-.021a9.766,9.766,0,0,0,1.31-3l.008-.032.258-.019a.957.957,0,0,0,.725-.4.852.852,0,0,0,.114-.738.911.911,0,0,0-.772-.656l-.042-.006,0-.042a14.761,14.761,0,0,0-.021-2.518,4.961,4.961,0,0,0-.419-1.63,4.5,4.5,0,0,0-4.094-2.581c-2.277,0-3.836,1.342-4.633,3.989a7.814,7.814,0,0,0-.3,2.34.561.561,0,0,1-.352.516.913.913,0,0,0-.39.328.829.829,0,0,0-.046.843.984.984,0,0,0,.806.552l.253.019.007.032a6.88,6.88,0,0,0,1.37,3l.012.013Z" transform="translate(-35.577 -15.928)" fill="#211915"/>
        <path id="Path_2019" data-name="Path 2019" d="M63.422,78.623a4.271,4.271,0,0,1-4.554.927,4.139,4.139,0,0,1-1.713-1.068v1.857l.044.011a7.027,7.027,0,0,0,1.792.239A6.3,6.3,0,0,0,63.471,78.7l.2-.284s-.017-.124-.07-.047c-.122.177-.154.235-.176.257" transform="translate(-45.983 -63.028)" fill="#211915"/>
        <path id="Path_2020" data-name="Path 2020" d="M46.765,58.71c-.075-.195-.163-.472-.372-.533-.312-.031-.319.163-.167.392a.017.017,0,0,1-.026.023.4.4,0,0,1-.162-.364.335.335,0,0,1,.383-.184.461.461,0,0,1,.309.28c.032.044.149.489.035.386" transform="translate(-37.034 -46.694)" fill="#1d1d1b"/>
        <path id="Path_2021" data-name="Path 2021" d="M96.528,58.694c.013-.26.1-.581.392-.659.241-.045.5.152.344.4-.014.03-.151.222-.149.128.152-.229.145-.424-.167-.392-.21.062-.3.339-.372.535a.025.025,0,0,1-.048-.009" transform="translate(-77.66 -46.686)" fill="#1d1d1b"/>
        <path id="Path_2022" data-name="Path 2022" d="M87.637,78.79a2.062,2.062,0,0,0,.515-.582l-.157.382Z" transform="translate(-70.507 -62.921)" fill="#211915"/>
        <path id="Path_2023" data-name="Path 2023" d="M61.77,49.617c0,.208-.125.377-.28.377s-.279-.169-.279-.378.125-.377.28-.377.28.169.28.377" transform="translate(-49.246 -39.615)" fill="#211915"/>
        <path id="Path_2024" data-name="Path 2024" d="M82.373,49.622c0,.208-.125.377-.28.377s-.28-.169-.28-.378.125-.377.28-.377.28.169.28.377" transform="translate(-65.822 -39.619)" fill="#211915"/>
        <path id="Path_2025" data-name="Path 2025" d="M55.96,39.871a1.938,1.938,0,0,1,2.945.211,2.006,2.006,0,0,1,.131.832c.023.825,0,1.649-.041,2.473l-.03-.031.837.03-.837.03c-.039,0-.029.008-.03-.031l-.009-1.645a5.719,5.719,0,0,0-.137-1.6,1.938,1.938,0,0,0-2.828-.267" transform="translate(-45.022 -31.615)" fill="#211915"/>
        <path id="Path_2026" data-name="Path 2026" d="M80.858,39.759a2.494,2.494,0,0,0-2.918,0,2.067,2.067,0,0,1,2.918,0" transform="translate(-62.706 -31.502)" fill="#211915"/>
        <path id="Path_2027" data-name="Path 2027" d="M66.475,67.062a1.725,1.725,0,0,0,2.365.253c.1-.078.189-.171.29-.253-.078.1-.158.206-.246.3a1.555,1.555,0,0,1-2.409-.3" transform="translate(-53.482 -53.954)" fill="#211915"/>
        <path id="Path_2028" data-name="Path 2028" d="M55.009,57.925c0,.386-.415.7-.927.7s-.927-.313-.927-.7.415-.7.927-.7.927.313.927.7" transform="translate(-42.765 -46.04)" fill="#f9ced9"/>
        <path id="Path_2029" data-name="Path 2029" d="M85.1,57.925c0,.386-.415.7-.927.7s-.927-.313-.927-.7.415-.7.927-.7.927.313.927.7" transform="translate(-66.974 -46.04)" fill="#f9ced9"/>
        <path id="Path_2030" data-name="Path 2030" d="M54.805,20.1a2.032,2.032,0,0,0,1.541-.687,1.446,1.446,0,0,0,.373-.947c0-1.1-2-1.36-6.208-1.057s-5.568.113-5.739,1.306c-.065.452.627,1.989,2.937,1.686,1.842-.242,5.636-.29,7.1-.3" transform="translate(-36.017 -13.912)" fill="#211915"/>
        <path id="Path_2031" data-name="Path 2031" d="M63.969,11.031a2.826,2.826,0,0,0-1.3-1.362,4.056,4.056,0,0,0-4.48.287,3.523,3.523,0,0,0-1.053,1.3Z" transform="translate(-45.97 -7.344)" fill="#211915"/>
        <path id="Path_2032" data-name="Path 2032" d="M65.133,61.471s-.378-.555-.886-.351-1.224.588-1.224.588,1.32,1.087,2.11-.237" transform="translate(-50.704 -49.137)" fill="#211915"/>
        <path id="Path_2033" data-name="Path 2033" d="M72.717,61.471s.378-.555.886-.351,1.224.588,1.224.588-1.32,1.087-2.11-.237" transform="translate(-58.503 -49.137)" fill="#211915"/>
        <path id="Path_2034" data-name="Path 2034" d="M32.786,105.144c-2.935,1.347-6.472.014-6.509,0-3.682.771-7.007,2.882-7.385,6.531l0,5.573h21.2l.129-5.383c-.31-3.736-3.679-5.931-7.429-6.721" transform="translate(-15.198 -84.592)" fill="#211915"/>
        <line id="Line_155" data-name="Line 155" y2="4.44" transform="translate(8.672 28.217)" fill="none" stroke="#fff" stroke-linecap="round" stroke-miterlimit="10" stroke-width="0.568"/>
        <line id="Line_156" data-name="Line 156" y2="4.44" transform="translate(19.927 28.217)" fill="none" stroke="#fff" stroke-linecap="round" stroke-miterlimit="10" stroke-width="0.568"/>
      </g>
    </g>
  </g>
</svg>
