<svg id="Jaydev_Starc" data-name="Jaydev Starc" xmlns="http://www.w3.org/2000/svg" width="28.71" height="28.809" viewBox="0 0 28.71 28.809">
  <g id="Group_1510" data-name="Group 1510">
    <path id="Path_1882" data-name="Path 1882" d="M9.435,27.844a14.4,14.4,0,0,0,9.838,0ZM15.188,14.83a.109.109,0,0,0-.131-.076l-.42.113a.307.307,0,0,1-.362-.164.326.326,0,0,1-.022-.115V12.838a.106.106,0,0,0-.211,0v1.749a.509.509,0,0,0,.649.483l.42-.111a.107.107,0,0,0,.076-.129m.889.932a.1.1,0,0,0-.149-.014,2.305,2.305,0,0,1-1.341.455,2.891,2.891,0,0,1-1.46-.461.106.106,0,0,0-.147.025.108.108,0,0,0,.025.149,3.064,3.064,0,0,0,1.581.5,2.47,2.47,0,0,0,1.476-.5.105.105,0,0,0,.014-.149m0,0a.1.1,0,0,0-.149-.014,2.305,2.305,0,0,1-1.341.455,2.891,2.891,0,0,1-1.46-.461.106.106,0,0,0-.147.025.108.108,0,0,0,.025.149,3.064,3.064,0,0,0,1.581.5,2.47,2.47,0,0,0,1.476-.5.105.105,0,0,0,.014-.149m-.889-.932a.109.109,0,0,0-.131-.076l-.42.113a.307.307,0,0,1-.362-.164.326.326,0,0,1-.022-.115V12.838a.106.106,0,0,0-.211,0v1.749a.509.509,0,0,0,.649.483l.42-.111a.107.107,0,0,0,.076-.129m0,0a.109.109,0,0,0-.131-.076l-.42.113a.307.307,0,0,1-.362-.164.326.326,0,0,1-.022-.115V12.838a.106.106,0,0,0-.211,0v1.749a.509.509,0,0,0,.649.483l.42-.111a.107.107,0,0,0,.076-.129m.889.932a.1.1,0,0,0-.149-.014,2.305,2.305,0,0,1-1.341.455,2.891,2.891,0,0,1-1.46-.461.106.106,0,0,0-.147.025.108.108,0,0,0,.025.149,3.064,3.064,0,0,0,1.581.5,2.47,2.47,0,0,0,1.476-.5.105.105,0,0,0,.014-.149m.651-2.162-.919-.694a.057.057,0,0,0-.068.09l.921.694a.053.053,0,0,0,.033.012.057.057,0,0,0,.033-.1m-.3-1.562a.418.418,0,1,0,.42.418.419.419,0,0,0-.42-.418m-.356,3.724a.1.1,0,0,0-.149-.014,2.305,2.305,0,0,1-1.341.455,2.891,2.891,0,0,1-1.46-.461.106.106,0,0,0-.147.025.108.108,0,0,0,.025.149,3.064,3.064,0,0,0,1.581.5,2.47,2.47,0,0,0,1.476-.5.105.105,0,0,0,.014-.149m-.889-.932a.109.109,0,0,0-.131-.076l-.42.113a.307.307,0,0,1-.362-.164.326.326,0,0,1-.022-.115V12.838a.106.106,0,0,0-.211,0v1.749a.509.509,0,0,0,.649.483l.42-.111a.107.107,0,0,0,.076-.129m1.245-2.791a.418.418,0,1,0,.42.418.419.419,0,0,0-.42-.418m.3,1.562-.919-.694a.057.057,0,0,0-.068.09l.921.694a.053.053,0,0,0,.033.012.057.057,0,0,0,.033-.1m-4.193-1.562a.418.418,0,1,0,.418.418.418.418,0,0,0-.418-.418m.8.807a.053.053,0,0,0-.076-.016l-1.04.686a.057.057,0,0,0-.018.078.058.058,0,0,0,.047.023.057.057,0,0,0,.031-.008l1.04-.688a.053.053,0,0,0,.016-.076m1.849,1.984a.109.109,0,0,0-.131-.076l-.42.113a.307.307,0,0,1-.362-.164.326.326,0,0,1-.022-.115V12.838a.106.106,0,0,0-.211,0v1.749a.509.509,0,0,0,.649.483l.42-.111a.107.107,0,0,0,.076-.129m.889.932a.1.1,0,0,0-.149-.014,2.305,2.305,0,0,1-1.341.455,2.891,2.891,0,0,1-1.46-.461.106.106,0,0,0-.147.025.108.108,0,0,0,.025.149,3.064,3.064,0,0,0,1.581.5,2.47,2.47,0,0,0,1.476-.5.105.105,0,0,0,.014-.149m.651-2.162-.919-.694a.057.057,0,0,0-.068.09l.921.694a.053.053,0,0,0,.033.012.057.057,0,0,0,.033-.1m-.3-1.562a.418.418,0,1,0,.42.418.419.419,0,0,0-.42-.418m-.356,3.724a.1.1,0,0,0-.149-.014,2.305,2.305,0,0,1-1.341.455,2.891,2.891,0,0,1-1.46-.461.106.106,0,0,0-.147.025.108.108,0,0,0,.025.149,3.064,3.064,0,0,0,1.581.5,2.47,2.47,0,0,0,1.476-.5.105.105,0,0,0,.014-.149m-1.527-.672a.5.5,0,0,0,.141-.02l.42-.111a.107.107,0,0,0,.076-.129.109.109,0,0,0-.131-.076l-.42.113a.307.307,0,0,1-.362-.164.326.326,0,0,1-.022-.115V12.838a.106.106,0,0,0-.211,0v1.749a.5.5,0,0,0,.508.5m-1.212-2.244a.053.053,0,0,0-.076-.016l-1.04.686a.057.057,0,0,0-.018.078.058.058,0,0,0,.047.023.057.057,0,0,0,.031-.008l1.04-.688a.053.053,0,0,0,.016-.076m-.8.029a.418.418,0,1,0-.418-.418.418.418,0,0,0,.418.418m3.9,0a.418.418,0,1,0-.418-.418.418.418,0,0,0,.418.418m-.624.031a.057.057,0,0,0-.068.09l.921.694a.053.053,0,0,0,.033.012.057.057,0,0,0,.033-.1ZM14.355,0A14.355,14.355,0,0,0,0,14.355v.1c0,.117,0,.233.006.35A14.319,14.319,0,0,0,5.027,25.264a.852.852,0,0,0,.078.068c.031.027.061.053.092.076s.057.047.084.068l.1.082.072.059c.311.244.633.479.964.7H22.3a13.76,13.76,0,0,0,1.241-.928c.029-.022.057-.045.084-.068l0,0c.029-.022.059-.047.086-.07l.006-.006c.027-.023.053-.045.078-.068A14.32,14.32,0,0,0,28.7,14.8q.006-.173.006-.346v-.1A14.355,14.355,0,0,0,14.355,0m4.478,12.418-.625.493a1.8,1.8,0,0,0-1.349-2.1h1.073l-.819-.463a1.835,1.835,0,0,0-.665-.186l-1.185-.1c.037.055.256.749.256.749h.489a1.809,1.809,0,0,0-1.378,1.644.6.6,0,0,0-.7.01,1.808,1.808,0,0,0-1.378-1.654h.94s.219-.694.256-.749l-1.185.1a1.846,1.846,0,0,0-.665.186l-.817.463h.62a1.807,1.807,0,0,0-1.384,1.755,1.761,1.761,0,0,0,.033.34l-.416-.328c0-.008,0-.014,0-.022v0a4.713,4.713,0,0,0,.51-2.316,18.4,18.4,0,0,0,6.64-2.332,15.533,15.533,0,0,0,1.753,4.5Zm-2.4,1.851a1.7,1.7,0,1,1,1.7-1.7,1.7,1.7,0,0,1-1.7,1.7m-5.952-1.253a1.7,1.7,0,1,1,3.344-.45v0a1.7,1.7,0,0,1-3.339.471.052.052,0,0,0-.006-.023m-.753.02c.016.231.039.479.07.737a1.469,1.469,0,0,0-.109-.127.057.057,0,0,0-.022-.022.845.845,0,0,0-.819-.27.057.057,0,0,0,.035.108.706.706,0,0,1,.667.2.794.794,0,0,0-.346.459.6.6,0,0,0,.158.508.063.063,0,0,0,.043.02.064.064,0,0,0,.037-.012.058.058,0,0,0,.006-.08.5.5,0,0,1-.135-.412.7.7,0,0,1,.317-.4,1.472,1.472,0,0,1,.2.281v0c.049.379.117.776.207,1.181v0a.4.4,0,0,1-.328.162A1.182,1.182,0,0,1,8.9,14.75a2.386,2.386,0,0,1-.3-1.6.615.615,0,0,1,.264-.409c.414-.246.784.19.866.3m.211-.319.448.352a1.806,1.806,0,0,0,3.542-.477.507.507,0,0,1,.7,0,1.807,1.807,0,0,0,3.542.483l.661-.52c-.047,1.593-.348,4.394-1.785,5.93a3.425,3.425,0,0,1-2.6,1.1,3.489,3.489,0,0,1-2.623-1.1c-1.415-1.486-1.79-4.144-1.882-5.762m9.928,2.033a1.179,1.179,0,0,1-.809.622.4.4,0,0,1-.3-.125c.09-.43.154-.854.2-1.257v0a1.3,1.3,0,0,1,.178-.242.683.683,0,0,1,.315.4.5.5,0,0,1-.135.412.056.056,0,0,0,.043.092.063.063,0,0,0,.043-.02.6.6,0,0,0,.158-.508.79.79,0,0,0-.344-.459.7.7,0,0,1,.665-.2.057.057,0,0,0,.035-.108.846.846,0,0,0-.819.27l-.006.006a.027.027,0,0,0-.012.014,0,0,0,0,0,0,0,1,1,0,0,0-.094.108c.023-.252.041-.495.055-.721.09-.115.453-.536.866-.291a.607.607,0,0,1,.262.409,2.386,2.386,0,0,1-.3,1.6m-8.409,7.068a.116.116,0,0,0,.014-.057V18.431A7,7,0,0,0,13.8,20.985a2.431,2.431,0,0,0,3.167-.62,2.953,2.953,0,0,0,.424-.846v2.242a.1.1,0,0,0,0,.023c.168.782,1.683,1.343,2.682,1.632H9.04a4.127,4.127,0,0,0,2.418-1.6M5.921,25.182A12.235,12.235,0,0,1,8.112,23.64h13.01a12.329,12.329,0,0,1,2.189,1.542ZM16.433,12.039a.418.418,0,1,0,.42.418.419.419,0,0,0-.42-.418m-.624.868a.057.057,0,0,0-.068.09l.921.694a.053.053,0,0,0,.033.012.057.057,0,0,0,.033-.1Zm-1.222,3.509a2.47,2.47,0,0,0,1.476-.5.105.105,0,0,0,.014-.149.1.1,0,0,0-.149-.014,2.305,2.305,0,0,1-1.341.455,2.891,2.891,0,0,1-1.46-.461.106.106,0,0,0-.147.025.108.108,0,0,0,.025.149,3.064,3.064,0,0,0,1.581.5m-.037-1.325a.5.5,0,0,0,.141-.02l.42-.111a.107.107,0,0,0,.076-.129.109.109,0,0,0-.131-.076l-.42.113a.307.307,0,0,1-.362-.164.326.326,0,0,1-.022-.115V12.838a.106.106,0,0,0-.211,0v1.749a.5.5,0,0,0,.508.5m-2.346-1.5a.058.058,0,0,0,.047.023.057.057,0,0,0,.031-.008l1.04-.688a.055.055,0,1,0-.061-.092l-1.04.686a.057.057,0,0,0-.018.078m.33-.719a.418.418,0,1,0-.418-.418.418.418,0,0,0,.418.418m0-.837a.418.418,0,1,0,.418.418.418.418,0,0,0-.418-.418m.8.807a.053.053,0,0,0-.076-.016l-1.04.686a.057.057,0,0,0-.018.078.058.058,0,0,0,.047.023.057.057,0,0,0,.031-.008l1.04-.688a.053.053,0,0,0,.016-.076m3.389.755-.919-.694a.057.057,0,0,0-.068.09l.921.694a.053.053,0,0,0,.033.012.057.057,0,0,0,.033-.1m-.3-1.562a.418.418,0,1,0,.42.418.419.419,0,0,0-.42-.418M15.188,14.83a.109.109,0,0,0-.131-.076l-.42.113a.307.307,0,0,1-.362-.164.326.326,0,0,1-.022-.115V12.838a.106.106,0,0,0-.211,0v1.749a.509.509,0,0,0,.649.483l.42-.111a.107.107,0,0,0,.076-.129m.889.932a.1.1,0,0,0-.149-.014,2.305,2.305,0,0,1-1.341.455,2.891,2.891,0,0,1-1.46-.461.106.106,0,0,0-.147.025.108.108,0,0,0,.025.149,3.064,3.064,0,0,0,1.581.5,2.47,2.47,0,0,0,1.476-.5.105.105,0,0,0,.014-.149m.356-3.724a.418.418,0,1,0,.42.418.419.419,0,0,0-.42-.418m.3,1.562-.919-.694a.057.057,0,0,0-.068.09l.921.694a.053.053,0,0,0,.033.012.057.057,0,0,0,.033-.1m-.651,2.162a.1.1,0,0,0-.149-.014,2.305,2.305,0,0,1-1.341.455,2.891,2.891,0,0,1-1.46-.461.106.106,0,0,0-.147.025.108.108,0,0,0,.025.149,3.064,3.064,0,0,0,1.581.5,2.47,2.47,0,0,0,1.476-.5.105.105,0,0,0,.014-.149m-.889-.932a.109.109,0,0,0-.131-.076l-.42.113a.307.307,0,0,1-.362-.164.326.326,0,0,1-.022-.115V12.838a.106.106,0,0,0-.211,0v1.749a.509.509,0,0,0,.649.483l.42-.111a.107.107,0,0,0,.076-.129m-1.849-1.984a.053.053,0,0,0-.076-.016l-1.04.686a.057.057,0,0,0-.018.078.058.058,0,0,0,.047.023.057.057,0,0,0,.031-.008l1.04-.688a.053.053,0,0,0,.016-.076m-.8-.807a.418.418,0,1,0,.418.418.418.418,0,0,0-.418-.418m2.653,2.791a.109.109,0,0,0-.131-.076l-.42.113a.307.307,0,0,1-.362-.164.326.326,0,0,1-.022-.115V12.838a.106.106,0,0,0-.211,0v1.749a.509.509,0,0,0,.649.483l.42-.111a.107.107,0,0,0,.076-.129m.889.932a.1.1,0,0,0-.149-.014,2.305,2.305,0,0,1-1.341.455,2.891,2.891,0,0,1-1.46-.461.106.106,0,0,0-.147.025.108.108,0,0,0,.025.149,3.064,3.064,0,0,0,1.581.5,2.47,2.47,0,0,0,1.476-.5.105.105,0,0,0,.014-.149m0,0a.1.1,0,0,0-.149-.014,2.305,2.305,0,0,1-1.341.455,2.891,2.891,0,0,1-1.46-.461.106.106,0,0,0-.147.025.108.108,0,0,0,.025.149,3.064,3.064,0,0,0,1.581.5,2.47,2.47,0,0,0,1.476-.5.105.105,0,0,0,.014-.149m-.889-.932a.109.109,0,0,0-.131-.076l-.42.113a.307.307,0,0,1-.362-.164.326.326,0,0,1-.022-.115V12.838a.106.106,0,0,0-.211,0v1.749a.509.509,0,0,0,.649.483l.42-.111a.107.107,0,0,0,.076-.129m0,0a.109.109,0,0,0-.131-.076l-.42.113a.307.307,0,0,1-.362-.164.326.326,0,0,1-.022-.115V12.838a.106.106,0,0,0-.211,0v1.749a.509.509,0,0,0,.649.483l.42-.111a.107.107,0,0,0,.076-.129m.889.932a.1.1,0,0,0-.149-.014,2.305,2.305,0,0,1-1.341.455,2.891,2.891,0,0,1-1.46-.461.106.106,0,0,0-.147.025.108.108,0,0,0,.025.149,3.064,3.064,0,0,0,1.581.5,2.47,2.47,0,0,0,1.476-.5.105.105,0,0,0,.014-.149m0,0a.1.1,0,0,0-.149-.014,2.305,2.305,0,0,1-1.341.455,2.891,2.891,0,0,1-1.46-.461.106.106,0,0,0-.147.025.108.108,0,0,0,.025.149,3.064,3.064,0,0,0,1.581.5,2.47,2.47,0,0,0,1.476-.5.105.105,0,0,0,.014-.149m-.889-.932a.109.109,0,0,0-.131-.076l-.42.113a.307.307,0,0,1-.362-.164.326.326,0,0,1-.022-.115V12.838a.106.106,0,0,0-.211,0v1.749a.509.509,0,0,0,.649.483l.42-.111a.107.107,0,0,0,.076-.129" fill="#dfdfdb"/>
    <path id="Path_1883" data-name="Path 1883" d="M58.9,37.166a5.551,5.551,0,0,0-1.208-3.835,4.182,4.182,0,0,0-3.217-1.241,4.755,4.755,0,0,0-3.6,1.347A5.493,5.493,0,0,0,49.55,37.16c0,.063-.023.551.008,1.265v0c0,.025,0,.047,0,.072v0c.008.111.014.229.023.35.016.231.039.479.07.737v0c.008.082.02.164.031.25v0c.049.379.117.776.207,1.181v0c.02.086.039.168.061.254a7.667,7.667,0,0,0,1.183,2.713c.057.08.115.156.178.231a0,0,0,0,1,0,0l.012.014q.091.108.188.211A3.709,3.709,0,0,0,54.3,45.624a3.644,3.644,0,0,0,2.764-1.171c.065-.068.125-.139.186-.213s.131-.164.19-.25a.119.119,0,0,0,.02-.027,7.566,7.566,0,0,0,1.1-2.654c.02-.082.037-.162.053-.244.09-.43.154-.854.2-1.257v0c.01-.08.018-.158.025-.235.023-.252.041-.495.055-.721.006-.117.01-.229.014-.338v0c0-.127.008-.244.008-.356v0c.006-.541-.014-.909-.02-.985m-2,7.135a3.425,3.425,0,0,1-2.6,1.1,3.489,3.489,0,0,1-2.623-1.1c-1.415-1.486-1.79-4.144-1.882-5.762,0-.047-.006-.094-.008-.139,0-.008,0-.014,0-.022v0c-.035-.715-.014-1.192-.014-1.212a5.377,5.377,0,0,1,1.263-3.571,4.546,4.546,0,0,1,3.438-1.276,3.969,3.969,0,0,1,3.053,1.169,5.443,5.443,0,0,1,1.149,3.675v.018c0,.014.025.42.014,1.046v.016c0,.043,0,.088,0,.135-.047,1.593-.348,4.394-1.785,5.93" transform="translate(-39.857 -25.817)" fill="#1a1a1a"/>
    <path id="Path_1884" data-name="Path 1884" d="M96.335,66.08a1.369,1.369,0,0,1-.991.725h-.021a.575.575,0,0,1-.336-.1.638.638,0,0,1-.176-.172l.18-.131a.487.487,0,0,0,.049.059.4.4,0,0,0,.3.125,1.179,1.179,0,0,0,.809-.622,2.386,2.386,0,0,0,.3-1.6.606.606,0,0,0-.262-.409c-.412-.244-.776.176-.866.291a.206.206,0,0,1-.02.027l-.184-.127a1.249,1.249,0,0,1,.217-.238v0a.806.806,0,0,1,.966-.145.832.832,0,0,1,.366.547,2.642,2.642,0,0,1-.328,1.775" transform="translate(-76.278 -51.211)" fill="#1a1a1a"/>
    <path id="Path_1885" data-name="Path 1885" d="M97.189,68.3a.057.057,0,0,1-.07.035.7.7,0,0,0-.665.2.824.824,0,0,0-.08.084,1.3,1.3,0,0,0-.178.242v0a1.779,1.779,0,0,0-.088.162.056.056,0,0,1-.051.031.06.06,0,0,1-.025-.006.056.056,0,0,1-.025-.074,1.9,1.9,0,0,1,.215-.35,1,1,0,0,1,.094-.108,0,0,0,0,1,0,0c0-.006.008-.01.012-.014l.006-.006a.846.846,0,0,1,.819-.27.058.058,0,0,1,.035.072" transform="translate(-77.236 -54.878)" fill="#1a1a1a"/>
    <path id="Path_1886" data-name="Path 1886" d="M97.9,70.675a.063.063,0,0,1-.043.02.056.056,0,0,1-.043-.092.5.5,0,0,0,.135-.412.683.683,0,0,0-.315-.4.294.294,0,0,0-.037-.023.055.055,0,0,1-.021-.076,0,0,0,0,1,0,0c0-.006.008-.01.012-.014l.006-.006a.055.055,0,0,1,.055,0,.522.522,0,0,1,.065.037.79.79,0,0,1,.344.459.6.6,0,0,1-.158.508" transform="translate(-78.5 -56.046)" fill="#1a1a1a"/>
    <path id="Path_1887" data-name="Path 1887" d="M44.551,66.528a.754.754,0,0,1-.139.145.576.576,0,0,1-.373.131h-.023a1.375,1.375,0,0,1-.991-.725A2.653,2.653,0,0,1,42.7,64.3a.828.828,0,0,1,.367-.547.8.8,0,0,1,.956.137v0l.023.02q.047.044.088.088a1.109,1.109,0,0,1,.113.139l-.184.127-.018-.023c-.082-.106-.452-.541-.866-.3a.615.615,0,0,0-.264.409,2.386,2.386,0,0,0,.3,1.6,1.182,1.182,0,0,0,.809.622.4.4,0,0,0,.328-.162v0a.079.079,0,0,0,.018-.02Z" transform="translate(-34.315 -51.209)" fill="#1a1a1a"/>
    <path id="Path_1888" data-name="Path 1888" d="M46.235,69.055a.052.052,0,0,1-.023.006.056.056,0,0,1-.051-.031c-.021-.045-.043-.086-.066-.125v0a1.472,1.472,0,0,0-.2-.281c-.027-.029-.053-.057-.08-.082a.706.706,0,0,0-.667-.2.057.057,0,0,1-.035-.108.845.845,0,0,1,.819.27.057.057,0,0,1,.022.022,1.467,1.467,0,0,1,.109.127v0a1.942,1.942,0,0,1,.2.328.056.056,0,0,1-.025.074" transform="translate(-36.264 -54.878)" fill="#1a1a1a"/>
    <path id="Path_1889" data-name="Path 1889" d="M47.512,69.768l-.035.021a.7.7,0,0,0-.317.4.5.5,0,0,0,.135.412.058.058,0,0,1-.006.08.064.064,0,0,1-.037.012.063.063,0,0,1-.043-.02.6.6,0,0,1-.158-.508.794.794,0,0,1,.346-.459.6.6,0,0,1,.063-.037.055.055,0,0,1,.055,0,.057.057,0,0,1,.022.021.058.058,0,0,1-.023.076" transform="translate(-37.846 -56.046)" fill="#1a1a1a"/>
    <path id="Path_1890" data-name="Path 1890" d="M72.909,67.366l-.42.111a.5.5,0,0,1-.649-.483V65.246a.106.106,0,1,1,.211,0v1.749a.326.326,0,0,0,.021.115.307.307,0,0,0,.362.164l.42-.113a.109.109,0,0,1,.131.076.107.107,0,0,1-.076.129" transform="translate(-57.798 -52.407)" fill="#1a1a1a"/>
    <path id="Path_1891" data-name="Path 1891" d="M59.346,51.48c-.037.055-.256.749-.256.749H56.68l.817-.463a1.846,1.846,0,0,1,.665-.186Z" transform="translate(-45.601 -41.417)" fill="#1a1a1a"/>
    <path id="Path_1892" data-name="Path 1892" d="M80.758,52.229H78.346s-.219-.694-.256-.749l1.185.1a1.835,1.835,0,0,1,.665.186Z" transform="translate(-62.826 -41.417)" fill="#1a1a1a"/>
    <path id="Path_1893" data-name="Path 1893" d="M62.827,62.008a.418.418,0,1,1-.418-.418.418.418,0,0,1,.418.418" transform="translate(-49.873 -49.551)" fill="#1a1a1a"/>
    <path id="Path_1894" data-name="Path 1894" d="M82.769,62.008a.419.419,0,1,1-.42-.418.418.418,0,0,1,.42.418" transform="translate(-65.915 -49.551)" fill="#1a1a1a"/>
    <path id="Path_1895" data-name="Path 1895" d="M63.523,65.691l-1.04.688a.057.057,0,0,1-.031.008.058.058,0,0,1-.047-.023.057.057,0,0,1,.018-.078l1.04-.686a.055.055,0,0,1,.061.092" transform="translate(-50.2 -52.768)" fill="#1a1a1a"/>
    <path id="Path_1896" data-name="Path 1896" d="M81.44,66.758a.055.055,0,0,1-.045.023.053.053,0,0,1-.033-.012l-.921-.694a.057.057,0,0,1,.068-.09l.919.694a.055.055,0,0,1,.012.078" transform="translate(-64.7 -53.079)" fill="#1a1a1a"/>
    <path id="Path_1897" data-name="Path 1897" d="M69.415,80.629a2.47,2.47,0,0,1-1.476.5,3.064,3.064,0,0,1-1.581-.5.108.108,0,0,1-.025-.149.106.106,0,0,1,.147-.025,2.891,2.891,0,0,0,1.46.461,2.305,2.305,0,0,0,1.341-.455.1.1,0,0,1,.149.014.105.105,0,0,1-.014.149" transform="translate(-53.351 -64.717)" fill="#1a1a1a"/>
    <path id="Path_1898" data-name="Path 1898" d="M56.382,56.754a1.806,1.806,0,0,0-1.8-1.7,1.787,1.787,0,0,0-.424.051,1.807,1.807,0,0,0-1.384,1.755,1.761,1.761,0,0,0,.033.34,1.154,1.154,0,0,0,.039.162,1.806,1.806,0,0,0,3.542-.477v-.025c0-.033,0-.068,0-.1m-1.8,1.8a1.706,1.706,0,0,1-1.636-1.229.052.052,0,0,0-.006-.023,1.7,1.7,0,1,1,3.344-.45v0a1.7,1.7,0,0,1-1.7,1.7" transform="translate(-42.455 -44.289)" fill="#1a1a1a"/>
    <path id="Path_1899" data-name="Path 1899" d="M77.062,55.1a1.807,1.807,0,0,0-2.228,1.644c0,.037,0,.074,0,.111v.023a1.807,1.807,0,0,0,3.542.483,1.509,1.509,0,0,0,.039-.162,1.8,1.8,0,0,0-1.349-2.1m-.426,3.458a1.7,1.7,0,1,1,1.7-1.7,1.7,1.7,0,0,1-1.7,1.7" transform="translate(-60.203 -44.289)" fill="#1a1a1a"/>
    <path id="Path_1900" data-name="Path 1900" d="M71.635,63.369a.046.046,0,0,1-.016.037.053.053,0,0,1-.035.016.053.053,0,0,1-.037-.016.1.1,0,0,0-.016-.014.507.507,0,0,0-.7,0l-.016.014a.053.053,0,0,1-.074,0,.046.046,0,0,1-.014-.033v0a.05.05,0,0,1,.016-.037s.033-.029.086-.065a.6.6,0,0,1,.79.065.052.052,0,0,1,.014.037" transform="translate(-56.905 -50.803)" fill="#1a1a1a"/>
    <path id="Path_1901" data-name="Path 1901" d="M50.668,64.493a.053.053,0,0,1-.012.033.055.055,0,0,1-.041.02.053.053,0,0,1-.033-.012l-.014-.012-.448-.352-.063-.049-.094-.074a.051.051,0,0,1-.01-.072.053.053,0,0,1,.074-.01l.076.059.008.008.416.328.117.092a.125.125,0,0,1,.016.018.052.052,0,0,1,.006.023" transform="translate(-40.182 -51.453)" fill="#1a1a1a"/>
    <path id="Path_1902" data-name="Path 1902" d="M93.372,63.223l-.09.07-.063.049-.661.52-.01.008a.053.053,0,0,1-.033.012.055.055,0,0,1-.041-.02.053.053,0,0,1,.01-.074L92.6,63.7l.625-.493.006-.006.078-.061a.05.05,0,0,1,.072.008.051.051,0,0,1-.008.074" transform="translate(-74.39 -50.789)" fill="#1a1a1a"/>
    <path id="Path_1903" data-name="Path 1903" d="M56.862,34.459v0c-.031.1-.061.207-.092.309,0,0-.029-.049-.078-.141-.016-.025-.033-.057-.053-.092a.043.043,0,0,1-.006-.01,15.533,15.533,0,0,1-1.753-4.5,18.4,18.4,0,0,1-6.64,2.332,4.713,4.713,0,0,1-.51,2.316v0l-.006.014c-.016.035-.031.068-.047.1-.023.051-.043.092-.061.125-.025.053-.041.082-.041.082l-.047-.17h0v0c-.008-.031-.016-.061-.025-.092v0c-.889-3.27-1.317-7.232,4.664-7.232,6.288,0,5.592,3.909,4.7,6.959" transform="translate(-37.8 -22.125)" fill="#1a1a1a"/>
    <path id="Path_1904" data-name="Path 1904" d="M45.237,121.637l-.047.04-.043.036c-.016.013-.033.027-.049.038l-.031.025c-.02-.017-.037-.034-.057-.05-.076-.071-.15-.136-.224-.2a12.316,12.316,0,0,0-2.185-1.508H29.619a12.222,12.222,0,0,0-2.187,1.508c-.154.134-.31.275-.466.426-.018.017-.037.034-.055.054-.023-.021-.047-.038-.07-.057l-.1-.08c.018-.019.037-.036.055-.054a12.507,12.507,0,0,1,2.741-2,.123.123,0,0,1,.037-.013h0l.016,0H42.629a.116.116,0,0,1,.051.011,12.526,12.526,0,0,1,2.5,1.776c.018.015.035.032.053.05" transform="translate(-21.474 -96.383)"/>
    <path id="Path_1905" data-name="Path 1905" d="M45.472,129.022c-.016.014-.033.027-.049.039l-.031.025a13.905,13.905,0,0,1-1.145.878H28.2c-.3-.2-.586-.42-.865-.643-.023-.022-.047-.039-.07-.059l.052-.055.361-.377H45.29l.13.137Z" transform="translate(-21.799 -103.648)"/>
    <path id="Path_1906" data-name="Path 1906" d="M57.556,142.45a13.613,13.613,0,0,1-10.606,0Z" transform="translate(-37.755 -114.717)"/>
    <path id="Path_1907" data-name="Path 1907" d="M53.9,98.209a.112.112,0,0,1-.111.1H40.9a.111.111,0,0,1-.057-.207.121.121,0,0,1,.037-.014h0l.016,0A4.608,4.608,0,0,0,44.064,96.4V92.921a.108.108,0,0,1,.031-.076.109.109,0,0,1,.08-.035.111.111,0,0,1,.111.111V96.43a.116.116,0,0,1-.014.057,4.127,4.127,0,0,1-2.418,1.6H52.893c-1-.289-2.514-.85-2.682-1.632a.1.1,0,0,1,0-.023V92.921a.113.113,0,0,1,.111-.111.087.087,0,0,1,.039.008.1.1,0,0,1,.039.023.138.138,0,0,1,.02.027.1.1,0,0,1,.014.053v3.5c.2.829,2.488,1.484,3.37,1.667l.01,0a.113.113,0,0,1,.088.121" transform="translate(-32.815 -74.669)" fill="#1a1a1a"/>
    <path id="Path_1908" data-name="Path 1908" d="M64.647,92.47c0,.023,0,.047,0,.07a.256.256,0,0,1,0,.055,4.421,4.421,0,0,1-.209,1.319,2.953,2.953,0,0,1-.424.846,2.431,2.431,0,0,1-3.167.62,7,7,0,0,1-2.332-2.555A.214.214,0,0,0,58.5,92.8c-.021-.039-.031-.061-.031-.061l.043.039a5.047,5.047,0,0,0,3.208,1.308,4.162,4.162,0,0,0,2.715-1.378c.065-.068.115-.127.151-.168s.061-.074.061-.074" transform="translate(-47.041 -74.395)" fill="#1a1a1a"/>
    <path id="Path_1909" data-name="Path 1909" d="M57.288,99.276H46.25a4.127,4.127,0,0,0,2.418-1.6.116.116,0,0,0,.014-.057V94.29a7,7,0,0,0,2.332,2.555,2.431,2.431,0,0,0,3.167-.62,2.953,2.953,0,0,0,.424-.846v2.242a.1.1,0,0,0,0,.023c.168.782,1.683,1.343,2.682,1.632" transform="translate(-37.21 -75.859)" fill="#fff"/>
    <path id="Path_1910" data-name="Path 1910" d="M59.7,44.946v.016l-.625.493a1.8,1.8,0,0,0-1.349-2.1H58.8l-.819-.463a1.835,1.835,0,0,0-.665-.186l-1.185-.1c.037.055.256.749.256.749h.489A1.809,1.809,0,0,0,55.5,45a.6.6,0,0,0-.7.01,1.808,1.808,0,0,0-1.378-1.654h.94s.219-.694.256-.749l-1.185.1a1.846,1.846,0,0,0-.665.186l-.817.463h.62a1.807,1.807,0,0,0-1.384,1.755,1.76,1.76,0,0,0,.033.34l-.416-.328c0-.008,0-.014,0-.022v0a4.713,4.713,0,0,0,.51-2.316,18.4,18.4,0,0,0,6.64-2.332,15.533,15.533,0,0,0,1.753,4.5" transform="translate(-40.87 -32.543)" fill="#fff"/>
    <path id="Path_1911" data-name="Path 1911" d="M55.013,55.58a1.7,1.7,0,0,0-1.642,2.152.052.052,0,0,1,.006.023,1.7,1.7,0,0,0,3.339-.471v0a1.705,1.705,0,0,0-1.7-1.7m-.006,1.593a.418.418,0,1,1,.418.418.418.418,0,0,1-.418-.418m1.206.465-1.04.688a.057.057,0,0,1-.031.008.058.058,0,0,1-.047-.023.057.057,0,0,1,.018-.078l1.04-.686a.055.055,0,1,1,.061.092" transform="translate(-42.89 -44.716)" fill="#fff"/>
    <path id="Path_1912" data-name="Path 1912" d="M77.063,55.58a1.7,1.7,0,1,0,1.7,1.7,1.705,1.705,0,0,0-1.7-1.7m.307,2.815a.055.055,0,0,1-.045.023.053.053,0,0,1-.033-.012l-.921-.694a.057.057,0,0,1,.068-.09l.919.694a.055.055,0,0,1,.012.078m-.307-.8a.418.418,0,1,1,.42-.418.418.418,0,0,1-.42.418" transform="translate(-60.63 -44.716)" fill="#fff"/>
    <path id="Path_1913" data-name="Path 1913" d="M45.265,67.341v0a.4.4,0,0,1-.328.162,1.182,1.182,0,0,1-.809-.622,2.386,2.386,0,0,1-.3-1.6.615.615,0,0,1,.264-.409c.414-.246.784.19.866.3.016.231.039.479.07.737a1.468,1.468,0,0,0-.109-.127.057.057,0,0,0-.022-.022.845.845,0,0,0-.819-.27.057.057,0,0,0,.035.108.706.706,0,0,1,.667.2.794.794,0,0,0-.346.459.6.6,0,0,0,.158.508.063.063,0,0,0,.043.02.064.064,0,0,0,.037-.012.058.058,0,0,0,.006-.08.5.5,0,0,1-.135-.412.7.7,0,0,1,.317-.4,1.471,1.471,0,0,1,.2.281v0c.049.379.117.776.207,1.181" transform="translate(-35.227 -52.134)" fill="#fff"/>
    <path id="Path_1914" data-name="Path 1914" d="M97.086,66.88a1.179,1.179,0,0,1-.809.622.4.4,0,0,1-.3-.125c.09-.43.154-.854.2-1.257v0a1.3,1.3,0,0,1,.178-.242.683.683,0,0,1,.315.4.5.5,0,0,1-.135.412.056.056,0,0,0,.043.092.063.063,0,0,0,.043-.02.6.6,0,0,0,.158-.508.79.79,0,0,0-.344-.459.7.7,0,0,1,.665-.2.057.057,0,0,0,.035-.108.846.846,0,0,0-.819.27l-.006.006a.027.027,0,0,0-.012.014,0,0,0,0,0,0,0,1,1,0,0,0-.094.108c.023-.252.041-.495.055-.721.09-.115.453-.536.866-.291a.607.607,0,0,1,.262.409,2.386,2.386,0,0,1-.3,1.6" transform="translate(-77.219 -52.13)" fill="#fff"/>
    <path id="Path_1915" data-name="Path 1915" d="M59.079,64.306a1.807,1.807,0,0,1-3.542-.483.507.507,0,0,0-.7,0A1.806,1.806,0,0,1,51.3,64.3l-.448-.352c.092,1.618.467,4.277,1.882,5.762a3.489,3.489,0,0,0,2.623,1.1,3.425,3.425,0,0,0,2.6-1.1c1.437-1.536,1.738-4.337,1.785-5.93Zm-4.126-.235a.106.106,0,0,1,.211,0v1.749a.326.326,0,0,0,.021.115.307.307,0,0,0,.362.164l.42-.113a.109.109,0,0,1,.131.076.107.107,0,0,1-.076.129l-.42.111a.5.5,0,0,1-.649-.483Zm2.021,3.073a2.47,2.47,0,0,1-1.476.5,3.064,3.064,0,0,1-1.581-.5A.108.108,0,0,1,53.891,67a.106.106,0,0,1,.147-.025,2.891,2.891,0,0,0,1.46.461,2.305,2.305,0,0,0,1.341-.455.1.1,0,0,1,.149.014.105.105,0,0,1-.014.149" transform="translate(-40.91 -51.233)" fill="#fff"/>
    <path id="Path_1916" data-name="Path 1916" d="M48.871,134.63a14.544,14.544,0,0,1-3.053,1.528H35.879a14.42,14.42,0,0,1-3.049-1.528Z" transform="translate(-26.413 -108.313)"/>
    <path id="Path_1917" data-name="Path 1917" d="M47.823,122.59l-17.8.089a12.7,12.7,0,0,1,2.474-1.74H45.616A13.431,13.431,0,0,1,48,122.68" transform="translate(-24.369 -97.408)"/>
  </g>
</svg>
