<svg id="Keli_Badlea" data-name="Keli Badlea" xmlns="http://www.w3.org/2000/svg" width="28.71" height="28.71" viewBox="0 0 28.71 28.71">
  <g id="Group_1451" data-name="Group 1451">
    <path id="Path_1658" data-name="Path 1658" d="M28.71,14.355A14.322,14.322,0,0,1,23.794,25.17c-.025.023-.051.045-.078.068s-.061.053-.092.076A14.351,14.351,0,0,1,5.2,25.409c-.031-.023-.061-.049-.092-.076a.851.851,0,0,1-.078-.068A14.354,14.354,0,1,1,28.71,14.355" fill="#dfdfdb"/>
    <path id="Path_1659" data-name="Path 1659" d="M39.9,25.122a12.613,12.613,0,0,1-2.3-4.143c-.677-1.914-2.891-1.136-2.891-1.136A4.524,4.524,0,0,0,30.084,18.3a4.989,4.989,0,0,0-3.8,5.153c-.057,2.35-1.9,2.717-3.328,5.435-2.512,4.8,1.717,8.84,9.417,7.719l.01-.075a8.074,8.074,0,0,0,2.822.263c9.25-.549,8.357-7.353,4.688-11.669" transform="translate(-17.887 -14.579)" fill="#1a1a1a"/>
    <path id="Path_1660" data-name="Path 1660" d="M41.093,113.8l-.106-.055-.008,0H29.8s-.035.018-.1.053a11.951,11.951,0,0,0-3.587,3.047c.031.027.061.053.092.076a14.351,14.351,0,0,0,18.427-.094c.031-.023.063-.051.092-.076a12.382,12.382,0,0,0-3.638-2.948" transform="translate(-21.014 -91.507)" fill="#1a1a1a"/>
    <path id="Path_1661" data-name="Path 1661" d="M29.59,113.262a.035.035,0,0,1,0,.02.108.108,0,0,1-.014.055.1.1,0,0,1-.047.045l-.055.027a12.007,12.007,0,0,0-3.589,3.049c-.031-.023-.061-.049-.092-.076a.85.85,0,0,1-.078-.068,12.176,12.176,0,0,1,3.712-3.131.155.155,0,0,1,.029-.006,0,0,0,0,1,0,0l.02,0a.115.115,0,0,1,.1.061.1.1,0,0,1,.008.031" transform="translate(-20.693 -91.049)" fill="#1a1a1a"/>
    <path id="Path_1662" data-name="Path 1662" d="M105.511,116.219c-.025.023-.051.045-.078.068s-.061.053-.092.076a12.417,12.417,0,0,0-3.659-2.955l-.049-.025a.1.1,0,0,1-.053-.057.116.116,0,0,1-.01-.045.062.062,0,0,1,0-.027.039.039,0,0,1,.006-.022.112.112,0,0,1,.151-.051s.022.01.053.027a12.668,12.668,0,0,1,3.728,3.01" transform="translate(-81.716 -91.049)" fill="#1a1a1a"/>
    <path id="Path_1663" data-name="Path 1663" d="M48.455,89.6v2.942a5.461,5.461,0,0,1-3.489,1.776s1.521,1,5.714,1a16.952,16.952,0,0,0,5.481-1s-3.249-.677-3.485-1.776V89.612Z" transform="translate(-36.177 -72.089)" fill="#f6f6f4"/>
    <path id="Path_1664" data-name="Path 1664" d="M50.225,94.974c-4.178,0-5.711-.972-5.775-1.014a.11.11,0,0,1,.042-.2,5.546,5.546,0,0,0,3.4-1.7v-2.9a.11.11,0,0,1,.221,0v2.942a.111.111,0,0,1-.021.064,5.364,5.364,0,0,1-3.243,1.759,13.448,13.448,0,0,0,5.378.837,17,17,0,0,0,5.087-.863c-.877-.219-3-.84-3.2-1.774a.114.114,0,0,1,0-.023V89.158a.11.11,0,0,1,.221,0V92.08c.2.839,2.517,1.5,3.4,1.68a.11.11,0,0,1,.018.211,17.219,17.219,0,0,1-5.521,1" transform="translate(-35.722 -71.636)" fill="#1a1a1a"/>
    <path id="Path_1665" data-name="Path 1665" d="M55.976,112.081a17.1,17.1,0,0,1-4.3-.5l.063-.216a18.248,18.248,0,0,0,8.487,0l.053.219a18.335,18.335,0,0,1-4.3.5" transform="translate(-41.575 -89.593)" fill="#1a1a1a"/>
    <path id="Path_1666" data-name="Path 1666" d="M63.257,90.3s.876,1.961,2.653,1.836a1.663,1.663,0,0,0,1.568-1.273l-.125-.563a4.2,4.2,0,0,1-4.1,0" transform="translate(-50.892 -72.646)" fill="#1a1a1a"/>
    <path id="Path_1667" data-name="Path 1667" d="M58.952,31.4s.564,8.11-4.508,8.11S49.78,31.4,49.78,31.4a4.536,4.536,0,0,1,4.836-4.823c4.729,0,4.336,4.823,4.336,4.823" transform="translate(-40.043 -21.38)" fill="#f6f6f4"/>
    <path id="Path_1668" data-name="Path 1668" d="M53.984,39.163a3.783,3.783,0,0,1-2.849-1.193C49,35.72,49.2,31.132,49.21,30.938a5.256,5.256,0,0,1,1.282-3.569,4.835,4.835,0,0,1,3.664-1.359,4.253,4.253,0,0,1,3.278,1.253,5.31,5.31,0,0,1,1.169,3.68c.019.289.282,4.8-1.793,7.027a3.712,3.712,0,0,1-2.826,1.192m.172-12.933a4.626,4.626,0,0,0-3.5,1.289,5.131,5.131,0,0,0-1.223,3.419c0,.058-.209,4.7,1.865,6.88a3.569,3.569,0,0,0,2.689,1.125,3.5,3.5,0,0,0,2.664-1.122c2.034-2.18,1.737-6.823,1.733-6.87v-.017a5.191,5.191,0,0,0-1.112-3.522,4.044,4.044,0,0,0-3.114-1.181" transform="translate(-39.583 -20.926)" fill="#1a1a1a"/>
    <path id="Path_1669" data-name="Path 1669" d="M72.113,64.624a.5.5,0,0,1-.473-.309.525.525,0,0,1-.037-.195v-.781a.106.106,0,0,1,.213,0v.781a.314.314,0,0,0,.022.116.305.305,0,0,0,.363.163l.229-.061a.106.106,0,1,1,.055.205l-.229.061a.549.549,0,0,1-.142.019" transform="translate(-57.606 -50.873)" fill="#1a1a1a"/>
    <path id="Path_1670" data-name="Path 1670" d="M62.541,57.09a.42.42,0,1,1-.42-.42.42.42,0,0,1,.42.42" transform="translate(-49.64 -45.593)" fill="#1a1a1a"/>
    <path id="Path_1671" data-name="Path 1671" d="M82.588,57.09a.42.42,0,1,1-.42-.42.42.42,0,0,1,.42.42" transform="translate(-65.768 -45.593)" fill="#1a1a1a"/>
    <path id="Path_1672" data-name="Path 1672" d="M62.168,61.912a.056.056,0,0,1-.031-.1l1.046-.69a.057.057,0,0,1,.078.016.056.056,0,0,1-.016.078L62.2,61.9a.058.058,0,0,1-.031.009" transform="translate(-49.971 -49.165)" fill="#1a1a1a"/>
    <path id="Path_1673" data-name="Path 1673" d="M81.2,61.883a.056.056,0,0,1-.034-.011l-.925-.7a.056.056,0,0,1,.067-.09l.925.7a.056.056,0,0,1-.034.1" transform="translate(-64.541 -49.135)" fill="#1a1a1a"/>
    <path id="Path_1674" data-name="Path 1674" d="M67.623,74.221a3.128,3.128,0,0,1-1.528-.413.106.106,0,0,1,.113-.18,2.822,2.822,0,0,0,2.831,0,.106.106,0,0,1,.113.18,3.127,3.127,0,0,1-1.528.413" transform="translate(-53.136 -59.223)" fill="#1a1a1a"/>
    <path id="Path_1675" data-name="Path 1675" d="M58.987,49.43c-.022.042-.126.557-.126.557l-2.313.249.551-.4a1.314,1.314,0,0,1,.462-.185Z" transform="translate(-45.495 -39.768)" fill="#1a1a1a"/>
    <path id="Path_1676" data-name="Path 1676" d="M77.41,49.43c.022.042.126.557.126.557l2.313.249-.551-.4a1.314,1.314,0,0,0-.462-.185Z" transform="translate(-62.279 -39.768)" fill="#1a1a1a"/>
    <path id="Path_1677" data-name="Path 1677" d="M94.932,61.029c.343.472,1.005.163,1.389-.451s.563-1.843,0-2.176-1.038.353-1.038.353-.137,1.242-.237,1.707Z" transform="translate(-76.376 -46.912)" fill="#f6f6f4"/>
    <path id="Path_1678" data-name="Path 1678" d="M94.872,60.911a.628.628,0,0,1-.523-.276l-.029-.04.124-.616c.1-.455.234-1.685.235-1.7l0-.028.016-.023a.92.92,0,0,1,1.187-.386.833.833,0,0,1,.368.55,2.655,2.655,0,0,1-.33,1.783,1.42,1.42,0,0,1-1.028.733h-.025m-.311-.371a.388.388,0,0,0,.329.145,1.216,1.216,0,0,0,.845-.627,2.4,2.4,0,0,0,.3-1.61.62.62,0,0,0-.264-.41c-.421-.248-.791.192-.873.3-.022.2-.143,1.258-.235,1.688Z" transform="translate(-75.883 -46.452)" fill="#1a1a1a"/>
    <path id="Path_1679" data-name="Path 1679" d="M95.725,63.187a.057.057,0,0,1-.024-.005.056.056,0,0,1-.026-.075c.466-.967,1.188-.759,1.195-.757a.056.056,0,0,1-.033.108c-.026-.008-.638-.179-1.061.7a.057.057,0,0,1-.051.032" transform="translate(-76.968 -50.146)" fill="#1a1a1a"/>
    <path id="Path_1680" data-name="Path 1680" d="M97.752,64.815a.056.056,0,0,1-.043-.092.5.5,0,0,0,.136-.416.748.748,0,0,0-.353-.424.056.056,0,0,1,.053-.1.848.848,0,0,1,.41.5.6.6,0,0,1-.159.51.056.056,0,0,1-.043.02" transform="translate(-78.411 -51.312)" fill="#1a1a1a"/>
    <path id="Path_1681" data-name="Path 1681" d="M44.643,61.029c-.343.472-1.005.163-1.389-.451s-.563-1.843,0-2.176,1.038.353,1.038.353.137,1.242.237,1.707Z" transform="translate(-34.511 -46.912)" fill="#f6f6f4"/>
    <path id="Path_1682" data-name="Path 1682" d="M43.75,60.912h-.025a1.419,1.419,0,0,1-1.028-.733,2.654,2.654,0,0,1-.33-1.782.833.833,0,0,1,.368-.55.92.92,0,0,1,1.187.386l.016.023,0,.028c0,.012.138,1.242.235,1.7l.125.617-.029.04a.628.628,0,0,1-.523.276m-.639-2.947a.506.506,0,0,0-.261.075.621.621,0,0,0-.264.41,2.4,2.4,0,0,0,.3,1.61,1.216,1.216,0,0,0,.845.627.4.4,0,0,0,.328-.145l-.1-.516c-.092-.429-.213-1.49-.235-1.687a.883.883,0,0,0-.612-.374" transform="translate(-34.05 -46.453)" fill="#1a1a1a"/>
    <path id="Path_1683" data-name="Path 1683" d="M45.941,63.187a.057.057,0,0,1-.051-.032c-.423-.877-1.035-.706-1.061-.7a.056.056,0,0,1-.033-.108c.007,0,.729-.21,1.195.757a.056.056,0,0,1-.026.075.057.057,0,0,1-.024.005" transform="translate(-36.009 -50.146)" fill="#1a1a1a"/>
    <path id="Path_1684" data-name="Path 1684" d="M46.947,64.815a.056.056,0,0,1-.043-.02.6.6,0,0,1-.159-.51.848.848,0,0,1,.41-.5.056.056,0,0,1,.053.1.748.748,0,0,0-.353.424.5.5,0,0,0,.136.416.056.056,0,0,1-.043.092" transform="translate(-37.6 -51.312)" fill="#1a1a1a"/>
    <path id="Path_1685" data-name="Path 1685" d="M57.735,28.3a6.118,6.118,0,0,0-.231-1.528c-.034-.141-.071-.271-.108-.392l.225.059a4.888,4.888,0,0,0-6.805-2.673c-3.691,1.846-2.3,6.7-2.3,6.7l.035-.242a5.953,5.953,0,0,0,1.02-2.372,6.429,6.429,0,0,0,5.516-2.009A4.173,4.173,0,0,0,56.7,28.158a6.083,6.083,0,0,0,1.02,2.239,14.143,14.143,0,0,0,.012-2.093" transform="translate(-38.826 -18.675)" fill="#1a1a1a"/>
  </g>
</svg>
