<svg xmlns="http://www.w3.org/2000/svg" xmlns:xlink="http://www.w3.org/1999/xlink" width="340" height="295.5" viewBox="0 0 340 295.5">
  <defs>
    <filter id="Rectangle_52" x="46.5" y="46.5" width="249" height="249" filterUnits="userSpaceOnUse">
      <feOffset dy="12" input="SourceAlpha"/>
      <feGaussianBlur stdDeviation="10.5" result="blur"/>
      <feFlood flood-opacity="0.071"/>
      <feComposite operator="in" in2="blur"/>
      <feComposite in="SourceGraphic"/>
    </filter>
    <filter id="Ellipse_18" x="207" y="0" width="133" height="133" filterUnits="userSpaceOnUse">
      <feOffset dy="9" input="SourceAlpha"/>
      <feGaussianBlur stdDeviation="12" result="blur-2"/>
      <feFlood flood-opacity="0.161"/>
      <feComposite operator="in" in2="blur-2"/>
      <feComposite in="SourceGraphic"/>
    </filter>
  </defs>
  <g id="Logo_shapes" data-name="Logo shapes" transform="translate(-1097 -6006)">
    <g id="Group_212" data-name="Group 212" transform="translate(474 266)">
      <g id="Group_207" data-name="Group 207" transform="translate(623 5760)">
        <path id="Path_144" data-name="Path 144" d="M352.219,423.586c1.348.251,2.594-.629,2.49-1.349-.114-.787-.676-1.145.191-1.616,1.093-.6.857-1.67,2.064-2.655.782-.637.534-1.143.507-2.333-.013-.559,1.386-.179,2.073-.238,1.688-.143.1-2.538-.776-3.4-1.131-1.105-2.221-.4-3.678-1.1s1.325-.812-.128-2.158c-.366-.34-1.61-1.056-1.463-1.463.53-1.465-1.076-2.813.88-3.362.5-.14.726-.57,1.225-.73,1.674-.534,2.149-.6,2.4.547.442,2.015-1.533,1.767-.935,3.307.336.867,2.411,1.044,3.578.6,1.567-.6,1.634-1.122,3.574-1.608.865-.217.769-.813.832-1.563-1.3-.373-2.06-.23-2.206-1.2-.2-1.342-.267-1.441.407-1.523,1.256-.152,1.418.041,1.769.392.314.311.485.612.331.967-.319.749.505.814.821,1.375,1.59,1.56.852,1,2.212,1.348.265.07.382.209.32.378.194.181,2.3,2.31,2.91,1.515,1.7-2.224,1.988-2.356,1.921-3.207a6.885,6.885,0,0,1,.048-2.024c.173.043.5.088.5.128-.015.69.947,1.123,1.45,1.672a3.949,3.949,0,0,0,2.316.069c1.611-.515,1.649-.563,1.89-.453.73.341,2.3.308,2.043.943a1.256,1.256,0,0,0-1.336.221,1.428,1.428,0,0,0,1.119-.013c.279-.116.125-.278.34-.144,1.132.713,1.843.546,3.71.472.338-.271.568-.56.457-.9-.6-.085-.617-.411-.885-.636-.724-.608-.311-.088-3.839-.887-.675-.153-1.666.539-2.173-.415-.216-.4-.66-.441-2.5-.875a1.782,1.782,0,0,0-1.04-.281,1.782,1.782,0,0,1,1.04.281c-1.712.047-2.467.154-2.254-.278-.094-.564.156-1.147-.338-1.684a7.538,7.538,0,0,0-3.865.233c-.145.061-.639-.185-.63-.31a4.283,4.283,0,0,0,.086-1.012c-.258-1.653,1.07-.955.88-2.041-.315-1.79-.741-1.917.039-2.043a1.213,1.213,0,0,1,.55.037c.471.736,1.192,1.444.678,2.278-.337.55,1.751,1.65,3.548,1.321.252-.218.075-.1,3.182-.576a.81.81,0,0,1,.525-.646c-.139-1.1.812-.152,1.585-.1,1.233.088,3.629.115.505.877.072.446-.727.672-.895,1.066-.141.328.13.731.687.86a28.92,28.92,0,0,0,5.142.54c.373-.158.878-.221.846-.993-.178-4.212-1.639-3.933-.073-4.611,1.637-.7,2.8.005,3.405-.947.53-.839,2.652-2.293.454-5.074-.61-.772-2-1.152-2.638-1.885a2.393,2.393,0,0,0-.727-.312c-1.28-.5-1.241,1.053-2.335.5-1.632-.823-1.894-.584-3.271.127-.875.453-1.392-.287-2.173-1.052-.8-.784,1.353-.828,1.016-1.807-.212-.61,1.791,1.008,2.588-.4a2.028,2.028,0,0,0,.367-1,8.264,8.264,0,0,1,.731-2.509c.044-.152.8-.239,1.018-.021.994,1,2.789-.205,3.623-.421a18.558,18.558,0,0,0,2.6-.505c1.008-.4.991.483,2.844.267.432-.051.828-.169.9-.406a5.832,5.832,0,0,0,.373-1.695c.012-5.191-1-4.17-.224-5.411.586-.938,2.586.011,4.206-.673a.623.623,0,0,1,.284-.062c.9.107.9.721,2.775.189.785-.223,1.009-1.021,2.512-.646,1.445.361,1.314.643,2.16,2.324.316.63,1.554.7,1.879.533,4-2.032,1.853-.156,4.775.443.979.2.823.577,2.579.377,1.216-.139.844,1.053.576,1.716-.119.292-.78.488-2.5.918-1.184.3-2.446-.168-4.195.447-.735.261-2.427-.451-2.986.738-.574,1.22,2.659.011,1.6,1.343-.443.556-.4.615-.9.541-.57-.084-.738-.382-1.115-.567a2.145,2.145,0,0,0-2.127.208,4.2,4.2,0,0,1-2.14,1.641.583.583,0,0,0-.347.451c-.3,1.889,2.543,1.212,1.586,2.107-.1.092-.2.273-.129.314.628.336.722.817,1.154,1.2a2.091,2.091,0,0,0,2.13.076c.238-.185.353-.437.652-.574a.838.838,0,0,0,.23-1.418c-.388-.421-.2-.485,2.471-1.456,1.158-.421.772-.909.887-2.393.017-.239.712-.372.917-.234,1.98,1.3,2.81-.531,2.547,3.122-.044.611-1.877.671-2.2.654-1.135-.057-3.213.415-2.7.977.311.346.964.908,1.177,1.194.233.315-2.249,2.363-4.7,1.756a9.265,9.265,0,0,0-5.577.011c-1.916.809-3.09.505-3.56,1.268-2.187,3.543,3.12,3.238,2.949,5.331a11.62,11.62,0,0,0,.335,2.9c.267.453,1.554.729,2.676.455.772-.19.486-.752.461-1.409-.077-2.016-2.269-1.794-1.17-3.415,1.345-1.983-.388-2.106.138-3,1.429-2.424,2.79-.336,5.072-1.077.595.091,1.219.146,1.776.286.829.208.99.892,2.625.75,1.037-.09,2.1-.515,2.525-.06s1.067.847,1.211,1.373c.265-.011.57.126.771-.1.795-.885,1.545,1.57,4.2-.083-.375-.458-.413-1.18.411-1.8.847-.347,1.484-.484,1.343-1.014-.483-1.808-.881-.493-2.094-.639-1.166-.14-2.209-.33-2.538-1.067-.081-.187-.756-.537-.509-.751.455-.4.847.42,2.516.336a6.519,6.519,0,0,1,2.113.075c.172.046.6-.211.57-.347-.036-.168-.269-.371-.164-.494.3-.356.654-.687.5-1.106-.069-.178,1.374-.162,1.091.166-.259.3-.623.58-.061.924.335.207.484.5.79.73.523.391,2.248.212,2.379-.483.36-1.909.517-2.277-.414-2.595-.647-.222-1.243-.269-1.245-.669,0-.6-.737-.827-.792-1.089-.044-.2.777-.939,1.158-.923a4.588,4.588,0,0,0,1.7-.335c.923-.279,2.908.54,2.879-1.117-.016-.816-.1-1-.508-1.065-.649-.1-.692.3-.961.522-.7.58-1.326-.191-1.946-.618-.729-.5-.5-.651-.388-1.967.068-.833,1.484-.185,2.043-1.083,3.19-5.118,5.307-1.363,5.983-4.328.224-.975,1.956-.567,2.823-1.087a4.945,4.945,0,0,1,3.035-.638,6.367,6.367,0,0,0,1.195-.176c1.625-.211.391.948,4.144,1.821,1.095.255.824.533.256,2.692-.048.18-.946.9-1.475.317-.09-.1-.074-.265-.209-.314a.282.282,0,0,0-.384.155c-.324,1.122-2.325.364-3.185.989-.65.47-.149,1.257.508,1.31,4.572.371,2.487-1.779,4.693.465.313.318-.07.223-1.367.727-1.4.545-1.977,3.8.005,3.5,2.593-.387,2.642-.512,3.567-.321,1.781.367,1.783-.772,4.386-1,1.133-.1.9-.888.967-1.124.28-1.028,2.151-.992,2.476-1.036.548-.072.51-.023,1.248-1.447.1-.2-1.011-.261-.971-.127.189.646-1.109.771-1.45,1.244-.646.9-1.845-.445-4.537-.039-.327.048-1.025-.17-.327-.522.453-.229,1.026-.392,1.215-.754.453-.862,3.269-.189,3.583-1.486.2-.841-.564-1.546-.91-2.307-.261-.572-1.145-.932-1.962-1.291-.075-.033-.238-.273-.173-.305,1-.473,1.484-.718,1.638-.538.851,1,2.867.944,3.044,2,.01.058.32.11.5.141.267.047.845-1.16.988-1.4.079-.136.545-.154.545.116,0,.466-.359,2.025,1.871,1.6.326-.062,3.238-.828,3.3-2.069.037-.736.582-1.443.4-2.2-.049-.211.234-.643.4-.819,2.083.72-.006,3.676,2.3,3.261,1.9-.341,3.361-.489,3.16-1.512-.039-.2-.787-.719.567-.912,1.525-.218,1.729-.219,2.058-.042.865.469-.992.611-.076,1.561.478.5.727.788.329,1.113a3.477,3.477,0,0,1-1.359.91,2.791,2.791,0,0,0-1.572,1.034c-.546.855-3.663,1.473-.53,2.572.916.321,2.343-.089,3.581.372.325.121,2.123.328,2.749-.331.19-.2,1.425-.475,1.416-.837-.011-.563.381-.957,1.21-1.3.326-.135,2.046-1.247.02-2.209-.7-.333.693-1.106,1.484-.784a6.667,6.667,0,0,0,2.54.537c1.149.023,1.882.745,1.64,1.382-.6,1.606.153,1.539-.6,2.846-.261.458,1.475.314,1.068.907a1.407,1.407,0,0,0,1.276,2.288,17.047,17.047,0,0,0,3.667-.074.993.993,0,0,1,.438.145c-.988,1.445-.538,2.539-1.267,3.144s-2.019,1.142-1.223,2.15a5.226,5.226,0,0,0,3.612,2.187c3.018.413,2.739-.731,5.271-.734,2.018,0,.72-1.269,2.191-1.119.876.09,2.419.194,2.159.66-.1.178-2.1,1.762.477,1.851,1.089.037,2.172.048,2.613-.626.221-.336,1.863-2.154,2.938-1.6.635.33-1.6.295-.973,1.183.578.819,3.67.454,2.288-.834,1.844-.322,1.54-1.421,1.057-1.746-.588-.393-1.694-.063-2.337,0-.9.1-1.089-.282-1.781-.8-.5-.379-1.129-.389-1.259-.232-1.04,1.25-5.331.97-4.288.212.487-.352,3.706-2.005.53-2.99-.644-.2-1.723-.316-2.047-.388-.529-.117-.861-.66-.483-.872,2.911-1.63.418-2.749,4.912-3.127.82-.069.856-.459,1.435-1.4a1.022,1.022,0,0,1,.826-.016c1.024.943.619,1.443,1.691,1.958.236.112.131.342-.1.46-1.363.7-1.077.171-3.311.767-1.255.336-.99,1.583.364,1.781,1.107.161,1.007-.733,2.635-.464,3.577.589,2.673-1.444,4.368-3.906.507-.735,2.246-.283,1.863.082-1.411,1.349-1.943,1.67-2.128,2.442-.117.491-.837,1.383-.886,1.806-.19,1.609,1.2,1.214,1.867,1.732.282.219-.875.676,1.866,1.287-.479.352-1.337.284-1.927.524-.46.187-.976.621-.832.863.418.693.364.9,2.714,1.151a5.944,5.944,0,0,0,2.943-.4c.6-.255,0-.635.173-.957.234-.432-.237-.979.579-1.022a6.425,6.425,0,0,0,2.013-.532c-.016.026,0,.066.11.117a.156.156,0,0,1,.075.154c0,.215-.351.248-.592.337a1.822,1.822,0,0,0-1.366,1.647c-.111.948,4.7.671,5.395-1.21.335-.908,1.651-.617,2.044-1.182.956-1.369.894-1.477.625-1.956-.113-.2-1.037-.676-.639-1.083.566-.578.287-1.4.941-1.35.842.065,1.531-.419,2.393-.194.24.064.4.056.526-.076a8.592,8.592,0,0,1,3.355-1.444,1.19,1.19,0,0,1,1.4.9c.072.351-1.486.516-.745.724.349.1.829.1.972.353.329.587,1.114.776,2.151.785.336,0,.8.53.084.618-2.416.3-2.124,1.294-4,1.806-3.6.978-2.044,1.36-2.513,2.235-.115.218.263.761-.763,1.014-1.669.413-1.919,1.132-1.871,2.155.008.179-.05.28,1.611,1.212.317.18,2.305.266,2.918-.782.664-1.138,1.467-1.291,2.083-1.86-.08-.17.038-.231.344-.193.035-.141.18-.2.438-.187a5.67,5.67,0,0,1,1.067-.8c.571-.27,1.108.145,1.7.136,1.4-.021,1.565.168,1.7.447.048.1.482.137.74.2.06-.907,1.936-1.388,1.431-2.049-.058-.075-.269-.365-.151-.415,1.7-.71,1.909-.048,1.5.168a.344.344,0,0,1-.13.372c3.275.83,4.4-.439,6.334.3a6.612,6.612,0,0,0,2.1-.065c1.117.053,4.411.2,3.995.5-.947.687-.916,1.634-2.021,2.276-.148,1.336.784,1,1.09,2.075.2.7,2.192-.083,4.235-.247.327-.027,1.659-.5,1.115-1.007-.189-.178-1.087-.742-.249-.77,2.418-.086,3.3-.24,3.236.526-.032.385-.592.587-.84.892-.4.491-.036,1.105.828,1.3,1.5.339.865-.259,3.456.623.595.2.438.879-.188,1.206s-1.422-.164-2.073-.439c-1.919-.812-2.225.331-3.94.305-2.6-.035-1.832.928-4.392,1.076-1.733.1-.467-.9-.7-1.642-.32-1,.14-1.714-1.007-1.259-.871.345-.644.284-2.95.326-.7.505-1.389,1.013-2.083,1.518.08,1.263,1.712.646,2.114,1.316.4.028.671.12.6.378.679.3.02.548.517,1.133,1.154.563,1.527.664.529,1.623.356.633-.96,1.2-.482,1.733.676.079.318.258.644.344.133.051.095.037,0,0,2.866.166,2.675-1.748,2.915-1.929.305-.226.76,0,1.138-.034,1.55-.138,1.678-.587,2.3-.051.432.375,1.338.3,1.731.676.957.9,3.928-.308,4.552.839.277.507,2.222.273,2.341-.3.15-.725-1.164-.72-1.478-.9-.168-.1-.171-.425.1-.4a8.055,8.055,0,0,0,2.71-.332c1.94-2.763,3.771-1.584,4.934-2.4,1.077-.753,1.89-2.6.707-2.9-.185-.048-.053.011.245-.053,1.621-.353,1.746.481,4.06.525.357.006.633.311.5.536a4.479,4.479,0,0,1-.533.6q.232.315-.117.595l-.008.016c.8.054,1.4.411,2.23.446.2.011.221.193.057.278-.986.5-1.693.6-1.6,1.329.066.556.015.492.256.542l-.133.018a.783.783,0,0,1,.566.83c1.511.412,3.28-.255,2.706.828.159.088.076.115-.035.193.81.5,2.092.757,2.472,1.475.318.6,2.709.059,1.746-.9-.21-.211-.8-.37-.771-.694.03-.3.818-.831,1.317-.885,6.573-.718,2.429-.5,6.882-.052.327.032,1.411.377.922.657-1.839,1.053-2.1,1.515-3.57,1.441-1.986-.1-1.209,2.319-4.583,1.856,1.76-.275-.561-1.491-1.564-.548-.556.522.449,1.011-.249,1.082-4.872.484-4.511.776-6.024.72-.43-.015-.877.638-.613,1.007a5.845,5.845,0,0,1,.942,1.792c.217.783,2.09,1.084,3.155.528,3.351-1.741,3.614-2,3.69-2.645.061-.5.639.372,2.136.424,1.958.068,1.477-.422,2.546,1.168a15.6,15.6,0,0,0,3.672-.125c.847-.151,3.631-.275,3.075.588-.661,1.032-1.214,1.381-.2,1.4,1.174.016.953.315,1.833.544.972.253,4.468.007,2.232-2.758-.538-.665,2.585.21,4.479-.1a.726.726,0,0,1-.513.837c.073.324-.194.556-.641.744.066.312-.006.588-.615.73-.007.263-.218.47-.578.636.131.446-.4.464-.6.687-.076.573-.674,1.042-1.039,1.559-.022.032-.191.032-.292.046l-.113.113c-1.264-.055-1.751,2.712,2.166,1.973,1.091-.206.3-1.278,2.356-1.386.234-.014.674.115.55.277-2.858,3.726-2.721,1.267-5.525,2.58.06.375.138.75.163,1.122.015.227-.455.4-.76.206-.452-.284-.866-.586-1.294-.883a6.09,6.09,0,0,0-1.809.154,24.78,24.78,0,0,0-4.251,2.153,1.6,1.6,0,0,1-.687.311c-1.583.19-.661.956-1.375,1.317a6,6,0,0,1-2.355.741c-2.931-.1-2.559-.112-2.466-.815.127-.971.194-.848-2.686-.832-.746.441-.608,1.037-.891,1.559-.058.107.23.215.464.184,1.684-.219,1.448-.232,2.015-.1.339.073-.072.636-.357.738-1.775.623-1.866,1.608-3.183,1.717-1.062.085-1.156.548-1.279,1,2.817,1.113,3.861-.734,6.047.2a5.07,5.07,0,0,0,1.8.15c.9.012.7.218,1.02.312,2.776.065,4.4-.085,5.506.911,1.148,1.035,2.7.642,2.691,1.175.453.288.453.288.052.664a1.129,1.129,0,0,1-.79,1.655q-.083.908-.166,1.813c.593.432.541.872.068,1.322a.566.566,0,0,1-.287.7.992.992,0,0,1-.13,1.045.593.593,0,0,1,.005,1.013.983.983,0,0,1-.2,1.359,1.732,1.732,0,0,1-.451,2.071c.374.713.321,1.219,1.418,1.372.167,1.028-1.489,1.223-.354,3.8a4.615,4.615,0,0,0,1.789.032c1.188-.847,3.97-2.108,3.8-3.193-.015-.093.287-.353.55-.326,2.389.259.617.883,2.2,1.736,1.1.587-.767.61-.65,1.273.121.691-1.257,1.736-1.582,1.732-1.537-.019.375-1.565-3.841-1.242a1.845,1.845,0,0,0-1.009.331c-.4.556-1.3.875-1.912,1.322.144.257.2.505-.225.706a4.006,4.006,0,0,0,.277,2.35c.1.167-.29.267-.58.331-.5.839-1.47-.488-1.16,2.764.692.148.66.443.938,1.4.422.487.066.932-.236,1.383.143,3.173-.634,3.819-.422,5.687.005.047-.1.1-.153.143-.027,2.2.153,1.181.3,1.661.813,2.624.132,2.472,2.821,2.445,1.6-.015,1.6-1.192,2.554-.974.344.078.785,1.418-1.332,1.666-1.8.209-.722-.263-3.272-.1-1.2,1.325.165,2.359-.655,3.256l.167.1-.186.084c.345,1.466.853,2.633.052,3.873,1.159,1.182-1.414,1.052-1.167,2.279.286,1.42,1.175,1.092,1.039,1.734-.171.812-.893,1.467.044,2.136,1.165.834-.2,1.2-1.232,3.384-1.479,3.143-1.054,3.235-1.6,3.208-.775-.038-1.3-.647-1.176-1.018.341-1.05-.468-1.473-1.412-2.348-1.081-1-3.036.785-1.821-1.7.7-1.422-.7-1.653-.863-3.154-.185-1.66-1.512-1.282-.975-2.432.462-.986-.882-1.371-1.61-1.025-1.422.677-.837,1.52-1.086,2.053a35.144,35.144,0,0,0-1.288,4.388c-.448,1.394,1.161,1.174.567,1.759-.67.66-.46,1.459-1.159,2.113-.732.687-.123,1.286-.644,2.344-1.2,2.453,1.076,1.851-1.129,4.114a8.565,8.565,0,0,1-2.22.571c-1.87.317-2.43,2.828-4.052,2.067-3.324-1.559,1.711-2.411-1.3-4.14-.89-.509-2.555-.947-3.563-.317-1.776,1.106-2.223.053-3.815.9a1.68,1.68,0,0,1-1.363,0c-1.368-.379-3.18.179-3.162.994.025,1.08-.444,2.153-.1,3.238.043.135-.227.3-.352.449a4.126,4.126,0,0,1-.862,1.248c-.526.406-.754.786-.566,1.257.216.54-.371,1.114.281,1.654.169.138-.682,2.972-.446,3.337.547.854-.241,1.68-.126,2.52.011.076-.326.069-.4-.041-.55-.776-2.592-1.1-2.552-2.043-3.766-.782-4.308,1.332-4.6,1.62-1.1,1.082-2.249-1.085-.1-2.465.792-.507.725-1.789-.81-1.738-.515.016-1.024.076-1.537.115-.125.2-.4.166-.722.141.047-.012.08-.043.018-.12-1.621-.886-.591-.5-3.173-.542-2-.027.614-1.225-2.212-2.373-1.989-.02-1.53-.062-2.414.187-.566,1.794-.207,1.149-2.487,1.186a25.39,25.39,0,0,1-2.688.022,2.359,2.359,0,0,1,2.451-.678,3.594,3.594,0,0,0,2.163-.526c-.345-.762-.086-.933-.792-1.561-1.522-.025-2.668.112-1.752-.472.37-.621-.058-.784.769-1.027.9-1.786-.018-.874.288-2.677.138-.809-.9-2.748-2.122-2.821-.962-.059-1.741.321-2.464-.345-.836-.77-.036-1.494-1.135-1.67a1.371,1.371,0,0,0-1.66.752c-.206.341-1,.176-.849-.16.532-1.159.262-3.342-2.121-3.181-1.133.076-2.262.18-3.386.29-2.19.212-.521,2.21,1.332,2.355a1.427,1.427,0,0,1,.708.314,4.134,4.134,0,0,0,2.339.758c.261.019.366.3.157.4-.793.381-1.175.49-1.459,1.619-.125.494-1.9,1.369-2.393.978-.824-.658-2.179-1.041-2.894-1.764s-3.638-.252-3.736,1.264c-.076,1.14,1.44,1.16,2.881,1.379,1.3.2.26,1.138-.316,1.355-.885.333-.772.91-.814,1.746,1.007.691,1.438.861,1.116,1.019-1.321.651-1.06.293-1.177,1.468,1.538.8,5.344,1.028,5.9-.4.407-1.044.849-1.552.43-2.677-.111-.3-.156-.821.45-.872,2.181-.184,2.783-.27,2.975-.092a.213.213,0,0,1-.072.309,2.16,2.16,0,0,0-1.227,2.36c.313,2.174.579,2.13,1.1,2.4,1.257.659-2.01.963-3.24.475-1.68-.665-2.517.211-4.411.191-1.858-.021-1.552.739-2.878.809-.4.02.147,0-.125-.17-1.248-.707-.525-2.185-1.766-2.592-1.017-.333-2.138.047-2.127.515a24.391,24.391,0,0,1-.632,3.368c-.127,1.058-1.168,1.274-2.733,1.871-1.076-.438-1.922-.623-1.842-1.281.056-.456-.644-1.391-1.662-1.495-2.98-.3-3.024.642-1.719,2.15.7.805.531.579.38.932.157.3-.154.463-.594.584-.188.734.092,1.241-3.087,1.546a.855.855,0,0,1-.726.256c-.042.155-.167.21-.427.112a3.958,3.958,0,0,1-2.02.924c-1.112,1.169.045,1.532.506,1.488a14.455,14.455,0,0,0,4.453-.655.51.51,0,0,1,.608.256c.121.61.023.679-1.126.644-1.42-.043-1.021-.019-3.458.635-.707.191-.011.267-2.134-.132-.132-.32-.464-.116-.841-.505-1.279-.021-1.184.015-1.113-.953-.326-.12-.515-.285-.566-.5-.311,0-.4-.068-.314-.252-.411-.183-.592-.41-.413-.7-.72-.251.385-.359,1.964-.632.633-1.194-.365-.782-.413-2.575-.027-1-.043-2-.064-3-1-1.28-1.634-1.314-.806-2.027-.133-.352-.059-.67.506-.906-.16-.588.929-.482.562-.482,1.285-.533,1.867-1.213,1.461-2.1l-2.459-.069a6.555,6.555,0,0,1-2.512.358c-.787.17-1.9.96-2.383.1-1.048-.571-.225-.483-4.547-.274-3.5,1.56.039.637-6.881.674a2.187,2.187,0,0,1-1.22.644c-.1.085-.184.237-.309.249-2.216.216-2.218-.046-2.3-.642a8.644,8.644,0,0,0,1.575.352,3.911,3.911,0,0,1-2.078-.671c-1.006.052-.571-.727-1.974-.433.162-.178-1.548.925-.021,1.581,1.079.466-.317.784-.058,1.757a2.6,2.6,0,0,0,1.322,1.876c.764.43-1.839.992-2.033.727-1.675-2.27-.621-1.912-1.064-2.811-.833-1.69,1.872-1.816-1.247-3.829a.848.848,0,0,1-.818-.177c-.337,0-.249.029-.418-.136-.345.019-.619-.007-.571-.253-.127-.074-.365-.144-.367-.219-.027-.556-.6-1.006-.934-1.5-2.285-.059-1.789-.217-2.612.667.108.389.292.787-.353,1.1l.064.131c-.524.09-.164.513-.859.841-.934,1.837-.189,1.164-1.051,2.377-.665.935-2.039-.143-3.231.836.171.307.341.617.51.926.965.025.31.738-1.232.881l-.066.106c-.3-.026-.035-.115-1.691.868-.625.9-.239.218-.077,2.373.031.414-1.072.574-1.233-.34-.283-1.6.077-1.459-1.091-1.993a3.714,3.714,0,0,0-3.267.379c-.568.25-.841-.28-.559-.458,1.169-.74,1.7.034,2.675-1.024.359-.387.682-1.26-.593-1.67-1-.321-.735-.765-1.039-1.179a1.461,1.461,0,0,0-1.342-.089c-.455.377-.868.768-1.291,1.154-.461.42-2.111-.3-2.991-1.315-.586-.673-.418-1.072-1.46-1.187-1.5-.165-2.549.832-1.6,1.464,1.086.719,1.938,1.029,2.093,1.442,1,2.651-2.869.712-1.768,2.943a3.357,3.357,0,0,0,2.359,1.473.443.443,0,0,1-.042.872c-3.366.7-2.9.3-4.173-.178-1.1-.412-1.483.735-2.356,1.1-.5.207-.241.914-.337,1.143-.715,1.709,2.408,2.292-.172,3.464-2.228,1.013-3.349.229-4.206,1.52-.609.917-2.938.29-2.561,1.853.074.309-.613.612-.931.555-.472-.081-.984-.266-.969-.578.057-1.207-1.954-1.491-2.28-1.664-.431-.226-.278-.256-.229-1.474.051-1.3.042-1.3-1.776-2.156-1.562-.736-4.163.082-4.672-.927-.595-1.188.584-1.568-.493-2.321-1.166-.814,1.058-.8.379-2.927-1.405-4.394-.46-4.9-1.377-5.544-1.463-1.021-2.189-1.567-2.921-1.24-1.691.753-3.1,1.7-5.087,1.209-2.916-.715-2.7,2.734-.6,2.559.437-.038,2.44-.515,3.238.465.41.506.7.4,1.973,1.042.175.089.16.375-.166.335-1.908-.225-2.534-.468-3.113.061-.966.879-2.181.184-2.712.188-1.993.031-1.557.742-4.033.453-.54-.063-3.372.9-3.544-1.893a2.74,2.74,0,0,0-.805-1.46q-1.868-.051-3.735-.1c-1.843-.047-2.366,2.6-2.073-.276-1.381-.734-1.453-2.19.017-1.934,2.139.373,3.576-.5,5.729-.474a3.041,3.041,0,0,0,2.589-1.286c.636-.624.162-.934-.015-1.652-.442-1.792-3.115-2.59-3.582-2.5-3.169.589-1.878.6-2.946,1.321-.249.168-.845.242-.912-.044-.436-1.867-2.058-1.019-2.641-2.573-.347-.924-1.7-.9-2.231-.629a6.894,6.894,0,0,0-.789.526,3.154,3.154,0,0,0,1.671.958c.475.1.908.278.391.418-.715.192-.778.643-1.2.948s-1.018.555-1.461.86c-.557.387.631.786-.885,1.021-.1-.435-.043-.273.109-.427.285-.286.213-.491-.208-.491-1.647,0-3.694-.575-3.613-.981.2-.982,1.486-1.926,2.064-1.551a2.027,2.027,0,0,0,1.884.6c1.221-.236.559-1.083.414-1.319-.938-.159-.578-.86-.27-1.076-.1-.2.018-.334.375-.406.2-.446.2-.45.6-.389,1.083.173,1.835.314,2.152-.415.441-1.017.95-.456,1.475-1.432.351-.657.184-2.125-.318-2.309-1.341-.488-1.337-1.37-1.976-1.049-2.964,1.5-.561,3.114-1.707,3.654-.362.621-2.253.031-2.827.267-1.053.774-1.118.342-1.823-.6a7.251,7.251,0,0,1-3.035.332,2.485,2.485,0,0,1-1.061.257,1.13,1.13,0,0,1-.816.351c-.058.339-.341.583-.965.68a1.5,1.5,0,0,0,.665,2.479,1.234,1.234,0,0,1,.971,1.515c-.08.421-1.014.287-1.514.456-.264.089-.5.2-.764.288-.179.059-.737-.1-.76-.214-.592-2.635.387.137-.31-4.205-.092-.578-.549-.726-1.564-2.021l-1.435-.756c2.718,1.5.266-.122-.865.895-.824.737-4.067-.027-4.354,1.166-.617,2.576,1.07,2.756-.454,3.46a1.126,1.126,0,0,0-.508,1.605c3.186,7.406,3.905,6.7,5.129,6.676a2.971,2.971,0,0,0,2.468-.878c1.233-.826,2.7-.375,4.318-.159,1.324.177,1.573-.178,2.635-.69.823-.4,1.34-.1,3.206.21a3.779,3.779,0,0,0,2.021-.288c.813-.169,1.808.206,1.751.656a4.8,4.8,0,0,0-.112.676c.029,1.325-1.752.5-2.071,1.45-.059.178.2,1.791-2.487,1.76-3.464-.04-2.622-.041-1.756-.629.429-.293.615-.281.524-1.447-.007-.093-.168-.235-.318-.264a9.868,9.868,0,0,1-2.482-1c-.448-.212-1.724.865-.632,1.657.337.245-.623,1.023-1.905,1.025-2.049,0-1.476.8-1.525,1.659-.023.427-1.8.719-1.844.384-.1-.724-1.1-1.209-1.593-1.826-.425-.535-1.211-.5-3.377-.541-1.334-.028-1.822,1.281-.9,1.954.886.648,1.136.789.442,1.13-1.454.713-2.772,2.223-3.724-1.971-.092-.408-1-1.4-1.79-1.168-.738.216-1.433.461-1.54.985-.03.146-.271.219-.472.129-.217-.1-1.531-.706-1.408-.846.726-.841.788-.815,1.64-.793.311.006.692,0,.788-.187.237-.458,2.742-2.323,3.858-1.906,3.061,1.14,3.163-1.608.7-1.7-1.543-.058-1.176-.662-3.04-.759-.857-.044-1.535-.06-1.526-.335s.387-.37,1.434-.512c2.624-.355.434-5.8.6-5.974,1.13-1.195-1.166-3.178.2-5.85.226.406.334.825.525,1.237.421.9,2.684,1.309,4.032.727a4.226,4.226,0,0,0,1.829-1.14,3.258,3.258,0,0,1,.775-.519,5.8,5.8,0,0,0,0-1.551c.579-1.9.445-1.1,3.482-2.54.175-.08.759,0,.8.129.113.381,1.856,2.075,3.377,1.607.96-.3,1.978-.379,2.229-.807.524-.9-.5-1.1,1.39-1.351,3.579-.474,3.147-.673,4.766-.62,2.166.072,1.82-1.182,2.058-1.741.317-.746-.316-1.194-1.444-1.519-1.16-.335-.693,1.142-2.151.707-.177-.053-.45-.1-.494-.185-.461-.857-1.91-.769-3.048-.962a1.414,1.414,0,0,0-1.766,1.1,1.254,1.254,0,0,1-.3.027c0-.926.4-1.547-.169-2.357a.589.589,0,0,1-.092-.5c.263-.875-.576-1.67-.57-2.528,0-.308-.581-.451-.942-.646.077-.021,1.743,1.321-.247-.093-3.579.184-2.484,1.115-2.468,1.872.021,1.123-2.122,1.083-1.874,2.122.092.384-.03.76.269,1.16.633.849.471,1.5.077,1.613-.269.076-.841-.619-.808-.792.066-.34-.018-.793-.839-1.787-.258,0-.509-.174-.177-.281-.359-.37-.719-.742-1.079-1.112-4.29.186-4.46.52-4.463,1.8,0,.305-.425.637.456,1.09,1.041.539-1.091.215-.987,1.759.061.914.367,1.809.494,2.713.046.32.6.665.1.963-.688.406-1.407.263-2.756,1.12a.993.993,0,0,1-.5-.958c.11-.616-.279-1.254.3-1.849,1.269-1.313-.707-2.91-2.612-2.832-.415.017-.83.05-1.246.053-1.252.009-2.417-.6-2.326-1.286.035-.259-.11-4.1-1.828-5.284-.214-.145-.3-.33-.086-.465.278-.178.481.022.682.109,2.559,1.107,3.861-1.357,5.341-.605s4.615.786,4.186-.41c-.175-.5.006-1.191-1.293-1.418-.471-.083-.6-.32-.554-.549a7.779,7.779,0,0,0-.288-4.91c-.913-2.691,1.359-.841.607-3.776-1.441-.58-2.012-.692-1.784-1.131.352-.682,1.061-.681,2.294-.84.624-.706.38-.976.031-2.512-.355,0-.466-.085-.366-.285a2.356,2.356,0,0,1-.665-1.826c-.045-.927-1.907-1.186-2.128-2.006-.093-.344-1.435-.6-2.067-.641a1.955,1.955,0,0,1-1.87-1.417c-.311-.634-1-.612-1.626-.987-.17-.1-.216-.346.121-.377,1.018-.1,2.329.048,2.367-.974.053-1.458-3.042-1.29-2.545-3.5.2-.9-.685-1.18-2.847-2.3-1.235-.142-1.12-.951-1.987-1.239-1.172-.385-1.49-1.08-2.213-1.625-.343-.258-.177-.543.016-.815C350.1,422.855,350.685,423.3,352.219,423.586ZM505.133,377.8c-1.634.038-1.782,1.549.45,1.3C506.769,378.971,506.428,377.771,505.133,377.8Zm48.786,115c.031-.048.063-.1.1-.146C553.982,492.7,553.95,492.751,553.919,492.8Zm.158-.216c.033-.042.066-.082.1-.123C554.143,492.5,554.11,492.542,554.077,492.584Zm.184-.207.1-.106Zm-.612,1.27a1.352,1.352,0,0,1,.006-.174A1.352,1.352,0,0,0,553.649,493.646Zm.011-.2a1.535,1.535,0,0,1,.04-.185A1.535,1.535,0,0,0,553.659,493.445Zm.05-.215a1.549,1.549,0,0,1,.066-.178A1.549,1.549,0,0,0,553.71,493.231Zm.086-.212a1.718,1.718,0,0,1,.09-.168A1.718,1.718,0,0,0,553.8,493.018Zm4.182-98.1a5.236,5.236,0,0,0-3.489.656,1.468,1.468,0,0,0,.523,1.007c1.692-.1,1.364.4,1.649.71.436.482,1.041-.236,1.746-.773A.856.856,0,0,0,557.977,394.918Zm9.5,26.375c.012.341.021.681.034,1.023a4.607,4.607,0,0,0,1.759.087c1.144-.278,1-1.174.072-1.481a2.276,2.276,0,0,1-.439-.236s-.029.25-.755.224C567.817,421.052,568.177,421.22,567.472,421.293Zm9.115-7.6a1.9,1.9,0,0,0,.571-.033c2.252-.23,1.146-1.651-.4-1.185C576.145,412.657,576.32,413.587,576.587,413.692Zm-.471-8.551c.327,0,.754-.093.672-.4C576.862,405.015,576.767,405.04,576.116,405.14Zm-.283-.014c.358.017.174.1.913-.516a1.039,1.039,0,0,1-.509-.79c-.868-.056-1.577-.3-2.193.321l.073.7C574.528,405.043,575.434,405.349,575.833,405.127Zm-5.259-1.019c.689.041,1.382.046,2.078.044C571.956,404.154,571.263,404.148,570.574,404.108Zm7.412-8.855c.473-.671,1.526-.472,1.077-1.621-.512-1.309-2.539-.717-2.964-.494-3.162,1.657-1.085-1.766-3.692-1.422a3.585,3.585,0,0,0-1.29.439c-.339.184-.8,0-1.169.11-.011.7-1.225,1.194-1.116,1.916,2.046.827.077.993,2.5,2.02a2.431,2.431,0,0,1,1.163.069c1.614-.285,2.019.18,3.257.248C577.785,396.628,577.525,395.911,577.986,395.253Zm-.184,5.942c-.853-.13-1.529-.759-2.534-.387-.817.3-.456.828-.393,1.272.06.429-.656.282-1.169.69a.484.484,0,0,1,.072.652c1.761.419.973-.657,2.078-.582C578.3,403.008,578.575,401.312,577.8,401.195Zm17.092,3.288a2.366,2.366,0,0,1,1.221.183A2.364,2.364,0,0,0,594.895,404.483Zm-2.619,2.193c2.023.762,1.808,1.984,3.823,1.024.288-.139.183-.173.027-.821-.2-.353-.358.006.464-1.373-.219-.519-.1-1.168-2.622-.575-.45.673-.289.511-.837.546-.583.056-.467-.132-1.275-.976.881.919.86.773-.552.708.081.115.046.222-.1.316C591.586,406.147,591.633,406.436,592.275,406.676Zm-2.9-.817-.208-.081c.042-.175.013-.151.013-.151a4.1,4.1,0,0,0-1.527.236C588.856,406.478,588.606,406.537,589.377,405.859Zm-2.765,1.879a4.94,4.94,0,0,0,.691-.115C586.323,406.348,584.842,407.8,586.612,407.739Zm-2.306,1.626c1.4-.9.906-1,.209-1.073-.753-.081-.761-.078-.82-.529-.068-.53-1.321.3-2.191.3l-.1.744c.166.14.322.283.5.42A2.714,2.714,0,0,0,584.307,409.365Zm-5.332,7.469c-.916-.549-2.216-.08-2.169-.532-.008.077.115.177.273.238-.339.891-.86,1.352,1.6,1.22C578.741,417.568,578.975,416.833,578.975,416.833Zm-2.393,2.59c.714-1.144-.212-.693-.368-1.168-.524.048-1.67.019-1.746.729C574.383,419.792,576.191,420.049,576.582,419.423Zm-.875-13.566c-.274-.437.676-.312-2.56-.444-1.177.768-.918,2.2.41,2.1C575.5,407.367,576.106,406.491,575.707,405.857Zm-4.145,3.262c-.522.883-1.8,1.667-1.209,2.7,3.327-.281,2.76-.133,3.4-1.738C574.422,408.388,571.742,408.815,571.562,409.119ZM564.8,421.3c.6-.025.894-.1,1.22.284a5.2,5.2,0,0,0-.423-.318c-.177-.413,1.1-1.289.16-1.292C564.418,419.969,565.29,420.913,564.8,421.3Zm-1.35-.787c-.085-.046-.248-.081-.358-.125C563.089,420.386,563.392,420.482,563.446,420.511Zm1.292-1.379c3.112.51,2.706-.646,2.829-.839a5.446,5.446,0,0,0,.719-1.1c.113-.38-.173-.8-.016-1.169.35-.827-.588-2.356-2.757-2.471-1.118-.06-1.212.552-1.568.9-1.095,1.056-3.183,1.339-2.61,3.164C560.49,420.338,563.223,418.884,564.738,419.133Zm-11.091,74.559Zm-2.166-99.7a2.208,2.208,0,0,0,.3.127A2.208,2.208,0,0,1,551.482,393.988Zm-103.737,9.74a1.909,1.909,0,0,0-.362-.136A2.071,2.071,0,0,1,447.745,403.728Zm47.6,15.534a.083.083,0,0,0,.012-.075A.083.083,0,0,1,495.343,419.262Zm0-.1s0-.013-.011-.018S495.338,419.159,495.342,419.163Zm-20.414-14.5a1.557,1.557,0,0,0-.009-.172A1.437,1.437,0,0,1,474.928,404.66Zm1.243-6.01Zm-.015.007h0C476.4,399.074,476.428,399.124,476.156,398.658Zm15.028,11.824c-.1.66.248.475-.694.535C491.433,410.957,491.081,411.144,491.184,410.482Zm15.009-3.594a1.687,1.687,0,0,1,1.053.274A1.745,1.745,0,0,0,506.192,406.887Zm-9.236,10.594c.048,0,2.338.029,2.363.043C499.294,417.51,497,417.483,496.956,417.482Zm-11.619.552c-.119.037-.142.166-.206.254C485.131,418.288,485.228,418.068,485.337,418.034Zm-.411-2.673c.08.376.1.46,0,0C484.963,414.927,484.963,414.949,484.926,415.361ZM436.27,386.333c-.833,1.076.8.936.959.588C437.516,386.294,436.529,386,436.27,386.333Zm-6.132,9.332c0,.005-.009.01-.018.016C430.13,395.675,430.137,395.671,430.139,395.665Zm-1.048-.553a.408.408,0,0,0-.158-.037A.408.408,0,0,1,429.091,395.112Zm-.156.114h0Zm-4.45-4.629a.972.972,0,0,1-.23.1A.972.972,0,0,0,424.486,390.6Zm16.86-11.976c-1.875-.5-.831-2.417-2.769-2.2-2.173.243-3.094-1.39-4.432-.337-3.4,2.673-1.776,4.215.325,3.442,2.672-.983,1.2,1.4,4.424.787l2.353-.443C442.137,379.7,442.237,378.858,441.346,378.621Zm15.844,3.665a.379.379,0,0,0-.215-.078c-.48.194-.476-.061-.3,1.864,0,.032.124.073.2.1.746.189.189-.644.333-.822.455-.571,1.366-.539,1.561-.089C459.852,382.638,457.569,383.307,457.19,382.286Zm10.542-11.75c-.233-.385-2.018-.437-2.181.426-.083.431-.2.766.283.929C466.512,372.122,468.661,372.084,467.732,370.537Zm14.7,3.826c.069-.4-.787-.584-1.16-.962-.679-.693.043-.633.35-.813.536-.311-.088-.629-.447-.533-.85.227-.264.589-.628.816a5.67,5.67,0,0,1-3.5,1.217c-1.218.2-1.084,1.279.23,1.329,3.441.134,2.808.609,4.3.3C484.427,375.944,482.282,375.267,482.436,374.363Zm30.384,8.529c-.269-.178-1.105.55-.26.856C512.9,383.873,513.615,383.421,512.819,382.892Zm8.174,3.842c-.475.167-1.406,1.588-.411,1.543l.6-.031c.953-.255,1.4.363,1.938-.007C525.291,386.758,522.147,386.337,520.994,386.734Zm7.926.746c-.027-.3-.657-.65-1.253-.68-2.323-.049-1.761,1.072-3.884,2.181-.388.2-.559.545-.3.79.636.6.322,1.225.276,1.84-.053.712.755,1.83,2.727,1.622,1.95-.207,1.556-1.259,1.716-1.6.214-.451.938-.559.613-1.966C528.42,387.941,528.99,388.25,528.919,387.48Zm-2.1,7.85c-1.469-.345-2.162.389-1.768.953.329.468,1.506.446,2.019.185C527.565,396.211,527.613,395.516,526.818,395.33Zm6.154,2.145c-.179-.694.365-.588,2.751-1.325,1.478-.458,2.578-2.005,1-2.36-.565-.126-1.167-.2-1.752-.295a7.076,7.076,0,0,1-1.812.066c-1.482.065-1.382.861-1.168,1.092.7.751-1.513,1.237-1.478,2.958-.327.023-.844.085-.876.27-.061.348.858.311.858.311C531.9,397.5,530.712,398.209,532.972,397.475Zm-2.473.825a.489.489,0,0,1-.224.479A.489.489,0,0,0,530.5,398.3Zm-2.209,73.615c.735-.158.969-1.811-.171-1.715-2.014.171-4.351-.3-4.465.47C523.026,474.894,525.885,472.433,528.289,471.915Zm-27.743-64.337.022-.012Zm-.323,84.915c1.039-1.913-2.783-1.933-3.236-.923C496,493.777,499.657,493.545,500.224,492.493Zm-19.591-11.737c.015-1-2.217-.766-2.581-.194C477.212,481.884,480.612,482.1,480.633,480.756ZM438.65,487.1c.527-.091.657-.407.618-.682-.109-.786-2.128-.725-2.032.154C437.384,486.759,437.57,487.29,438.65,487.1Zm-30.832-10.7c-.676.1-1.07.659-.722.982a15.176,15.176,0,0,0,1.78,1.358c.655.442,2.584-.277,1.668-.935C409.313,476.927,409.935,476.085,407.818,476.407Zm1.483,7.643c1.877-.273,1.828.174,3-.237,1.429-.5,2.142-.672,1.786-1.194-.287-.423-1.1-.4-2.206-.515a5.654,5.654,0,0,1-3.133.229C406.717,481.956,405.908,484.545,409.3,484.049Zm-1.652-2.7c1.925-.615,1.806-2.029.057-1.917C404.953,479.6,405.789,481.939,407.649,481.345Zm-7.629-4.794c2.127-.075,1.58-1.652-.028-1.908C398.361,474.383,398.04,476.136,400.02,476.551ZM387.935,486.72c.011-.21-.264-.387-.385-.3C386.878,486.909,387.9,487.331,387.935,486.72Zm-5-79.947c-.032.817,2.019.793,2.335.137C385.685,406.048,383.213,405.411,382.935,406.773Zm5.493.026a.687.687,0,0,0-.459-.146A.687.687,0,0,1,388.428,406.8Zm-.269,48.662c1.179.769,3.283.165,2.553-.977-.273-.426-.585-.846-.911-1.261a1.936,1.936,0,0,0-1.639-.137c-.465.354-.622.816-1.3,1.1C386.495,454.342,387.885,455.283,388.158,455.461Zm-4.5-11.341c1.94-.082,3.111.017,3.184-.828.151-1.789-1.864-.892-3.873-.686C381.292,442.782,381.906,444.219,383.661,444.12ZM359,458.956c-.351,1.325,2.362,1.414,2.48.857C361.83,458.154,359.16,458.359,359,458.956Zm11.462-2.014a7.569,7.569,0,0,1,1.8-.32A7.707,7.707,0,0,0,370.465,456.942Zm2.471-7.19h0C375.241,451.015,369.679,449.752,372.936,449.752Zm.007-39.681a.662.662,0,0,1,.451.145A.662.662,0,0,0,372.944,410.071Zm1.4,34.827c-.555-1.039-2.428-.517-2.612-1.138-.682-2.309-5,.64-.115.367.235-.013.6.208.537.325a14.926,14.926,0,0,0-.763,2.68c-.339,1.007.517,1.378.98,1.889q.91.04,1.82.076C376.284,447.159,374.994,446.117,374.346,444.9Zm5.593-1.345.221-.05.237.019c.209-.727.581-.76-1.611-.524C379.9,442.876,379.634,442.737,379.939,443.552Zm-3.56,11.176a16.424,16.424,0,0,1,1.753-.378A16.424,16.424,0,0,0,376.379,454.728Zm-2.37,6.291.036-.028Z" transform="translate(-340.892 -358.513)" fill="#c2c2c2" fill-rule="evenodd"/>
        <g id="Group_198" data-name="Group 198" transform="translate(0 0)">
          <path id="Path_145" data-name="Path 145" d="M440.82,381.8a1.417,1.417,0,0,1,.967.051C442.078,382.07,441.136,382.09,440.82,381.8Z" transform="translate(-274.735 -357.435)" fill="#c2c2c2" fill-rule="evenodd"/>
          <path id="Path_146" data-name="Path 146" d="M430.9,378.4c.025-.037.114-.042,0,0Z" transform="translate(-253.265 -357.663)" fill="#c2c2c2" fill-rule="evenodd"/>
          <path id="Path_147" data-name="Path 147" d="M575.254,464.8c-.318-.572-.833-.749-.185-1.179.215-.141.127-.114.377.033C575.944,463.948,575.526,464.27,575.254,464.8Z" transform="translate(-551.598 -351.885)" fill="#c2c2c2" fill-rule="evenodd"/>
          <path id="Path_148" data-name="Path 148" d="M470.109,487.475l.042.027C470.049,487.517,470.018,487.535,470.109,487.475Z" transform="translate(-334.263 -350.26)" fill="#c2c2c2" fill-rule="evenodd"/>
          <path id="Path_149" data-name="Path 149" d="M478.594,488.766a.813.813,0,0,0-.431.441c-.547,1.662.929,2.066,1.146,2.563.287.661-.454,1.425.8,1.675,2.048.407,1.469-1.434,2.99-1.288,1.254.12,1.651.085,1.861.893.169.649.35.9-.28,1.291-2.025,1.25.24,1.536.258,2.192.017.544-2.6-.854-3.537.864a11.449,11.449,0,0,1-.932,1.8c-.35.4-1.331.537-1.685.984a1.86,1.86,0,0,1-1.379.185c-.407-.149.292-.311.547-.694.287-.434-.722-.922-1.171-.727-1.054.458-2.433.237-3.551.545a1.364,1.364,0,0,1-.605-.011c-5.458-1.577-.591-.747-.7-3.286-.057-1.319.331-1.656,1.121-1.8,2.28-.417,2.622-2.751-.576-2.459-1.7.154.282-1-2.528-1.25a29.192,29.192,0,0,0-3.648-.383c-1.144.034-1.085-1.515-.189-1.2,1.759.625,1.146,1.428,3.806.429.7-.265,2.406-.554,3.43-.784,1.634-.365-.055-2.027,1.522-1.557.327.1.4.976,1.693.686,1.431-.321,2.23-.107,3.534-.328C479.54,487.931,479.32,488.437,478.594,488.766Z" transform="translate(-344.302 -350.286)" fill="#c2c2c2" fill-rule="evenodd"/>
          <path id="Path_150" data-name="Path 150" d="M523.432,493.967c1.338-.377,1.64-.958,2.962-.584.635.178,1.346.253,1.98.471,1.549.534,3.414-1.035.832-1.4-.269-.037-.382-.1-.313-.189.228-.305,2.51-.344,1.694-2.1-.271-.581.386-.675,2.551-1.542,1.115.279,2.112.465,1.882.712-.818.876-.324,2.678,1.771,2.48.561-.053,2.456.842,2.922-.094a2.194,2.194,0,0,1,.646-.949,1.186,1.186,0,0,1,.831-.041c1.683,1,.792,1.9.154,2.859-.492.741-.649.757-1.985.44a4.5,4.5,0,0,1-1.591-.791,5.794,5.794,0,0,0-3.169-.421,1.675,1.675,0,0,1-1.286-.33,2.426,2.426,0,0,0-2.2-.035c-.974.605-.049,2.3,1.937,1.993.733-.113,2.046-.558,2.155-.034.276,1.345-3.341-.41-4.32.876-.619.812-1.856.585-2.856,1.209-.432.27-1.752-.044-2.428.9-.484.675-.269.638-1.758.736a1.138,1.138,0,0,1-.945-.357c-.958-1-.989-1,0-2C524.064,494.615,522.061,494.354,523.432,493.967Z" transform="translate(-461.919 -350.182)" fill="#c2c2c2" fill-rule="evenodd"/>
          <path id="Path_151" data-name="Path 151" d="M553.657,492.7c2.206.845,3.54.248,6.554.857a6.383,6.383,0,0,0,3-.026c.724-.128.753-.586,1.1-.98.494-.561,1.448-.075,2.08.132,1.532.5,2.659-.652,3.1.358.078.178.5.973-.183,1.087-2.533.426-2.251,1.389-4.082,1.407-1.233.013-1.81.894-4.612.724a2.065,2.065,0,0,0-1.764.83c-.462.475-2.372.29-3.037-.1-.95-.555-2.513-.851-2.384-1.862a2.144,2.144,0,0,0-.883-1.945C552.166,492.858,553.308,492.565,553.657,492.7Z" transform="translate(-521.81 -349.934)" fill="#c2c2c2" fill-rule="evenodd"/>
          <path id="Path_152" data-name="Path 152" d="M542.392,365.276c1.569.28,1.011-.414,4.051,1.045.329.157-.292.584-.712,1.036-.226.248-.008.581-.555.8-.664-.341-1.314-.693-2-1.021a2.849,2.849,0,0,0-2.84.4c-.119.157-.1.4-.3.469-1.015.347-1.022.956-1.409,1.467-.352.466-1.353-.948-.763-1.647.19-.225.172-.208-.016-3.923-.092-1.839.289-1.1.079-3.581-.047-.56.148-1.059,1.077-1.313.707-.192.595.55,1.047,1.226.708,1.061-.23,1.424-.185,2.688C539.9,364.085,541.239,365.071,542.392,365.276Z" transform="translate(-482.86 -358.979)" fill="#c2c2c2" fill-rule="evenodd"/>
          <path id="Path_153" data-name="Path 153" d="M590.8,447.161c0-.51-.044-.991,1.514-1.074,2.235-.117,2.434-2.173,4.109.406.948,1.459-.262,1.765-.787,2.156-2.057,1.529-.667,1.939-.928,3.052-.347,1.485,2.09,1.216,1.114,2.279-1.269,1.384-.91,1.64-2.13,1.721-.734.048-1.29-.905-1.246-1.4.243-2.816-1.436-2.439-.568-3.652.45-.629.382-1.23-.4-1.765C590.871,448.47,590.944,448.163,590.8,447.161Z" transform="translate(-589.826 -353.129)" fill="#c2c2c2" fill-rule="evenodd"/>
          <path id="Path_154" data-name="Path 154" d="M503.835,506.8c.5.439,1.5,1.713,3.214.972.927-.4,2.627-.1,2.428.58-.137.468-1.195-.08-2.456.073-.783.094-1.221.258-1.208.627.049,1.353-.232,2.72.465,4.053.08.152-.312.38-.876.279-.471-.085-.573-.286-1.028-.809-.158-.182-.232-.047,0-.313.343-.4,1.511-3.556-2.047-2.679-.094.023-.171.089-.261.09a1.465,1.465,0,0,1-.558-.037c-2.419-1.832-.6-1.8-2.62-2.6a4.651,4.651,0,0,1-1.412-1.49c-2.116-3.654-.315-2.034,1.05-1.929.805.061,1.741,1.247,1,1.9-.547.483-.016,2.021,1.775,2.2.251.025,1.016.735,1.3.914a1.48,1.48,0,0,0,1.319-.186,1.1,1.1,0,0,0-.294-1.476C503.54,506.9,503.766,506.738,503.835,506.8Z" transform="translate(-401.846 -349.196)" fill="#c2c2c2" fill-rule="evenodd"/>
          <path id="Path_155" data-name="Path 155" d="M501.537,511.865l-.088.107C501.467,511.9,501.5,511.866,501.537,511.865Z" transform="translate(-399.173 -348.605)" fill="#c2c2c2" fill-rule="evenodd"/>
          <path id="Path_156" data-name="Path 156" d="M370.069,384.47c-.026.407-1.151.767-1.806.6-4.221-1.083-3.5,2.323-4.836,1.454a2.112,2.112,0,0,1-.888-.879c-.083-.214-.539-.41-.512-.6.022-.156.5-.3.79-.438a.857.857,0,0,0,.49-.781c.143-.7,2.077-.592,2.916-.922-.016.45.517.513,2.35.523.885.005,1.065-.431,1.39-.6a1.474,1.474,0,0,1,1.082.173C371.531,383.48,370.15,383.2,370.069,384.47Z" transform="translate(-119.902 -357.364)" fill="#c2c2c2" fill-rule="evenodd"/>
          <path id="Path_157" data-name="Path 157" d="M366.589,382.63c-.605.509-.509.2-.439.019C366.23,382.446,366.878,382.389,366.589,382.63Z" transform="translate(-119.765 -357.385)" fill="#c2c2c2" fill-rule="evenodd"/>
          <path id="Path_158" data-name="Path 158" d="M380.176,384.844a1.273,1.273,0,0,1-.292-.044A2.777,2.777,0,0,1,380.176,384.844Z" transform="translate(-147.999 -357.227)" fill="#c2c2c2" fill-rule="evenodd"/>
          <path id="Path_159" data-name="Path 159" d="M380.546,384.544c.682.282.738.319-.1.2C380.209,384.714,380.168,384.39,380.546,384.544Z" transform="translate(-149.296 -357.247)" fill="#c2c2c2" fill-rule="evenodd"/>
          <path id="Path_160" data-name="Path 160" d="M430.992,372.952c1.83-.337,1.344.8,2.264.683a13.66,13.66,0,0,0,2.433-.126c.155-.05.463.089.319.184-1.118.742-.5,1.583-1.833,2.057-.9.318-1.12-1.236-2.947-1.175a22.416,22.416,0,0,0-3.392.15c-.277.03-.415-.021-.422-.176,0-.054-.037-.121.005-.16C428.619,373.233,428.993,373.322,430.992,372.952Z" transform="translate(-254.606 -358.035)" fill="#c2c2c2" fill-rule="evenodd"/>
          <path id="Path_161" data-name="Path 161" d="M511.508,516.652c-.618-.03-.641-.061-.82-.379-.329-.587-2.385-4.712-1.424-5.035.438-.148.693-.075,3.133.916,1.158.469.083,1.246-.442,1.822C510.752,515.293,512.615,516.7,511.508,516.652Z" transform="translate(-418.624 -348.652)" fill="#c2c2c2" fill-rule="evenodd"/>
          <path id="Path_162" data-name="Path 162" d="M522.7,505.608c.591.216.688.911-1,.814A2.688,2.688,0,0,0,522.7,505.608Z" transform="translate(-442.355 -349.03)" fill="#c2c2c2" fill-rule="evenodd"/>
          <path id="Path_163" data-name="Path 163" d="M526.4,506.2c.755-.5,1.368.575,4.082.188a7.9,7.9,0,0,1,1.7.069c-.885.337-3.484.371-4.208.751-1.866.974-2.274-.731-4.068.241-.283.154-.6-.024-.548-.21C523.719,506.025,525.011,507.127,526.4,506.2Z" transform="translate(-453.191 -348.999)" fill="#c2c2c2" fill-rule="evenodd"/>
          <path id="Path_164" data-name="Path 164" d="M523.052,506.434c.039-.015.08-.028.117-.043C523.364,506.305,523.531,506.428,523.052,506.434Z" transform="translate(-444.07 -348.979)" fill="#c2c2c2" fill-rule="evenodd"/>
          <path id="Path_165" data-name="Path 165" d="M465.691,485.6c2.045-.075.832-.724,4.036-.589.67.027.137.755-.5.885-2.14.445-.994,2.024-2.962,1.523-2.168-.554-2.325.467-2.433-.905C463.8,486,464.687,485.639,465.691,485.6Z" transform="translate(-327.509 -350.429)" fill="#c2c2c2" fill-rule="evenodd"/>
          <path id="Path_166" data-name="Path 166" d="M469.508,487.5c.183-.388.6-.428.624-.288C470.167,487.418,469.611,487.562,469.508,487.5Z" transform="translate(-333.663 -350.283)" fill="#c2c2c2" fill-rule="evenodd"/>
          <path id="Path_167" data-name="Path 167" d="M552.922,376.821c-.2.47-1.552.227-1.758.032-.192-.179-2.956-2.39-1.411-2.68,2.033-.379,3.277-.671,3.337.056.066.789.253,1.1-.746,1.285C551.413,375.684,553.272,376,552.922,376.821Z" transform="translate(-501.867 -357.975)" fill="#c2c2c2" fill-rule="evenodd"/>
          <path id="Path_168" data-name="Path 168" d="M549.95,483.7c-2.376-.173-3.109-.188-2.9-.508.431-.661,1.646-.907,2.607-1.536C549.8,482.2,551.026,483.782,549.95,483.7Z" transform="translate(-496.683 -350.655)" fill="#c2c2c2" fill-rule="evenodd"/>
          <path id="Path_169" data-name="Path 169" d="M547.435,481.408a1.6,1.6,0,0,1,.252-.362C548.013,481.476,547.173,481.949,547.435,481.408Z" transform="translate(-494.452 -350.697)" fill="#c2c2c2" fill-rule="evenodd"/>
          <path id="Path_170" data-name="Path 170" d="M383.392,378.97c1.116.023,2.05-.075,2.321-.8.183-.488.645-.037,2.42.083.684.046.839.48,1.435.592,3.178.593-1.969.611-4.019,1.064a5.053,5.053,0,0,1-2.6-.745C383.095,379.1,383.248,378.966,383.392,378.97Z" transform="translate(-161.671 -357.692)" fill="#c2c2c2" fill-rule="evenodd"/>
          <path id="Path_171" data-name="Path 171" d="M492.311,509.416c-1.3.255-1,.589-2.439.918-1.4-.626-1.182-1.278-3.041-2.882-.139-.121.366-.319.54-.3,1.886.215,1.664,1.122,3.409,1.321C492.288,508.644,492.782,509.323,492.311,509.416Z" transform="translate(-374.484 -348.925)" fill="#c2c2c2" fill-rule="evenodd"/>
          <path id="Path_172" data-name="Path 172" d="M459.464,493.543a4.072,4.072,0,0,0-1.9.812c-1.26,1.042-3.579,1.121-2.863-.373.3-.622.425-.712,2.285-1.248.326-.1.576-.128,2.619.251C459.862,493.031,459.791,493.481,459.464,493.543Z" transform="translate(-307.34 -349.908)" fill="#c2c2c2" fill-rule="evenodd"/>
          <path id="Path_173" data-name="Path 173" d="M551.772,502.713c-.035-.14.17-.314.336-.444.464-.365,1.473.062,1.324.437-.461,1.162,1.679,1.976.482,1.977-1.648,0-1.806.541-3.214.018C549.257,504.161,552.112,504.094,551.772,502.713Z" transform="translate(-504.074 -349.266)" fill="#c2c2c2" fill-rule="evenodd"/>
          <path id="Path_174" data-name="Path 174" d="M518.385,503.136a4.753,4.753,0,0,1-1.6.1c-1.416.134-2.052.4-1.822-1.378.057-.444-.5-.726-.807-1.075-.1-.112.283-.31.577-.31,1.089,0,1.126.328,1.391,1.11.206.609,1.086.483,1.633.619S518.995,502.855,518.385,503.136Z" transform="translate(-429.807 -349.378)" fill="#c2c2c2" fill-rule="evenodd"/>
          <path id="Path_175" data-name="Path 175" d="M379.984,479.908c.96-.267,1.28.178,3.011,1.636.562.473-.43,1.186-.757,1.1-2.221-.61-2.495-.774-2.648-1.075C379.054,480.514,379.149,480.14,379.984,479.908Z" transform="translate(-150.318 -350.779)" fill="#c2c2c2" fill-rule="evenodd"/>
          <path id="Path_176" data-name="Path 176" d="M421.87,368.19a15.894,15.894,0,0,1,4.152.413c.62.209-1.215,1.142-3.206.8-1.791-.3-2.3.391-3.214-.011-.326-.141-1.343-.723-.336-.845A6.749,6.749,0,0,0,421.87,368.19Z" transform="translate(-235.559 -358.356)" fill="#c2c2c2" fill-rule="evenodd"/>
          <path id="Path_177" data-name="Path 177" d="M446.171,506.767a13.973,13.973,0,0,0-2.348.747c-.335.089-.862-.182-.709-.356a3.3,3.3,0,0,0,.842-1.608c.129-.8,2.37-.516,2.407.255C446.374,506.034,446.519,506.729,446.171,506.767Z" transform="translate(-281.716 -349.066)" fill="#c2c2c2" fill-rule="evenodd"/>
          <path id="Path_178" data-name="Path 178" d="M491.2,499.359c1.486,1.18-3.307,3.24-2.273-.7C489.04,498.246,490.527,498.82,491.2,499.359Z" transform="translate(-375.603 -349.511)" fill="#c2c2c2" fill-rule="evenodd"/>
          <path id="Path_179" data-name="Path 179" d="M516.174,497.473c-.172.161-1.147-.035-1.272-.573.139-.1.274-.3.5-.334a5.816,5.816,0,0,1,2.389-.111c1.064.264,2.077-.624,2.111-.063C519.949,497.134,517.5,496.233,516.174,497.473Z" transform="translate(-431.906 -349.668)" fill="#c2c2c2" fill-rule="evenodd"/>
          <path id="Path_180" data-name="Path 180" d="M503.446,494.581c-.266.017-.582-.21-.5-.358,1.146-2.02.956.238,3.379-.4.4-.1.341-.263,1.108-.149a.245.245,0,0,1,.058.454C506.605,494.778,506.508,494.393,503.446,494.581Z" transform="translate(-406.84 -349.861)" fill="#c2c2c2" fill-rule="evenodd"/>
          <path id="Path_181" data-name="Path 181" d="M583.968,396.556c.658.7,1.42,2.316,1.1,2.455-1.229.523-1.667-.994-2.442-2.11C582.358,396.523,583.549,396.113,583.968,396.556Z" transform="translate(-569.417 -356.442)" fill="#c2c2c2" fill-rule="evenodd"/>
          <path id="Path_182" data-name="Path 182" d="M509.348,497.564c-3.422-.814-1.325-.918-.96-1.493.028-.044.155-.068.237-.1C511.035,496.368,510.387,497.81,509.348,497.564Z" transform="translate(-414.291 -349.684)" fill="#c2c2c2" fill-rule="evenodd"/>
          <path id="Path_183" data-name="Path 183" d="M423.032,488.723c-.979-1.121,1.193-1.457,1.734-1.6.664-.172.783.9-.429,1.573C424.035,488.863,423.244,488.967,423.032,488.723Z" transform="translate(-238.891 -350.285)" fill="#c2c2c2" fill-rule="evenodd"/>
          <path id="Path_184" data-name="Path 184" d="M587.926,441.531c-.024-.11-.047-.22-.065-.331C587.708,440.289,589.589,440.245,587.926,441.531Z" transform="translate(-578.519 -353.445)" fill="#c2c2c2" fill-rule="evenodd"/>
          <path id="Path_185" data-name="Path 185" d="M588.041,440.429c-.055.016-.115.031-.165.051C587.854,440.488,587.794,440.47,588.041,440.429Z" transform="translate(-577.945 -353.453)" fill="#c2c2c2" fill-rule="evenodd"/>
          <path id="Path_186" data-name="Path 186" d="M589.251,442.457c-.121.4-.137.752-.545.656-.326-.077-.816-.574-.027-1.384C589.04,441.359,588.973,441.371,589.251,442.457Z" transform="translate(-579.582 -353.379)" fill="#c2c2c2" fill-rule="evenodd"/>
          <path id="Path_187" data-name="Path 187" d="M524.263,370.805a1,1,0,0,1,.193-.646c.085-.094.286-.252.357-.238a1.717,1.717,0,0,1,.778.241c.361.46.551,1.523.138,1.6C524.3,372.024,524.426,371.873,524.263,370.805Z" transform="translate(-447.961 -358.237)" fill="#c2c2c2" fill-rule="evenodd"/>
          <path id="Path_188" data-name="Path 188" d="M350.166,396.051a1.861,1.861,0,0,1-1.185.693C348.971,396.466,348.974,396.241,350.166,396.051Z" transform="translate(-84.987 -356.464)" fill="#c2c2c2" fill-rule="evenodd"/>
          <path id="Path_189" data-name="Path 189" d="M348.943,395.651c.183.019.384.333.021.344a20.723,20.723,0,0,0-2.75.088A3.7,3.7,0,0,1,348.943,395.651Z" transform="translate(-81.036 -356.495)" fill="#c2c2c2" fill-rule="evenodd"/>
          <path id="Path_190" data-name="Path 190" d="M457.291,373.9c-.173,1.253-1.177,2.1-1.665.833C456.182,371.414,457.325,373.65,457.291,373.9Z" transform="translate(-305.997 -358.032)" fill="#c2c2c2" fill-rule="evenodd"/>
          <path id="Path_191" data-name="Path 191" d="M488.25,364.565c.326.014.194.314-.221,1.58-.088.271-2.815.673-1.578-.114C487.666,365.376,487.44,364.532,488.25,364.565Z" transform="translate(-369.711 -358.6)" fill="#c2c2c2" fill-rule="evenodd"/>
          <path id="Path_192" data-name="Path 192" d="M584.166,478.855c.932.3,2.542.582,1.714,1.587C585.684,480.679,583.728,479.437,584.166,478.855Z" transform="translate(-572.007 -350.845)" fill="#c2c2c2" fill-rule="evenodd"/>
          <path id="Path_193" data-name="Path 193" d="M472.574,513.705a.535.535,0,0,1,.275,1c-2.39.621-3.013,1.649-2.609-.847C470.274,513.651,472.208,513.675,472.574,513.705Z" transform="translate(-337.31 -348.482)" fill="#c2c2c2" fill-rule="evenodd"/>
          <path id="Path_194" data-name="Path 194" d="M556.3,475.984c-1.1-.471-1.753-.7.257-.84C560.565,475.342,557.667,476.569,556.3,475.984Z" transform="translate(-513.695 -351.097)" fill="#c2c2c2" fill-rule="evenodd"/>
          <path id="Path_195" data-name="Path 195" d="M411.926,366.656c-.589.755-3.663-.226-2.7-.274C411.208,366.282,412.314,366.16,411.926,366.656Z" transform="translate(-210.961 -358.483)" fill="#c2c2c2" fill-rule="evenodd"/>
          <path id="Path_196" data-name="Path 196" d="M450.058,368.485c-1.8.227-1.537.153-.839-.354a6.409,6.409,0,0,1,.752-.505C450.4,367.4,451.306,368.329,450.058,368.485Z" transform="translate(-291.989 -358.395)" fill="#c2c2c2" fill-rule="evenodd"/>
          <path id="Path_197" data-name="Path 197" d="M454.732,379.495c.8.342.23,1.191-.963,1.092C452.805,380.5,454.217,379.273,454.732,379.495Z" transform="translate(-301.471 -357.589)" fill="#c2c2c2" fill-rule="evenodd"/>
          <path id="Path_198" data-name="Path 198" d="M355.74,409.695c.277-.515,1.68-.857,1.976-.321C358.126,410.112,355.47,410.2,355.74,409.695Z" transform="translate(-99.779 -355.578)" fill="#c2c2c2" fill-rule="evenodd"/>
          <path id="Path_199" data-name="Path 199" d="M506.529,513.3c.088.467-.472,1.106-1.291,1.106-.7-.123-.671-.664-.488-.843C505.181,513.14,506.488,513.075,506.529,513.3Z" transform="translate(-407.582 -348.517)" fill="#c2c2c2" fill-rule="evenodd"/>
          <path id="Path_200" data-name="Path 200" d="M528.622,501.261c-.8.138-.417-1.694.095-1.655C529.71,499.685,529.277,501.147,528.622,501.261Z" transform="translate(-455.464 -349.437)" fill="#c2c2c2" fill-rule="evenodd"/>
          <path id="Path_201" data-name="Path 201" d="M554.171,497.754c.085.418-.79.6-1.447.26C552.537,497.488,553.845,496.16,554.171,497.754Z" transform="translate(-506.548 -349.614)" fill="#c2c2c2" fill-rule="evenodd"/>
          <path id="Path_202" data-name="Path 202" d="M361.7,381.341c.993-.688,2.611-.613,2.493-.268C363.827,382.133,362.051,381.445,361.7,381.341Z" transform="translate(-112.597 -357.497)" fill="#c2c2c2" fill-rule="evenodd"/>
          <path id="Path_203" data-name="Path 203" d="M491.1,488.5a.733.733,0,0,1,.182-1.08c.325.151.539.031.483,1.008C491.758,488.522,491.238,488.677,491.1,488.5Z" transform="translate(-378.184 -350.264)" fill="#c2c2c2" fill-rule="evenodd"/>
          <path id="Path_204" data-name="Path 204" d="M464.19,488.554c-.329.058-.969-.393-.813-.742C464.592,487.451,465.014,488.407,464.19,488.554Z" transform="translate(-321.573 -350.243)" fill="#c2c2c2" fill-rule="evenodd"/>
          <path id="Path_205" data-name="Path 205" d="M557.052,386.911c.692.3-.067,1.118-.81.759C555.594,387.36,556.639,386.731,557.052,386.911Z" transform="translate(-513.251 -357.086)" fill="#c2c2c2" fill-rule="evenodd"/>
          <path id="Path_206" data-name="Path 206" d="M557.157,391.667c.268.971-1.946.4-1.212-.111C556.59,391.108,557.071,391.067,557.157,391.667Z" transform="translate(-512.849 -356.792)" fill="#c2c2c2" fill-rule="evenodd"/>
          <path id="Path_207" data-name="Path 207" d="M558.908,504.188c-.123.018-.248.034-.311.045C556.474,504.233,558.078,503.267,558.908,504.188Z" transform="translate(-516.444 -349.153)" fill="#c2c2c2" fill-rule="evenodd"/>
          <path id="Path_208" data-name="Path 208" d="M454.66,504.474c-.8-.193-.763-.667-.155-.6C455.364,503.965,455.177,504.6,454.66,504.474Z" transform="translate(-302.124 -349.148)" fill="#c2c2c2" fill-rule="evenodd"/>
          <path id="Path_209" data-name="Path 209" d="M587.141,460.835c.206-.051.366.011.417.153.194.544.325.681.021.781-.541.177-.505-.259-.535-.438C587.048,461.294,587.08,460.849,587.141,460.835Z" transform="translate(-576.797 -352.069)" fill="#c2c2c2" fill-rule="evenodd"/>
          <path id="Path_210" data-name="Path 210" d="M355.813,417.076c.058.032.084.124.044.162-.345.329-1.075.259-1.573.439a.841.841,0,0,1-.121-.064C354.6,417.383,354.914,416.606,355.813,417.076Z" transform="translate(-96.233 -355.047)" fill="#c2c2c2" fill-rule="evenodd"/>
          <path id="Path_211" data-name="Path 211" d="M444,368.621c.305.342-.542.84-1.088.247C442.738,368.676,443.594,368.168,444,368.621Z" transform="translate(-279.172 -358.337)" fill="#c2c2c2" fill-rule="evenodd"/>
          <path id="Path_212" data-name="Path 212" d="M596.835,441.507c-.31.122-.825-.189-.539-.349C597.1,440.709,597.979,441.06,596.835,441.507Z" transform="translate(-596.212 -353.417)" fill="#c2c2c2" fill-rule="evenodd"/>
          <path id="Path_213" data-name="Path 213" d="M525.4,380.08c-.174.493-1.244.064-.488-.346C525.321,379.512,525.462,379.9,525.4,380.08Z" transform="translate(-447.818 -357.575)" fill="#c2c2c2" fill-rule="evenodd"/>
          <path id="Path_214" data-name="Path 214" d="M508.7,494.9l-.077-.094C508.858,494.817,508.836,494.8,508.7,494.9Z" transform="translate(-414.094 -349.763)" fill="#c2c2c2" fill-rule="evenodd"/>
          <path id="Path_215" data-name="Path 215" d="M352.638,457.345c-.25.141-.19.147-.427-.123C352.266,456.9,353.1,457.088,352.638,457.345Z" transform="translate(-91.049 -352.325)" fill="#c2c2c2" fill-rule="evenodd"/>
          <path id="Path_216" data-name="Path 216" d="M368.064,394.606c-.185.014-.375.013-.563.018.013-.094-.043-.225.05-.281.256-.15.591-.267.345-.508C368.66,394.245,368.416,394.576,368.064,394.606Z" transform="translate(-122.994 -356.614)" fill="#c2c2c2" fill-rule="evenodd"/>
          <path id="Path_217" data-name="Path 217" d="M405.444,483.392c-.075.018-.182-.015,0,0Z" transform="translate(-200.455 -350.538)" fill="#c2c2c2" fill-rule="evenodd"/>
          <path id="Path_218" data-name="Path 218" d="M581.716,482.76c-.1-.052-.235-.113-.11-.208S581.909,482.518,581.716,482.76Z" transform="translate(-564.982 -350.597)" fill="#c2c2c2" fill-rule="evenodd"/>
          <path id="Path_219" data-name="Path 219" d="M531.2,508.721l.033-.153C531.383,508.725,531.384,508.7,531.2,508.721Z" transform="translate(-460.752 -348.829)" fill="#c2c2c2" fill-rule="evenodd"/>
          <path id="Path_220" data-name="Path 220" d="M419.282,395.619c-.012-.3,1.112.575,0,0Z" transform="translate(-229.668 -356.497)" fill="#c2c2c2" fill-rule="evenodd"/>
        </g>
      </g>
      <g id="Group_208" data-name="Group 208" transform="translate(277 486)">
        <g transform="matrix(1, 0, 0, 1, 346, 5254)" filter="url(#Rectangle_52)">
          <rect id="Rectangle_52-2" data-name="Rectangle 52" width="186" height="186" transform="translate(78 66)" fill="#fff"/>
        </g>
        <g id="Group_235" data-name="Group 235" transform="translate(231.368 5154.441)">
          <rect id="Rectangle_78" data-name="Rectangle 78" width="51.074" height="51.074" transform="translate(285.407 220.558)" fill="#dd1956"/>
          <rect id="Rectangle_79" data-name="Rectangle 79" width="15.67" height="54.169" transform="translate(239.105 233.262)" fill="none" stroke="#000" stroke-miterlimit="10" stroke-width="1.363"/>
          <rect id="Rectangle_80" data-name="Rectangle 80" width="15.67" height="54.234" transform="translate(261.875 233.198)" fill="none" stroke="#000" stroke-miterlimit="10" stroke-width="1.363"/>
          <path id="Path_233" data-name="Path 233" d="M282.832,237.805a47.2,47.2,0,0,0-47.2,47.2h94.4A47.2,47.2,0,0,0,282.832,237.805Z" transform="translate(0 11.527)" fill="#137bdb"/>
        </g>
      </g>
    </g>
    <g transform="matrix(1, 0, 0, 1, 1097, 6006)" filter="url(#Ellipse_18)">
      <circle id="Ellipse_18-2" data-name="Ellipse 18" cx="30.5" cy="30.5" r="30.5" transform="translate(243 27)" fill="#fff"/>
    </g>
    <path id="Path_289" data-name="Path 289" d="M9-7.964a3.678,3.678,0,0,1,2.1,1.331A3.927,3.927,0,0,1,11.836-4.2,3.866,3.866,0,0,1,10.351-1,6.328,6.328,0,0,1,6.314.176a9.368,9.368,0,0,1-3-.484A6.847,6.847,0,0,1,.924-1.628L1.87-3.7A6.848,6.848,0,0,0,6.2-2.09a3.473,3.473,0,0,0,2.2-.583A2.135,2.135,0,0,0,9.13-4.444a2.032,2.032,0,0,0-.737-1.727,3.757,3.757,0,0,0-2.277-.561H4.07V-8.976H5.742q3.014,0,3.014-2.266a2.055,2.055,0,0,0-.649-1.628,2.689,2.689,0,0,0-1.837-.572,5.868,5.868,0,0,0-2.1.407,8.016,8.016,0,0,0-2.079,1.2L1.144-13.9a6.61,6.61,0,0,1,2.365-1.32,9.167,9.167,0,0,1,2.937-.484A5.609,5.609,0,0,1,10.1-14.6a3.67,3.67,0,0,1,1.364,3,4.047,4.047,0,0,1-.671,2.255A3.592,3.592,0,0,1,9-7.964Z" transform="translate(1364 6071)"/>
    <g id="Group_350" data-name="Group 350" transform="translate(104 546)">
      <circle id="Ellipse_19" data-name="Ellipse 19" cx="3" cy="3" r="3" transform="translate(1274 5680)" fill="#e9e9e9"/>
      <circle id="Ellipse_20" data-name="Ellipse 20" cx="3" cy="3" r="3" transform="translate(1291 5680)" fill="#e9e9e9"/>
      <circle id="Ellipse_21" data-name="Ellipse 21" cx="3" cy="3" r="3" transform="translate(1274 5695)" fill="#e9e9e9"/>
      <circle id="Ellipse_22" data-name="Ellipse 22" cx="3" cy="3" r="3" transform="translate(1291 5695)" fill="#e9e9e9"/>
      <circle id="Ellipse_23" data-name="Ellipse 23" cx="3" cy="3" r="3" transform="translate(1274 5709)" fill="#e9e9e9"/>
      <circle id="Ellipse_24" data-name="Ellipse 24" cx="3" cy="3" r="3" transform="translate(1291 5709)" fill="#e9e9e9"/>
      <circle id="Ellipse_25" data-name="Ellipse 25" cx="3" cy="3" r="3" transform="translate(1274 5724)" fill="#e9e9e9"/>
      <circle id="Ellipse_26" data-name="Ellipse 26" cx="3" cy="3" r="3" transform="translate(1291 5724)" fill="#e9e9e9"/>
      <circle id="Ellipse_27" data-name="Ellipse 27" cx="3" cy="3" r="3" transform="translate(1274 5739)" fill="#e9e9e9"/>
      <circle id="Ellipse_28" data-name="Ellipse 28" cx="3" cy="3" r="3" transform="translate(1291 5739)" fill="#e9e9e9"/>
      <circle id="Ellipse_29" data-name="Ellipse 29" cx="3" cy="3" r="3" transform="translate(1241 5724)" fill="#e9e9e9"/>
      <circle id="Ellipse_30" data-name="Ellipse 30" cx="3" cy="3" r="3" transform="translate(1257 5724)" fill="#e9e9e9"/>
      <circle id="Ellipse_31" data-name="Ellipse 31" cx="3" cy="3" r="3" transform="translate(1241 5739)" fill="#e9e9e9"/>
      <circle id="Ellipse_32" data-name="Ellipse 32" cx="3" cy="3" r="3" transform="translate(1257 5739)" fill="#e9e9e9"/>
      <circle id="Ellipse_33" data-name="Ellipse 33" cx="3" cy="3" r="3" transform="translate(1224 5724)" fill="#e9e9e9"/>
      <circle id="Ellipse_34" data-name="Ellipse 34" cx="3" cy="3" r="3" transform="translate(1224 5739)" fill="#e9e9e9"/>
    </g>
  </g>
</svg>
