<svg xmlns="http://www.w3.org/2000/svg" width="134.664" height="43" viewBox="0 0 134.664 43">
  <g id="Group_3" data-name="Group 3" transform="translate(-50 -186.137)">
    <g id="Group_345" data-name="Group 345" transform="translate(99.559 188.453)">
      <g id="Group_343" data-name="Group 343" transform="translate(0 0)">
        <path id="Path_270" data-name="Path 270" d="M197.208,193.015h6.331c4.062,0,6.489,1.556,7.967,3.588a11.061,11.061,0,0,1,2,6.226,10.327,10.327,0,0,1-2.454,6.885,10.2,10.2,0,0,1-7.624,2.823h-6.225Zm2.849,16.91h3.4c3.43,0,7.2-1.715,7.2-7.1,0-2.955-1.82-7.2-7.149-7.2h-3.456Z" transform="translate(-197.208 -193.015)"/>
        <path id="Path_271" data-name="Path 271" d="M255.274,215.3a4.958,4.958,0,0,0,4.8,3.983,4.672,4.672,0,0,0,4.168-2.453h2.743a7.448,7.448,0,0,1-7.017,4.959,7.625,7.625,0,0,1-7.439-7.7,7.467,7.467,0,1,1,14.931-.185c0,.475-.053,1.213-.079,1.4Zm9.444-2.11a4.746,4.746,0,0,0-9.444,0Z" transform="translate(-233.906 -201.904)"/>
        <path id="Path_272" data-name="Path 272" d="M308.342,210.688a1.8,1.8,0,0,0-1.873-1.767,1.57,1.57,0,0,0-1.715,1.556c0,1.213,1.055,1.53,2.269,1.9,1.134.343,4.406,1.266,4.406,4.749a4.552,4.552,0,0,1-4.907,4.669,5.007,5.007,0,0,1-5.17-5.17h2.744c.105,1.635.949,2.664,2.479,2.664a1.94,1.94,0,0,0,2.111-2c0-1.293-1.135-1.741-2.559-2.242-1.583-.58-4.115-1.292-4.115-4.405a4.376,4.376,0,0,1,4.59-4.221,4.317,4.317,0,0,1,4.484,4.273Z" transform="translate(-266.29 -201.904)"/>
        <path id="Path_273" data-name="Path 273" d="M341,196.233h-2.743v-3.218H341Zm0,16.3h-2.743V197.922H341Z" transform="translate(-290.773 -193.015)"/>
        <path id="Path_274" data-name="Path 274" d="M370.279,219.446c0,4.8-2.928,7.729-7.914,7.729a7.6,7.6,0,0,1-7.2-4.617h3.06a4.8,4.8,0,0,0,4.168,2.111c2.9-.027,5.144-1.372,5.144-5.17h-.053a5.922,5.922,0,0,1-5.038,2.295,7.881,7.881,0,0,1-7.809-7.729,7.736,7.736,0,0,1,7.861-7.65,6.931,6.931,0,0,1,5.038,2.084v-1.688h2.743Zm-7.835-10.525a5.185,5.185,0,0,0-.026,10.367,5.215,5.215,0,0,0,5.118-5.144A5.011,5.011,0,0,0,362.444,208.921Z" transform="translate(-301.636 -201.904)"/>
        <path id="Path_275" data-name="Path 275" d="M421.683,221.425v-7.94c0-1.134,0-4.563-3.64-4.563-2.3,0-3.852,1.609-3.852,4.537v7.967h-2.743V206.811h2.559v1.556h.052a5.191,5.191,0,0,1,4.274-1.952,5.94,5.94,0,0,1,5.17,2.611,7.124,7.124,0,0,1,.923,3.746v8.653Z" transform="translate(-339.322 -201.904)"/>
      </g>
      <g id="Group_344" data-name="Group 344" transform="translate(0 24.885)">
        <path id="Path_276" data-name="Path 276" d="M199.1,276.326a2.188,2.188,0,0,0,2.107,2.352,2.029,2.029,0,0,0,2.089-2.195c0-1.457-1.194-1.773-2.089-2.125a6.748,6.748,0,0,1-2.756-1.457,3.445,3.445,0,0,1-.878-2.44,3.56,3.56,0,0,1,3.634-3.529,3.493,3.493,0,0,1,3.722,3.617h-1.9a1.742,1.742,0,0,0-1.826-1.879,1.788,1.788,0,0,0-1.738,1.773c0,1.247,1.176,1.58,1.738,1.791,1.633.615,3.986,1.124,3.986,4.249a3.793,3.793,0,0,1-3.986,3.933,3.9,3.9,0,0,1-4-4.091Z" transform="translate(-197.208 -266.932)"/>
        <path id="Path_277" data-name="Path 277" d="M225.646,280.655H223.82V272.6H222.5v-1.668h1.317v-3.266h1.826v3.266h1.6V272.6h-1.6Z" transform="translate(-213.987 -267.417)"/>
        <path id="Path_278" data-name="Path 278" d="M242.009,277.363v5.267c0,2.405,1.071,3.038,2.423,3.038,1.51,0,2.546-.966,2.546-3.09v-5.214H248.8v9.727h-1.668v-1.053H247.1a3.257,3.257,0,0,1-2.862,1.3,4.158,4.158,0,0,1-2.774-.966c-.808-.7-1.282-1.791-1.282-3.74v-5.267Z" transform="translate(-225.715 -273.851)"/>
        <path id="Path_279" data-name="Path 279" d="M279.8,280.655v-1.387h-.035a4.112,4.112,0,0,1-3.441,1.633,5.118,5.118,0,0,1,0-10.236,4.206,4.206,0,0,1,3.3,1.457h.035v-4.459h1.826v12.992Zm-3.371-8.322a3.451,3.451,0,1,0,3.371,3.476A3.322,3.322,0,0,0,276.429,272.333Z" transform="translate(-246.334 -267.417)"/>
        <path id="Path_280" data-name="Path 280" d="M310.436,269.8H308.61v-2.142h1.826Zm0,10.851H308.61v-9.727h1.826Z" transform="translate(-271.105 -267.417)"/>
        <path id="Path_281" data-name="Path 281" d="M324.76,286.817a5.23,5.23,0,0,1-5.25-5.18,5.253,5.253,0,0,1,10.5.035A5.233,5.233,0,0,1,324.76,286.817Zm0-8.568a3.45,3.45,0,1,0,3.423,3.424A3.429,3.429,0,0,0,324.76,278.249Z" transform="translate(-278.336 -273.333)"/>
      </g>
    </g>
    <rect id="Rectangle_113" data-name="Rectangle 113" width="43" height="43" rx="3" transform="translate(50 186.137)"/>
    <g id="Group_346" data-name="Group 346" transform="translate(55.177 196.467)">
      <path id="Path_282" data-name="Path 282" d="M65.378,216.822H75.564a10.268,10.268,0,0,1,7.6,3.249,11.457,11.457,0,0,1,0,15.841,10.266,10.266,0,0,1-7.6,3.249h-4.18l-.035-4.391h3.535a6.774,6.774,0,0,0,4.954-1.949,6.512,6.512,0,0,0,1.978-4.83,6.611,6.611,0,0,0-2-4.918,6.791,6.791,0,0,0-4.953-1.967H69.7l.035,11.859H65.378Z" transform="translate(-65.378 -216.822)" fill="#fff"/>
      <path id="Path_283" data-name="Path 283" d="M69.733,274.527H65.378v-4.39H69.72Z" transform="translate(-65.378 -252.188)" fill="#dd1956"/>
      <path id="Path_284" data-name="Path 284" d="M127.083,239.161l.035-4.32h4.355a3.119,3.119,0,0,0,3.161-3.161,5.843,5.843,0,0,0-1.879-4.461q-1.88-1.756-3.671-3.442a11.151,11.151,0,0,1-1.967-6.955h4.355a9.923,9.923,0,0,0,1.932,6.428l3.583,3.372a6.922,6.922,0,0,1,1.967,5.058,7.436,7.436,0,0,1-7.482,7.482Z" transform="translate(-106.309 -216.822)" fill="#fff"/>
    </g>
    <g id="Group_347" data-name="Group 347" transform="translate(154.358 216.71)">
      <rect id="Rectangle_114" data-name="Rectangle 114" width="30.306" height="2.298" transform="translate(0 0)" fill="#dd1956"/>
    </g>
    <g id="Group_348" data-name="Group 348" transform="translate(154.358 220.617)">
      <rect id="Rectangle_115" data-name="Rectangle 115" width="30.306" height="2.298" transform="translate(0 0)" fill="#dd1956"/>
    </g>
    <g id="Group_349" data-name="Group 349" transform="translate(154.358 224.524)">
      <rect id="Rectangle_116" data-name="Rectangle 116" width="30.306" height="2.298" transform="translate(0 0)" fill="#dd1956"/>
    </g>
  </g>
</svg>
