<svg xmlns="http://www.w3.org/2000/svg" width="45.457" height="45.453" viewBox="0 0 45.457 45.453">
  <g id="_6" data-name="6" transform="translate(-1152 -5330.871)">
    <g id="pen" transform="translate(1152 5330.691)">
      <path id="Path_291" data-name="Path 291" d="M16.524,43.706,42.308,17.922a5.014,5.014,0,0,1,7.081,0l3.027,3.027a5.009,5.009,0,0,0-.876-5.88l-3.4-3.4a5.014,5.014,0,0,0-7.081,0L15.273,37.451,10.031,53.164l3.753-1.251Zm0,0" transform="translate(-8.777 -8.77)" fill="#ffe8e8"/>
      <path id="Path_292" data-name="Path 292" d="M232.439,30.049a1.247,1.247,0,1,0-1.764,1.764l10.471,10.471a1.23,1.23,0,0,0,.888.363,1.282,1.282,0,0,0,.888-.363,1.246,1.246,0,0,0,0-1.764Zm0,0" transform="translate(-201.498 -25.813)" fill="#dd1956"/>
      <path id="Path_293" data-name="Path 293" d="M40.237,2.009a6.26,6.26,0,0,0-8.845,0L5.558,27.843c-.012.012-.012.025-.025.025-.025.038-.063.075-.087.112,0,.013-.013.013-.013.025-.025.038-.037.063-.063.1-.012.013-.012.025-.025.038-.012.038-.025.063-.038.1,0,.012-.012.012-.012.025L.066,43.993a1.232,1.232,0,0,0,.3,1.276,1.26,1.26,0,0,0,.888.363,1.481,1.481,0,0,0,.4-.063l15.713-5.242c.012,0,.012,0,.025-.012a.447.447,0,0,0,.112-.05.042.042,0,0,0,.025-.012c.037-.025.087-.05.125-.075s.075-.063.112-.087c.013-.013.025-.013.025-.025s.038-.025.05-.05L43.627,14.232a6.259,6.259,0,0,0,0-8.845ZM3.231,42.417,7.034,31,14.64,38.6ZM41.863,12.48l-24.9,24.908L8.26,28.681,33.168,3.773a3.753,3.753,0,0,1,5.3,0l3.4,3.4a3.765,3.765,0,0,1-.012,5.3Zm0,0" transform="translate(0 0)" fill="#dd1956"/>
    </g>
    <path id="Path_318" data-name="Path 318" d="M1456.847,5059.153,1467.5,5069.2l-23.882,23.882-10.211-10.825Z" transform="translate(-275 277)" fill="#6805df"/>
  </g>
</svg>
