<svg xmlns="http://www.w3.org/2000/svg" width="44.758" height="39.513" viewBox="0 0 44.758 39.513">
  <g id="_10" data-name="10" transform="translate(-1498.419 -5608.861)">
    <g id="folder_2_" data-name="folder (2)" transform="translate(1498.42 5608.861)">
      <path id="Path_315" data-name="Path 315" d="M223.643,92.433a4.173,4.173,0,0,0,3.7,2.238h15.218a4.593,4.593,0,0,1,.937.1,4.164,4.164,0,0,0-4.059-3.227H224.2a4.355,4.355,0,0,1-1.1-.146Zm0,0" transform="translate(-199.879 -81.889)" fill="#ffe8e8"/>
      <path id="Path_316" data-name="Path 316" d="M13.123,46.49v-29.1a4.162,4.162,0,0,1,4.164-4.164h9.587a4.336,4.336,0,0,1,1.1.146l-.541-1.03a4.173,4.173,0,0,0-3.7-2.238H14.164A4.162,4.162,0,0,0,10,14.265v29.1a4.175,4.175,0,0,0,3.227,4.059,4.592,4.592,0,0,1-.1-.937Zm0,0" transform="translate(-8.959 -9.05)" fill="#ffe8e8"/>
      <path id="Path_317" data-name="Path 317" d="M39.554,8.618H24.325a3.114,3.114,0,0,1-2.769-1.686L19.412,2.8A5.18,5.18,0,0,0,14.791,0H5.2A5.207,5.207,0,0,0,0,5.2v29.1a5.207,5.207,0,0,0,5.2,5.2H39.554a5.207,5.207,0,0,0,5.2-5.2V13.823a5.206,5.206,0,0,0-5.2-5.2ZM5.2,2.092h9.587a3.113,3.113,0,0,1,2.769,1.686L19.7,7.911a6.327,6.327,0,0,0,.448.718H2.081v-3.4A3.134,3.134,0,0,1,5.2,2.092ZM42.676,34.318a3.132,3.132,0,0,1-3.123,3.123H5.2a3.132,3.132,0,0,1-3.123-3.123V10.7H23.305a.974.974,0,0,0,.3-.041,5.67,5.67,0,0,0,.729.052H39.554a3.132,3.132,0,0,1,3.123,3.123Zm0,0" transform="translate(0 0)" fill="#dd1956"/>
    </g>
    <path id="Path_322" data-name="Path 322" d="M1167.006,4946.548h39.9l2.232,1.116.837,2.511v22.431l-1.841,2.121-2.846.725h-34.651l-2.511-1.785-.837-1.841Z" transform="translate(332 672)" fill="#6805df"/>
    <path id="Path_323" data-name="Path 323" d="M146.007,174.485l-9.222,8.816-4.934-4.934a1.038,1.038,0,0,0-1.468,1.468l5.652,5.652a1.022,1.022,0,0,0,.739.3,1.008,1.008,0,0,0,.718-.292l9.961-9.514a1.042,1.042,0,0,0-1.447-1.5Zm0,0" transform="translate(1381.88 5452.8)" fill="#fff"/>
  </g>
</svg>
