<svg xmlns="http://www.w3.org/2000/svg" width="51.538" height="50.542" viewBox="0 0 51.538 50.542">
  <g id="_14" data-name="14" transform="translate(-1494 -5324.755)">
    <g id="_7" data-name="7" transform="translate(1494 5324.77)">
      <g id="Group_461" data-name="Group 461" transform="translate(1.288 1.289)">
        <path id="Path_294" data-name="Path 294" d="M18.494,79.1l3.412-4.021a18.853,18.853,0,0,1-2.729-6.442l-5.312-.481v-7.04l5.312-.48a18.853,18.853,0,0,1,2.729-6.442l-3.412-4.021,3.328-3.26-2.111-1.718-5.083,4.977,3.412,4.021a18.854,18.854,0,0,0-2.729,6.442L10,61.113v7.04l5.312.48a18.853,18.853,0,0,0,2.729,6.442L14.629,79.1l5.083,4.979,2.111-1.718Zm0,0" transform="translate(-10 -40.658)" fill="#ffecec"/>
        <path id="Path_295" data-name="Path 295" d="M297.121,48.529l2-1.624-1.754-1.718-2.553,2.078a19.712,19.712,0,0,1,2.313,1.264Zm0,0" transform="translate(-258.113 -40.654)" fill="#ffecec"/>
        <path id="Path_296" data-name="Path 296" d="M136.744,17.879a19.7,19.7,0,0,1,6.579-2.673l.49-5.2h-3.865l-.49,5.2a19.681,19.681,0,0,0-4.266,1.409Zm0,0" transform="translate(-119.061 -10.004)" fill="#ffecec"/>
        <path id="Path_297" data-name="Path 297" d="M297.121,321.039a19.714,19.714,0,0,1-2.313,1.264l2.553,2.079,1.754-1.718Zm0,0" transform="translate(-258.113 -280.964)" fill="#ffecec"/>
        <path id="Path_298" data-name="Path 298" d="M136.744,321.039l-1.553,1.264a19.707,19.707,0,0,0,4.266,1.409l.49,5.2h3.865l-.49-5.2A19.7,19.7,0,0,1,136.744,321.039Zm0,0" transform="translate(-119.061 -280.964)" fill="#ffecec"/>
      </g>
      <path id="Path_340" data-name="Path 340" d="M1771.663,5069.53l3.515-.614,2.4-5.356.279-1.339-2.678-3.627,4.241-4.91,4.408,2.846s7.031-2.009,7.086-2.344.279-4.687.279-4.687,6.807-1.116,7.31-.614.725,5.3.725,5.3l6.473,2.344,4.185-2.846,4.854,4.91-3.348,4.073,2.678,6.25,5.357.614v6.528l-5.133,1.451-2.9,6.026,2.678,4.408-4.185,4.353-5.412-2.679-5.245,2.065-1,5.021-6.584.614-1.172-5.245-6.863-2.455-3.962,2.679s-4.687-4.353-4.743-4.353,2.957-4.408,2.957-4.408l-2.678-6.919h-4.966v-7.086Z" transform="translate(-1769 -5048.77)" fill="#6805df"/>
      <path id="Path_300" data-name="Path 300" d="M29.363,50.528H22.175a1.289,1.289,0,0,1-1.283-1.168l-.4-4.278a20.888,20.888,0,0,1-5.273-2.146l-3.4,2.769a1.289,1.289,0,0,1-1.715-.079L5.015,40.648a1.288,1.288,0,0,1-.081-1.754l2.8-3.3a20.058,20.058,0,0,1-2.17-5.13l-4.392-.4A1.289,1.289,0,0,1,0,28.784v-7.04a1.289,1.289,0,0,1,1.173-1.283l4.392-.4a20.058,20.058,0,0,1,2.17-5.13l-2.8-3.3a1.288,1.288,0,0,1,.081-1.754L10.1,4.9a1.289,1.289,0,0,1,1.715-.079l3.4,2.768a20.9,20.9,0,0,1,5.274-2.146l.4-4.278A1.289,1.289,0,0,1,22.174,0h7.19a1.289,1.289,0,0,1,1.283,1.168l.4,4.278a20.9,20.9,0,0,1,5.274,2.146l3.4-2.768A1.289,1.289,0,0,1,41.44,4.9L46.522,9.88a1.289,1.289,0,0,1,.081,1.754l-2.8,3.3a20.063,20.063,0,0,1,2.171,5.13l4.392.4a1.289,1.289,0,0,1,1.173,1.283v7.04a1.289,1.289,0,0,1-1.173,1.283l-4.392.4a20.059,20.059,0,0,1-2.171,5.13l2.8,3.3a1.288,1.288,0,0,1-.081,1.754l-5.083,4.978a1.289,1.289,0,0,1-1.715.079l-3.4-2.769a20.9,20.9,0,0,1-5.274,2.146l-.4,4.278a1.289,1.289,0,0,1-1.283,1.168Zm-6.015-2.577h4.843l.38-4.035a1.289,1.289,0,0,1,1.021-1.14,18.375,18.375,0,0,0,6.148-2.5,1.288,1.288,0,0,1,1.505.088l3.214,2.616,3.4-3.333-2.636-3.107a1.288,1.288,0,0,1-.091-1.546,17.527,17.527,0,0,0,2.542-6,1.289,1.289,0,0,1,1.143-1.011l4.14-.373V22.921l-4.14-.374a1.287,1.287,0,0,1-1.143-1.011,17.52,17.52,0,0,0-2.543-6,1.289,1.289,0,0,1,.091-1.546l2.636-3.106-3.4-3.333-3.214,2.616a1.288,1.288,0,0,1-1.505.088,18.371,18.371,0,0,0-6.148-2.5,1.29,1.29,0,0,1-1.021-1.14l-.38-4.035H23.347l-.38,4.035a1.29,1.29,0,0,1-1.021,1.14,18.371,18.371,0,0,0-6.148,2.5,1.288,1.288,0,0,1-1.505-.088L11.079,7.547l-3.4,3.333,2.636,3.107a1.288,1.288,0,0,1,.091,1.546,17.533,17.533,0,0,0-2.543,6,1.288,1.288,0,0,1-1.143,1.011l-4.14.374v4.685l4.14.373a1.288,1.288,0,0,1,1.143,1.012,17.539,17.539,0,0,0,2.543,6,1.288,1.288,0,0,1-.091,1.546L7.675,39.647l3.4,3.333,3.214-2.616a1.289,1.289,0,0,1,1.505-.088,18.361,18.361,0,0,0,6.148,2.5,1.289,1.289,0,0,1,1.021,1.14Zm0,0" fill="#dd1956"/>
    </g>
    <path id="Path_342" data-name="Path 342" d="M149.439,153.732a7.352,7.352,0,1,1,7.478-7.351A7.424,7.424,0,0,1,149.439,153.732Zm0-12.124a4.775,4.775,0,1,0,4.9,4.773A4.844,4.844,0,0,0,149.439,141.608Zm0,0" transform="translate(1370.33 5203.652)" fill="#fff"/>
  </g>
</svg>
