<svg xmlns="http://www.w3.org/2000/svg" width="46.759" height="47.284" viewBox="0 0 46.759 47.284">
  <g id="_8" data-name="8" transform="translate(0 0.001)">
    <path id="Path_301" data-name="Path 301" d="M7.036,43.686V38.8A1.314,1.314,0,0,1,8.35,37.489h7.413l.312-30.934a1.314,1.314,0,0,1,1.313-1.3H47.105V1.313A1.314,1.314,0,0,0,45.792,0H10.821A1.314,1.314,0,0,0,9.508,1.3L9.2,32.235H1.782A1.313,1.313,0,0,0,.469,33.549v4.883a8.818,8.818,0,0,0,7.269,8.732,8.931,8.931,0,0,1-.7-3.479Zm0,0" transform="translate(-0.407 -0.001)" fill="#feeeee"/>
    <path id="Path_329" data-name="Path 329" d="M10.438,1.264H45.312v38.5L44.2,42.89a57.291,57.291,0,0,1-5.078,3.348c-.391,0-4.52-.558-4.52-.558s-3.459-3.348-3.459-3.515-.391-4.8-.391-4.966-.614-4.3-.614-4.3l-20.59.558.893-29.853" fill="#6805df"/>
    <path id="Path_305" data-name="Path 305" d="M45.384,0H10.414A1.29,1.29,0,0,0,9.1,1.265v.007L8.788,32.178H1.375A1.416,1.416,0,0,0,0,33.547V38.43a8.844,8.844,0,0,0,8.175,8.831,1.252,1.252,0,0,0,.231.021H37.55a1.254,1.254,0,0,0,.146-.008c.11,0,.22.008.331.008a8.818,8.818,0,0,0,8.732-8.852V1.312A1.367,1.367,0,0,0,45.384,0ZM2.627,38.43V34.805H29.29V38.43a8.879,8.879,0,0,0,2.541,6.226H8.72A6.179,6.179,0,0,1,2.627,38.43Zm41.505,0a6.109,6.109,0,1,1-12.215,0V33.547a1.343,1.343,0,0,0-1.29-1.369H11.415l.3-29.553H44.132Zm0,0" transform="translate(0)" fill="#dd1956"/>
    <g id="Group_464" data-name="Group 464" transform="translate(17.119 7.132)">
      <path id="Path_302" data-name="Path 302" d="M137.789,56.939h-6.14a1.313,1.313,0,0,1,0-2.627h6.14a1.313,1.313,0,1,1,0,2.627Zm0,0" transform="translate(-130.336 -54.312)" fill="#fff"/>
      <path id="Path_303" data-name="Path 303" d="M149.508,122.807H131.649a1.313,1.313,0,1,1,0-2.627h17.858a1.313,1.313,0,0,1,0,2.627Zm0,0" transform="translate(-130.336 -111.529)" fill="#fff"/>
      <path id="Path_304" data-name="Path 304" d="M149.508,188.674H131.649a1.313,1.313,0,0,1,0-2.627h17.858a1.313,1.313,0,0,1,0,2.627Zm0,0" transform="translate(-130.336 -168.744)" fill="#fff"/>
    </g>
  </g>
</svg>
