<svg xmlns="http://www.w3.org/2000/svg" width="39.333" height="48.022" viewBox="0 0 39.333 48.022">
  <g id="_12" data-name="12" transform="translate(-1161.67 -5610.533)">
    <path id="Path_324" data-name="Path 324" d="M1178.463,4939.572l21.482.334.893,1.451-.67,5.635s-.223.335,0,.335h7.254l.614,6.25v22.041l-.614,2.9-2.567,1.06-23.882-.279h-2.846a15.943,15.943,0,0,1-1.674-2.009v-10.713s-.167-20.7,0-21.147.614-4.52.614-4.52Z" transform="translate(-8 672)" fill="#6805df"/>
    <g id="_9" data-name="9" transform="translate(1161.67 5610.534)">
      <path id="Path_307" data-name="Path 307" d="M16.149,93.984a3.02,3.02,0,0,1-3.02-3.02v-33.9h-.41a3.02,3.02,0,0,0-3.02,3.02V94.394a3.02,3.02,0,0,0,3.02,3.02H38.413a3.02,3.02,0,0,0,3.02-3.02v-.41Zm0,0" transform="translate(-8.59 -50.535)" fill="#ffecec"/>
      <g id="Group_463" data-name="Group 463" transform="translate(0 0)">
        <path id="Path_308" data-name="Path 308" d="M31.453.353,31.439.339,31.417.318C31.4.3,31.377.281,31.356.264L31.333.245C31.312.229,31.29.212,31.268.2s-.021-.013-.031-.019S31.2.151,31.174.139s-.033-.017-.05-.025S31.091.1,31.074.091s-.057-.022-.086-.032c-.006,0-.013-.008-.019-.01A.761.761,0,0,0,30.744,0c-.01,0-.02,0-.03,0-.028,0-.057,0-.086,0H10.048A4.214,4.214,0,0,0,5.831,4.163v1.21h-1.7A4.145,4.145,0,0,0,0,9.534V43.858a4.139,4.139,0,0,0,4.114,4.164H29.823a4.144,4.144,0,0,0,4.135-4.153V42.076H35.2a4.116,4.116,0,0,0,4.129-4.1V9.086a1.127,1.127,0,0,0-.3-.79Zm.333,3.639,3.764,3.9H31.786Zm-.114,39.866a1.855,1.855,0,0,1-1.834,1.877H4.129a1.85,1.85,0,0,1-1.842-1.857V9.544A1.856,1.856,0,0,1,4.114,7.66H5.831V37.94a4.191,4.191,0,0,0,4.217,4.136H31.672ZM35.2,39.79H10.048a1.9,1.9,0,0,1-1.93-1.85V4.163a1.925,1.925,0,0,1,1.93-1.877H29.5v6.8a1.083,1.083,0,0,0,1.127,1.088h6.42V37.94a1.826,1.826,0,0,1-1.8,1.85H35.2Zm0,0" transform="translate(0 0)" fill="#dd1956"/>
      </g>
    </g>
    <path id="Path_325" data-name="Path 325" d="M160.518,198.965l-7.577-1.092a1.144,1.144,0,0,0-.326,2.264l7.577,1.092a1.127,1.127,0,0,0,.164.011,1.143,1.143,0,0,0,.162-2.275Zm0,0" transform="translate(1027.374 5435.295)" fill="#fff"/>
    <path id="Path_326" data-name="Path 326" d="M240.98,214.139a1.144,1.144,0,0,0-1.617,0l-2.094,2.095a4.106,4.106,0,1,0,5.806,0Zm.477,6.284a1.819,1.819,0,0,1-2.573-2.572l1.287-1.287,1.286,1.286A1.819,1.819,0,0,1,241.457,220.423Zm0,0" transform="translate(952.597 5421.175)" fill="#fff"/>
    <path id="Path_327" data-name="Path 327" d="M102.608,82.287h9.5a1.143,1.143,0,0,0,0-2.287h-9.5a1.143,1.143,0,0,0,0,2.287Zm0,0" transform="translate(1071.807 5539.681)" fill="#fff"/>
    <path id="Path_328" data-name="Path 328" d="M110.97,131.143A1.143,1.143,0,0,0,109.827,130h-7.218a1.143,1.143,0,0,0,0,2.287h7.218A1.143,1.143,0,0,0,110.97,131.143Zm0,0" transform="translate(1071.807 5495.397)" fill="#fff"/>
  </g>
</svg>
