<svg xmlns="http://www.w3.org/2000/svg" width="152" height="26" viewBox="0 0 152 26"><g transform="translate(-0.333 -0.294)"><rect width="26" height="26" rx="8" transform="translate(0.333 0.294)" fill="#ffce4e"/><path d="M6.5,0,8.45,3.693,13,4.2,9.655,6.993,10.517,11,6.5,9.032,2.483,11l.862-4.007L0,4.2l4.55-.509Z" transform="translate(6.333 7.295)" fill="#fff"/><g transform="translate(31.455)"><rect width="26" height="26" rx="8" transform="translate(-0.121 0.294)" fill="#ffce4e"/><path d="M6.5,0,8.45,3.693,13,4.2,9.655,6.993,10.517,11,6.5,9.032,2.483,11l.862-4.007L0,4.2l4.55-.509Z" transform="translate(6.879 7.295)" fill="#fff"/></g><g transform="translate(62.91)"><rect width="26" height="26" rx="8" transform="translate(0.424 0.294)" fill="#ffce4e"/><path d="M6.5,0,8.45,3.693,13,4.2,9.655,6.993,10.517,11,6.5,9.032,2.483,11l.862-4.007L0,4.2l4.55-.509Z" transform="translate(6.424 7.295)" fill="#fff"/></g><g transform="translate(94.364)"><rect width="26" height="26" rx="8" transform="translate(-0.031 0.294)" fill="#c2c0bb"/><path d="M6.5,0,8.45,3.693,13,4.2,9.655,6.993,10.517,11,6.5,9.032,2.483,11l.862-4.007L0,4.2l4.55-.509Z" transform="translate(6.969 7.295)" fill="#fff"/></g><g transform="translate(125.819)"><rect width="27" height="26" rx="8" transform="translate(-0.486 0.294)" fill="#c2c0bb"/><path d="M6.5,0,8.45,3.693,13,4.2,9.655,6.993,10.517,11,6.5,9.032,2.483,11l.862-4.007L0,4.2l4.55-.509Z" transform="translate(6.514 7.295)" fill="#fff"/></g></g></svg>