<svg id="Scott_Hale" data-name="Scott Hale" xmlns="http://www.w3.org/2000/svg" xmlns:xlink="http://www.w3.org/1999/xlink" width="28.71" height="28.71" viewBox="0 0 28.71 28.71">
  <defs>
    <clipPath id="clip-path">
      <rect id="Rectangle_2754" data-name="Rectangle 2754" width="28.71" height="28.71" fill="none"/>
    </clipPath>
  </defs>
  <g id="Group_1508" data-name="Group 1508" clip-path="url(#clip-path)">
    <path id="Path_1856" data-name="Path 1856" d="M54.35,93l-6.36,2.512L42.01,93.026A4.234,4.234,0,0,0,45,91.148a.114.114,0,0,0,.012-.051V87.77a6.98,6.98,0,0,0,2.33,2.549,2.429,2.429,0,0,0,3.167-.618,2.966,2.966,0,0,0,.424-.841V91.1a.1.1,0,0,0,0,.023c.209.981,2.619,1.673,3.415,1.876" transform="translate(-33.798 -70.614)" fill="#fff"/>
    <path id="Path_1857" data-name="Path 1857" d="M12.273,10.76a.418.418,0,1,0,.418.418.419.419,0,0,0-.418-.418m.805.807A.057.057,0,0,0,13,11.55l-1.04.688a.054.054,0,0,0-.016.076.051.051,0,0,0,.047.025.041.041,0,0,0,.029-.01l1.042-.686a.056.056,0,0,0,.016-.076M12.3,8.884a1.825,1.825,0,0,0-.663.186l-.819.463h2.41s.221-.694.256-.749Zm2.183,7.981a.058.058,0,0,0-.07.037l-.158.52a.055.055,0,0,0,.037.068.058.058,0,0,0,.07-.037l.158-.518a.058.058,0,0,0-.037-.07m.444-3.315a.107.107,0,0,0-.129-.074l-.42.111a.3.3,0,0,1-.362-.162.3.3,0,0,1-.022-.115V11.56a.107.107,0,0,0-.213,0v1.749a.541.541,0,0,0,.037.194.5.5,0,0,0,.471.307.578.578,0,0,0,.141-.018l.422-.111a.108.108,0,0,0,.074-.131m.889.737a.107.107,0,0,0-.149-.014,2.29,2.29,0,0,1-1.341.455,2.907,2.907,0,0,1-1.46-.459.1.1,0,1,0-.119.172,3.027,3.027,0,0,0,1.579.5,2.486,2.486,0,0,0,1.478-.5.108.108,0,0,0,.012-.151m.653-1.964-.921-.694a.056.056,0,0,0-.078.012.055.055,0,0,0,.012.078l.921.694a.051.051,0,0,0,.033.01.062.062,0,0,0,.045-.022.058.058,0,0,0-.012-.078m-.3-1.562a.418.418,0,1,0,.418.418.419.419,0,0,0-.418-.418m.678-1.691a1.825,1.825,0,0,0-.663-.186L15,8.784c.035.055.256.749.256.749h2.41Zm.819.463-.819-.463a1.825,1.825,0,0,0-.663-.186L15,8.784c.035.055.256.749.256.749Zm-1.5,1.228a.418.418,0,1,0,.418.418.419.419,0,0,0-.418-.418m-.625.868a.056.056,0,0,0-.078.012.055.055,0,0,0,.012.078l.921.694a.051.051,0,0,0,.033.01.062.062,0,0,0,.045-.022.058.058,0,0,0-.012-.078Zm.119,2.645a2.29,2.29,0,0,1-1.341.455,2.907,2.907,0,0,1-1.46-.459.1.1,0,1,0-.119.172,3.027,3.027,0,0,0,1.579.5,2.486,2.486,0,0,0,1.478-.5.107.107,0,0,0-.137-.164m-1.378-.463a.578.578,0,0,0,.141-.018l.422-.111a.108.108,0,0,0,.074-.131.107.107,0,0,0-.129-.074l-.42.111a.3.3,0,0,1-.362-.162.3.3,0,0,1-.022-.115V11.56a.107.107,0,0,0-.213,0v1.749a.541.541,0,0,0,.037.194.5.5,0,0,0,.471.307m.194,3.055a.058.058,0,0,0-.07.037l-.158.52a.055.055,0,0,0,.037.068.058.058,0,0,0,.07-.037l.158-.518a.058.058,0,0,0-.037-.07m-1-8.081-1.185.1a1.825,1.825,0,0,0-.663.186l-.819.463h2.41s.221-.694.256-.749m-.4,2.783A.057.057,0,0,0,13,11.55l-1.04.688a.054.054,0,0,0-.016.076.051.051,0,0,0,.047.025.041.041,0,0,0,.029-.01l1.042-.686a.056.056,0,0,0,.016-.076m-.805.029a.418.418,0,1,0-.418-.418.419.419,0,0,0,.418.418M14.355,0a14.352,14.352,0,0,0-9.8,24.842c.154.145.311.285.471.422a.851.851,0,0,0,.078.068c.031.027.061.053.092.076a14.351,14.351,0,0,0,18.427-.094c.031-.023.063-.051.092-.076s.053-.045.078-.068c.123-.108.244-.217.362-.326A14.355,14.355,0,0,0,14.355,0M8.339,11.869a.607.607,0,0,1,.262-.407c.41-.242.772.17.864.289.018.233.041.483.072.743a1,1,0,0,0-.109-.127.046.046,0,0,0-.022-.022.845.845,0,0,0-.819-.27.055.055,0,0,0-.035.07.058.058,0,0,0,.07.037.694.694,0,0,1,.667.2.784.784,0,0,0-.344.459.6.6,0,0,0,.158.506.052.052,0,0,0,.043.022.054.054,0,0,0,.035-.014.056.056,0,0,0,.008-.078.489.489,0,0,1-.135-.414.706.706,0,0,1,.315-.4,1.472,1.472,0,0,1,.2.281v0c.051.379.117.778.209,1.181a.384.384,0,0,1-.33.162,1.17,1.17,0,0,1-.807-.62,2.391,2.391,0,0,1-.3-1.6m11.57,0a2.4,2.4,0,0,1-.3,1.6,1.173,1.173,0,0,1-.809.62.375.375,0,0,1-.3-.123c.09-.432.154-.858.2-1.261a1.388,1.388,0,0,1,.176-.242.69.69,0,0,1,.315.4.489.489,0,0,1-.135.414.056.056,0,0,0,.008.078.054.054,0,0,0,.035.014.058.058,0,0,0,.045-.022.6.6,0,0,0,.156-.506.784.784,0,0,0-.344-.459.706.706,0,0,1,.667-.2.058.058,0,0,0,.07-.037.055.055,0,0,0-.035-.07.845.845,0,0,0-.819.27.112.112,0,0,0-.022.022,1.274,1.274,0,0,0-.094.108c.025-.252.043-.493.055-.719v0c.09-.117.453-.536.866-.291a.615.615,0,0,1,.264.407m-10.24-.606a6.6,6.6,0,0,0,.68-3.016A1.791,1.791,0,0,1,10.6,6.955a2.3,2.3,0,0,1,.213-.272A3.625,3.625,0,0,1,11.9,5.87a3.385,3.385,0,0,0,2.742,2.1A8.4,8.4,0,0,1,12.754,6.2c.59.563,1.841,1.306,4.39,1.482a6.141,6.141,0,0,0-.047-1.5,3.429,3.429,0,0,1,.522.463l.008.008c.027.029.053.061.078.094a1.318,1.318,0,0,1,.129.2.007.007,0,0,1,0,0,1.779,1.779,0,0,1,.17,1.245,5.482,5.482,0,0,0,.557,3.17c-.055,1.609-.373,4.328-1.781,5.833a3.415,3.415,0,0,1-2.6,1.1,3.486,3.486,0,0,1-2.623-1.1c-1.468-1.54-1.818-4.343-1.894-5.938m4.523,13.632L8.212,22.412A4.234,4.234,0,0,0,11.2,20.534a.114.114,0,0,0,.012-.051V17.156a6.98,6.98,0,0,0,2.33,2.549,2.429,2.429,0,0,0,3.167-.618,2.966,2.966,0,0,0,.424-.841v2.236a.1.1,0,0,0,0,.023c.209.981,2.619,1.673,3.415,1.876ZM17.67,9.533l-.819-.463a1.825,1.825,0,0,0-.663-.186L15,8.784c.035.055.256.749.256.749Zm-1.5,1.228a.418.418,0,1,0,.418.418.419.419,0,0,0-.418-.418m-.625.868a.056.056,0,0,0-.078.012.055.055,0,0,0,.012.078l.921.694a.051.051,0,0,0,.033.01.062.062,0,0,0,.045-.022.058.058,0,0,0-.012-.078Zm.119,2.645a2.29,2.29,0,0,1-1.341.455,2.907,2.907,0,0,1-1.46-.459.1.1,0,1,0-.119.172,3.027,3.027,0,0,0,1.579.5,2.486,2.486,0,0,0,1.478-.5.107.107,0,0,0-.137-.164m-1.378-.463a.578.578,0,0,0,.141-.018l.422-.111a.108.108,0,0,0,.074-.131.107.107,0,0,0-.129-.074l-.42.111a.3.3,0,0,1-.362-.162.3.3,0,0,1-.022-.115V11.56a.107.107,0,0,0-.213,0v1.749a.541.541,0,0,0,.037.194.5.5,0,0,0,.471.307m.194,3.055a.058.058,0,0,0-.07.037l-.158.52a.055.055,0,0,0,.037.068.058.058,0,0,0,.07-.037l.158-.518a.058.058,0,0,0-.037-.07m-1-8.081-1.185.1a1.825,1.825,0,0,0-.663.186l-.819.463h2.41s.221-.694.256-.749m-.4,2.783A.057.057,0,0,0,13,11.55l-1.04.688a.054.054,0,0,0-.016.076.051.051,0,0,0,.047.025.041.041,0,0,0,.029-.01l1.042-.686a.056.056,0,0,0,.016-.076m-.805.029a.418.418,0,1,0-.418-.418.419.419,0,0,0,.418.418m0-.837a.418.418,0,1,0,.418.418.419.419,0,0,0-.418-.418m.805.807A.057.057,0,0,0,13,11.55l-1.04.688a.054.054,0,0,0-.016.076.051.051,0,0,0,.047.025.041.041,0,0,0,.029-.01l1.042-.686a.056.056,0,0,0,.016-.076M12.3,8.884a1.825,1.825,0,0,0-.663.186l-.819.463h2.41s.221-.694.256-.749Zm2.183,7.981a.058.058,0,0,0-.07.037l-.158.52a.055.055,0,0,0,.037.068.058.058,0,0,0,.07-.037l.158-.518a.058.058,0,0,0-.037-.07m.444-3.315a.107.107,0,0,0-.129-.074l-.42.111a.3.3,0,0,1-.362-.162.3.3,0,0,1-.022-.115V11.56a.107.107,0,0,0-.213,0v1.749a.541.541,0,0,0,.037.194.5.5,0,0,0,.471.307.578.578,0,0,0,.141-.018l.422-.111a.108.108,0,0,0,.074-.131m.889.737a.107.107,0,0,0-.149-.014,2.29,2.29,0,0,1-1.341.455,2.907,2.907,0,0,1-1.46-.459.1.1,0,1,0-.119.172,3.027,3.027,0,0,0,1.579.5,2.486,2.486,0,0,0,1.478-.5.108.108,0,0,0,.012-.151m.653-1.964-.921-.694a.056.056,0,0,0-.078.012.055.055,0,0,0,.012.078l.921.694a.051.051,0,0,0,.033.01.062.062,0,0,0,.045-.022.058.058,0,0,0-.012-.078m-.3-1.562a.418.418,0,1,0,.418.418.419.419,0,0,0-.418-.418m.678-1.691a1.825,1.825,0,0,0-.663-.186L15,8.784c.035.055.256.749.256.749h2.41Zm0,0a1.825,1.825,0,0,0-.663-.186L15,8.784c.035.055.256.749.256.749h2.41Zm-.678,1.691a.418.418,0,1,0,.418.418.419.419,0,0,0-.418-.418m.3,1.562-.921-.694a.056.056,0,0,0-.078.012.055.055,0,0,0,.012.078l.921.694a.051.051,0,0,0,.033.01.062.062,0,0,0,.045-.022.058.058,0,0,0-.012-.078m-.653,1.964a.107.107,0,0,0-.149-.014,2.29,2.29,0,0,1-1.341.455,2.907,2.907,0,0,1-1.46-.459.1.1,0,1,0-.119.172,3.027,3.027,0,0,0,1.579.5,2.486,2.486,0,0,0,1.478-.5.108.108,0,0,0,.012-.151m-.889-.737a.107.107,0,0,0-.129-.074l-.42.111a.3.3,0,0,1-.362-.162.3.3,0,0,1-.022-.115V11.56a.107.107,0,0,0-.213,0v1.749a.541.541,0,0,0,.037.194.5.5,0,0,0,.471.307.578.578,0,0,0,.141-.018l.422-.111a.108.108,0,0,0,.074-.131m-.444,3.315a.058.058,0,0,0-.07.037l-.158.52a.055.055,0,0,0,.037.068.058.058,0,0,0,.07-.037l.158-.518a.058.058,0,0,0-.037-.07M12.3,8.884a1.825,1.825,0,0,0-.663.186l-.819.463h2.41s.221-.694.256-.749Zm.78,2.684A.057.057,0,0,0,13,11.55l-1.04.688a.054.054,0,0,0-.016.076.051.051,0,0,0,.047.025.041.041,0,0,0,.029-.01l1.042-.686a.056.056,0,0,0,.016-.076m-.805-.807a.418.418,0,1,0,.418.418.419.419,0,0,0-.418-.418" fill="#dfdfdb"/>
    <path id="Path_1858" data-name="Path 1858" d="M43.935,60.8a.384.384,0,0,1-.33.162,1.17,1.17,0,0,1-.807-.62,2.391,2.391,0,0,1-.3-1.6.607.607,0,0,1,.262-.407c.41-.242.772.17.864.289.018.233.041.483.072.743a1,1,0,0,0-.109-.127.112.112,0,0,0-.021-.021.845.845,0,0,0-.819-.27.055.055,0,0,0-.035.07.058.058,0,0,0,.07.037.694.694,0,0,1,.667.2.784.784,0,0,0-.344.459.6.6,0,0,0,.158.506.052.052,0,0,0,.043.022.054.054,0,0,0,.035-.014.056.056,0,0,0,.008-.078.489.489,0,0,1-.135-.414.706.706,0,0,1,.315-.4,1.472,1.472,0,0,1,.2.281v0c.051.379.117.778.209,1.181" transform="translate(-34.157 -46.869)" fill="#fff"/>
    <path id="Path_1859" data-name="Path 1859" d="M95.756,60.339a1.173,1.173,0,0,1-.809.62.375.375,0,0,1-.3-.123c.09-.432.154-.858.2-1.261a1.388,1.388,0,0,1,.176-.242.691.691,0,0,1,.315.4.489.489,0,0,1-.135.414.056.056,0,0,0,.008.078.054.054,0,0,0,.035.014.058.058,0,0,0,.045-.022.6.6,0,0,0,.156-.506.784.784,0,0,0-.344-.459.706.706,0,0,1,.667-.2.058.058,0,0,0,.07-.037.055.055,0,0,0-.035-.07.845.845,0,0,0-.819.27.112.112,0,0,0-.021.021,1.275,1.275,0,0,0-.094.108c.025-.252.043-.493.055-.719v0c.09-.117.453-.536.866-.291a.615.615,0,0,1,.264.407,2.4,2.4,0,0,1-.3,1.6" transform="translate(-76.149 -46.868)" fill="#fff"/>
    <path id="Path_1860" data-name="Path 1860" d="M91.45,91.767a.111.111,0,0,1-.108.086.1.1,0,0,1-.025,0c-.02,0-.109-.025-.248-.061-.8-.2-3.206-.9-3.415-1.876a.1.1,0,0,1,0-.023V86.381a.112.112,0,0,1,.113-.111.114.114,0,0,1,.037.006.1.1,0,0,1,.039.025.063.063,0,0,1,.02.025.105.105,0,0,1,.016.055v3.5c.2.835,2.584,1.548,3.491,1.753a.085.085,0,0,1,.053.033l0,0a.106.106,0,0,1,.027.1" transform="translate(-70.517 -69.407)" fill="#1a1a1a"/>
    <path id="Path_1861" data-name="Path 1861" d="M43.089,86.381V89.89a.114.114,0,0,1-.012.051,4.234,4.234,0,0,1-2.989,1.878h0c-.108.025-.219.047-.334.066a.06.06,0,0,1-.02,0,.113.113,0,0,1-.109-.092.111.111,0,0,1,.092-.129.007.007,0,0,0,.006,0h0a4.342,4.342,0,0,0,3.143-1.8V86.381A.12.12,0,0,1,42.9,86.3a.124.124,0,0,1,.082-.033.111.111,0,0,1,.111.111" transform="translate(-31.878 -69.407)" fill="#1a1a1a"/>
    <path id="Path_1862" data-name="Path 1862" d="M42.909,116.424c-.117.109-.238.219-.362.326-.025.023-.051.045-.078.068s-.061.053-.092.076a14.351,14.351,0,0,1-18.427.094c-.031-.023-.061-.049-.092-.076a.851.851,0,0,1-.078-.068c-.16-.137-.317-.278-.471-.422a12.085,12.085,0,0,1,3.266-2.592l.022.008h0l.364.154h0l5.979,2.482,6.36-2.512.336-.133a.054.054,0,0,1,.014.008l0,0a12.116,12.116,0,0,1,3.251,2.584" transform="translate(-18.754 -91.58)" fill="#1a1a1a"/>
    <path id="Path_1863" data-name="Path 1863" d="M63.307,85.93c0,.023,0,.047,0,.07a.238.238,0,0,1,0,.053A4.466,4.466,0,0,1,63.1,87.38a2.966,2.966,0,0,1-.424.841,2.429,2.429,0,0,1-3.167.618,6.98,6.98,0,0,1-2.33-2.549c-.006-.012-.012-.023-.018-.033-.018-.035-.027-.053-.027-.053l.045.041a5.063,5.063,0,0,0,3.206,1.306A4.162,4.162,0,0,0,63.1,86.172c.066-.07.117-.129.151-.17s.061-.072.061-.072" transform="translate(-45.963 -69.134)" fill="#1a1a1a"/>
    <path id="Path_1864" data-name="Path 1864" d="M57.562,30.626a4.769,4.769,0,0,0,0-.53,5.256,5.256,0,0,0-1.212-3.305,4.182,4.182,0,0,0-3.219-1.241,4.758,4.758,0,0,0-3.6,1.347,5.187,5.187,0,0,0-1.294,3.03,4.944,4.944,0,0,0-.029.694c0,.065-.025.586.014,1.343.006.109.012.225.02.344.018.233.041.483.072.743.008.084.02.166.031.252v0c.051.379.117.778.209,1.181.018.086.037.17.061.254v0A7.619,7.619,0,0,0,49.8,37.452c.055.078.113.152.176.227a.085.085,0,0,0,.018.021q.091.108.188.211a3.706,3.706,0,0,0,2.785,1.173,3.634,3.634,0,0,0,2.762-1.173c.064-.068.127-.139.186-.213s.129-.162.19-.248a.139.139,0,0,0,.02-.027,7.53,7.53,0,0,0,1.1-2.654c.02-.082.037-.164.055-.244.09-.432.154-.858.2-1.261.01-.078.018-.154.023-.231v0c.025-.252.043-.493.055-.719v0c.008-.117.012-.233.016-.34.023-.737-.006-1.251-.012-1.343m-2,7.133a3.415,3.415,0,0,1-2.6,1.1,3.486,3.486,0,0,1-2.623-1.1c-1.468-1.54-1.818-4.343-1.894-5.938-.035-.71-.014-1.181-.014-1.2A5.394,5.394,0,0,1,49.7,27.049a4.542,4.542,0,0,1,3.436-1.276,3.966,3.966,0,0,1,3.053,1.169,3.758,3.758,0,0,1,.3.367,1.318,1.318,0,0,1,.129.2.007.007,0,0,1,0,0,5.844,5.844,0,0,1,.721,3.106v.016c0,.016.033.53.006,1.294-.055,1.609-.373,4.328-1.781,5.833" transform="translate(-38.78 -20.556)" fill="#1a1a1a"/>
    <path id="Path_1865" data-name="Path 1865" d="M57.8,32.36a1.779,1.779,0,0,0-.17-1.245.007.007,0,0,0,0,0c-.041-.068-.084-.133-.129-.2-.025-.033-.051-.065-.078-.094l-.008-.008a3.429,3.429,0,0,0-.522-.463,6.141,6.141,0,0,1,.047,1.5c-2.549-.176-3.8-.919-4.39-1.482a8.4,8.4,0,0,0,1.884,1.765,3.385,3.385,0,0,1-2.742-2.1,3.625,3.625,0,0,0-1.079.813,2.294,2.294,0,0,0-.213.272,1.791,1.791,0,0,0-.256,1.292,6.6,6.6,0,0,1-.68,3.016c.076,1.6.426,4.4,1.894,5.938a3.486,3.486,0,0,0,2.623,1.1,3.415,3.415,0,0,0,2.6-1.1c1.407-1.505,1.726-4.224,1.781-5.833a5.482,5.482,0,0,1-.557-3.17m-4.226,3.36a.107.107,0,0,1,.213,0v1.749a.3.3,0,0,0,.022.115.3.3,0,0,0,.362.162l.42-.111a.107.107,0,0,1,.129.074.108.108,0,0,1-.074.131l-.422.111a.578.578,0,0,1-.141.018.5.5,0,0,1-.471-.307.541.541,0,0,1-.037-.194Zm-2.963-2.027.819-.463a1.825,1.825,0,0,1,.663-.186l1.185-.1c-.035.055-.256.749-.256.749Zm1.456,1.228a.418.418,0,1,1-.418.418.419.419,0,0,1,.418-.418M51.784,36.5a.051.051,0,0,1-.047-.025.054.054,0,0,1,.016-.076l1.04-.688a.057.057,0,0,1,.078.018.056.056,0,0,1-.016.076l-1.042.686a.041.041,0,0,1-.029.01m2.369,5.113a.058.058,0,0,1-.07.037.055.055,0,0,1-.037-.068l.158-.52a.056.056,0,0,1,.108.033ZM55.6,38.6a2.486,2.486,0,0,1-1.478.5,3.027,3.027,0,0,1-1.579-.5.1.1,0,1,1,.119-.172,2.907,2.907,0,0,0,1.46.459,2.29,2.29,0,0,0,1.341-.455.107.107,0,0,1,.137.164m.676-2.037a.062.062,0,0,1-.045.021.051.051,0,0,1-.033-.01l-.921-.694a.055.055,0,0,1-.012-.078.056.056,0,0,1,.078-.012l.921.694a.058.058,0,0,1,.012.078m-.307-.8a.418.418,0,1,1,.418-.418.419.419,0,0,1-.418.418m-.913-2.064s-.221-.694-.256-.749l1.185.1a1.825,1.825,0,0,1,.663.186l.819.463Z" transform="translate(-39.792 -24.16)" fill="#fff"/>
    <path id="Path_1866" data-name="Path 1866" d="M95,59.536a1.379,1.379,0,0,1-.991.727h-.023a.584.584,0,0,1-.336-.1.7.7,0,0,1-.176-.172l.182-.131a.486.486,0,0,0,.049.059.375.375,0,0,0,.3.123,1.173,1.173,0,0,0,.809-.62,2.4,2.4,0,0,0,.3-1.6.615.615,0,0,0-.264-.407c-.412-.244-.776.174-.866.291v0l-.018.025-.184-.127a1.081,1.081,0,0,1,.078-.1c.01-.012.02-.023.031-.035a1.383,1.383,0,0,1,.108-.106.8.8,0,0,1,.964-.145.835.835,0,0,1,.367.547A2.645,2.645,0,0,1,95,59.536" transform="translate(-75.2 -45.947)" fill="#1a1a1a"/>
    <path id="Path_1867" data-name="Path 1867" d="M95.859,61.763a.058.058,0,0,1-.07.037.706.706,0,0,0-.667.2c-.027.025-.053.053-.08.082a1.388,1.388,0,0,0-.176.242,1.867,1.867,0,0,0-.09.166.056.056,0,0,1-.051.031.052.052,0,0,1-.023-.006.056.056,0,0,1-.025-.074,1.839,1.839,0,0,1,.213-.348v0a1.273,1.273,0,0,1,.094-.108A.046.046,0,0,1,95,61.962a.845.845,0,0,1,.819-.27.055.055,0,0,1,.035.07" transform="translate(-76.166 -49.616)" fill="#1a1a1a"/>
    <path id="Path_1868" data-name="Path 1868" d="M96.571,64.128a.058.058,0,0,1-.045.021.054.054,0,0,1-.035-.014.056.056,0,0,1-.008-.078.489.489,0,0,0,.135-.414.69.69,0,0,0-.315-.4l-.035-.021a.058.058,0,0,1-.023-.076.046.046,0,0,1,.021-.021.055.055,0,0,1,.055,0s.027.016.063.039a.784.784,0,0,1,.344.459.6.6,0,0,1-.156.506" transform="translate(-77.427 -50.78)" fill="#1a1a1a"/>
    <path id="Path_1869" data-name="Path 1869" d="M43.215,59.985a.636.636,0,0,1-.137.143v0a.589.589,0,0,1-.375.131H42.68a1.372,1.372,0,0,1-.989-.727,2.623,2.623,0,0,1-.328-1.773.832.832,0,0,1,.366-.547.8.8,0,0,1,.958.139c.018.016.033.029.049.045s.041.041.061.061a1.36,1.36,0,0,1,.115.141l-.184.127-.022-.029c-.092-.119-.453-.532-.864-.289a.607.607,0,0,0-.262.407,2.391,2.391,0,0,0,.3,1.6,1.17,1.17,0,0,0,.807.62.384.384,0,0,0,.33-.162.137.137,0,0,0,.016-.02Z" transform="translate(-33.241 -45.944)" fill="#1a1a1a"/>
    <path id="Path_1870" data-name="Path 1870" d="M44.9,62.515a.052.052,0,0,1-.023.006.056.056,0,0,1-.051-.031c-.022-.045-.043-.086-.066-.125v0a1.472,1.472,0,0,0-.2-.281c-.027-.029-.053-.057-.08-.082a.694.694,0,0,0-.667-.2.058.058,0,0,1-.07-.037.055.055,0,0,1,.035-.07.845.845,0,0,1,.819.27.046.046,0,0,1,.021.021,1,1,0,0,1,.109.127,1.889,1.889,0,0,1,.2.33.055.055,0,0,1-.027.074" transform="translate(-35.186 -49.616)" fill="#1a1a1a"/>
    <path id="Path_1871" data-name="Path 1871" d="M46.18,63.223l-.035.021a.706.706,0,0,0-.315.4.489.489,0,0,0,.135.414.056.056,0,0,1-.008.078.054.054,0,0,1-.035.014.052.052,0,0,1-.043-.021.6.6,0,0,1-.158-.506.784.784,0,0,1,.344-.459.75.75,0,0,1,.065-.039.051.051,0,0,1,.053,0,.046.046,0,0,1,.021.021.056.056,0,0,1-.023.076" transform="translate(-36.776 -50.78)" fill="#1a1a1a"/>
    <path id="Path_1872" data-name="Path 1872" d="M57.762,21.288,57.7,23.38l-.047,1.556c0-.08,0-.215,0-.393a5.629,5.629,0,0,1-.051.815c0,.027-.006.053-.01.078l-.022-.043c-.022-.039-.053-.1-.092-.184a5.482,5.482,0,0,1-.557-3.17,1.779,1.779,0,0,0-.17-1.245.007.007,0,0,0,0,0,1.318,1.318,0,0,0-.129-.2c-.025-.033-.051-.065-.078-.094l-.008-.008a3.429,3.429,0,0,0-.522-.463,6.141,6.141,0,0,1,.047,1.5c-2.549-.176-3.8-.919-4.39-1.482a8.4,8.4,0,0,0,1.884,1.765,3.385,3.385,0,0,1-2.742-2.1,3.625,3.625,0,0,0-1.079.813,2.3,2.3,0,0,0-.213.272,1.791,1.791,0,0,0-.256,1.292,6.6,6.6,0,0,1-.68,3.016c-.047.108-.086.194-.113.25s-.041.084-.041.084c-.008-.047-.014-.1-.02-.145-.016-.127-.025-.262-.033-.4v-.006c-.008-.2-.008-.409,0-.62V21.288a2,2,0,0,1,1.183-1.826l1.142-.6a2.379,2.379,0,0,1,1.665-1.574,1.614,1.614,0,0,1,.463-.082,2.778,2.778,0,0,1,2.916,1.82l.835.44a2,2,0,0,1,1.183,1.826" transform="translate(-38.915 -13.839)" fill="#1a1a1a"/>
    <path id="Path_1873" data-name="Path 1873" d="M71.571,60.826l-.422.111a.578.578,0,0,1-.141.018.5.5,0,0,1-.471-.307.541.541,0,0,1-.037-.194V58.706a.107.107,0,0,1,.213,0v1.749a.3.3,0,0,0,.021.115.3.3,0,0,0,.362.162l.42-.111a.107.107,0,0,1,.129.074.108.108,0,0,1-.074.131" transform="translate(-56.72 -47.146)" fill="#1a1a1a"/>
    <path id="Path_1874" data-name="Path 1874" d="M58.006,44.94c-.035.055-.256.749-.256.749H55.34l.819-.463a1.825,1.825,0,0,1,.663-.186Z" transform="translate(-44.523 -36.156)" fill="#1a1a1a"/>
    <path id="Path_1875" data-name="Path 1875" d="M79.426,45.689h-2.41s-.221-.694-.256-.749l1.185.1a1.825,1.825,0,0,1,.663.186Z" transform="translate(-61.756 -36.156)" fill="#1a1a1a"/>
    <path id="Path_1876" data-name="Path 1876" d="M61.487,55.468a.418.418,0,1,1-.418-.418.419.419,0,0,1,.418.418" transform="translate(-48.795 -44.29)" fill="#1a1a1a"/>
    <path id="Path_1877" data-name="Path 1877" d="M81.437,55.468a.418.418,0,1,1-.418-.418.419.419,0,0,1,.418.418" transform="translate(-64.845 -44.29)" fill="#1a1a1a"/>
    <path id="Path_1878" data-name="Path 1878" d="M62.189,59.149l-1.042.686a.041.041,0,0,1-.029.01.051.051,0,0,1-.047-.025.054.054,0,0,1,.016-.076l1.04-.688a.057.057,0,0,1,.078.018.056.056,0,0,1-.016.076" transform="translate(-49.126 -47.505)" fill="#1a1a1a"/>
    <path id="Path_1879" data-name="Path 1879" d="M80.1,60.218a.062.062,0,0,1-.045.021.051.051,0,0,1-.033-.01l-.921-.694a.055.055,0,0,1-.012-.078.056.056,0,0,1,.078-.012l.921.694a.058.058,0,0,1,.012.078" transform="translate(-63.623 -47.817)" fill="#1a1a1a"/>
    <path id="Path_1880" data-name="Path 1880" d="M68.077,73.086a2.486,2.486,0,0,1-1.478.5,3.027,3.027,0,0,1-1.579-.5.1.1,0,1,1,.119-.172,2.908,2.908,0,0,0,1.46.459,2.29,2.29,0,0,0,1.341-.455.107.107,0,0,1,.137.164" transform="translate(-52.273 -58.649)" fill="#1a1a1a"/>
    <path id="Path_1881" data-name="Path 1881" d="M73.178,86.342l-.158.518a.058.058,0,0,1-.07.037.055.055,0,0,1-.037-.068l.158-.52a.056.056,0,0,1,.108.033" transform="translate(-58.658 -69.407)" fill="#1a1a1a"/>
  </g>
</svg>
