<svg id="Sophia_Martin" data-name="Sophia Martin" xmlns="http://www.w3.org/2000/svg" xmlns:xlink="http://www.w3.org/1999/xlink" width="28.71" height="28.71" viewBox="0 0 28.71 28.71">
  <defs>
    <clipPath id="clip-path">
      <path id="Path_2015" data-name="Path 2015" d="M14.355,0A14.353,14.353,0,0,0,5.027,25.264a.851.851,0,0,0,.078.068c.031.027.061.053.092.076a14.351,14.351,0,0,0,18.427-.094c.031-.023.063-.051.092-.076s.053-.045.078-.068A14.355,14.355,0,0,0,14.355,0Z" fill="none"/>
    </clipPath>
  </defs>
  <g id="Group_1534" data-name="Group 1534">
    <g id="Group_1538" data-name="Group 1538">
      <path id="Path_1996" data-name="Path 1996" d="M28.71,14.355A14.322,14.322,0,0,1,23.794,25.17c-.025.023-.051.045-.078.068s-.061.053-.092.076A14.351,14.351,0,0,1,5.2,25.409c-.031-.023-.061-.049-.092-.076a.851.851,0,0,1-.078-.068A14.354,14.354,0,1,1,28.71,14.355" fill="#dfdfdb"/>
    </g>
  </g>
  <g id="Group_1536" data-name="Group 1536">
    <g id="Group_1535" data-name="Group 1535" clip-path="url(#clip-path)">
      <path id="Path_1997" data-name="Path 1997" d="M46.847,35.988s-.936-8.113,5.245-7.93,4.953,7.987,4.953,7.987Z" transform="translate(-37.649 -22.571)" fill="#211915"/>
      <path id="Path_1998" data-name="Path 1998" d="M55.788,40.231a.956.956,0,0,0-.8-.685,14.806,14.806,0,0,0-.021-2.512A4.989,4.989,0,0,0,54.54,35.4,4.531,4.531,0,0,0,50.427,32.8c-2.289,0-3.856,1.355-4.652,4a7.867,7.867,0,0,0-.3,2.341.517.517,0,0,1-.324.472.951.951,0,0,0-.407.343.971.971,0,0,0,.79,1.458l.219.016a6.882,6.882,0,0,0,1.374,3l-.162,7.8a4.3,4.3,0,0,0,6.651.067l-.243-7.871a9.744,9.744,0,0,0,1.314-3l.224-.016a.93.93,0,0,0,.875-1.186" transform="translate(-35.883 -26.391)" fill="#fff"/>
      <path id="Path_1999" data-name="Path 1999" d="M50.2,53.708a4.625,4.625,0,0,1-3.458-1.621l-.012-.013v-.018l.162-7.786a6.932,6.932,0,0,1-1.365-2.978l-.185-.014a1.068,1.068,0,0,1-.876-.6.913.913,0,0,1,.052-.928,1,1,0,0,1,.426-.359.469.469,0,0,0,.3-.431,7.851,7.851,0,0,1,.3-2.355c.806-2.676,2.386-4.033,4.7-4.033a4.569,4.569,0,0,1,4.154,2.62,5.019,5.019,0,0,1,.426,1.651,14.8,14.8,0,0,1,.024,2.479.992.992,0,0,1,.8.71.938.938,0,0,1-.125.811,1.043,1.043,0,0,1-.789.433l-.191.014a9.8,9.8,0,0,1-1.3,2.975l.243,7.874-.011.013a4.209,4.209,0,0,1-3.211,1.555H50.2M46.823,52.04A4.535,4.535,0,0,0,50.2,53.618h.049a4.118,4.118,0,0,0,3.132-1.509l-.243-7.867.006-.011a9.711,9.711,0,0,0,1.309-2.993l.008-.032.256-.019a.953.953,0,0,0,.722-.394.848.848,0,0,0,.113-.735h0a.907.907,0,0,0-.768-.653l-.042-.006,0-.042a14.693,14.693,0,0,0-.021-2.5,4.934,4.934,0,0,0-.418-1.622,4.479,4.479,0,0,0-4.073-2.567c-2.265,0-3.816,1.335-4.609,3.969a7.763,7.763,0,0,0-.294,2.328.558.558,0,0,1-.351.514.909.909,0,0,0-.388.327.825.825,0,0,0-.046.839.978.978,0,0,0,.8.549l.252.019.007.032a6.843,6.843,0,0,0,1.363,2.983l.012.013Z" transform="translate(-35.694 -26.206)" fill="#211915"/>
      <path id="Path_2000" data-name="Path 2000" d="M63.471,91.1a4.249,4.249,0,0,1-4.531.922,4.119,4.119,0,0,1-1.7-1.062V92.81l.043.011a6.989,6.989,0,0,0,1.783.238,6.269,6.269,0,0,0,4.458-1.883l.2-.283s-.017-.123-.07-.047c-.122.176-.153.234-.176.255" transform="translate(-46.048 -73.07)" fill="#211915"/>
      <path id="Path_2001" data-name="Path 2001" d="M46.9,71.288c-.074-.194-.162-.469-.37-.53-.31-.031-.317.162-.166.39a.017.017,0,0,1-.026.023.4.4,0,0,1-.162-.363.334.334,0,0,1,.381-.184.458.458,0,0,1,.308.279c.032.044.148.487.034.384" transform="translate(-37.144 -56.817)" fill="#1d1d1b"/>
      <path id="Path_2002" data-name="Path 2002" d="M96.411,71.272c.013-.258.095-.578.391-.656.24-.044.5.152.343.4-.015.03-.151.221-.149.128.151-.228.144-.421-.166-.39-.208.061-.3.337-.37.531a.025.025,0,0,1-.048-.009" transform="translate(-77.566 -56.808)" fill="#1d1d1b"/>
      <path id="Path_2003" data-name="Path 2003" d="M87.566,91.27a2.052,2.052,0,0,0,.513-.58l-.157.38Z" transform="translate(-70.45 -72.963)" fill="#211915"/>
      <path id="Path_2004" data-name="Path 2004" d="M61.829,62.243c0,.207-.125.375-.278.375s-.278-.168-.278-.376.125-.375.278-.375.278.168.278.376" transform="translate(-49.296 -49.774)" fill="#211915"/>
      <path id="Path_2005" data-name="Path 2005" d="M82.328,62.247c0,.207-.125.375-.278.375s-.278-.168-.278-.376.125-.375.278-.375.278.168.278.376" transform="translate(-65.788 -49.777)" fill="#211915"/>
      <path id="Path_2006" data-name="Path 2006" d="M56.047,52.546a1.929,1.929,0,0,1,2.93.21,2,2,0,0,1,.13.829c.023.821,0,1.641-.041,2.46l-.03-.031.832.03-.832.03c-.039,0-.029.008-.03-.031L59,54.405a5.7,5.7,0,0,0-.136-1.594,1.928,1.928,0,0,0-2.814-.266" transform="translate(-45.092 -41.814)" fill="#211915"/>
      <path id="Path_2007" data-name="Path 2007" d="M80.82,55.362a2.483,2.483,0,0,0-2.9,0,2.056,2.056,0,0,1,2.9,0" transform="translate(-62.687 -44.058)" fill="#211915"/>
      <path id="Path_2008" data-name="Path 2008" d="M66.51,79.6a1.717,1.717,0,0,0,2.353.252c.1-.077.188-.17.289-.252-.078.1-.157.205-.245.3a1.547,1.547,0,0,1-2.4-.3" transform="translate(-53.51 -64.041)" fill="#211915"/>
      <path id="Path_2009" data-name="Path 2009" d="M55.1,70.51c0,.384-.413.7-.922.7s-.922-.312-.922-.7.413-.7.922-.7.922.312.922.7" transform="translate(-42.847 -56.168)" fill="#f9ced9"/>
      <path id="Path_2010" data-name="Path 2010" d="M85.04,70.51c0,.384-.413.7-.922.7s-.922-.312-.922-.7.413-.7.922-.7.922.312.922.7" transform="translate(-66.933 -56.168)" fill="#f9ced9"/>
      <path id="Path_2011" data-name="Path 2011" d="M59.982,35.351l-1.69-.064c-.034-.23-.28-1.672-.28-1.672v1.666h-7A4.745,4.745,0,0,1,55.595,31.7a4.473,4.473,0,0,1,4.387,3.652" transform="translate(-41.044 -25.503)" fill="#211915"/>
      <path id="Path_2012" data-name="Path 2012" d="M85.023,12.363a2.515,2.515,0,1,1-5,0,2.515,2.515,0,1,1,5,0" transform="translate(-64.382 -7.701)" fill="#211915"/>
      <path id="Path_2013" data-name="Path 2013" d="M32.99,117.49c-2.92,1.34-6.439.014-6.476,0-3.664.767-6.971,2.867-7.348,6.5l0,5.545h21.09l.128-5.356c-.308-3.718-3.661-5.9-7.392-6.688" transform="translate(-15.418 -94.525)" fill="#444140"/>
      <path id="Path_2014" data-name="Path 2014" d="M40.112,129.385H18.933l0-5.59a6.3,6.3,0,0,1,2.458-4.359,11.658,11.658,0,0,1,4.926-2.184l.013,0,.012,0c.035.014,3.56,1.323,6.442,0l.013-.006.015,0c4.378.923,7.154,3.438,7.427,6.728Zm-21.089-.09h21l.128-5.312c-.269-3.24-3.013-5.723-7.342-6.639-2.855,1.3-6.217.1-6.485,0-4.245.892-6.973,3.3-7.3,6.457Z" transform="translate(-15.232 -94.331)" fill="#211915"/>
    </g>
  </g>
</svg>
