<svg id="Stella_Shawn" data-name="Stella Shawn" xmlns="http://www.w3.org/2000/svg" xmlns:xlink="http://www.w3.org/1999/xlink" width="28.71" height="28.71" viewBox="0 0 28.71 28.71">
  <defs>
    <clipPath id="clip-path">
      <path id="Path_1974" data-name="Path 1974" d="M14.355,0A14.353,14.353,0,0,0,5.027,25.264a.881.881,0,0,0,.078.068c.031.027.061.053.092.076a14.351,14.351,0,0,0,18.427-.094c.031-.023.063-.051.092-.076s.053-.045.078-.069A14.355,14.355,0,0,0,14.355,0Z" fill="none"/>
    </clipPath>
  </defs>
  <g id="Group_1522" data-name="Group 1522" transform="translate(0)">
    <g id="Group_1526" data-name="Group 1526">
      <path id="Path_1956" data-name="Path 1956" d="M28.71,14.355A14.322,14.322,0,0,1,23.794,25.17c-.025.023-.051.045-.078.068s-.061.053-.092.076A14.351,14.351,0,0,1,5.2,25.409c-.031-.023-.061-.049-.092-.076a.851.851,0,0,1-.078-.068A14.354,14.354,0,1,1,28.71,14.355" transform="translate(0)" fill="#dfdfdb"/>
    </g>
  </g>
  <g id="Group_1524" data-name="Group 1524" transform="translate(0)">
    <g id="Group_1523" data-name="Group 1523" clip-path="url(#clip-path)">
      <path id="Path_1957" data-name="Path 1957" d="M54.935,19.738a.963.963,0,0,0-.811-.691,14.955,14.955,0,0,0-.021-2.533,5.031,5.031,0,0,0-.425-1.65,4.569,4.569,0,0,0-4.148-2.615c-2.308,0-3.888,1.366-4.691,4.034a7.944,7.944,0,0,0-.3,2.361.521.521,0,0,1-.327.476.958.958,0,0,0-.411.346.98.98,0,0,0,.8,1.47l.22.016A6.938,6.938,0,0,0,46.2,23.98l-.164,7.869a4.34,4.34,0,0,0,6.706.068L52.5,23.98a9.82,9.82,0,0,0,1.325-3.029l.226-.017a.937.937,0,0,0,.882-1.2" transform="translate(-35.123 -9.854)" fill="#fff"/>
      <path id="Path_1958" data-name="Path 1958" d="M49.3,33.329a4.664,4.664,0,0,1-3.486-1.635l-.012-.013v-.018l.163-7.851a6.99,6.99,0,0,1-1.376-3l-.187-.014a1.078,1.078,0,0,1-.883-.6.92.92,0,0,1,.052-.935,1,1,0,0,1,.43-.362.473.473,0,0,0,.3-.435,7.935,7.935,0,0,1,.3-2.374c.813-2.7,2.405-4.067,4.734-4.067a4.607,4.607,0,0,1,4.189,2.642,5.062,5.062,0,0,1,.429,1.665,14.9,14.9,0,0,1,.024,2.5,1,1,0,0,1,.806.716.946.946,0,0,1-.127.818,1.05,1.05,0,0,1-.8.436l-.193.014a9.9,9.9,0,0,1-1.315,3l.245,7.939-.011.013a4.244,4.244,0,0,1-3.238,1.568H49.3M45.9,31.648A4.573,4.573,0,0,0,49.3,33.239h.049a4.154,4.154,0,0,0,3.159-1.522l-.244-7.932.013-.021a9.8,9.8,0,0,0,1.314-3.008l.008-.032.258-.019a.961.961,0,0,0,.728-.4.857.857,0,0,0,.114-.741.915.915,0,0,0-.774-.659l-.042-.006,0-.042a14.819,14.819,0,0,0-.021-2.526,4.981,4.981,0,0,0-.421-1.635,4.517,4.517,0,0,0-4.107-2.589c-2.284,0-3.848,1.347-4.648,4a7.845,7.845,0,0,0-.3,2.347.561.561,0,0,1-.353.518.915.915,0,0,0-.392.329.833.833,0,0,0-.046.846.987.987,0,0,0,.808.554l.254.019.007.032a6.9,6.9,0,0,0,1.375,3.008l.012.013Z" transform="translate(-34.933 -9.669)" fill="#211915"/>
      <path id="Path_1959" data-name="Path 1959" d="M62.683,71.034a4.285,4.285,0,0,1-4.569.93A4.154,4.154,0,0,1,56.4,70.893v1.863l.044.012a7.049,7.049,0,0,0,1.8.24,6.323,6.323,0,0,0,4.5-1.9l.2-.285s-.017-.124-.07-.047c-.123.178-.155.236-.177.258" transform="translate(-45.373 -56.922)" fill="#211915"/>
      <path id="Path_1960" data-name="Path 1960" d="M45.974,51.057c-.075-.2-.163-.473-.373-.535-.313-.031-.321.164-.168.394a.017.017,0,0,1-.025.023.4.4,0,0,1-.163-.365.337.337,0,0,1,.384-.185.462.462,0,0,1,.31.281c.032.044.149.49.035.387" transform="translate(-36.396 -40.536)" fill="#1d1d1b"/>
      <path id="Path_1961" data-name="Path 1961" d="M95.9,51.041c.013-.26.1-.582.394-.661.242-.045.5.152.345.4-.015.03-.152.223-.15.129.152-.23.145-.426-.168-.394-.211.062-.3.34-.374.537a.025.025,0,0,1-.048-.009" transform="translate(-77.154 -40.527)" fill="#1d1d1b"/>
      <path id="Path_1962" data-name="Path 1962" d="M86.979,71.2a2.068,2.068,0,0,0,.517-.584L87.338,71Z" transform="translate(-69.978 -56.815)" fill="#211915"/>
      <path id="Path_1963" data-name="Path 1963" d="M61.027,41.934c0,.209-.126.379-.281.379s-.28-.17-.28-.379.126-.379.28-.379.28.17.28.379" transform="translate(-48.647 -33.432)" fill="#211915"/>
      <path id="Path_1964" data-name="Path 1964" d="M81.7,41.938c0,.209-.126.379-.28.379s-.28-.17-.28-.379.126-.379.28-.379.28.17.28.379" transform="translate(-65.278 -33.436)" fill="#211915"/>
      <path id="Path_1965" data-name="Path 1965" d="M55.2,32.156a1.945,1.945,0,0,1,2.954.212,2.015,2.015,0,0,1,.131.835c.023.828,0,1.655-.041,2.481l-.03-.031.839.03-.839.03c-.039,0-.029.008-.03-.031l-.009-1.651a5.741,5.741,0,0,0-.137-1.608,1.944,1.944,0,0,0-2.838-.268" transform="translate(-44.408 -25.406)" fill="#211915"/>
      <path id="Path_1966" data-name="Path 1966" d="M80.176,32.044a2.5,2.5,0,0,0-2.927,0,2.074,2.074,0,0,1,2.927,0" transform="translate(-62.15 -25.294)" fill="#211915"/>
      <path id="Path_1967" data-name="Path 1967" d="M65.747,59.435a1.73,1.73,0,0,0,2.373.254c.1-.078.189-.171.291-.254-.078.1-.158.207-.247.3a1.56,1.56,0,0,1-2.417-.3" transform="translate(-52.896 -47.818)" fill="#211915"/>
      <path id="Path_1968" data-name="Path 1968" d="M54.244,50.269c0,.387-.416.7-.93.7s-.93-.314-.93-.7.417-.7.93-.7.93.314.93.7" transform="translate(-42.145 -39.878)" fill="#f9ced9"/>
      <path id="Path_1969" data-name="Path 1969" d="M84.432,50.269c0,.387-.416.7-.93.7s-.93-.314-.93-.7.417-.7.93-.7.93.314.93.7" transform="translate(-66.432 -39.878)" fill="#f9ced9"/>
      <path id="Path_1970" data-name="Path 1970" d="M45.968,11.435a4.934,4.934,0,0,0,.379,2.809s.061-.386.334-1.958c.3-1.721.758-2.31,2.249-2.035a7.737,7.737,0,0,0,4.581-.932c2.333-1.179,1.975,3.867,2.438,5.194,0,0,1.439-4.428-.815-6.577A6.012,6.012,0,0,0,50.7,6.64a4.92,4.92,0,0,0-4.733,4.795" transform="translate(-36.948 -5.321)" fill="#211915"/>
      <path id="Path_1971" data-name="Path 1971" d="M31.948,97.642c-2.944,1.351-6.493.015-6.53,0-3.694.773-7.03,2.891-7.409,6.553l0,5.591H39.272l.13-5.4c-.311-3.749-3.691-5.95-7.454-6.744" transform="translate(-14.486 -78.556)" fill="#211915"/>
      <path id="Path_1972" data-name="Path 1972" d="M43.336,141.267a.055.055,0,0,1-.056-.056v-4.454a.056.056,0,0,1,.111,0v4.454a.055.055,0,0,1-.056.056" transform="translate(-34.82 -109.981)" fill="#fff"/>
      <path id="Path_1973" data-name="Path 1973" d="M101.107,141.267a.056.056,0,0,1-.056-.056v-4.454a.056.056,0,0,1,.111,0v4.454a.055.055,0,0,1-.055.056" transform="translate(-81.299 -109.981)" fill="#fff"/>
    </g>
  </g>
</svg>
