<svg xmlns="http://www.w3.org/2000/svg" xmlns:xlink="http://www.w3.org/1999/xlink" width="48" height="48" viewBox="0 0 48 48">
  <defs>
    <clipPath id="clip-path">
      <circle id="Ellipse_581" data-name="Ellipse 581" cx="24" cy="24" r="24" transform="translate(0 48) rotate(-90)" fill="none"/>
    </clipPath>
  </defs>
  <g id="Clara_Tate" data-name="Clara Tate" transform="translate(-37.03 0.001)">
    <g id="Group_670" data-name="Group 670" transform="translate(37.03 -0.001)" clip-path="url(#clip-path)">
      <path id="Path_1732" data-name="Path 1732" d="M85.029,24a24,24,0,1,1-24-24,24,24,0,0,1,24,24" transform="translate(-37.029 0.002)" fill="#ffdfb9"/>
      <path id="Path_1733" data-name="Path 1733" d="M236.733,97.875c-.047-3.779.009-6.9-.311-9.492a8,8,0,0,0-3.139-6.041,10.574,10.574,0,0,0-9.805-.954c-.761.312-1.224,1.081-1.956,1.44a4.548,4.548,0,0,0-3.269,4.3,25.489,25.489,0,0,0-.225,5.772c.082,2.151.124,4.327.013,6.477-.035.681-.469,2.137.317,2.54.864.445,2.429.3,3.356.372.69.05,7.028-.527,7.393-.454.456.091.883.3,1.355.378a11.664,11.664,0,0,0,1.475.115c1.168.032,2.322.262,3.492.27,1.6.011,1.42-1.874,1.359-2.98-.032-.58-.049-1.162-.056-1.745" transform="translate(-202.49 -73.745)" fill="#002b4d"/>
      <path id="Path_1734" data-name="Path 1734" d="M396.579,401.567a8.831,8.831,0,0,1,3.756,6.268,81.382,81.382,0,0,0,1.3,8.941c.557,2.786.556,13.861,1.719,17.3s2.068,7.374,1.081,9.493-7.229,2.785-7.229,2.785a71.734,71.734,0,0,1-4.627-10.716c-1.257-4.376-1.788-24.146-1.788-24.146Z" transform="translate(-360.666 -367.373)" fill="#ffd6b3"/>
      <path id="Path_1735" data-name="Path 1735" d="M371.91,353.676s3.587,6.945,4.117,10.733,2.172,20.978,3.079,23.759,1.45,14.355,1.45,14.355l1.93-.061s.565-11.726-.153-15.918-2.1-10.985-2.124-13.449.641-13.022-.35-14.747-7.949-4.671-7.949-4.671" transform="translate(-343.395 -323.56)" fill="#ffd6b3"/>
      <path id="Path_1736" data-name="Path 1736" d="M263.193,104c1.671-.653,6.343-3.039,6.343-3.039a13.713,13.713,0,0,1,3.778,5.556c.017.065.037.13.05.195.062.225.111.459.153.7a19.051,19.051,0,0,1-.364,7.8,7.749,7.749,0,0,1-3.324,3.592c-1.708.3-5.756-1.374-6.949-2.29a2.915,2.915,0,0,1-1.274-1.806l-.074-7.052s-.01-3,1.661-3.65" transform="translate(-242.415 -92.363)" fill="#ff6b42"/>
      <path id="Path_1737" data-name="Path 1737" d="M227.5,244.731a8.234,8.234,0,0,1,.826,4.624,34.944,34.944,0,0,1-3.682,9.522c-.208-.054-10.585-12.075-10.585-12.075s3.889-3.058,4.017-3.617.1-8.594.1-8.594,3.758,1.8,3.947,1.792,4.278,2.5,4.278,2.5,0,.3.012.756c.015.756.038,1.942.075,2.9a10.728,10.728,0,0,0,.107,1.523c.126.289.909.676.909.676" transform="translate(-198.981 -214.615)" fill="#ff6b42"/>
      <path id="Path_1738" data-name="Path 1738" d="M308.535,304.651a14.718,14.718,0,0,1-3.464-1.29c-1.075-.668-1.678-2.113-1.216-2.3s.436-.131,2.208.368a5.288,5.288,0,0,0,2.4.329c.015.756.038,1.942.075,2.9" transform="translate(-280.991 -275.33)" fill="#d94921"/>
      <path id="Path_1739" data-name="Path 1739" d="M297.874,195.366c-.145-.415-.637-.306-.666.116-.017.246-.012.7.248.831a.33.33,0,0,0,.451-.245,1.359,1.359,0,0,0-.033-.7" transform="translate(-275.048 -178.491)"/>
      <path id="Path_1740" data-name="Path 1740" d="M377.017,196.763c-.132-.376-.577-.277-.6.105-.015.223-.011.634.225.753a.3.3,0,0,0,.409-.222,1.232,1.232,0,0,0-.03-.637" transform="translate(-347.51 -179.792)"/>
      <path id="Path_1741" data-name="Path 1741" d="M282.228,172.247c-.137-.349-.7-.349-1-.343-.565.012-1.709.122-2.01.687-.163.306.568.211.7.2.373-.036.745-.081,1.119-.107a2.511,2.511,0,0,0,1-.144c.185-.1.228-.2.191-.291" transform="translate(-258.573 -157.265)" fill="#002b4d"/>
      <path id="Path_1742" data-name="Path 1742" d="M370.167,173.564c-.353-.011-1.229-.113-1.581-.115a2.845,2.845,0,0,1-1.075-.077c-.2-.083-.256-.182-.224-.279.124-.358.731-.394,1.048-.406a9.082,9.082,0,0,1,1.67.179c.066.225.117.459.162.7" transform="translate(-339.157 -157.981)" fill="#002b4d"/>
      <path id="Path_1743" data-name="Path 1743" d="M349.252,211.3a4.456,4.456,0,0,0-.459-1.374c-.139-.266.257-.516.4-.249a5.024,5.024,0,0,1,.537,1.636c.06.493-.242.85-.4,1.291-.1.28-.557.174-.455-.11.143-.4.44-.753.382-1.195" transform="translate(-322.22 -191.721)" fill="#d94921"/>
      <path id="Path_1744" data-name="Path 1744" d="M180.8,347.543s-1.039,6.838-3.647,6.531c-3.119-.367-6.645-7.1-6.645-7.1l-2.446,10.054s-.853,16.184-1.747,19.373-3.3,9.965-3.3,9.965,8.088,3.348,15.324,3.177,14.255-3.417,13.711-5.317c-.983-3.433-2.005-4.74-2.215-7.693-.275-3.889-2.71-13.3-3.211-15.206a56.5,56.5,0,0,0-5.821-13.782" transform="translate(-152.284 -317.427)" fill="#0062ad"/>
      <path id="Path_1745" data-name="Path 1745" d="M79.49,346.972A37.181,37.181,0,0,0,78.1,357.363c.253,4.753.125,19.2-.819,22.037s-4.6,14.859-4.946,17.816,1.689,13.477,1.263,14.817c-3.827,12.047-1.751,15.472-6.85,10.005-1.7-1.819-4.056-2.369-2.94-9.039s8.176-32.651,8.289-36.479-8.592-20.529-2.007-25.148a36.1,36.1,0,0,1,9.4-4.4" transform="translate(-61.267 -317.427)" fill="#ffd6b3"/>
      <path id="Path_1746" data-name="Path 1746" d="M11.039,408.708S-.285,420.95.005,429.874C.22,436.48,10.7,447.914,12.382,448.3s3.68-12.98,3.461-13.734S13.258,415.8,13.33,414.4s-2.291-5.687-2.291-5.687" transform="translate(-3.153 -373.906)" fill="#ffd6b3"/>
      <path id="Path_1747" data-name="Path 1747" d="M138.3,420.36c.78-2.368,1.671-4.541,1.473-7.081-.17-2.183-.7-4.843-2.278-6.477-.209-.216.111-.559.32-.341a10.212,10.212,0,0,1,2.282,5.58,14.232,14.232,0,0,1-.945,7.283,15.608,15.608,0,0,0-1.135,4.887,13.828,13.828,0,0,0,.948,4.858c.8,2.259,2.21,4.921,1.24,7.338-.112.279-.523.054-.412-.223,1.039-2.591-.932-5.7-1.657-8.133a12.366,12.366,0,0,1,.162-7.691" transform="translate(-128.881 -371.787)" fill="#fabd8b"/>
      <path id="Path_1748" data-name="Path 1748" d="M329.825,257.105a.529.529,0,0,0-.3-.081c-.758,0-1.516,0-2.274-.005-.594-.005-.571.388-.235.732a2.164,2.164,0,0,0,1.816.489,1.84,1.84,0,0,0,.98-.467.428.428,0,0,0,.011-.668" transform="translate(-302.109 -235.134)" fill="#fff"/>
      <path id="Path_1749" data-name="Path 1749" d="M240.607,102.094a4.8,4.8,0,0,0-1.174-2.456,13.94,13.94,0,0,0-.719-2.05,34.758,34.758,0,0,0-2-3.541c-.454-.775-1.013-1.748-2-1.91-1.386-.227-2.71.658-3.981,1.006a6.566,6.566,0,0,0-3.054,2.006c-1.119,1.1-2.565,1.945-3.466,3.26a2.306,2.306,0,0,0-.305,1.877c-.044.258-.073.526-.112.807-.147,1.075-.725,2.024-.621,3.133a.322.322,0,0,0,.531.231c1.463-.153,2.891-2.558,3.578-3.6a14.3,14.3,0,0,0,1.493-2.663,12.67,12.67,0,0,0,.5-2.475c3.315,1.3,7.618,1.735,8.445,5.852a21.192,21.192,0,0,1,.257,5.692c-.07,1-.037,2.015-.08,3.024a12.217,12.217,0,0,0-.056,2.146c.022.167.268.157.327.021,2.041-1.458,2.5-4.037,2.822-6.425a8.949,8.949,0,0,0-.389-3.94" transform="translate(-207.315 -84.259)" fill="#002b4d"/>
      <path id="Path_1750" data-name="Path 1750" d="M247.1,205.7c.262.343.489,1,.92,1.314a1.749,1.749,0,0,0,.907.614c1.149.144.289-2.38.214-2.818a5.656,5.656,0,0,0-.44-1.863.174.174,0,0,0,0-.054,1,1,0,0,0-1.328-.679,1.491,1.491,0,0,0-.989,1.242,3.157,3.157,0,0,0,.717,2.244" transform="translate(-228.537 -184.937)" fill="#ff6b42"/>
    </g>
  </g>
</svg>
