<svg xmlns="http://www.w3.org/2000/svg" xmlns:xlink="http://www.w3.org/1999/xlink" width="48" height="48" viewBox="0 0 48 48">
  <defs>
    <clipPath id="clip-path">
      <circle id="Ellipse_578" data-name="Ellipse 578" cx="24" cy="24" r="24" transform="translate(0 0)" fill="none"/>
    </clipPath>
  </defs>
  <g id="Kris_George" data-name="Kris George" transform="translate(-11.992 0.001)">
    <g id="Group_667" data-name="Group 667" transform="translate(11.992 -0.001)" clip-path="url(#clip-path)">
      <path id="Path_1671" data-name="Path 1671" d="M59.992,24a24,24,0,1,1-24-24,24,24,0,0,1,24,24" transform="translate(-11.992 0)" fill="#ffdfb9"/>
      <path id="Path_1672" data-name="Path 1672" d="M10.284,424.678s-5.125,2.52-6.3,6.491S-.37,454.989.035,456.476C2.277,464.7,8.452,468.8,10.373,469.12s4.875-4.1,4.982-6.025,0-12.9,0-12.9l-1.335-9.929Z" transform="translate(-1.021 -388.516)" fill="#d42e00"/>
      <path id="Path_1673" data-name="Path 1673" d="M226.984,133.318a15.238,15.238,0,0,1-.57,3.182c-.376,1.311-2.908,3.109-3.382,3.177-1.661.237-5.289-2.616-6.416-3.538a6.419,6.419,0,0,1-1.582-3.062l-1.268-5.385s1.9-3.062,3.538-3.643,6.229-2.746,6.229-2.746c.109-.051.98,1,1.091,1.13.372.436,1.54.89,1.911,1.328.382.455.453,2.073.493,3.164.015.365.028.717.038,1.061.006.226.013.451.017.673.032,1.414.017,2.793-.1,4.659" transform="translate(-196.584 -110.972)" fill="#ff6b42"/>
      <path id="Path_1674" data-name="Path 1674" d="M210.171,282.211s-5.719,7.858-5.922,7.8-8.865-8.764-8.865-8.764,2.757-1.8,2.9-2.335.223-7.67.223-7.67,3.765,1.213,3.952,1.213S206.571,275,206.571,275s0,.289-.012.732c0,.279-.006.615-.01.98-.006.592-.008,1.25,0,1.824,0,.246,0,.478.006.678a4.539,4.539,0,0,0,.051.8,32.3,32.3,0,0,0,3.569,2.193" transform="translate(-179.768 -248.149)" fill="#ff6b42"/>
      <path id="Path_1675" data-name="Path 1675" d="M267.361,220.519c-.121-.383-.572-.3-.611.087-.022.224-.031.637.2.765a.3.3,0,0,0,.418-.21,1.24,1.24,0,0,0-.01-.642" transform="translate(-245.047 -201.515)"/>
      <path id="Path_1676" data-name="Path 1676" d="M346.3,221.9c-.109-.347-.519-.269-.553.079-.02.2-.028.577.183.693a.273.273,0,0,0,.379-.19,1.122,1.122,0,0,0-.009-.581" transform="translate(-317.321 -202.796)"/>
      <path id="Path_1677" data-name="Path 1677" d="M248.425,196.45c-.27.58.87.286,1.077.261q.589-.073,1.183-.1c.175-.007.856.093.824-.22-.119-1.144-2.7-.756-3.084.057" transform="translate(-228.255 -179.016)" fill="#a6462b"/>
      <path id="Path_1678" data-name="Path 1678" d="M340.041,196.5a4.333,4.333,0,0,1-.782-.053c-.4-.026-.79-.036-1.187-.03-.175,0-.85.139-.835-.175.047-.986,1.975-.946,2.786-.414.006.226.013.451.017.673" transform="translate(-309.542 -178.812)" fill="#a6462b"/>
      <path id="Path_1679" data-name="Path 1679" d="M317.672,229.8c-.113-.581-.338-1.136-.484-1.709-.068-.266-.468-.115-.4.149.108.424.253.835.37,1.256a2.052,2.052,0,0,1-.233,1.716c-.127.245.26.426.386.183a2.355,2.355,0,0,0,.361-1.6" transform="translate(-290.828 -208.539)" fill="#d94921"/>
      <path id="Path_1680" data-name="Path 1680" d="M296.155,281.505a2.787,2.787,0,0,1-2.718-.16c-.217-.11-.406.258-.188.369a3.138,3.138,0,0,0,3.093.16c.215-.121.027-.489-.188-.369" transform="translate(-269.212 -257.37)" fill="#d94921"/>
      <path id="Path_1681" data-name="Path 1681" d="M272.745,329.483c-.492-.033-1.15-.092-1.875-.2-1.537-.221-3.128-1.564-3.13-2.578,0-.508.572-.564.777-.5a17.672,17.672,0,0,0,3.074.99,2.594,2.594,0,0,0,1.152-.221c-.006.592-.008,1.25,0,1.824,0,.246,0,.478.006.678" transform="translate(-245.963 -298.414)" fill="#d94921"/>
      <path id="Path_1682" data-name="Path 1682" d="M193.917,346.732s4.7,2.843,5.555,2.956,2.625-1.411,2.625-1.411a19.711,19.711,0,0,0,2.243,1.978,18.254,18.254,0,0,1,1.965,1.2c.053.08-.25,8.073-6.486,8.194-7.322.142-9.5-8.888-9.288-9.208s1.762-1.687,2.215-2.165a16.025,16.025,0,0,0,1.171-1.545" transform="translate(-175.316 -317.207)" fill="#001526"/>
      <path id="Path_1683" data-name="Path 1683" d="M289.093,422.81l-.614,4.244,2.31.347,1.373-1.014L290.52,422.6Z" transform="translate(-264.936 -386.613)" fill="#ffd6b3"/>
      <path id="Path_1684" data-name="Path 1684" d="M100.507,383.391s3.685,8.009,9.5,6.914,4.584-5.44,5.188-5.669,5.889,3.427,6.529,4.041a11.567,11.567,0,0,1,3.71,6.646c.587,3.79.427,9.822.907,12.918s2.5,10.44,3.149,15.534c.274,2.142.623,5.712-2.4,8.488-1.536,1.41-2.3,1.495-2.3,1.495s-1.9-5.819-2.331-6.085-2.1.8-6.477.8-8.167-.854-11.157-.907-6.94-.534-8.061-1.281-2.509-3.15-2.028-4.964,1.548-5.125,1.495-6.619-3.363-12.278-3.683-14.306-2.028-11.1-.267-12.438a91.848,91.848,0,0,1,8.22-4.565" transform="translate(-84.732 -350.745)" fill="#d42e00"/>
      <path id="Path_1685" data-name="Path 1685" d="M81.287,490.821c-.593-1.153-1.575-1.951-2.228-3.048-.745-1.253-.125-2.855.12-4.188,1.036-5.649,1.725-12.531-1.747-17.5-.714-1.023-1.424-2.017-2.085-3.074-.281-.45-.8-1.485-1.463-1.4-.269.035-.272.463,0,.427.688-.09,1.651,2.151,2.017,2.663a18.369,18.369,0,0,1,2.738,4.561c1.181,3.393,1.1,7.552.639,11.075-.228,1.749-.646,3.462-.907,5.2a3.43,3.43,0,0,0,.6,2.857c.481.645,1.093,1.191,1.526,1.871a15.645,15.645,0,0,1,.983,1.926c.785,1.727,1.444,3.7.879,5.588a.214.214,0,0,0,.412.113c.723-2.419-.392-4.944-1.487-7.074" transform="translate(-68.428 -422.299)" fill="#b30000"/>
      <path id="Path_1686" data-name="Path 1686" d="M444.321,487.351a12.673,12.673,0,0,1,.141-5.726,11.194,11.194,0,0,0,.351-4.656c-.272-1.738-.8-3.426-1.059-5.169a26.571,26.571,0,0,1,.073-5.621c.111-1.763.4-3.509.489-5.273a6.622,6.622,0,0,0-.39-3.332c-.126-.244-.495-.029-.369.216.606,1.173.379,2.845.265,4.12-.145,1.617-.339,3.223-.462,4.842a23.356,23.356,0,0,0-.077,4.732c.193,1.521.583,3,.907,4.5a11,11,0,0,1-.089,5.342,12.1,12.1,0,0,0-.462,4.3c.143,1.542.548,3.043.8,4.569.194,1.19.658,3.589-.275,4.638-.182.2.119.508.3.3a4.173,4.173,0,0,0,.632-2.573,27.249,27.249,0,0,0-.772-5.205" transform="translate(-406.469 -418.513)" fill="#b30000"/>
      <path id="Path_1687" data-name="Path 1687" d="M286.17,383.323c-.547.135-1.592,2.288-1.165,3.249.354.8,2.888.458,2.954-.142.13-1.177-1.241-3.241-1.788-3.106" transform="translate(-261.666 -350.677)" fill="#ffd6b3"/>
      <path id="Path_1688" data-name="Path 1688" d="M209.262,90.573a2.416,2.416,0,0,0-2.015-2.247,6.388,6.388,0,0,0-3.069.493.187.187,0,0,0-.064.036,6.138,6.138,0,0,0-2.052-.745,6.952,6.952,0,0,0-4.153.679,6.446,6.446,0,0,1-1.265-.03,5.475,5.475,0,0,0-1.368.288,7.941,7.941,0,0,0-2.169,1.394,5.789,5.789,0,0,0-1.87,5.3c.246,2.314,1.655,4.034,2.47,6.147a31.682,31.682,0,0,0,.946,3.04,6.365,6.365,0,0,0,.081-.863,15.232,15.232,0,0,0-.029-1.789,18.569,18.569,0,0,1,.457-2.682,8.433,8.433,0,0,0-.088-2.15c-.07-.444-.5-1.23-.273-1.665.4-.762,1.533-.884,2.287-1.014,2.125-.367,4.132.107,6.233.322,1.58.162,3.477.132,4.769-.929a4.114,4.114,0,0,0,1.174-3.589" transform="translate(-175.932 -80.533)" fill="#a6462b"/>
      <path id="Path_1689" data-name="Path 1689" d="M226.038,221.364c-.022-.018-.043-.038-.064-.057a3.41,3.41,0,0,0-.259-.467.28.28,0,0,0,.005-.216,4.254,4.254,0,0,1-.278-.93,1.91,1.91,0,0,1,0-.373,1.066,1.066,0,0,1,.015-.142c.018-.036.022-.057.017-.068.274-.109.286-.535.029-.608a.27.27,0,0,0,.027-.049c.308.272.763-.179.453-.453a.65.65,0,0,0-.066-.048.317.317,0,0,0-.132-.189.662.662,0,0,0-.891.05,1.3,1.3,0,0,0-.536.986,2.884,2.884,0,0,0,.015.5,3.8,3.8,0,0,0,1.1,2.427.333.333,0,0,0,.081.069l.026.022c.321.252.777-.2.453-.453" transform="translate(-206.272 -199.086)" fill="#ff6b42"/>
    </g>
  </g>
</svg>
