<svg xmlns="http://www.w3.org/2000/svg" xmlns:xlink="http://www.w3.org/1999/xlink" width="48" height="48" viewBox="0 0 48 48">
  <defs>
    <clipPath id="clip-path">
      <circle id="Ellipse_584" data-name="Ellipse 584" cx="24" cy="24" r="24" transform="translate(0 48) rotate(-90)" fill="none"/>
    </clipPath>
  </defs>
  <g id="Liam_Larson" data-name="Liam Larson" transform="translate(0 0.001)">
    <g id="Group_673" data-name="Group 673" transform="translate(0 -0.001)" clip-path="url(#clip-path)">
      <path id="Path_1791" data-name="Path 1791" d="M48,24A24,24,0,1,1,24,0,24,24,0,0,1,48,24" transform="translate(0 0.001)" fill="#ffdfb9"/>
      <path id="Path_1792" data-name="Path 1792" d="M203.691,145.689s.445,7.558,1.17,9.524c.7,1.889,4.355,4.352,5.43,4.4,1.657.07,4.847-2.619,5.517-3.965.891-1.789,1.354-8.949,1.354-8.949l-.628-5.242-11.986.221Z" transform="translate(-186.347 -129.41)" fill="#ff6b42"/>
      <path id="Path_1793" data-name="Path 1793" d="M185.474,318.937s-5.323,9.748-5.853,10.348-2.777.941-3.447.951-3.09-2.1-3.3-2.517-6.7-8.549-6.7-8.549a38.85,38.85,0,0,0,4.98-4.788,3.608,3.608,0,0,0,.538-1.089,9.6,9.6,0,0,0,.2-3.759c-.074-.611-.161-1.015-.161-1.015l8.442-.406a24.489,24.489,0,0,0,.51,5.762c.623,2.36,4.8,5.063,4.8,5.063" transform="translate(-152.019 -281.876)" fill="#ff6b42"/>
      <path id="Path_1794" data-name="Path 1794" d="M188.547,218a1.946,1.946,0,0,0-1.429,0c-.64.312-.409,2.025,0,2.709a2.642,2.642,0,0,0,1.954,1.363Z" transform="translate(-170.821 -199.305)" fill="#ff6b42"/>
      <path id="Path_1795" data-name="Path 1795" d="M349.224,218a1.946,1.946,0,0,1,1.428,0c.64.312.409,2.025,0,2.709a2.642,2.642,0,0,1-1.954,1.363Z" transform="translate(-319.007 -199.305)" fill="#ff6b42"/>
      <path id="Path_1796" data-name="Path 1796" d="M232.387,230.516c-.116-.37-.553-.287-.59.084-.022.216-.03.616.2.739a.291.291,0,0,0,.4-.2,1.2,1.2,0,0,0-.01-.62" transform="translate(-212.05 -210.668)"/>
      <path id="Path_1797" data-name="Path 1797" d="M324.293,228.295c-.116-.37-.553-.287-.59.084-.022.216-.03.616.2.739a.291.291,0,0,0,.4-.2,1.2,1.2,0,0,0-.01-.62" transform="translate(-296.13 -208.636)"/>
      <path id="Path_1798" data-name="Path 1798" d="M214.395,206.65c.009-.429-1.284-.448-1.541-.434a3.89,3.89,0,0,0-1.16.225c-.2.074-1.032.5-.426.613a18.33,18.33,0,0,0,1.918-.127c.335.028,1.04.152,1.185-.172a.269.269,0,0,0,.025-.1" transform="translate(-193.079 -188.654)" fill="#001526"/>
      <path id="Path_1799" data-name="Path 1799" d="M309.082,206.653c-.014-.435,1.28-.465,1.537-.453a3.847,3.847,0,0,1,1.163.219c.2.073,1.038.5.432.619a3.494,3.494,0,0,1-1.1-.049,7.229,7.229,0,0,0-1.212-.049c-.231.011-.67.1-.8-.181a.28.28,0,0,1-.026-.106" transform="translate(-282.763 -188.64)" fill="#001526"/>
      <path id="Path_1800" data-name="Path 1800" d="M238.219,328A5.541,5.541,0,0,1,235,329.753a14.987,14.987,0,0,1-4.023-.821,9.442,9.442,0,0,0,.2-3.725s2.727,2.637,4.377,2.258c1.246-.286,1.969-.807,2.33-.772a.789.789,0,0,1,.33,1.306" transform="translate(-211.31 -297.515)" fill="#d94921"/>
      <path id="Path_1801" data-name="Path 1801" d="M42.169,394.59s-.152.113-.34.229h0c-.633.388-2.218,1.364-3.975,2.5a44.891,44.891,0,0,0-6.241,4.553,9.468,9.468,0,0,0-1.574,2.344,20.58,20.58,0,0,0-1.578,5.43c-.415,2.387-.658,4.984-1.042,7.578-.115.784-.243,1.568-.392,2.346-.165.862-.307,1.795-.425,2.767-.786,6.567-.423,14.99,1.428,16.632,2.123,1.888,6.249,2.038,6.472,3.066.437,2.034,2.2,2.269,4.469,2.034s11,1.06,14.58.922,9.49-2.682,10.728-4.469,4.194-2.2,5.983-2.063,1.719-.345,2.82-2.682,2.888-6.672,2.405-10.041A49.083,49.083,0,0,0,73.8,419.65c-.512-1.58-1.112-3.328-1.758-5.1-.846-2.313-1.77-4.675-2.692-6.787a40.481,40.481,0,0,0-2.75-5.411,9.09,9.09,0,0,0-.864-1.159c-1.4-1.547-4.382-3.159-7.043-4.4-1.58-.734-3.047-1.337-4.008-1.714a.009.009,0,0,0-.006,0l-1.155-.457a14.933,14.933,0,0,1-3.347,2.811c-.825.387-.468,1.316-.5,1.857a11.219,11.219,0,0,1-1.186,4.338s-1.537-2.2-1.568-3.383a4.943,4.943,0,0,0-.495-2.63,16.6,16.6,0,0,0-2.347-1.5,12.162,12.162,0,0,1-1.913-1.526" transform="translate(-23.978 -360.99)" fill="#ffd6b3"/>
      <path id="Path_1802" data-name="Path 1802" d="M272.614,236.755c.058-.258.465-.189.407.071-.127.567-.3,1.119-.418,1.69-.071.339-.184.581-.007.92a3.046,3.046,0,0,0,.51.6c.187.186-.074.506-.262.319-.312-.311-.78-.728-.786-1.2a11.175,11.175,0,0,1,.557-2.4" transform="translate(-248.891 -216.447)" fill="#d94921"/>
      <path id="Path_1803" data-name="Path 1803" d="M451.247,465.925c-.16-.919-.719-2.213-.469-3.129a.207.207,0,0,0-.4-.11,5.181,5.181,0,0,0,.288,2.374,21.737,21.737,0,0,1,.53,4.351.206.206,0,0,0,.413,0,21.031,21.031,0,0,0-.364-3.487" transform="translate(-411.968 -423.155)" fill="#fabd8b"/>
      <path id="Path_1804" data-name="Path 1804" d="M265.989,291.629c-.606-.021-.77,0-1.618.01-.31,0-1.315-.082-1.442.182-.188.39.714.941,1.02,1,.866.17,2.086.02,2.337-.942.028-.109-.079-.244-.3-.251" transform="translate(-240.517 -266.789)" fill="#fff"/>
      <path id="Path_1805" data-name="Path 1805" d="M290.459,419.955a38.8,38.8,0,0,1-.4,5.379,4.236,4.236,0,0,1-.372,1.629c-.566.854-1.581.248-2.223-.172-.223-.146-.43.211-.208.356,1.145.75,2.469,1.152,2.96-.427a23.856,23.856,0,0,0,.651-6.766.206.206,0,0,0-.413,0" transform="translate(-262.713 -384.013)" fill="#fabd8b"/>
      <path id="Path_1806" data-name="Path 1806" d="M311.307,442.995v.2a.206.206,0,0,0,.413,0v-.2a.206.206,0,0,0-.413,0" transform="translate(-284.799 -405.091)" fill="#fabd8b"/>
      <path id="Path_1807" data-name="Path 1807" d="M305.36,478.917s0-.009,0-.014,0-.009,0-.013a.43.43,0,0,0-.006-.064c-.054-.241-.4-.161-.4.059,0,.006,0,.012,0,.018,0-.028-.024.054-.01.038a.207.207,0,0,0,.243.326.211.211,0,0,0,.178-.2c0-.052,0-.1,0-.15" transform="translate(-278.919 -437.919)" fill="#fabd8b"/>
      <path id="Path_1808" data-name="Path 1808" d="M197.853,141.971a1.317,1.317,0,0,0-.641-.17,4.374,4.374,0,0,0-.63.108c-.151.022-.335-.027-.473.052-.283.162-.382.716-.43,1a9.633,9.633,0,0,0-.05,3.082,5.061,5.061,0,0,0,.539,2.134c.226.316.374.19.456-.132a15.179,15.179,0,0,1,.876-2.268,8.34,8.34,0,0,0,.586-2.23,3.27,3.27,0,0,0,.125-1.128.713.713,0,0,0-.359-.449" transform="translate(-178.879 -129.726)" fill="#001526"/>
      <path id="Path_1809" data-name="Path 1809" d="M341.435,140.577c-.178-.345-.526-.382-.884-.374-.414.011-.955.065-1.141.481a19.679,19.679,0,0,0,.96,4.479,8.7,8.7,0,0,0,.648,1.528c.285.464.407-.04.463-.383.109-.669.331-1.318.421-1.99a8.943,8.943,0,0,0,.006-2.1,4.6,4.6,0,0,0-.473-1.635" transform="translate(-310.497 -128.263)" fill="#001526"/>
      <path id="Path_1810" data-name="Path 1810" d="M192.361,74.626c-.3-.746-1.135-1.138-1.63-1.732a2.1,2.1,0,0,0-1.418-.972,1.614,1.614,0,0,0-1.081.156,2.152,2.152,0,0,0-.869-.709c-1.7-.793-3.212-2.407-5.229-2.252a4.613,4.613,0,0,0-2.341,1.074c-.79.546-1.791.5-2.573,1.071a4.479,4.479,0,0,0-1.6,2.607,2.162,2.162,0,0,0-.634,1.173c-.273,1.76,1.143,4.006,3.083,3.715a10.506,10.506,0,0,0,2.978-1.2,10.7,10.7,0,0,1,3.91-.669,6.587,6.587,0,0,0,2.966-1.008,8.129,8.129,0,0,0,.133,1.058,1.516,1.516,0,0,0,1.106,1.193,2.555,2.555,0,0,0,3.21-1.6,3.1,3.1,0,0,0-.007-1.9" transform="translate(-160.052 -63.222)" fill="#0062ad"/>
    </g>
  </g>
</svg>
