<svg xmlns="http://www.w3.org/2000/svg" xmlns:xlink="http://www.w3.org/1999/xlink" width="49.155" height="49.155" viewBox="0 0 49.155 49.155">
  <defs>
    <clipPath id="clip-path">
      <circle id="Ellipse_580" data-name="Ellipse 580" cx="24.578" cy="24.578" r="24.578" transform="translate(0 49.155) rotate(-90)" fill="none"/>
    </clipPath>
  </defs>
  <g id="Zack_Stiles" data-name="Zack Stiles" transform="translate(0 0.002)">
    <g id="Group_669" data-name="Group 669" transform="translate(0 -0.002)" clip-path="url(#clip-path)">
      <path id="Path_1709" data-name="Path 1709" d="M49.155,24.576A24.578,24.578,0,1,1,24.578,0,24.578,24.578,0,0,1,49.155,24.576" transform="translate(0 0.002)" fill="#ffdfb9"/>
      <path id="Path_1710" data-name="Path 1710" d="M202.84,152.284s.325,7.712.887,9.284,4.554,4.381,5.612,4.426c1.632.069,5.09-2.891,5.57-4.021.6-1.4,1.2-8.7,1.2-8.7l-.977-5.96-11.445,1.015Z" transform="translate(-185.152 -134.471)" fill="#ff6b42"/>
      <path id="Path_1711" data-name="Path 1711" d="M185.769,327.384s-5.242,9.6-5.764,10.19-2.735.926-3.395.937-3.043-2.066-3.251-2.478-6.6-8.419-6.6-8.419a38.267,38.267,0,0,0,4.9-4.715,3.553,3.553,0,0,0,.53-1.073,9.457,9.457,0,0,0,.2-3.7c-.073-.6-.158-1-.158-1l8.313-.4a24.118,24.118,0,0,0,.5,5.674c.614,2.324,4.723,4.985,4.723,4.985" transform="translate(-152.216 -289.105)" fill="#ff6b42"/>
      <path id="Path_1712" data-name="Path 1712" d="M188.32,230.073a1.917,1.917,0,0,0-1.407,0c-.631.307-.4,1.994,0,2.668a2.6,2.6,0,0,0,1.924,1.342Z" transform="translate(-170.256 -209.883)" fill="#ff6b42"/>
      <path id="Path_1713" data-name="Path 1713" d="M342.8,228.326a1.916,1.916,0,0,1,1.407,0c.631.307.4,1.994,0,2.668a2.6,2.6,0,0,1-1.924,1.342Z" transform="translate(-312.435 -208.288)" fill="#ff6b42"/>
      <path id="Path_1714" data-name="Path 1714" d="M231.46,237.453c-.115-.364-.545-.283-.581.083-.021.213-.029.606.193.728a.287.287,0,0,0,.4-.2,1.179,1.179,0,0,0-.01-.611" transform="translate(-210.737 -216.532)"/>
      <path id="Path_1715" data-name="Path 1715" d="M317.814,235.317c-.115-.364-.545-.283-.581.083-.021.213-.029.606.192.728a.287.287,0,0,0,.4-.2,1.18,1.18,0,0,0-.01-.611" transform="translate(-289.561 -214.582)"/>
      <path id="Path_1716" data-name="Path 1716" d="M211.7,210.373c.037-.551-1.239-.581-1.494-.564a3.175,3.175,0,0,0-1.16.285c-.2.094-1.052.641-.46.787a3.592,3.592,0,0,0,1.519-.164c.326-.06,1.386.242,1.563-.21a.45.45,0,0,0,.032-.134" transform="translate(-190.207 -191.511)" fill="#a6462b"/>
      <path id="Path_1717" data-name="Path 1717" d="M305.5,210.719c-.07-.548,1.2-.654,1.457-.652a3.177,3.177,0,0,1,1.175.215c.2.082,1.088.576.506.758a3.593,3.593,0,0,1-1.527-.072c-.329-.04-1.369.325-1.573-.116a.452.452,0,0,1-.04-.132" transform="translate(-278.859 -191.749)" fill="#a6462b"/>
      <path id="Path_1718" data-name="Path 1718" d="M236.211,335.913a5.456,5.456,0,0,1-3.169,1.727,14.76,14.76,0,0,1-3.962-.809,9.3,9.3,0,0,0,.2-3.668s2.685,2.6,4.31,2.224c1.228-.282,1.939-.795,2.295-.76a.777.777,0,0,1,.325,1.286" transform="translate(-209.104 -304.111)" fill="#d94921"/>
      <path id="Path_1719" data-name="Path 1719" d="M277.348,240.041c-.094-.241-.487-.136-.392.108.466,1.2,1.135,2.226.5,3.5-.116.234.234.44.351.205.7-1.4.063-2.464-.462-3.813" transform="translate(-252.792 -218.985)" fill="#d94921"/>
      <path id="Path_1720" data-name="Path 1720" d="M155.35,387.528s4.175,3.85,4.875,3.6,4.853-3.277,4.853-3.277l4.735,3.594s-2.032,23.25-2.082,25.129.2,20.062.2,20.062-5.739,2.946-5.892,2.946-6.692-2.946-6.692-2.946-1.637-26.969-2.856-31.591-3.606-12.19-3.606-12.19Z" transform="translate(-135.905 -353.735)" fill="#ffd6b3"/>
      <path id="Path_1721" data-name="Path 1721" d="M212.133,182.739a16.39,16.39,0,0,1-.189-1.943c0-.478-.358,0-.408.118a5.511,5.511,0,0,0-.037,1.488c-.045,1.029-.13,2.057-.264,3.078a12.419,12.419,0,0,1-.554,2.3c-.162.494-.21,1.168-.652,1.5a1.428,1.428,0,0,1-.38.191,11.037,11.037,0,0,1-3.7.443,30.639,30.639,0,0,1-3.719.041c-1.2-.135-1.6-.835-2.048-1.854a14.24,14.24,0,0,1-.679-1.981,16.533,16.533,0,0,1-.512-4.163.2.2,0,0,0-.406,0c.007.982-.256,1.949-.2,2.932.047.748.049,1.5.118,2.241a26.729,26.729,0,0,0,1.155,5.57,8.9,8.9,0,0,0,2.492,3.661,5.22,5.22,0,0,0,5.688,1.161c4.187-1.677,3.854-7.517,4.151-11.172.065-.8.116-1.6.181-2.4a6.277,6.277,0,0,0-.043-1.214" transform="translate(-181.083 -164.841)" fill="#a6462b"/>
      <path id="Path_1722" data-name="Path 1722" d="M204.986,104.921a3.674,3.674,0,0,0-.131-.741,2.327,2.327,0,0,0-1.467-1.417c-.978-.382-1.952.025-2.926.194-2.715.47-5.153-1.434-7.878-.771a4.763,4.763,0,0,0-3.273,3.065,2.7,2.7,0,0,0-.025,1.5c-.837.11-.937,1.188-.89,1.849a29.9,29.9,0,0,0,.872,4.62c.059.254.451.146.39-.11a.022.022,0,0,0,0-.01.188.188,0,0,0,.163-.189c.028-1.55.6-3.069.616-4.636a3.333,3.333,0,0,0,1.794.307,15.55,15.55,0,0,0,1.95-.626,7.6,7.6,0,0,1,3,.191c1.312.244,3.543.979,5.071.51-.006.573.1,1.142.114,1.715a.184.184,0,0,0,.1.165c0,.1,0,.2,0,.293a.184.184,0,0,0,.1.169v1.3c-.045.205-.093.41-.144.614-.065.254.327.364.39.11a12.437,12.437,0,0,0,.409-4.74,3.45,3.45,0,0,0,1.489-1.677,3.518,3.518,0,0,0,.276-1.677" transform="translate(-171.959 -93.146)" fill="#a6462b"/>
      <path id="Path_1723" data-name="Path 1723" d="M265.186,298.982a.326.326,0,0,0-.241-.051c-.809.054-1.631.027-2.442.036-.284,0-.75.131-.476.485a2.065,2.065,0,0,0,2.108.715c.426-.081,1.418-.88,1.051-1.186" transform="translate(-239.102 -272.863)" fill="#fff"/>
      <path id="Path_1724" data-name="Path 1724" d="M85.762,405.992A85.728,85.728,0,0,1,88.4,421.843c.521,8.33,1.768,38.8.636,39.667s-4.484.864-7.785-.66-6.349-2.743-6.044-5.079-1.058-40.319-.021-41.542,10.573-8.237,10.573-8.237" transform="translate(-68.272 -370.589)" fill="#002b4d"/>
      <path id="Path_1725" data-name="Path 1725" d="M323.622,408s-1.515,3.823-1.718,12.188-2.262,43.254-1.08,43.738,8.8-.938,11.441-2.868,3.86-2.573,3.962-4.029-.914-40.869-1.422-42.088S323.622,408,323.622,408" transform="translate(-292.516 -372.425)" fill="#002b4d"/>
      <path id="Path_1726" data-name="Path 1726" d="M30.368,444.577s-7.133,4.416-9.193,9c-1.448,3.221-3.454,29.391-.914,31.575s18.227-2,18.227-2Z" transform="translate(-17.385 -405.81)" fill="#002b4d"/>
      <path id="Path_1727" data-name="Path 1727" d="M263.351,431.373a3.348,3.348,0,0,0-1.306,3.013c.287.778,2.713.612,2.813.047.2-1.109-.979-3.154-1.507-3.059" transform="translate(-239.135 -393.754)" fill="#d42e00"/>
      <path id="Path_1728" data-name="Path 1728" d="M254.7,468.834l-1.53.05s-1.785,21.461-1.65,22.376,1.744,3.928,2.108,3.928,2.937-3.149,2.9-3.962-1.831-22.392-1.831-22.392" transform="translate(-229.577 -427.951)" fill="#d42e00"/>
      <path id="Path_1729" data-name="Path 1729" d="M205.84,487.592s2.743,2.438,3.758,8.126,2.032,25.06-.508,27.63c-4.088,4.136-29.915-5.587-29.915-5.587l2.378-9.4,17.829,1.683,6.254-21.941Z" transform="translate(-163.551 -445.074)" fill="#002b4d"/>
      <path id="Path_1730" data-name="Path 1730" d="M95.1,504.081c-.333-2-.3-4-.576-6-.36-2.621-1.732-5.327-4.2-6.522-.234-.114-.441.237-.205.351,2.686,1.3,3.863,4.3,4.1,7.112.123,1.469.14,2.934.364,4.393.277,1.8.784,3.643.389,5.466-.055.255.336.364.392.108a12.923,12.923,0,0,0-.263-4.908" transform="translate(-82.172 -448.674)" fill="#001526"/>
      <path id="Path_1731" data-name="Path 1731" d="M413.082,482.937c-2.086.546-2.772,3.348-3.15,5.165a31.851,31.851,0,0,0-.848,5.247,17.65,17.65,0,0,1-.293,3.008,10.765,10.765,0,0,0-.327,2.352.2.2,0,0,0,.406,0c-.016-1.478.525-2.9.589-4.384a31.773,31.773,0,0,1,.643-5.027c.388-1.908.825-5.376,3.088-5.968a.2.2,0,0,0-.108-.392" transform="translate(-372.845 -440.818)" fill="#001526"/>
    </g>
  </g>
</svg>
