<svg xmlns="http://www.w3.org/2000/svg" xmlns:xlink="http://www.w3.org/1999/xlink" width="48" height="48" viewBox="0 0 48 48">
  <defs>
    <clipPath id="clip-path">
      <circle id="Ellipse_583" data-name="Ellipse 583" cx="24" cy="24" r="24" transform="translate(0 48) rotate(-90)" fill="none"/>
    </clipPath>
  </defs>
  <g id="Amanda_Stark" data-name="Amanda Stark" transform="translate(0 0)">
    <g id="Group_672" data-name="Group 672" transform="translate(0 -0.001)" clip-path="url(#clip-path)">
      <path id="Path_1770" data-name="Path 1770" d="M0,24A24,24,0,1,0,24,0,24,24,0,0,0,0,24" transform="translate(0 0.001)" fill="#ffdfb9"/>
      <path id="Path_1771" data-name="Path 1771" d="M136.018,112.187a3.013,3.013,0,0,1-.742-3.088,5.758,5.758,0,0,1,1.112-1.605,6.526,6.526,0,0,0,1.42-2.468,33.808,33.808,0,0,1,1.136-4.339c1.512-3.355,5.575-3.821,8.679-2.633a.1.1,0,0,1,.065.12c1.769.7,3.023,2.841,3.588,4.492a17.44,17.44,0,0,1,.783,4.416,11.586,11.586,0,0,1-.239,4.769.208.208,0,0,1-.265.124,7.3,7.3,0,0,1-.524,1.126,4.95,4.95,0,0,1-.928,1.275c-1.03,1.328-2.266.973-3.745.361-.885-.367-1.764-.751-2.666-1.073-.224-.079-.451-.147-.679-.208.082,2.085-.361,4.232-2.113,5.4-1.844,1.224-4.989.228-4.567-2.354.133-.816.728-1.567.677-2.413a3.766,3.766,0,0,0-.991-1.9" transform="translate(-123.589 -89.163)" fill="#002b4d"/>
      <path id="Path_1772" data-name="Path 1772" d="M185.92,131.241a7.244,7.244,0,0,0,3.213,3.258c1.605.23,5.338-1.454,6.425-2.346a6.207,6.207,0,0,0,1.53-2.958l1.224-5.2s-1.836-2.958-3.417-3.519-6.017-2.652-6.017-2.652a12.82,12.82,0,0,0-3.366,5.3c-.014.061-.031.122-.041.184-.051.212-.09.432-.122.657a17.811,17.811,0,0,0,.571,7.274" transform="translate(-169.434 -107.79)" fill="#ff6b42"/>
      <path id="Path_1773" data-name="Path 1773" d="M211.335,272.59s3.663,8.231,3.855,8.179,7.275-9.246,7.275-9.246-1.451-.956-1.586-1.475-.212-7.406-.212-7.406-3.59,1.171-3.768,1.171-3.923,2.459-3.923,2.459,0,.28.011.707c.009.707.022,1.816.015,2.709a10.064,10.064,0,0,1-.055,1.427,12.4,12.4,0,0,1-1.613,1.477" transform="translate(-193.34 -240.277)" fill="#ff6b42"/>
      <path id="Path_1774" data-name="Path 1774" d="M230.75,306.931a13.762,13.762,0,0,0,3.2-1.308c.985-.656,1.505-2.024,1.068-2.188s-.411-.109-2.052.409a4.944,4.944,0,0,1-2.23.378c.009.707.022,1.816.015,2.709" transform="translate(-211.088 -277.522)" fill="#d94921"/>
      <path id="Path_1775" data-name="Path 1775" d="M276.011,201.663c.123-.392.587-.3.626.089.023.229.032.653-.207.784a.309.309,0,0,1-.429-.215,1.271,1.271,0,0,1,.01-.658" transform="translate(-252.464 -184.259)"/>
      <path id="Path_1776" data-name="Path 1776" d="M200.214,202.281c.112-.355.531-.276.567.081.021.207.029.592-.188.71a.28.28,0,0,1-.388-.195,1.151,1.151,0,0,1,.009-.6" transform="translate(-183.126 -184.846)"/>
      <path id="Path_1777" data-name="Path 1777" d="M222.109,258.3a1.159,1.159,0,0,1,.238-.03c.481-.015.97-.057,1.45-.046a4.829,4.829,0,0,1,1.139-.025c.457.1.4.342.11.683a2.312,2.312,0,0,1-.747.565,1.783,1.783,0,0,1-2.442-.785c-.071-.222.082-.32.252-.362" transform="translate(-202.949 -236.187)" fill="#fff"/>
      <path id="Path_1778" data-name="Path 1778" d="M266.663,181.962c.118-.33.648-.347.926-.35.529-.006,1.4.082,1.7.6.161.281-.326.2-.454.188-.349-.023-.7-.053-1.048-.066a2.346,2.346,0,0,1-.936-.105c-.176-.084-.218-.178-.187-.267" transform="translate(-243.948 -166.148)" fill="#002b4d"/>
      <path id="Path_1779" data-name="Path 1779" d="M185.2,181.62c.308-.02.982-.067,1.29-.079a2.332,2.332,0,0,0,.936-.1c.175-.084.218-.177.188-.267-.118-.33-.649-.347-.926-.349a6.317,6.317,0,0,0-1.366.142c-.051.212-.09.432-.122.657" transform="translate(-169.434 -165.424)" fill="#002b4d"/>
      <path id="Path_1780" data-name="Path 1780" d="M227.486,100.692a.07.07,0,0,1,.116-.007.792.792,0,0,1,.335-.217c.391-.139.861.107,1.257.12a2.383,2.383,0,0,0,.542-.051,7.751,7.751,0,0,1,9.836,2.386,7.089,7.089,0,0,1,1,6.713c-.944,2.352-3.3,3.18-4.871,5a.247.247,0,0,1-.4-.067,4.127,4.127,0,0,1-.167-.683c.172-1.281.649-2.695-.241-4.237-.734-1.279-2.187-1.832-3.394-2.552a10.8,10.8,0,0,1-3.065-2.665c-.772-1.011-1.522-2.463-.943-3.74" transform="translate(-207.928 -91.2)" fill="#002b4d"/>
      <path id="Path_1781" data-name="Path 1781" d="M320.668,240.1c.11-.214.416-.061.371.155-.084.386-.159.763-.226,1.136l.218.043a2.311,2.311,0,0,1,.359.086c2.489.239,3.706,2.835,5.93,3.665a11.028,11.028,0,0,1,2.792,1.051,4.031,4.031,0,0,1,1.566,2.354c.243,1.063-.161,2.317.473,3.27.693,1.036,2.174,1.248,3.188,1.85a6.268,6.268,0,0,1,2.937,4.575,6,6,0,0,1-1.952,5.1,6.388,6.388,0,0,1-5.707,1.44,11.694,11.694,0,0,1-8.61-8.092,15.793,15.793,0,0,1-.516-3.723,18.554,18.554,0,0,0-.953-5.057c-.814-2.491-1.11-5.446.128-7.855" transform="translate(-292.599 -219.557)" fill="#002b4d"/>
      <path id="Path_1782" data-name="Path 1782" d="M300.92,199.705c.554-1.086,2.043-.283,2.36.569.4,1.062-.379,2.8-1.6,2.908a.22.22,0,0,1-.189-.328c.287-.481.76-.73,1.025-1.184a.313.313,0,0,1-.156-.176,4.745,4.745,0,0,0-.357-.838,4.929,4.929,0,0,0-.656-.639.347.347,0,0,1-.113-.127l-.143.036a.152.152,0,0,1-.169-.22" transform="translate(-275.28 -182.22)" fill="#ff6b42"/>
      <path id="Path_1783" data-name="Path 1783" d="M316.6,224.654c.092-.149.227-.285.321-.419.189-.271.379-.543.565-.816a.072.072,0,0,1,.054-.03c.038-.064.077-.128.112-.193s.178-.023.143.06a7.278,7.278,0,0,1-.565,1.171c-.028.043-.057.091-.087.142a2.424,2.424,0,0,1-.2.4,1.9,1.9,0,0,0-.145,1.3,1.852,1.852,0,0,0,.628.934c.228.187.458.281.6.543a.149.149,0,0,1-.088.215c-.844.328-1.59-.965-1.694-1.639a2.563,2.563,0,0,1,.358-1.666" transform="translate(-289.298 -204.157)" fill="#002b4d"/>
      <path id="Path_1784" data-name="Path 1784" d="M116.24,361.021s-2.243,2.483-4.03,4.525-2.284,3.209-2.546,3.027-2.813-6.865-2.813-6.865-4.852,1.76-6.548,3.346-4.212,3.993-4.321,8.26,3.009,7.056,3.227,9.025,0,5.087.6,6.509a9.934,9.934,0,0,0,1.86,2.68,32.91,32.91,0,0,0,9.244.93c5.47-.164,9.441-.383,10.535-3.008s.438-5.634.492-7.931,4.4-14.6,3.14-16.41-8.843-4.088-8.843-4.088" transform="translate(-87.807 -330.28)" fill="#0062ad"/>
      <path id="Path_1785" data-name="Path 1785" d="M397.177,395.641a23.417,23.417,0,0,1,8.115,7.923c3.118,5.251,7.275,11.159,7,14.331s-2.27,4.048-3.761,5.8-5.7,3.884-7.343,3.173-3.774-4.65-3.72-6.29,3.063-4.65,2.79-5.853-5.076-7.111-5.273-7.111,2.19-11.971,2.19-11.971" transform="translate(-361.343 -361.952)" fill="#0062ad"/>
      <path id="Path_1786" data-name="Path 1786" d="M263.266,361.021s2.238.874,2.347,1.749-1.4.861-2.486,2.01a24.9,24.9,0,0,1-2.662,2.817,5.391,5.391,0,0,1-3.775.975s2.6-3.592,3.9-5.2a22.4,22.4,0,0,1,2.681-2.356" transform="translate(-234.833 -330.28)" fill="#fff"/>
      <path id="Path_1787" data-name="Path 1787" d="M196.29,369.086s-2.245.666-2.518,1.341,1.459,1.951,1.914,2.662.346,1.295,1.039,2.06a3.97,3.97,0,0,0,2.377.8s-1.01-3.136-1.393-4.066-1.42-2.8-1.42-2.8" transform="translate(-177.246 -337.658)" fill="#fff"/>
      <path id="Path_1788" data-name="Path 1788" d="M127.771,431.486a7.051,7.051,0,0,1,.323-2.719,21.429,21.429,0,0,0,1.162-2.842c.057-.276.479-.159.422.116a10.386,10.386,0,0,1-.909,2.259,6.6,6.6,0,0,0-.56,3.186c.1,2.085.777,4.095.912,6.182.252,3.908-1.514,8.319.9,11.836.16.233-.219.452-.378.221-2.408-3.509-.752-7.757-.937-11.65-.106-2.231-.824-4.366-.934-6.589" transform="translate(-116.878 -389.513)"/>
      <path id="Path_1789" data-name="Path 1789" d="M321.008,259.918c.266-.253,1-.37,1.183-.492s.449-.377.656-.183c.685.637-1.388,2.12-1.91.984a.25.25,0,0,1,.07-.308" transform="translate(-293.586 -237.104)" fill="#d42e00"/>
      <path id="Path_1790" data-name="Path 1790" d="M223.946,204.317c.067-.273.489-.158.422.116-.231.937-1.1,2.224-.385,3.124.174.218-.134.53-.309.309-.881-1.107-.014-2.386.272-3.55" transform="translate(-204.276 -186.776)" fill="#d94921"/>
    </g>
  </g>
</svg>
