<svg xmlns="http://www.w3.org/2000/svg" xmlns:xlink="http://www.w3.org/1999/xlink" width="48" height="48" viewBox="0 0 48 48">
  <defs>
    <clipPath id="clip-path">
      <circle id="Ellipse_579" data-name="Ellipse 579" cx="24" cy="24" r="24" transform="translate(0 48) rotate(-90)" fill="none"/>
    </clipPath>
  </defs>
  <g id="Haiden_Corey" data-name="Haiden Corey" transform="translate(0 -0.002)">
    <g id="Group_668" data-name="Group 668" transform="translate(0 0.002)" clip-path="url(#clip-path)">
      <path id="Path_1690" data-name="Path 1690" d="M48,24A24,24,0,1,1,24,0,24,24,0,0,1,48,24" transform="translate(0 -0.002)" fill="#ffdfb9"/>
      <path id="Path_1691" data-name="Path 1691" d="M44.241,472.391a23.706,23.706,0,0,1-.458,4.872c-.516,2.383-.818,10.589-1.291,13.61s-.414,17.913-.3,20.454a38.421,38.421,0,0,1-.083,6.35c-.223,1.981-.168,4.53,1.41,6.178a11.654,11.654,0,0,0,4.347,2.484s2.427-45.016,2.573-45.585-6.2-8.363-6.2-8.363" transform="translate(-38.44 -432.167)" fill="#001526"/>
      <path id="Path_1692" data-name="Path 1692" d="M197.084,105.132l-1.031,6.037a7.107,7.107,0,0,1-1.536,3.494c-.213.2-.513.473-.872.787-1.624,1.423-4.456,3.685-5.971,3.565a11.809,11.809,0,0,1-3.449-2.865,4.236,4.236,0,0,1-.763-1.187,13.105,13.105,0,0,1-.643-3.092c-.255-2.054-.319-3.186-.383-4.749-.009-.246-.019-.494-.026-.745-.014-.381-.024-.771-.033-1.175-.012-.5-.026-1.111-.009-1.683,0-.087.007-.173.012-.258a3.44,3.44,0,0,1,.324-1.591c.381-.508,1.64-1.092,2.021-1.6.113-.151,1-1.373,1.128-1.324,0,0,5.224,2.073,7.07,2.6s4.163,3.78,4.163,3.78" transform="translate(-166.832 -90.34)" fill="#a6462b"/>
      <path id="Path_1693" data-name="Path 1693" d="M197.8,270.185s6.862,8.759,7.082,8.684,9.188-10.3,9.188-10.3-3.17-1.8-3.364-2.379-.777-8.458-.777-8.458-4.076,1.6-4.282,1.614-4.369,3.1-4.369,3.1.025.319.064.808c.022.308.049.679.079,1.082.048.654.1,1.381.131,2.015.017.272.031.528.04.75.021.476.023.34,0,.414a35.766,35.766,0,0,1-3.792,2.67" transform="translate(-180.955 -235.791)" fill="#a6462b"/>
      <path id="Path_1694" data-name="Path 1694" d="M290.2,204.37c.107-.431.612-.368.681.054.04.245.078.7-.171.859a.333.333,0,0,1-.477-.2,1.374,1.374,0,0,1-.033-.71" transform="translate(-265.46 -186.698)"/>
      <path id="Path_1695" data-name="Path 1695" d="M213.981,369.1s.894-2.043,1.651-2.148,3.652,2.851,3.652,2.851-2.489.917-2.678.917-2.626-1.621-2.626-1.621" transform="translate(-195.76 -335.699)" fill="#ffd6b3"/>
      <path id="Path_1696" data-name="Path 1696" d="M276.263,355.5s4.877-4.139,6.55-4.185c.729-.02,2.758,2.613,2.758,2.613s-3.427,1.235-3.575,1.36-5.732.212-5.732.212" transform="translate(-252.739 -321.4)" fill="#ffd6b3"/>
      <path id="Path_1697" data-name="Path 1697" d="M199.839,209.543c.1-.391.554-.333.617.049.036.222.071.636-.155.778a.3.3,0,0,1-.432-.184,1.243,1.243,0,0,1-.03-.643" transform="translate(-182.796 -191.457)"/>
      <path id="Path_1698" data-name="Path 1698" d="M233.387,218.033c.085-.65.3-1.279.417-1.922.056-.3.509-.16.452.137-.09.475-.222.941-.322,1.414a2.271,2.271,0,0,0,.376,1.88c.157.262-.258.489-.414.228a2.607,2.607,0,0,1-.509-1.738" transform="translate(-213.499 -197.557)" fill="#822f19"/>
      <path id="Path_1699" data-name="Path 1699" d="M240.512,325.324c.541-.07,1.264-.181,2.058-.347,1.683-.351,3.347-1.944,3.28-3.065-.033-.562-.671-.583-.893-.494a19.56,19.56,0,0,1-3.328,1.306,2.871,2.871,0,0,1-1.288-.165c.048.654.1,1.381.131,2.015.017.272.031.528.04.75" transform="translate(-219.876 -294.013)" fill="#822f19"/>
      <path id="Path_1700" data-name="Path 1700" d="M187.247,184.024a.33.33,0,0,0-.145-.18,1.625,1.625,0,0,0-.849-.259,4.885,4.885,0,0,0-1.421.1,2.263,2.263,0,0,0-.727.27c-.136.085-.271.231-.228.386a.292.292,0,0,0,.2.186.854.854,0,0,0,.281.026c.679-.014,1.359-.041,2.033-.12.2-.023.909-.145.857-.4" transform="translate(-168.212 -167.939)"/>
      <path id="Path_1701" data-name="Path 1701" d="M274.717,180.318a.33.33,0,0,1,.132-.19,1.625,1.625,0,0,1,.83-.316,4.881,4.881,0,0,1,1.424,0,2.262,2.262,0,0,1,.744.22c.142.076.286.212.254.369a.292.292,0,0,1-.186.2.855.855,0,0,1-.279.045c-.678.032-1.359.052-2.037.018-.2-.01-.916-.083-.883-.343" transform="translate(-251.323 -164.453)"/>
      <path id="Path_1702" data-name="Path 1702" d="M170.717,156.817a.006.006,0,0,0,0,.011.006.006,0,0,0,0-.011" transform="translate(-156.176 -143.464)"/>
      <path id="Path_1703" data-name="Path 1703" d="M182.153,78.424a3.545,3.545,0,0,1,2.483-.954c.867,0,1.424.919,3.262.827,1.978-.1,3.408-.827,4.169-.827a2.547,2.547,0,0,1,2.3,1.97c.394,1.064,1.224,7.751,1.224,7.751a49.382,49.382,0,0,0,1.618-5.543c.586-3.039.074-6.5-2.408-8.471s-6.382-2.324-8.47-1.3-4.056,2.64-4.184,4.649c-.049.763.008,1.9.008,1.9" transform="translate(-166.617 -65.244)"/>
      <path id="Path_1704" data-name="Path 1704" d="M319.791,192.69c-.185.1-.078.343.1.361h.009a.666.666,0,0,0,.074.32,1.91,1.91,0,0,1,.314,1.339c-.108.6-.455,1.28-.262,1.882a16.562,16.562,0,0,0-.9,1.676c-.058.178.147.3.293.225,1.293-.623,2.214-2.854,2.186-4.256-.02-1.026-.687-2.146-1.808-1.549" transform="translate(-291.938 -176.13)" fill="#a6462b"/>
      <path id="Path_1705" data-name="Path 1705" d="M215.052,188.356c-.34,3.073-1.077,5.326-2.113,6.456-1.625,1.773-2.956,2.455-5.223,2.153-1.189-.158-2.321-1.525-3.449-2.865.088.105.537.143.679.167a2.342,2.342,0,0,0,1.605-.273,4.675,4.675,0,0,0,1.214-1.363c.139-.19.425-.122.61-.053a1.293,1.293,0,0,1,.552.433c1.214,1.345,3.015.413,3.96-.762a9.8,9.8,0,0,0,1.7-4.445c.214-1.26.237-2.541.424-3.8a.05.05,0,0,1,.1,0,22.34,22.34,0,0,1-.054,4.354" transform="translate(-186.874 -168.291)"/>
      <path id="Path_1706" data-name="Path 1706" d="M231.84,275.454a.669.669,0,0,0-.345-.071c-.871.022-1.743.052-2.614.07-.683.014-.647.411-.253.747a2.727,2.727,0,0,0,2.1.433,2.265,2.265,0,0,0,1.115-.5c.244-.235.241-.539,0-.675" transform="translate(-208.903 -251.933)" fill="#fff"/>
      <path id="Path_1707" data-name="Path 1707" d="M104.447,401.775v0c-.035.338-.069.624-.1.853-.035.251-.08.581-.137.981-.045.324-.095.688-.149,1.09-.087.655-.189,1.4-.3,2.21-.045.343-.092.7-.139,1.057-.125.964-.258,1.983-.39,3.009-.215,1.643-.425,3.3-.607,4.768-.014.109-.026.217-.04.324v0c-.13,1.066-.246,2.016-.329,2.761-.1.872-.158,1.466-.158,1.645,0,.388.184,3.08.4,6.278.345,5.077,2.654,8.377-.286,12.448-1.548,2.144-4.962,3.612-11.935,3.848-12.433.421-13.315.827-18.887-1.1a7.208,7.208,0,0,1-3-2.208c-.213-.213.541-7.058,1.132-12.514,0,0,0-.007,0-.009.314-2.888.636-5.831.856-8.12.031-.331.061-.648.088-.948.118-1.291.189-2.283.189-2.815,0-.132,0-.3,0-.492-.007-.943-.04-2.579-.08-4.574-.009-.4-.017-.82-.026-1.248-.014-.662-.028-1.352-.043-2.061-.007-.274-.012-.553-.019-.832-.024-1.083-.045-2.2-.069-3.309-.043-2.172-.08-4.337-.106-6.24-.047-3.444-2.317-6.651-2.217-6.883.125-.286,4.3-1.8,6.944-3.413,3.706-2.262,5.475-3.417,5.475-3.417a20.653,20.653,0,0,0,6.219.7c2.522-.028,8.391-1.572,8.391-1.572s8.763,4.174,8.982,4.5a32.826,32.826,0,0,1,0,5.548c-.073,1.789-.177,3.768-.293,5.545-.1,1.558.733,3.2.631,4.181" transform="translate(-62.296 -349.473)" fill="#d42e00"/>
      <path id="Path_1708" data-name="Path 1708" d="M473.913,434.855s4.535,2.534,6.33,5.065a91.915,91.915,0,0,1,7.883,15.427c1.36,3.6,2.275,18.891-1.921,22.393s-5.318,5.629-7.919,5.747-2.007-2.9-2.953-3.963-3.228-3.378-2.453-5.335c1.6-4.042,3.006-5.772,3.9-8.194s-4.465-15.6-4.465-15.6Z" transform="translate(-432.099 -397.827)" fill="#d42e00"/>
    </g>
  </g>
</svg>
