<svg xmlns="http://www.w3.org/2000/svg" xmlns:xlink="http://www.w3.org/1999/xlink" width="48" height="48" viewBox="0 0 48 48">
  <defs>
    <clipPath id="clip-avatar">
      <rect width="48" height="48"/>
    </clipPath>
  </defs>
  <g id="avatar" clip-path="url(#clip-avatar)">
    <g id="Group_210" data-name="Group 210">
      <path id="Path_2470" data-name="Path 2470" d="M48,24a23.769,23.769,0,0,1-2.32,10.28,23.474,23.474,0,0,1-1.46,2.65c-.18.28-.36.55-.56.82-.2.29-.41.58-.63.86a23.054,23.054,0,0,1-2.06,2.36,23.958,23.958,0,0,1-35.4-1.64c-.22-.25-.42-.5-.62-.76a8.866,8.866,0,0,1-.54-.71,24.086,24.086,0,0,1-2.09-3.58A24,24,0,0,1,24,0,24,24,0,0,1,48,24Z" fill="#505050"/>
      <rect id="Rectangle_244" data-name="Rectangle 244" width="18" height="18" rx="9" transform="translate(15 6)" fill="#757575"/>
      <path id="Path_2471" data-name="Path 2471" d="M43.03,38.61a23.054,23.054,0,0,1-2.06,2.36,23.958,23.958,0,0,1-35.4-1.64,21.482,21.482,0,0,1,37.46-.72Z" fill="#757575"/>
    </g>
  </g>
</svg>
