<svg id="activity" xmlns="http://www.w3.org/2000/svg" width="54" height="54" viewBox="0 0 54 54">
  <circle id="Ellipse_28" data-name="Ellipse 28" cx="27" cy="27" r="27" fill="#dc691d"/>
  <g id="Group_486" data-name="Group 486" transform="translate(6.517 37.24)">
    <path id="Path_349" data-name="Path 349" d="M138.925,428.38a.942.942,0,0,1-.3-.05,25.992,25.992,0,0,1-5.794-2.894.931.931,0,1,1,1.016-1.56,24.184,24.184,0,0,0,5.379,2.692.931.931,0,0,1-.3,1.812Z" transform="translate(-124.959 -416.275)" fill="#ef9665"/>
    <path id="Path_350" data-name="Path 350" d="M65.516,358.676a.929.929,0,0,1-.727-.349c-.209-.26-.439-.533-.676-.816a17.252,17.252,0,0,1-2.222-3.072.931.931,0,0,1,1.663-.838,16.009,16.009,0,0,0,1.985,2.712c.247.293.485.578.7.849a.931.931,0,0,1-.725,1.514Z" transform="translate(-61.79 -353.088)" fill="#ef9665"/>
  </g>
  <g id="Group_487" data-name="Group 487" transform="translate(1.374 0.632)">
    <path id="Path_351" data-name="Path 351" d="M57.07,79.448h-.084q-.85.892-1.619,1.86l1.7,0c12.321,0,22.345,11.9,22.345,26.534,0,6.515-1.582,12.282-4.579,16.684l-.305.458c.66.049,1.325.082,2,.082.055,0,.11,0,.165,0a31.612,31.612,0,0,0,4.584-17.22C81.277,92.186,70.418,79.448,57.07,79.448Z" transform="translate(-50.902 -71.701)" fill="#c5411e"/>
    <path id="Path_352" data-name="Path 352" d="M176.664,5.994a27.025,27.025,0,0,0-2.866.8l.874.364c12.459,5.015,20.83,20.569,20.83,38.706a54.36,54.36,0,0,1-.9,8.576l-.509,2.3c.743-.355,1.465-.745,2.168-1.164l.159-.719.02-.122a55.721,55.721,0,0,0,.925-8.869C197.364,27.6,189.1,11.8,176.664,5.994Z" transform="translate(-156.842 -5.994)" fill="#c5411e"/>
    <path id="Path_353" data-name="Path 353" d="M423.719,91.911c-4.165-2.654-6.96-10.542-6.96-19.662a37.972,37.972,0,0,1,.76-7.617q-.789-.814-1.644-1.559l-.072.616a39.645,39.645,0,0,0-.906,8.559c0,9.927,3.1,18.276,7.886,21.272a.928.928,0,0,0,.108.058l.224.1q.353-.86.647-1.751Z" transform="translate(-372.512 -57.054)" fill="#c5411e"/>
    <path id="Path_354" data-name="Path 354" d="M64.859,178.431c-.155-.628-.335-1.248-.534-1.858-21.245-.116-38.5,5.555-51.294,16.88.21.633.439,1.258.694,1.87l.413-.367c12.535-11.158,29.554-16.713,50.588-16.524Z" transform="translate(-13.03 -158.58)" fill="#c5411e"/>
  </g>
</svg>
