<svg xmlns="http://www.w3.org/2000/svg" width="54" height="53.998" viewBox="0 0 54 53.998">
  <g id="flags" transform="translate(-2.133)">
    <path id="Path_363" data-name="Path 363" d="M156.516,141.166l12.712,17.212c-9.562,3.15-31.611,2.475-40.161-1.912v-30.6c8.437,4.387,30.6,5.175,40.161,1.912l-12.712,13.387Z" transform="translate(-113.095 -112.592)" fill="#fc644f"/>
    <path id="Path_364" data-name="Path 364" d="M129.067,256.541l6.862-3.375-5.062-15.3-1.8,2.587Z" transform="translate(-113.417 -212.78)" fill="#f1543f"/>
    <path id="Path_365" data-name="Path 365" d="M40.533,44.367V74.853s7.987-2.137,16.087,4.837V49.317C48.52,42.23,40.533,44.367,40.533,44.367Z" transform="translate(-34.35 -39.417)" fill="#ff7058"/>
    <path id="Path_366" data-name="Path 366" d="M5.283,0h0a3.122,3.122,0,0,0-3.15,3.037V54H8.32V3.037A3.025,3.025,0,0,0,5.283,0Z" fill="#40596b"/>
  </g>
</svg>
