<svg xmlns="http://www.w3.org/2000/svg" width="58" height="54" viewBox="0 0 58 54">
  <g id="food-drink" transform="translate(0 -21.472)">
    <path id="Path_317" data-name="Path 317" d="M80.169,272.158a3.878,3.878,0,0,1-1.108,2.726,3.743,3.743,0,0,1-2.677,1.129h-43.8a3.821,3.821,0,0,1-3.785-3.855,3.877,3.877,0,0,1,1.108-2.726,3.743,3.743,0,0,1,2.677-1.129h43.8a3.783,3.783,0,0,1,3.446,2.258A3.9,3.9,0,0,1,80.169,272.158Z" transform="translate(-25.484 -218.414)" fill="#884d00"/>
    <path id="Path_318" data-name="Path 318" d="M82.477,270.561a3.883,3.883,0,0,1-.769,1.128,3.742,3.742,0,0,1-2.676,1.129H35.244a3.786,3.786,0,0,1-3.446-2.256,3.864,3.864,0,0,1,.769-1.129,3.742,3.742,0,0,1,2.676-1.129H79.031A3.782,3.782,0,0,1,82.477,270.561Z" transform="translate(-28.137 -218.415)" fill="#aa6100"/>
    <path id="Path_319" data-name="Path 319" d="M58,333.76a12.783,12.783,0,0,1-5.92,11.106c-3.659,2.449-8.712,3.656-14.294,3.656H20.214C9.051,348.521,0,343.694,0,333.76a3.347,3.347,0,0,1,.381-1.551,3.729,3.729,0,0,1,.842-1.075,4.433,4.433,0,0,1,2.951-1.088H53.826a4.232,4.232,0,0,1,3.793,2.163A3.349,3.349,0,0,1,58,333.76Z" transform="translate(0 -273.049)" fill="#ffa733"/>
    <path id="Path_320" data-name="Path 320" d="M60.588,332.21a12.739,12.739,0,0,1-5.538,7.743c-3.658,2.449-8.71,3.656-14.291,3.656H23.191c-9.82,0-18-3.736-19.829-11.4a3.728,3.728,0,0,1,.842-1.075,4.432,4.432,0,0,1,2.951-1.088H56.8A4.231,4.231,0,0,1,60.588,332.21Z" transform="translate(-2.975 -273.05)" fill="#ffb655"/>
    <path id="Path_321" data-name="Path 321" d="M186.1,254.252l-9.972,9.972a5.427,5.427,0,0,1-7.675,0l-9.972-9.972Z" transform="translate(-140.783 -205.981)" fill="#eebf00"/>
    <path id="Path_322" data-name="Path 322" d="M227.848,254.252l-9.972,9.972a5.459,5.459,0,0,1-.8.66,5.383,5.383,0,0,1-2.081-1.3l-9.334-9.334h22.188Z" transform="translate(-182.591 -205.981)" fill="#ffd422"/>
    <path id="Path_323" data-name="Path 323" d="M65.479,237.149a4.741,4.741,0,0,1-.269,1.578c-.72,2.043-2.648,2.836-4.15,1.708l-1.8-1.353a2.518,2.518,0,0,0-3.771.911l-.077.123a2.525,2.525,0,0,1-3.639,1l-4.035-2.683a2.38,2.38,0,0,0-2.928.179l-3.233,2.675a2.387,2.387,0,0,1-3.065.083l-3.688-2.78a2.382,2.382,0,0,0-3.037.06l-3.358,2.712a2.381,2.381,0,0,1-2.967.111L21.113,238.4a2.363,2.363,0,0,0-2.754-.044l-4.056,2.7a4.209,4.209,0,0,1-4.015-1.663,4.672,4.672,0,0,1-.362-3.636,3.042,3.042,0,0,1,2.734-2.406H62.537a3.054,3.054,0,0,1,2.733,2.4A4.713,4.713,0,0,1,65.479,237.149Z" transform="translate(-8.599 -187.487)" fill="#6dc82a"/>
    <path id="Path_324" data-name="Path 324" d="M66.91,235.75c-.018.06-.038.119-.059.179-.72,2.044-2.647,2.838-4.15,1.709l-1.8-1.354a2.519,2.519,0,0,0-3.77.911l-.077.125a2.525,2.525,0,0,1-3.638,1l-4.034-2.683a2.378,2.378,0,0,0-2.928.179l-3.233,2.675a2.387,2.387,0,0,1-3.065.081l-3.688-2.78a2.383,2.383,0,0,0-3.036.06l-3.358,2.713a2.382,2.382,0,0,1-2.967.111l-4.348-3.072a2.359,2.359,0,0,0-2.753-.044l-4.055,2.7a4.205,4.205,0,0,1-4.014-1.663,4.325,4.325,0,0,1-.362-.839,3.041,3.041,0,0,1,2.733-2.406H64.178A3.054,3.054,0,0,1,66.91,235.75Z" transform="translate(-10.242 -187.485)" fill="#7ed63e"/>
    <path id="Path_325" data-name="Path 325" d="M72.31,182.844a3.956,3.956,0,0,1-.145,1.147,3.811,3.811,0,0,1-3.652,2.8c-6.807,0-24.936-.156-27.67-.064l-.182.006c-3.453.133-4.239.7-4.239,2.569v6.853a1.286,1.286,0,0,1-.367.9,1.239,1.239,0,0,1-.887.374,1.266,1.266,0,0,0-1.255,1.277v2.985a3.735,3.735,0,0,1-.1.88,3.678,3.678,0,0,1-3.573,2.844h-.093a3.6,3.6,0,0,1-3.569-3.644l.017-5.4a1.514,1.514,0,0,1,.435-1.062,1.463,1.463,0,0,1,1.046-.44,1.494,1.494,0,0,0,1.48-1.506V189.3a2.49,2.49,0,0,0-2.468-2.512H22.464A3.877,3.877,0,0,1,18.594,183a3.834,3.834,0,0,1,3.8-3.944H68.438A3.877,3.877,0,0,1,72.31,182.844Z" transform="translate(-16.453 -139.445)" fill="#ff3501"/>
    <path id="Path_326" data-name="Path 326" d="M105.467,182.844a3.962,3.962,0,0,1-.145,1.147c-7.195-.007-24.387-.152-27.042-.064-3.6.121-4.415.671-4.415,2.576v.226c-3.448.133-4.233.7-4.233,2.569v6.853a1.287,1.287,0,0,1-.367.9,1.236,1.236,0,0,1-.885.374,1.265,1.265,0,0,0-1.253,1.277v2.985a3.74,3.74,0,0,1-.1.88,3.613,3.613,0,0,1-2.991-3.6l.016-5.4a1.513,1.513,0,0,1,.434-1.062,1.46,1.46,0,0,1,1.044-.44A1.493,1.493,0,0,0,67,190.565V186.5a2.488,2.488,0,0,0-2.464-2.512H59.928a3.874,3.874,0,0,1-3.864-3.784,3.933,3.933,0,0,1,.146-1.148H101.6A3.874,3.874,0,0,1,105.467,182.844Z" transform="translate(-49.609 -139.445)" fill="#ff5023"/>
    <path id="Path_327" data-name="Path 327" d="M87.24,144.94l-8.55,8.553a7.605,7.605,0,0,1-10.756,0l-8.553-8.553Z" transform="translate(-52.545 -109.253)" fill="#eebf00"/>
    <path id="Path_328" data-name="Path 328" d="M124.688,144.94l-8.55,8.553a7.546,7.546,0,0,1-2.943,1.827,7.538,7.538,0,0,1-2.941-1.827L101.7,144.94Z" transform="translate(-90.3 -109.253)" fill="#ffd422"/>
    <path id="Path_329" data-name="Path 329" d="M58,36.89c0,.064,0,.126-.006.188a3.2,3.2,0,0,1-.911,2.064,3.1,3.1,0,0,1-2.216.932H3.133A3.159,3.159,0,0,1,0,36.89a11.081,11.081,0,0,1,4.369-8.848,24.072,24.072,0,0,1,7.7-3.983A60.932,60.932,0,0,1,29,21.473S58,21.313,58,36.89Z" fill="#ffa733"/>
    <path id="Path_330" data-name="Path 330" d="M107.735,36.89c0,.064,0,.126-.006.188h-48.4a3.156,3.156,0,0,1-3.127-3.184,11.088,11.088,0,0,1,4.36-8.848q.632-.521,1.328-.987a60.7,60.7,0,0,1,16.9-2.586S107.735,21.313,107.735,36.89Z" transform="translate(-49.735)" fill="#ffb655"/>
    <g id="Group_485" data-name="Group 485" transform="translate(12.963 25.408)">
      <path id="Path_331" data-name="Path 331" d="M370.3,60.54a1.347,1.347,0,1,1-1.959,1.851c-.511-.541-1.452-2.415-.911-2.926S369.786,60,370.3,60.54Z" transform="translate(-338.422 -58.905)" fill="#fff5cc"/>
      <path id="Path_332" data-name="Path 332" d="M310.491,111.438a1.347,1.347,0,1,1-2.516.966c-.267-.695-.423-2.785.271-3.052S310.224,110.744,310.491,111.438Z" transform="translate(-285.758 -103.145)" fill="#fff5cc"/>
      <path id="Path_333" data-name="Path 333" d="M246.992,58.406a1.347,1.347,0,1,1-2.695,0c0-.744.6-2.752,1.347-2.752S246.992,57.662,246.992,58.406Z" transform="translate(-229.611 -55.654)" fill="#fff5cc"/>
      <path id="Path_334" data-name="Path 334" d="M182.969,111.854a1.347,1.347,0,1,1-2.609-.674c.186-.72,1.272-2.514,1.993-2.328S183.155,111.134,182.969,111.854Z" transform="translate(-172.996 -102.716)" fill="#fff5cc"/>
      <path id="Path_335" data-name="Path 335" d="M119.291,60.158a1.347,1.347,0,0,1-2.425-1.175c.324-.67,1.743-2.214,2.412-1.889S119.615,59.488,119.291,60.158Z" transform="translate(-116.731 -56.889)" fill="#fff5cc"/>
    </g>
  </g>
</svg>
