<svg id="objects" xmlns="http://www.w3.org/2000/svg" width="45" height="53.999" viewBox="0 0 45 53.999">
  <path id="Path_355" data-name="Path 355" d="M213.34,9.328l-.934.934a3.4,3.4,0,0,1-2.385.988h-2.637A3.4,3.4,0,0,1,205,10.262l-.931-.934a3.4,3.4,0,0,1-.988-2.385V0h11.25V6.943A3.4,3.4,0,0,1,213.34,9.328Z" transform="translate(-186.16 42.749)" fill="#455a64"/>
  <g id="Group_489" data-name="Group 489">
    <path id="Path_356" data-name="Path 356" d="M246.869,435.667a1.125,1.125,0,0,1-1.125-1.125v-6.75a1.125,1.125,0,0,1,2.25,0v6.75A1.125,1.125,0,0,1,246.869,435.667Z" transform="translate(-224.326 -426.667)" fill="#ffe082"/>
    <path id="Path_357" data-name="Path 357" d="M133.261,411.893a1.125,1.125,0,0,1-1.537-.412l-3.375-5.85a1.125,1.125,0,0,1,1.9-1.207q.025.04.047.082l3.375,5.85A1.125,1.125,0,0,1,133.261,411.893Z" transform="translate(-119.123 -400.643)" fill="#ffe082"/>
    <path id="Path_358" data-name="Path 358" d="M48.542,347.043l-5.85-3.375a1.125,1.125,0,1,1,1.043-1.994q.042.022.082.047l5.85,3.375a1.125,1.125,0,0,1-1.125,1.946Z" transform="translate(-42.088 -329.194)" fill="#ffe082"/>
    <path id="Path_359" data-name="Path 359" d="M333.387,411.764a1.125,1.125,0,0,1-1.946-1.125l3.375-5.85a1.125,1.125,0,0,1,1.994,1.043q-.022.042-.047.082Z" transform="translate(-300.902 -400.915)" fill="#ffe082"/>
    <path id="Path_360" data-name="Path 360" d="M400.688,343.172l-5.85,3.375a1.125,1.125,0,1,1-1.207-1.9q.04-.025.082-.047l5.85-3.375a1.125,1.125,0,0,1,1.125,1.946Z" transform="translate(-356.209 -328.697)" fill="#ffe082"/>
  </g>
  <path id="Path_361" data-name="Path 361" d="M141.634,110.152a.675.675,0,0,0-.255.4c-.448,2.338-1.649,8.55-5.364,8.55h-7.681c-3.724,0-4.916-6.226-5.378-8.572a.675.675,0,0,0-.253-.383,13.755,13.755,0,0,1-.948-20.56,14.669,14.669,0,0,1,10.419-4.232h.242A14.8,14.8,0,0,1,142.886,90a13.729,13.729,0,0,1,3.852,9.981A13.969,13.969,0,0,1,141.634,110.152Z" transform="translate(-109.63 -74.106)" fill="#ffc107"/>
</svg>
