<svg id="smileys-people" xmlns="http://www.w3.org/2000/svg" width="54" height="54" viewBox="0 0 54 54">
  <circle id="Ellipse_19" data-name="Ellipse 19" cx="27" cy="27" r="27" fill="#ffd93b"/>
  <path id="Path_307" data-name="Path 307" d="M104.738,77.738A27,27,0,0,1,56.72,94.689,27,27,0,0,0,94.689,56.72,26.971,26.971,0,0,1,104.738,77.738Z" transform="translate(-50.738 -50.738)" fill="#f4c534"/>
  <path id="Path_308" data-name="Path 308" d="M117.377,314.242a19.008,19.008,0,0,1-36.99-.017.846.846,0,0,1,1.063-1.013,58.9,58.9,0,0,0,34.864.017A.838.838,0,0,1,117.377,314.242Z" transform="translate(-71.888 -280.146)" fill="#3e4347"/>
  <path id="Path_309" data-name="Path 309" d="M152.378,391.1c-6.912,0-11.836-2.033-10.878,2.773.005.025.015.049.02.074a18.979,18.979,0,0,0,23.888,0c.005-.027.015-.051.02-.076C166.387,389.063,159.291,391.1,152.378,391.1Z" transform="translate(-126.469 -349.466)" fill="#e24b4b"/>
  <path id="Path_310" data-name="Path 310" d="M93.232,314.192c1.021,3.662,8.294,6.487,17.128,6.487,8.8,0,16.051-2.8,17.115-6.448A58.861,58.861,0,0,1,93.232,314.192Z" transform="translate(-83.399 -281.055)" fill="#fff"/>
  <circle id="Ellipse_20" data-name="Ellipse 20" cx="10.383" cy="10.383" r="10.383" transform="translate(27.881 12.251)" fill="#f4c534"/>
  <path id="Path_311" data-name="Path 311" d="M296.1,138.684a9.534,9.534,0,0,1-9.381,8.94,8.355,8.355,0,0,1-8.405-8.94,9.562,9.562,0,0,1,9.4-8.956A8.356,8.356,0,0,1,296.1,138.684Z" transform="translate(-248.948 -116.046)" fill="#fff"/>
  <path id="Path_312" data-name="Path 312" d="M331.24,178.837a4.212,4.212,0,1,1-4.212-4.214A4.2,4.2,0,0,1,331.24,178.837Z" transform="translate(-288.769 -156.206)" fill="#3e4347"/>
  <ellipse id="Ellipse_21" data-name="Ellipse 21" cx="1.257" cy="0.807" rx="1.257" ry="0.807" transform="translate(40.123 22.545) rotate(-135)" fill="#fff"/>
  <circle id="Ellipse_22" data-name="Ellipse 22" cx="10.383" cy="10.383" r="10.383" transform="translate(5.354 12.251)" fill="#f4c534"/>
  <path id="Path_313" data-name="Path 313" d="M64.825,138.684a9.534,9.534,0,0,0,9.381,8.94,8.355,8.355,0,0,0,8.405-8.94,9.562,9.562,0,0,0-9.4-8.956A8.355,8.355,0,0,0,64.825,138.684Z" transform="translate(-57.975 -116.046)" fill="#fff"/>
  <path id="Path_314" data-name="Path 314" d="M109.312,178.837a4.212,4.212,0,1,0,4.212-4.214A4.2,4.2,0,0,0,109.312,178.837Z" transform="translate(-97.783 -156.206)" fill="#3e4347"/>
  <ellipse id="Ellipse_23" data-name="Ellipse 23" cx="0.807" cy="1.257" rx="0.807" ry="1.257" transform="translate(13.877 22.548) rotate(-135)" fill="#fff"/>
  <g id="Group_484" data-name="Group 484" transform="translate(5.118 5.982)">
    <path id="Path_315" data-name="Path 315" d="M59.773,58.43s-5.486-.771-11.245,5.9C48.528,64.326,52.252,52.382,59.773,58.43Z" transform="translate(-48.528 -56.721)" fill="#3e4347"/>
    <path id="Path_316" data-name="Path 316" d="M356.848,58.43s5.486-.771,11.245,5.9C368.093,64.326,364.369,52.382,356.848,58.43Z" transform="translate(-324.33 -56.721)" fill="#3e4347"/>
  </g>
</svg>
