<svg xmlns="http://www.w3.org/2000/svg" width="85.227" height="12.624" viewBox="0 0 85.227 12.624"><g transform="translate(0 0)"><path d="M1534.651,899.611a.462.462,0,0,1-.456-.54l.685-3.994-2.906-2.828a.462.462,0,0,1,.256-.788l4.01-.582,1.793-3.634a.463.463,0,0,1,.415-.258h0a.462.462,0,0,1,.414.258l1.793,3.634,4.01.582a.462.462,0,0,1,.256.788l-2.906,2.828.685,3.994a.462.462,0,0,1-.671.487l-3.579-1.886-3.587,1.886A.455.455,0,0,1,1534.651,899.611Z" transform="translate(-1531.836 -886.987)" fill="#f5a623"/></g><g transform="translate(18 0)"><path d="M1534.651,899.611a.462.462,0,0,1-.456-.54l.685-3.994-2.906-2.828a.462.462,0,0,1,.256-.788l4.01-.582,1.793-3.634a.463.463,0,0,1,.415-.258h0a.462.462,0,0,1,.414.258l1.793,3.634,4.01.582a.462.462,0,0,1,.256.788l-2.906,2.828.685,3.994a.462.462,0,0,1-.671.487l-3.579-1.886-3.587,1.886A.455.455,0,0,1,1534.651,899.611Z" transform="translate(-1531.836 -886.987)" fill="#f5a623"/></g><g transform="translate(36 0)"><path d="M1534.651,899.611a.462.462,0,0,1-.456-.54l.685-3.994-2.906-2.828a.462.462,0,0,1,.256-.788l4.01-.582,1.793-3.634a.463.463,0,0,1,.415-.258h0a.462.462,0,0,1,.414.258l1.793,3.634,4.01.582a.462.462,0,0,1,.256.788l-2.906,2.828.685,3.994a.462.462,0,0,1-.671.487l-3.579-1.886-3.587,1.886A.455.455,0,0,1,1534.651,899.611Z" transform="translate(-1531.836 -886.987)" fill="#f5a623"/></g><g transform="translate(54 0)"><path d="M1534.651,899.611a.462.462,0,0,1-.456-.54l.685-3.994-2.906-2.828a.462.462,0,0,1,.256-.788l4.01-.582,1.793-3.634a.463.463,0,0,1,.415-.258h0a.462.462,0,0,1,.414.258l1.793,3.634,4.01.582a.462.462,0,0,1,.256.788l-2.906,2.828.685,3.994a.462.462,0,0,1-.671.487l-3.579-1.886-3.587,1.886A.455.455,0,0,1,1534.651,899.611Z" transform="translate(-1531.836 -886.987)" fill="#f5a623"/></g><g transform="translate(72 0)"><path d="M1534.651,899.611a.462.462,0,0,1-.456-.54l.685-3.994-2.906-2.828a.462.462,0,0,1,.256-.788l4.01-.582,1.793-3.634a.463.463,0,0,1,.415-.258h0a.462.462,0,0,1,.414.258l1.793,3.634,4.01.582a.462.462,0,0,1,.256.788l-2.906,2.828.685,3.994a.462.462,0,0,1-.671.487l-3.579-1.886-3.587,1.886A.455.455,0,0,1,1534.651,899.611Z" transform="translate(-1531.836 -886.987)" fill="#f5a623"/></g></svg>