<svg xmlns="http://www.w3.org/2000/svg" width="57" height="57" viewBox="0 0 57 57">
  <g id="Edit_it_to_make_your_own_Custom_Design" data-name="Edit it to make your own Custom Design" transform="translate(-1051 -3743)">
    <circle id="Ellipse_1" data-name="Ellipse 1" cx="28.5" cy="28.5" r="28.5" transform="translate(1051 3743)" fill="#f15d63"/>
    <g id="Group_1064" data-name="Group 1064" transform="translate(399.855 3512.238)">
      <path id="Path_9344" data-name="Path 9344" d="M674.761,255.075h-4.115a2.744,2.744,0,0,0-2.744,2.744v12.345a2.743,2.743,0,0,0,2.744,2.743h12.345a2.743,2.743,0,0,0,2.743-2.743v-4.115" transform="translate(0 -1.902)" fill="none" stroke="#fff" stroke-linecap="round" stroke-linejoin="round" stroke-width="3"/>
      <path id="Path_9345" data-name="Path 9345" d="M677.069,264.147h4.115l11.659-11.66a2.91,2.91,0,0,0-4.115-4.115l-11.659,11.66v4.115" transform="translate(-2.308)" fill="none" stroke="#fff" stroke-linecap="round" stroke-linejoin="round" stroke-width="3"/>
      <line id="Line_101" data-name="Line 101" x2="4.115" y2="4.115" transform="translate(684.363 250.429)" fill="none" stroke="#fff" stroke-linecap="round" stroke-linejoin="round" stroke-width="3"/>
    </g>
  </g>
</svg>
